<svg width="107" height="107" viewBox="0 0 107 107" fill="none" xmlns="http://www.w3.org/2000/svg">
<path d="M62.4563 82.3364C69.3257 75.2316 75.4354 66.9498 76.9441 56.9239C77.7252 51.7665 77.8857 37.0433 69.0903 39.4829C62.146 41.4089 57.7483 50.1829 62.5205 56.207C64.2753 58.4219 67.4532 59.9948 70.2245 58.9462C68.245 66.4362 63.3551 72.5245 58.0693 77.9708C55.298 80.817 59.6636 85.1933 62.4563 82.3364Z" fill="#2D2926"/>
<path d="M44.2338 55.993C44.1803 56.3889 44.1268 56.7527 44.0733 57.063C43.0526 63.7036 40.3365 69.9687 36.1874 75.253C33.7692 78.356 38.1134 82.743 40.5637 79.6186C44.9102 74.2247 47.9826 67.919 49.5517 61.1718C50.7394 55.8218 52.1625 47.1441 49.4233 42.0616C44.7581 33.3946 26.001 44.8757 33.4482 54.0028C34.6982 55.587 36.4818 56.6625 38.4663 57.0287C40.4508 57.3948 42.5007 57.0268 44.2338 55.993Z" fill="#2D2926"/>
</svg>
