<svg width="60" height="60" viewBox="0 0 60 60" fill="none" xmlns="http://www.w3.org/2000/svg">
<path d="M24.9778 13.8301C21.1258 17.8141 17.6998 22.4581 16.8538 28.0801C16.4158 30.9721 16.3258 39.2281 21.2578 37.8601C25.1518 36.7801 27.6178 31.8601 24.9418 28.4821C23.9578 27.2401 22.1758 26.3581 20.6218 26.9461C21.7318 22.7461 24.4738 19.3321 27.4378 16.2781C28.9918 14.6821 26.5438 12.2281 24.9778 13.8301Z" fill="#2D2926"/>
<path d="M35.196 28.602C35.226 28.38 35.256 28.176 35.286 28.002C35.8584 24.2783 37.3814 20.7652 39.708 17.802C41.064 16.062 38.628 13.602 37.254 15.354C34.8167 18.3787 33.0939 21.9146 32.214 25.698C31.548 28.698 30.75 33.564 32.286 36.414C34.902 41.274 45.42 34.836 41.244 29.718C40.543 28.8297 39.5429 28.2266 38.4301 28.0213C37.3173 27.816 36.1678 28.0224 35.196 28.602Z" fill="#2D2926"/>
</svg>
