<?xml version="1.0" encoding="UTF-8"?> <svg xmlns="http://www.w3.org/2000/svg" width="100" height="100" viewBox="0 0 100 100" fill="none"> <path d="M28.948 70.0996C29.472 70.0996 29.982 69.8236 30.257 69.3336C49.346 35.3256 77.248 24.5086 77.528 24.4036C78.303 24.1116 78.696 23.2466 78.404 22.4716C78.114 21.6966 77.246 21.3046 76.474 21.5946C75.291 22.0376 47.295 32.8496 27.642 67.8646C27.236 68.5876 27.493 69.5016 28.215 69.9066C28.447 70.0376 28.699 70.0996 28.948 70.0996Z" fill="#F2DDDE"></path> <path d="M24.514 77.167C24.769 77.167 25.024 77.102 25.253 76.972L38.171 69.655C38.892 69.247 39.146 68.331 38.736 67.611C38.328 66.89 37.412 66.637 36.692 67.045L26.013 73.093V58.583C26.013 57.754 25.341 57.083 24.513 57.083C23.685 57.083 23.013 57.754 23.013 58.583V75.667C23.013 76.201 23.296 76.694 23.758 76.963C23.991 77.099 24.253 77.167 24.514 77.167Z" fill="#F2DDDE"></path> </svg> 