<svg width="154" height="150" viewBox="0 0 154 150" fill="none" xmlns="http://www.w3.org/2000/svg">
<rect x="4" width="150" height="150" rx="75" fill="#2D2926"/>
<path d="M30.108 93.224C21.268 93.224 14.128 89.654 8.688 82.514C3.316 75.306 0.630001 66.568 0.630001 56.3C0.630001 49.704 1.82 43.618 4.2 38.042C6.58 32.466 10.048 27.978 14.604 24.578C19.228 21.11 24.464 19.376 30.312 19.376C39.152 19.376 46.258 22.98 51.63 30.188C57.07 37.328 59.79 46.032 59.79 56.3C59.79 62.896 58.6 68.982 56.22 74.558C53.84 80.134 50.338 84.656 45.714 88.124C41.158 91.524 35.956 93.224 30.108 93.224ZM12.87 78.842C17.358 85.234 23.172 88.43 30.312 88.43C37.452 88.43 43.232 85.268 47.652 78.944C52.072 72.552 54.282 65.004 54.282 56.3C54.282 47.596 52.038 40.082 47.55 33.758C43.062 27.366 37.248 24.17 30.108 24.17C22.968 24.17 17.188 27.332 12.768 33.656C8.348 39.98 6.138 47.528 6.138 56.3C6.138 64.936 8.382 72.45 12.87 78.842ZM70.3159 92V88.022L96.9379 63.95C102.854 58.578 106.968 54.124 109.28 50.588C111.592 46.984 112.748 43.312 112.748 39.572C112.748 35.084 111.15 31.412 107.954 28.556C104.826 25.7 101.052 24.272 96.6319 24.272C92.2799 24.272 88.4719 25.36 85.2079 27.536C82.0119 29.712 78.8499 33.044 75.7219 37.532L71.7439 34.88C75.1439 29.712 78.7479 25.87 82.5559 23.354C86.3639 20.838 91.2259 19.58 97.1419 19.58C103.194 19.58 108.226 21.484 112.238 25.292C116.318 29.032 118.358 33.724 118.358 39.368C118.358 44.06 117.032 48.344 114.38 52.22C111.796 56.096 107.172 61.06 100.508 67.112L78.6799 86.9H119.072V92H70.3159Z" fill="#1F1C1A"/>
</svg>
