<svg width="154" height="150" viewBox="0 0 154 150" fill="none" xmlns="http://www.w3.org/2000/svg">
<rect x="4" width="150" height="150" rx="75" fill="#2D2926"/>
<path d="M30.108 93.224C21.268 93.224 14.128 89.654 8.688 82.514C3.316 75.306 0.630001 66.568 0.630001 56.3C0.630001 49.704 1.82 43.618 4.2 38.042C6.58 32.466 10.048 27.978 14.604 24.578C19.228 21.11 24.464 19.376 30.312 19.376C39.152 19.376 46.258 22.98 51.63 30.188C57.07 37.328 59.79 46.032 59.79 56.3C59.79 62.896 58.6 68.982 56.22 74.558C53.84 80.134 50.338 84.656 45.714 88.124C41.158 91.524 35.956 93.224 30.108 93.224ZM12.87 78.842C17.358 85.234 23.172 88.43 30.312 88.43C37.452 88.43 43.232 85.268 47.652 78.944C52.072 72.552 54.282 65.004 54.282 56.3C54.282 47.596 52.038 40.082 47.55 33.758C43.062 27.366 37.248 24.17 30.108 24.17C22.968 24.17 17.188 27.332 12.768 33.656C8.348 39.98 6.138 47.528 6.138 56.3C6.138 64.936 8.382 72.45 12.87 78.842ZM97.1419 93.224C86.2619 93.224 77.5239 88.94 70.9279 80.372L75.0079 77.006C80.9919 84.622 88.4039 88.43 97.2439 88.43C102.208 88.43 106.39 86.934 109.79 83.942C113.19 80.95 114.89 77.108 114.89 72.416C114.89 67.52 112.816 63.712 108.668 60.992C104.588 58.272 99.2499 56.912 92.6539 56.912H88.7779L87.4519 53.954L112.034 25.598H74.5999V20.6H119.276V24.374L95.1019 52.016C98.2979 52.22 101.29 52.764 104.078 53.648C106.934 54.464 109.62 55.654 112.136 57.218C114.652 58.714 116.658 60.788 118.154 63.44C119.65 66.024 120.398 69.016 120.398 72.416C120.398 78.468 118.086 83.466 113.462 87.41C108.906 91.286 103.466 93.224 97.1419 93.224Z" fill="#1F1C1A"/>
</svg>
