<svg width="70" height="70" viewBox="0 0 70 70" fill="none" xmlns="http://www.w3.org/2000/svg">
<rect width="70" height="70" rx="35" fill="#F2DDDE"/>
<rect x="50" width="20" height="20" rx="10" fill="#F2DDDE"/>
<path d="M56.61 13.12C55.7033 13.12 54.97 12.7767 54.41 12.09C53.85 11.3967 53.57 10.5333 53.57 9.5C53.57 8.48 53.8533 7.62333 54.42 6.93C54.9933 6.23 55.73 5.88 56.63 5.88C57.53 5.88 58.26 6.22667 58.82 6.92C59.3867 7.61333 59.67 8.47333 59.67 9.5C59.67 10.52 59.3833 11.38 58.81 12.08C58.2433 12.7733 57.51 13.12 56.61 13.12ZM55.33 11.29C55.6633 11.77 56.0967 12.01 56.63 12.01C57.1633 12.01 57.59 11.7733 57.91 11.3C58.2367 10.82 58.4 10.22 58.4 9.5C58.4 8.79333 58.2333 8.2 57.9 7.72C57.5667 7.23333 57.1367 6.99 56.61 6.99C56.0767 6.99 55.6467 7.23 55.32 7.71C55 8.18333 54.84 8.78 54.84 9.5C54.84 10.2067 55.0033 10.8033 55.33 11.29ZM63.2487 13.12C62.1353 13.12 61.242 12.71 60.5687 11.89L61.4287 11.09C61.9487 11.7033 62.562 12.01 63.2687 12.01C63.622 12.01 63.912 11.9133 64.1387 11.72C64.3653 11.52 64.4787 11.2567 64.4787 10.93C64.4787 10.59 64.332 10.3267 64.0387 10.14C63.752 9.94667 63.362 9.85 62.8687 9.85H62.2987L62.0987 9.08L63.9887 7.07H60.9587V6H65.5887V6.92L63.6387 8.92C64.252 9.00667 64.7487 9.21333 65.1287 9.54C65.5087 9.86 65.6987 10.3167 65.6987 10.91C65.6987 11.5567 65.4687 12.0867 65.0087 12.5C64.5553 12.9133 63.9687 13.12 63.2487 13.12Z" fill="#2D2926"/>
<path fill-rule="evenodd" clip-rule="evenodd" d="M31.4686 55.9987L31.7855 56.3954C31.3012 56.3363 31.502 56.4417 31.4686 55.9987ZM42.9646 54.8127L44.132 54.7527L44.127 55.4869L42.9469 55.4702L42.9646 54.8127ZM43.0384 54.233L43.6438 54.0479C44.6073 54.0509 43.8564 53.9761 44.1516 54.233L43.5197 54.4082C42.755 54.3875 43.1989 54.3649 43.0384 54.233ZM43.127 53.1454C43.1595 52.9062 43.1733 52.8806 43.2422 52.6542L44.2471 52.542L44.189 53.6483L43.1723 53.7005L43.127 53.1454ZM46.3406 52.3472L46.3209 53.0588C45.8505 53.3285 45.1457 53.5105 44.5089 53.5804L44.5995 52.485L46.3406 52.3472ZM44.6369 52.0667C44.692 50.8039 44.6054 51.0686 46.379 50.8304L46.3554 51.9239L44.6369 52.0667ZM43.3692 51.3639C43.6851 51.293 43.9873 51.2281 44.3859 51.1424L44.2697 52.1474L43.2481 52.2773L43.3692 51.3639ZM21.6743 51.7468C21.2697 51.6789 20.6713 51.0263 20.6408 50.9594C21.1398 51.1326 21.6123 51.3314 21.6743 51.7468ZM44.8446 50.5981C44.9203 50.045 45.4026 49.9328 46.4381 49.9279L46.4292 50.36C46.069 50.5657 45.3573 50.6562 44.8446 50.5981ZM46.7796 50.1247C46.9312 49.7566 46.4105 49.921 47.7146 49.7163C48.2894 49.6267 48.2816 49.5765 48.2845 50.106C47.3367 50.0489 47.2501 50.4692 46.7796 50.1247ZM20.2451 49.4269C21.1005 49.3767 20.9528 49.5785 21.0207 50.2596C20.5119 50.0785 20.3032 50.0263 20.2451 49.4269ZM50.1694 49.11C50.1507 49.6838 49.5345 50.5676 49.189 51.0903C48.2294 52.542 48.8957 51.9042 47.9282 52.7665C47.7402 52.9338 46.3701 55.2714 44.5168 55.235C44.5119 54.3088 44.7944 54.9574 45.4262 54.3501C45.0936 54.105 44.88 54.2763 44.5286 54.2842C44.5503 53.8275 44.7323 53.9663 45.2629 53.8668C45.5916 53.8058 45.94 53.6976 46.1851 53.5371L46.3888 53.8688C46.5768 54.1474 46.2707 53.9535 46.6339 54.167C46.7412 53.2487 46.6812 53.232 46.6556 52.355C47.1831 52.0932 47.6487 52.3354 47.9863 51.8855C47.7008 51.7281 47.0247 51.8432 46.6831 51.8668L46.7461 50.7448L48.3022 50.4417C48.2678 50.7448 48.1792 51.0854 48.3367 51.354C48.7924 51.2005 48.691 51.2064 48.691 50.606C48.692 50.2684 48.6674 49.9958 48.6821 49.6287L50.1694 49.11ZM48.38 47.9978L48.2973 49.2783L46.8416 49.4466L46.9331 48.3511L48.38 47.9978ZM19.9735 48.482C19.9774 48.479 20.0178 48.231 20.3298 48.421C20.501 48.5253 20.4538 48.6119 20.4656 48.8216C20.0522 48.7438 20.1369 48.7399 19.9735 48.482ZM19.9951 47.6602C20.504 47.1296 19.9518 47.1385 20.6339 47.2172C20.8258 47.5037 20.7146 47.7635 20.505 48.0932L19.9951 47.6602ZM19.8121 45.797C20.189 45.9584 20.1152 45.6907 20.0316 46.3442C19.6703 46.1139 19.567 46.1562 19.8121 45.797ZM19.8121 44.544C20.0532 44.8501 19.9508 44.8993 19.754 45.1385L19.8121 44.544ZM19.9981 43.1877C20.1457 43.294 20.1408 43.0903 20.2619 43.4653C20.4489 44.042 19.9056 44.1789 19.8662 44.1749L19.9981 43.1877ZM20.1575 42.4525C20.4125 42.6198 20.3898 42.5607 20.4784 42.8117C20.0355 42.73 20.2333 42.8403 20.1575 42.4525ZM48.3367 41.5204C48.6713 41.7566 49.1172 42.1257 49.2786 42.4968C48.315 43.0224 47.1585 43.0568 46.5562 42.0411L48.3367 41.5204ZM44.6133 40.2724C45.0798 39.9938 46.1792 39.5716 46.694 39.8993C46.9066 40.0352 47.8633 41.0617 47.9558 41.2153C47.5788 41.3846 46.5936 41.7163 46.1064 41.7143C45.6201 41.4033 44.8032 40.5233 44.6133 40.2724ZM43.8327 36.6277C43.9883 36.5352 44.2678 36.3639 44.632 36.3275C45.0965 36.2802 46.1005 37.2615 46.3377 37.5686L44.8967 37.8009C44.4745 37.3334 44.0827 37.0745 43.8327 36.6277ZM43.8416 35.3698C44.1133 35.5696 44.254 35.7133 44.502 35.8737C44.1841 36.2123 43.9558 36.1355 43.5257 36.356C43.2205 36.1424 42.5434 35.481 42.377 35.1021C43.0847 34.3777 43.4666 35.0922 43.8416 35.3698ZM43.3268 32.7596C43.7688 33.2172 44.253 33.4338 44.689 33.9042L44.3003 34.1109C43.1782 34.5214 43.064 34.3983 42.0178 33.172L43.3268 32.7596ZM42.8386 32.4033C42.7619 32.483 42.7973 32.4623 42.632 32.5647C42.5522 32.6149 42.4961 32.6405 42.3947 32.6848C42.3692 32.6956 41.9568 32.8324 41.9469 32.8334C41.1979 32.9584 40.2166 31.5922 40.1152 31.2291C41.504 30.6326 41.376 31.043 42.8386 32.4033ZM40.941 28.7271C41.3209 29.1769 41.8288 29.6828 42.3209 30.1523C42.0837 30.3609 41.7136 30.4653 41.2934 30.5312C40.6625 30.0922 40.3898 29.609 39.8869 29.0657L40.941 28.7271ZM42.4774 28.0489L45.7471 33.5834C46.0946 34.168 46.6871 34.7576 46.8288 35.4938C43.751 36.1631 45.5355 35.8855 43.6005 34.795C44.1723 34.1985 45.0827 34.6395 45.5886 34.1631C45.2973 33.8078 45.443 34.0647 45.0384 33.8275L43.6743 32.6178C43.8987 32.3452 43.9105 32.4997 43.9508 32.0981C43.2609 31.919 43.8268 32.1208 43.1477 32.2743C42.7648 31.8324 42.193 31.3048 41.7491 30.8777L42.0503 30.6877C42.9036 30.2852 42.7127 30.8107 43.7757 31.0873C43.6644 30.8019 43.7117 30.8285 43.2077 30.4909C43.2314 30.3993 43.4873 30.1877 43.4686 29.98C42.5522 29.8422 42.9843 30.3816 42.2314 29.5903C41.9272 29.2694 41.5138 29.047 41.3593 28.5135C41.8465 28.4161 42.256 28.4682 42.4774 28.0489ZM41.0591 23.1159C41.2816 23.2428 41.7343 23.6739 41.8505 23.8354C41.5099 24.0952 40.819 24.1818 40.3544 24.2881C40.0798 24.107 39.9125 23.9997 39.756 23.6867L41.0591 23.1159ZM40.3544 22.2694L40.8062 22.7792C40.4705 23.1168 39.8741 23.2753 39.4154 23.4515C39.3377 23.3846 39.129 23.232 39.0503 23.1464L38.8337 22.7546L40.3544 22.2694ZM41.9981 21.607C42.2865 21.9023 42.2008 21.7517 42.3642 22.1415C41.8957 22.2566 41.6457 22.4968 41.1782 22.6306L40.815 22.0578L41.9981 21.607ZM41.5335 22.8796C41.8062 22.7861 42.193 22.6385 42.4243 22.4899C42.5916 22.3826 42.4833 22.4495 42.6192 22.3481C43.1762 21.9357 42.8111 22.4653 43.0512 21.9328C42.8288 21.7556 42.5985 21.6454 42.3947 21.3954C42.8672 21.1011 43.3101 20.8275 43.8967 21.0253C43.9066 21.5479 43.5444 22.1375 43.2924 22.5539L42.5847 23.8855C42.1772 23.6985 41.689 23.3501 41.5335 22.8796ZM41.6467 21.2537C41.627 21.2733 41.5975 21.2999 41.5837 21.3098L41.3751 21.4564C41.3741 21.4574 41.0699 21.5981 41.0532 21.605C40.8613 21.6867 40.6959 21.7379 40.501 21.797L39.9607 21.0873L41.0444 20.5755C41.2314 20.8147 41.3957 20.9663 41.6467 21.2537ZM42.4243 20.3511C42.5079 20.4052 42.565 20.4289 42.6487 20.4869C42.7973 20.5883 42.7727 20.5804 42.8613 20.667L42.1152 21.1149L41.4144 20.3275L41.9981 20.0873C42.1959 20.1887 42.189 20.2005 42.4243 20.3511ZM43.0473 20.4023C42.6556 20.2478 42.4745 20.234 42.2058 19.9623C42.3918 19.7792 42.6073 19.8668 42.7678 20.0125C42.7707 20.0155 43.0158 20.3531 43.0473 20.4023ZM42.9951 19.669C43.2678 19.4594 43.6566 19.297 43.9932 19.1503C44.3514 19.3039 44.5148 19.4042 44.7501 19.7281C44.5877 20.1375 44.3839 20.3698 44.1113 20.6611C43.6507 20.4712 43.2136 20.0322 42.9951 19.669ZM41.5325 19.9584C40.9312 20.1375 40.9312 20.0263 40.6694 19.4338C41.065 19.5371 40.8977 19.4505 41.2353 19.6789C41.4863 19.8491 41.4036 19.7989 41.5325 19.9584ZM41.7629 18.9781C42.005 19.2359 42.1014 19.2556 42.2501 19.5991C41.6703 19.794 41.318 19.732 40.9577 19.2409L41.7629 18.9781ZM42.6881 19.3265C42.4705 19.1808 42.2904 18.9869 42.1526 18.7891C42.5148 18.295 43.2323 18.6877 43.626 18.8796C43.3711 19.0332 43.0188 19.2005 42.6881 19.3265ZM43.4508 18.1857C43.5601 18.357 43.6477 18.4958 43.753 18.6907L42.9745 18.3531L43.4508 18.1857ZM42.6113 17.0194C42.7904 17.2822 42.9833 17.5686 43.0808 17.9781C42.4814 18.1621 42.5404 18.3767 41.9755 18.0145L42.1044 18.3452C42.1093 18.3245 42.1359 18.4013 42.1447 18.4318C41.4725 18.4535 41.3987 18.046 41.0621 17.7379L41.2461 17.5548C41.6634 17.1395 41.9331 17.0086 42.6113 17.0194ZM42.8672 16.8186C43.1733 16.6178 43.7077 16.4289 44.1113 16.2665L44.7097 17.0283C44.314 17.3235 43.9656 17.5371 43.4863 17.7231L42.8672 16.8186ZM45.9823 15.5292C45.9981 16.4476 45.9548 16.8629 45.6398 17.4997C45.4174 17.9505 45.2068 18.7251 44.9321 19.1031C44.5768 18.984 44.0148 18.3796 43.7806 18.0972C44.1546 17.6592 45.3475 17.36 45.4715 16.794C44.8642 16.4879 44.9932 16.797 44.6821 16.0893C45.005 15.8334 45.501 15.6474 45.9823 15.5292ZM41.9548 15.5785C42.4646 15.4515 42.9705 15.1729 43.4499 15.0381C43.6142 15.4328 43.8219 15.5686 43.9912 15.983L42.5847 16.4731C42.2884 16.2507 42.0985 16.0489 41.9548 15.5785ZM43.7737 14.9161C44.1556 14.5716 45.1349 14.1208 45.6369 13.8541C45.8593 14.1405 45.878 14.2015 46.1762 14.4466C45.9351 15.0145 45.8436 15.4269 44.3455 15.7261C44.1664 15.547 43.8642 15.107 43.7737 14.9161ZM42.4774 28.0489C41.7727 27.9505 41.5542 28.108 41.0591 28.2556L40.5158 27.8137C40.5581 28.3836 40.8603 28.3107 40.3888 28.5588C39.9449 28.792 39.7264 28.8058 39.4154 28.5972L39.1595 28.9859C38.8111 29.2615 38.4774 29.0863 38.2865 29.4692C38.5945 29.6139 39.1201 29.2507 39.6959 29.2025C40.0709 29.9623 40.5079 30.0489 40.8416 30.6424C40.4262 30.9495 40.004 30.9259 39.5325 30.8029C39.4233 31.046 39.4508 31.0361 39.3357 31.2291L40.254 32.0332C40.5512 32.3728 40.9272 32.6218 41.1644 32.9899C40.6182 33.356 39.7737 33.2694 39.568 33.9052C39.943 33.8747 41.0483 33.3068 41.4381 33.3068C41.7353 33.3078 42.5394 34.2133 42.7638 34.4416C42.6201 34.5283 42.4577 34.6159 42.2668 34.6739C41.881 34.793 41.9971 34.6779 41.7963 34.7507C41.8967 35.2714 42.2166 35.4544 42.503 35.7724C42.944 36.2615 43.0936 36.2271 42.9814 36.8186C43.5946 36.8777 43.4184 36.7409 43.8829 37.2064C44.1684 37.4909 44.3357 37.6513 44.504 37.9525C43.9272 38.0391 43.5995 38.0952 43.4794 38.6592L44.7953 38.1611C45.2323 38.4968 45.8977 39.0903 46.0955 39.4495C45.7136 39.5204 45.3623 39.6109 44.9774 39.7379L43.9951 40.0322C44.4646 40.6621 45.1123 41.2724 45.6093 41.792C45.2697 42.0735 45.0965 41.9141 44.755 42.2271C45.3465 42.6483 46.0394 41.5037 46.9056 42.985C46.252 43.0854 45.5375 43.1405 45.4528 43.7409C45.9016 43.7113 46.4686 43.2596 47.1556 43.3265C47.507 43.36 48.2038 43.9554 48.4115 44.2172C47.5867 44.4151 45.5384 44.4407 45.1438 45.0785C45.3534 45.1789 47.1595 44.7025 47.7983 44.6444C49.9823 44.4485 49.069 45.1641 50.377 45.4357C50.2884 44.9436 49.9085 44.7674 49.5168 44.5863C49.8603 44.2586 49.7904 44.5775 49.9794 44.1395C49.5886 43.9397 48.756 44.4712 47.8426 43.1926C48.5286 43.0696 49.631 42.9948 50.0946 42.6139L48.9233 41.3432C49.2343 41.042 49.1792 41.2655 49.3258 40.793C48.4361 40.8855 48.5188 41.2458 47.8721 40.6119C47.5631 40.3098 47.1123 39.9574 46.9154 39.5854C47.5286 39.5401 48.2599 39.6641 48.4597 39.2104C47.8062 38.8855 47.131 39.3865 46.6201 39.2507L45.6447 38.4978C45.4105 38.2537 45.5355 38.4466 45.4007 38.1542C45.7323 37.9771 46.4715 37.8216 46.878 37.9554C47.4233 38.1346 47.2944 38.5361 47.9873 38.6316C47.9075 38.0568 47.7274 38.1867 47.4194 37.8019L47.814 37.5145C47.8258 37.5027 47.8534 37.4741 47.8682 37.4495C47.2737 37.0056 47.0138 38.1247 45.4223 36.2763C45.7953 35.9731 45.4696 36.1641 46.1733 36.0046C46.5532 35.918 46.8131 35.8255 47.1634 35.7507C47.377 36.2822 47.7117 36.8078 48.0168 37.2989C48.9125 38.7399 49.7451 40.4712 50.1713 42.1848C50.441 43.2684 51.2816 48.0558 49.9518 48.8009L48.6625 49.1848L48.7018 47.9141C48.9804 47.8452 49.2825 47.7812 49.5522 47.7074C49.9951 47.5863 50.0365 47.607 50.2136 47.3088C49.8229 47.1247 49.3288 47.3885 48.7855 47.4623L49.006 46.3216C49.1644 45.8718 50.3436 46.3619 50.3091 45.5804L49.0237 45.8078L49.0207 44.8806L48.7186 45.8915C47.8495 46.1759 46.6556 46.3275 46.0129 46.7084C46.2058 46.8619 45.9184 46.7576 46.2579 46.8098C46.8564 46.9023 48.0217 46.4367 48.6733 46.3481C48.3613 47.8639 48.4715 47.543 47.0375 47.9308L47.0453 47.0558C46.7776 47.4407 46.9213 47.482 46.7373 47.8334C46.4784 48.3294 46.4745 47.8934 46.1634 48.3649C46.6684 48.7222 46.6881 48.359 46.5276 49.484L45.1713 49.7418L45.1083 49.2369C44.7255 49.3934 44.816 49.3836 44.6871 49.8728C44.6093 50.1641 44.5591 50.4279 44.4617 50.7123L43.4686 51.0263L43.442 50.2202C43.4381 50.2035 43.4253 50.169 43.4085 50.1483C43.0788 50.7271 43.0286 51.5952 42.9075 52.3531L42.3603 52.5617C42.6447 53.3167 42.7136 52.4338 42.8052 53.1769C42.8672 53.6838 42.631 53.7074 42.3918 53.8806C42.6447 54.4928 42.6034 53.735 42.6684 54.4446C41.9508 54.6355 41.0119 54.3609 40.5493 54.9367C40.5739 54.9485 40.6152 54.9269 40.627 54.9535L42.129 54.8688C42.879 54.9741 42.4341 54.7104 42.5837 55.172C42.3573 55.3855 42.6054 55.2792 42.2255 55.3078C42.129 55.3157 41.8327 55.2556 41.7156 55.2399C41.1231 55.1572 40.3032 55.2438 39.8131 55.3235C39.4774 55.3787 38.9764 54.92 39.1388 55.9968C39.4371 55.9672 40.3928 55.8619 40.5601 55.7005L42.0581 55.6838C42.0827 55.6917 42.1231 55.7123 42.1418 55.7202C42.1605 55.7271 42.1979 55.7418 42.2235 55.7586C41.5768 56.2163 36.126 56.5312 34.8258 56.6198C34.7648 55.4515 34.7225 55.2497 34.2235 55.1838C34.0237 55.5125 34.5158 56.359 34.6251 56.6228L32.4007 56.5194L32.3987 55.7025C31.7127 55.8511 32.1871 55.9426 31.8938 55.8757L31.6861 55.2113C30.6408 54.859 31.2136 55.3462 31.1526 55.8226C31.0316 56.7586 30.5316 56.4505 30.3111 56.1641C30.2963 56.1454 30.2796 56.104 30.2589 56.0765C29.6497 56.4417 29.4814 56.2901 29.314 56.1247C29.2973 56.109 29.2707 56.0696 29.2579 56.0548C29.2442 56.0401 29.2245 56.0037 29.2028 55.981C28.9026 56.1159 28.6349 56.3767 28.2461 56.0243C27.9184 55.7281 28.1388 55.9918 28.193 55.667L28.1467 55.1789C27.7825 55.4712 27.7845 55.795 27.442 55.9702C26.816 55.4751 27.0631 55.7586 27.1516 54.979C26.6585 54.9042 26.6694 55.2733 26.503 55.6277C26.0129 55.5056 26.1251 55.4495 26.0768 55.1602C26.0414 54.9456 26.1241 55.0755 26.0335 54.92C25.5493 55.1907 25.7028 55.4712 25.1575 55.0962L25.2461 54.355C24.6546 54.5981 25.1684 54.7507 24.5079 54.9289C24.2186 54.4722 24.4085 53.5647 24.5345 53.1168C23.8327 53.2979 23.7904 53.7881 23.3337 54.1818C23.1772 54.0676 22.9272 53.8855 22.9056 53.6159C22.8603 53.0489 22.9223 53.4584 22.9951 53.2999C23.1329 53.0017 23.1792 53.2792 23.1034 52.792C23.0995 52.7625 23.0847 52.6749 23.0778 52.6434C23.0729 52.6208 23.066 52.5854 23.0611 52.5627L22.9814 52.3019L22.5384 52.6739C22.3445 52.4082 22.1989 52.3255 22.007 52.1198L22.256 51.6178C22.2678 51.5922 22.2825 51.5627 22.2934 51.5371C22.4105 51.2724 22.4902 51.1001 22.5414 50.8009C21.6713 50.982 22.507 51.4731 21.6201 51.0637C21.7747 51.0046 21.7461 51.2615 22.0325 50.8294C21.8485 50.3216 21.8583 50.6031 21.5975 50.2428L21.8485 49.4308C21.5158 49.2861 21.5207 49.3865 20.8967 49.0539C20.9459 48.6887 21.0571 48.8865 21.1064 48.6759C21.1083 48.669 21.0129 47.5578 21.193 46.8393C21.0207 46.7094 20.7077 46.8167 20.4804 46.7517C20.5591 45.7015 20.5138 46.7763 20.8623 46.1168C20.5424 45.8157 20.5217 45.7123 20.7284 45.1956C21.0129 45.1011 21.4085 45.4357 21.691 45.1956C21.4479 45.0686 21.1654 44.918 20.9134 44.8029C20.9587 44.4968 20.9922 44.5932 21.0818 44.2635C20.2914 44.4741 21.8229 43.8924 20.8032 44.4298C20.5562 44.5598 20.8091 44.5893 20.4942 44.5253C20.4194 44.297 20.507 43.9121 20.6339 43.7123C21.6083 44.231 21.3731 44.0765 21.6241 43.9052C21.1477 43.3865 20.5709 43.609 20.7117 42.9663C21.1359 42.8088 21.4705 43.4259 21.8859 43.2005C21.6851 42.7901 21.5079 42.8983 21.0995 42.6178L20.3357 41.9771C20.569 39.0883 22.9814 34.3432 24.9095 32.0991L27.6664 28.9859C27.878 28.735 28.7018 27.5027 28.9115 27.4082C28.8377 27.7625 28.8199 27.8915 28.9686 28.2064C29.316 27.9987 29.0631 28.3019 29.2835 27.7832C29.3751 27.5666 29.4203 27.3737 29.4814 27.1661L30.2629 27.0165C30.0453 27.4869 29.9725 27.7182 30.4942 27.8944C30.9715 27.5883 30.5503 27.9544 30.693 27.4131C30.8859 26.6789 31.6103 26.9259 32.6073 26.8619C32.8721 27.2891 32.4735 27.4604 33.0768 27.6365C33.3898 27.3934 33.2156 27.6838 33.2432 27.2399C33.255 27.0342 33.2757 26.9928 33.1762 26.7891C33.9951 26.732 34.6536 26.8747 35.4174 26.9121C36.3445 26.9584 38.9548 27.0194 39.7442 26.857C41.5119 26.4948 40.4321 27.0962 41.1762 27.4909C41.4184 27.2281 41.3623 26.8728 41.2146 26.5184C40.4026 26.3068 39.1162 26.6031 38.007 26.5588C36.7176 26.5086 35.9725 26.6168 34.6379 26.3924C33.7314 26.2399 30.7776 26.4968 29.7609 26.6218C29.1005 26.7035 28.6487 26.9367 28.6871 26.3639C29.0611 26.4987 28.9932 26.5981 29.4272 26.4348C29.192 25.9722 28.6172 26.2448 28.3997 25.4791L28.8613 25.3609L28.3898 24.981C28.6959 24.6021 28.503 25.0214 28.6428 24.5046C27.9558 24.4978 27.9351 24.4938 27.6812 23.9525L28.0119 23.9131C28.0306 23.9082 28.0699 23.8964 28.0867 23.8924L28.2392 23.8354C28.005 23.5499 27.7747 23.5558 27.3829 23.3147C27.4961 22.8944 27.2904 23.4515 27.7619 23.0027C26.8426 22.3541 27.3583 22.8413 26.8701 21.8688C27.068 21.6985 27.2255 21.8186 27.4371 21.7231C26.9882 20.859 26.9361 22.2822 26.192 19.5765C25.689 17.7487 25.6251 15.2566 26.3337 13.4603C26.7117 12.4997 27.8928 12.4544 28.8485 12.4033C29.9213 12.3452 31.0276 12.4594 32.0129 12.6808C32.9341 12.8885 33.6201 13.3846 34.4745 13.7468C35.3091 14.1011 36.127 14.418 36.8672 14.8806C37.3258 15.167 39.1634 15.4456 39.8534 15.3855C39.4243 14.9879 37.6812 14.9978 36.8741 14.4042C36.3751 14.0381 34.817 13.5371 34.0877 13.2025C32.7215 12.5765 32.8849 12.4052 31.1851 12.1316C29.9814 11.9377 26.8347 11.6897 26.1201 12.8964C25.3268 14.2369 25.1812 16.6129 25.4194 18.1168C25.6881 19.8186 26.2363 21.1985 26.7619 22.7655L27.3672 24.2724C27.6438 25.0046 28.0857 25.5046 28.3514 26.2222C28.569 26.8078 28.4892 26.4682 28.3022 26.9072C27.8711 27.9161 27.4725 28.543 26.7727 29.3885C24.3623 32.3019 23.566 32.8137 21.7619 36.4672C20.566 38.8895 20.565 40.0046 20.005 41.2832C19.63 42.1405 19.8662 42.3501 19.569 43.0863C19.5571 43.1139 19.5414 43.1415 19.5296 43.169L19.4046 43.4062C19.254 43.8157 19.3455 43.4613 19.3406 43.9033C19.3268 45.0863 18.8229 44.6789 19.2412 45.4308L19.0237 45.5755C18.879 45.7261 18.9853 45.5371 18.8829 45.7822C19.4823 46.5578 19.255 47.6779 19.5148 48.6729C20.0758 50.8206 19.9981 50.9859 21.1871 52.7418C21.6201 53.3826 22.1703 53.6011 22.6694 54.1917C23.2028 54.8245 23.7776 54.7743 24.1753 55.6168C24.7294 55.5105 24.6152 55.5076 25.1782 55.6808C25.6349 55.8206 25.8554 55.858 26.3199 56.0588C28.2688 56.9033 29.7697 56.5972 31.628 56.8413C34.2816 57.1887 35.0621 56.8285 37.4134 56.8314C38.2658 56.8324 42.2658 56.4436 42.8012 56.2163L43.2127 56.0411C44.5877 55.667 45.9804 55.6346 47.1014 54.4042C48.2383 53.1572 48.9105 52.5017 49.753 50.9476C50.3692 49.8127 50.3987 50.1129 50.6841 48.7133C50.88 47.7517 51.3012 47.3619 51.1231 46.1493C50.628 42.7704 51.13 42.1287 49.2274 38.669C48.815 37.921 48.628 37.3659 48.1664 36.6808C47.7491 36.0627 47.3977 35.4485 47.001 34.793L44.692 30.8836C43.4007 28.5903 41.8514 26.9239 43.2264 23.8944C43.4026 23.5056 43.4774 23.1424 43.6349 22.7733C43.9646 21.9997 44.9873 20.3659 45.2245 19.6661C45.7796 18.0263 46.5946 16.6798 46.504 14.7911C46.4558 13.7832 45.882 13.3294 45.3524 12.7389C44.8003 12.1218 44.441 11.8304 43.2924 11.7409C42.1457 11.6523 41.6182 11.5676 40.5621 11.9554C39.6192 12.3009 39.1634 12.3098 38.3908 12.8314C38.0325 13.0745 37.7451 13.2251 37.376 13.3511C36.693 13.5834 36.5079 13.3511 36.1999 13.9761C36.7638 14.0883 37.8652 13.542 38.3593 13.3196C39.0463 13.8472 39.69 14.9121 40.4056 14.5637C40.382 14.542 40.3416 14.483 40.3288 14.5066C40.3121 14.5361 40.2422 14.4426 40.1723 14.4023L39.4184 13.856C39.2245 13.6415 38.8475 13.2369 38.9459 12.919C39.5079 12.6828 40.4577 13.7792 41.0483 13.8422C40.9784 13.5194 40.7589 13.4279 40.4951 13.2527C40.1329 13.0125 40.0601 12.9938 39.7619 12.7094L40.4715 12.3747C40.8091 12.7212 41.8042 13.5352 42.3839 13.2733C42.0916 12.9918 41.6152 12.8422 41.2993 12.5529C41.2107 12.4722 41.2186 12.5017 41.1595 12.3708C41.0886 12.2143 41.1231 12.2054 41.13 12.1572C41.4203 12.1523 42.0503 12.8039 42.5522 12.8865C42.5217 12.485 42.2609 12.4042 41.9262 12.1326C42.7963 11.921 42.5503 12.1267 43.1192 12.5037C43.5197 12.7684 43.7658 13.0292 44.2245 13.0509C44.0808 12.6946 43.8052 12.5598 43.5335 12.3088L43.4046 12.1769C44.4075 12.2172 45.1526 12.9722 45.4666 13.485C45.0621 13.7428 43.9784 14.4397 43.4873 14.5489C43.2806 14.2556 43.3623 14.2291 42.941 14.1041L43.255 14.8068L41.7825 15.3698C41.3623 14.8747 41.4814 14.6208 40.9607 14.5627C41.1182 15.0056 41.2461 14.9515 41.3554 15.5489L40.0316 15.8767C40.002 15.8846 39.9666 15.8964 39.941 15.9042C39.9154 15.9121 39.8741 15.9308 39.8544 15.9367C39.8347 15.9436 39.7963 15.9554 39.7707 15.9722C40.1457 16.5066 41.132 15.8649 41.6034 15.7842L42.1605 16.6729C41.9223 16.8541 41.566 17.0499 41.2353 17.109C40.6408 17.2153 40.879 16.9909 40.3583 16.8098C40.2983 17.8068 41.1418 18.0105 41.4134 18.672L40.3199 19.17C40.2077 18.9761 39.7766 18.2172 39.5325 18.0607L39.5552 18.6336C39.6142 18.7478 39.9262 19.1287 39.9656 19.1808C39.7451 19.7064 39.6585 19.0686 39.5916 19.669C40.3849 19.6897 40.3524 19.3678 40.7451 20.3678L39.6713 20.8639C39.4597 20.5627 39.1723 20.1041 38.8662 20.0027C38.8426 20.6661 39.0818 20.5391 39.2963 21.0184C38.879 21.3019 38.754 21.1749 38.5571 21.6572C39.1005 21.5519 39.1595 21.3728 39.6507 21.3659L40.1182 21.9387C38.7432 22.7704 38.5109 22.3787 38.0414 22.3294C38.2195 22.8176 38.753 23.2231 39.0522 23.6208C38.6802 23.7911 37.7097 24.0922 37.5877 24.422C37.9292 24.5863 38.9715 23.9682 39.4154 23.8905L39.8957 24.3974C39.6201 24.6513 39.5837 24.6168 39.2776 24.7546C38.7924 24.9731 38.8377 24.8472 38.7392 25.2694C39.3947 25.5942 39.9105 24.1985 40.6123 25.1267C40.381 25.3373 40.4617 25.2478 40.1694 25.4141C39.7304 25.6631 39.1802 25.8944 38.877 26.2635C39.4814 26.3354 40.3337 25.6405 41.0591 25.4279C41.506 25.7527 41.3081 25.8865 41.8564 25.9239L41.4568 25.3137C41.8642 25.235 41.815 25.3619 41.9686 25.0283C41.256 24.7192 41.2934 25.3708 40.7008 24.6257L41.9361 24.2438C42.5886 24.1926 42.4774 24.357 42.3268 26.17C42.2491 27.1041 42.4371 27.2448 42.4774 28.0489Z" fill="#2D2926"/>
<path fill-rule="evenodd" clip-rule="evenodd" d="M35.2698 30.7268C35.132 31.8744 35.191 31.6992 35.2963 32.9679C33.7412 32.9453 32.6467 33.3449 31.6694 34.1638C30.0582 35.5152 29.1408 39.1008 30.8082 41.1254C31.8771 42.4256 35.9981 42.1047 38.1162 43.4433C39.3456 44.2199 39.7461 44.5959 40.1517 46.2219C40.3495 47.0171 40.378 47.2475 39.9223 47.9315C38.755 49.6825 36.9184 50.3577 34.7196 50.3705C33.9391 50.3754 33.2806 49.9719 32.7609 49.6185C31.8337 48.9886 32.1044 48.8744 31.5503 48.026C31.0503 48.0486 30.8229 48.2671 30.6339 48.5988C30.9961 49.4984 33.258 51.2573 35.2796 51.462C35.3613 52.5673 34.9302 53.7632 36.1379 53.6392C36.4312 53.0427 36.3554 52.2012 36.2875 51.3636C37.5247 51.0752 39.315 50.088 39.9666 49.3843C40.9961 48.2711 41.7776 47.586 41.2422 45.3508C41.0729 44.6451 40.6428 43.9847 40.2343 43.5565C39.4981 42.7849 39.7471 42.8282 38.6349 42.3321C36.5749 41.4128 33.1979 41.8498 31.7284 40.6736C30.6192 39.7858 30.5847 37.5368 31.1625 36.4709C32.6645 33.6992 34.0946 33.7553 36.7875 34.213C38.2983 34.4689 38.2461 34.6904 38.6093 35.2081C39.1369 35.961 39.9538 35.9266 40.1064 34.7268C39.1615 33.8764 37.9036 33.279 36.1664 33.0418C36.195 32.3941 36.6546 29.9187 35.2698 30.7268Z" fill="#2D2926"/>
<path fill-rule="evenodd" clip-rule="evenodd" d="M33.9627 56.3948C33.8987 55.9479 33.5365 55.1458 33.0109 55.1104C32.9203 55.6458 32.9951 55.3269 33.3032 55.7659C33.6664 56.2855 33.3002 56.1645 33.9627 56.3948Z" fill="#2D2926"/>
<path fill-rule="evenodd" clip-rule="evenodd" d="M36.3878 56.2755L36.3632 55.6318C36.2431 55.06 36.3977 55.2735 36.0109 55.1348C35.9744 55.1899 35.6487 55.0491 36.005 55.8838C36.1624 56.2548 36.1349 56.2607 36.3878 56.2755Z" fill="#2D2926"/>
<path fill-rule="evenodd" clip-rule="evenodd" d="M35.6595 27.939C35.8868 27.7234 35.9803 27.6781 35.7766 27.2559C35.4439 27.2362 35.3622 27.125 35.3002 27.4754C35.2343 27.8464 35.5266 27.8839 35.6595 27.939Z" fill="#2D2926"/>
<path fill-rule="evenodd" clip-rule="evenodd" d="M37.6034 56.258C37.9991 56.071 37.7294 56.4706 37.9342 55.9036C38.0621 55.5503 37.9302 55.4391 37.8899 55.3623C37.3269 55.5237 37.4657 55.756 37.6034 56.258Z" fill="#2D2926"/>
<path fill-rule="evenodd" clip-rule="evenodd" d="M37.7078 27.3951C37.7708 27.8646 37.819 27.9296 38.2599 27.7081L38.3731 27.2485C38.0837 27.2249 37.821 27.2081 37.7078 27.3951Z" fill="#2D2926"/>
<path fill-rule="evenodd" clip-rule="evenodd" d="M31.4331 27.9545C31.6329 27.6691 31.5482 27.8403 31.6368 27.2724C31.0266 27.2202 30.7786 27.7124 31.4331 27.9545Z" fill="#2D2926"/>
<path fill-rule="evenodd" clip-rule="evenodd" d="M36.5798 27.3027C36.5769 27.8145 36.4873 27.7368 36.8328 27.9573C37.2334 27.788 37.0109 28.0537 37.13 27.3992L36.5798 27.3027Z" fill="#2D2926"/>
<path fill-rule="evenodd" clip-rule="evenodd" d="M34.0159 27.7764C34.2511 27.5569 34.259 27.485 34.2265 27.0283C33.6546 27.051 33.7491 27.4368 34.0159 27.7764Z" fill="#2D2926"/>
<path fill-rule="evenodd" clip-rule="evenodd" d="M39.192 27.2263C39.1605 27.2814 38.7894 27.1712 39.2786 27.6928C39.7008 27.5275 39.4567 27.7696 39.6408 27.3286C39.4233 27.1908 39.4272 27.1416 39.192 27.2263Z" fill="#2D2926"/>
</svg>
