<svg width="70" height="70" viewBox="0 0 70 70" fill="none" xmlns="http://www.w3.org/2000/svg">
<rect width="70" height="70" rx="35" fill="#F2DDDE"/>
<rect x="50" width="20" height="20" rx="10" fill="#F2DDDE"/>
<path d="M58.61 13.12C57.7033 13.12 56.97 12.7767 56.41 12.09C55.85 11.3967 55.57 10.5333 55.57 9.5C55.57 8.48 55.8533 7.62333 56.42 6.93C56.9933 6.23 57.73 5.88 58.63 5.88C59.53 5.88 60.26 6.22667 60.82 6.92C61.3867 7.61333 61.67 8.47333 61.67 9.5C61.67 10.52 61.3833 11.38 60.81 12.08C60.2433 12.7733 59.51 13.12 58.61 13.12ZM57.33 11.29C57.6633 11.77 58.0967 12.01 58.63 12.01C59.1633 12.01 59.59 11.7733 59.91 11.3C60.2367 10.82 60.4 10.22 60.4 9.5C60.4 8.79333 60.2333 8.2 59.9 7.72C59.5667 7.23333 59.1367 6.99 58.61 6.99C58.0767 6.99 57.6467 7.23 57.32 7.71C57 8.18333 56.84 8.78 56.84 9.5C56.84 10.2067 57.0033 10.8033 57.33 11.29ZM64.0163 13V7.2L62.7563 7.55L62.4963 6.55L64.3763 5.95H65.2363V13H64.0163Z" fill="#2D2926"/>
<path d="M34.9305 52.9883C34.6545 52.9883 34.4305 53.2123 34.4305 53.4883V57.0508C34.4305 57.3268 34.6545 57.5508 34.9305 57.5508C35.2065 57.5508 35.4305 57.3268 35.4305 57.0508V53.4883C35.4305 53.2123 35.207 52.9883 34.9305 52.9883Z" fill="#2D2926"/>
<path d="M37.0831 21.1595C35.9891 20.4385 34.6046 20.2765 33.4705 20.7385C32.391 21.1775 31.719 22.0065 31.578 23.072C31.417 24.291 32.016 25.612 33.104 26.4375C33.4155 26.674 33.787 26.7475 34.1096 26.7885C34.3951 26.8245 34.6711 26.8425 34.9366 26.8425C35.6591 26.8425 36.3066 26.7085 36.8696 26.4425C37.8486 25.979 38.5286 25.094 38.6436 24.1335C38.7751 23.038 38.1626 21.8705 37.0831 21.1595ZM37.6511 24.0145C37.5776 24.6275 37.1026 25.226 36.4421 25.539C35.8476 25.82 35.1056 25.9065 34.2356 25.7965C34.035 25.771 33.832 25.7345 33.709 25.6415C32.902 25.029 32.455 24.072 32.57 23.2035C32.635 22.7125 32.9095 22.047 33.848 21.665C34.1575 21.539 34.4941 21.4775 34.8376 21.4775C35.4176 21.4775 36.0161 21.654 36.5336 21.995C37.1606 22.408 37.7496 23.193 37.6511 24.0145Z" fill="#2D2926"/>
<path d="M30.557 50.8817C30.2825 50.8527 30.0355 51.0502 30.0055 51.3247L29.6195 54.8648C29.5895 55.1393 29.7875 55.3858 30.0625 55.4163C30.081 55.4183 30.099 55.4193 30.1175 55.4193C30.369 55.4193 30.586 55.2298 30.614 54.9733L31 51.4332C31.03 51.1587 30.8315 50.9117 30.557 50.8817Z" fill="#2D2926"/>
<path d="M39.0369 50.7997C38.9269 50.5462 38.6329 50.4297 38.3794 50.5392C38.1259 50.6487 38.0094 50.9432 38.1189 51.1967C38.5699 52.2392 38.9229 53.3317 39.1684 54.4427C39.2199 54.6762 39.4269 54.8352 39.6565 54.8352C39.692 54.8352 39.7285 54.8317 39.7645 54.8237C40.0345 54.7642 40.2045 54.4972 40.145 54.2277C39.886 53.0537 39.5134 51.9007 39.0369 50.7997Z" fill="#2D2926"/>
<path d="M47.684 41.7227C47.0925 39.4867 45.7125 37.5352 43.897 36.3672C43.9965 35.6907 44.08 35.0047 44.1365 34.3072C44.711 27.2447 42.808 17.8627 35.743 12.7137C35.511 12.5442 35.2225 12.4512 34.932 12.4512C34.9315 12.4512 34.931 12.4512 34.9305 12.4512C34.638 12.4512 34.349 12.5447 34.118 12.7137C27.053 17.8632 25.1495 27.2447 25.7245 34.3072C25.7835 35.0352 25.8705 35.7517 25.977 36.4572C24.226 37.6332 22.894 39.5397 22.3165 41.7227C21.7725 43.7802 21.8645 46.0417 22.5835 48.2632C22.6505 48.4702 22.843 48.6092 23.059 48.6092C23.065 48.6092 23.0705 48.6092 23.077 48.6092C23.3 48.6012 23.491 48.4467 23.545 48.2297C24.077 46.0852 25.7985 44.2072 27.9675 43.3717C28.1055 43.6577 28.249 43.9247 28.3965 44.1537C28.4665 44.2622 28.5755 44.3397 28.701 44.3692C28.7845 44.3892 30.7625 44.8552 32.724 45.0947C32.7255 45.0947 32.7265 45.0942 32.7275 45.0942C32.813 45.8092 32.9055 46.5232 33.011 47.2332C33.0445 47.4572 33.224 47.6307 33.449 47.6567C33.969 47.7157 34.5455 47.7112 35.1055 47.7087C35.6145 47.7052 36.0945 47.7022 36.5215 47.7432C36.5375 47.7447 36.5535 47.7452 36.5695 47.7452C36.801 47.7452 37.0055 47.5847 37.057 47.3542C37.2225 46.6132 37.3685 45.8527 37.4995 45.0812C39.4205 44.8377 41.1035 44.3852 41.176 44.3657C41.2955 44.3332 41.3985 44.2577 41.4655 44.1542C41.6205 43.9137 41.7705 43.6307 41.9155 43.3277C44.1405 44.1392 45.9145 46.0467 46.456 48.2302C46.5095 48.4472 46.7005 48.6017 46.924 48.6097C46.93 48.6097 46.9355 48.6097 46.9415 48.6097C47.1575 48.6097 47.35 48.4707 47.417 48.2637C48.1355 46.0412 48.228 43.7797 47.684 41.7227ZM26.012 43.2702C25.9705 42.4422 25.9665 41.6097 26.022 40.7862C26.0315 40.6487 25.927 40.5292 25.7895 40.5197C25.652 40.5127 25.5325 40.6147 25.523 40.7522C25.459 41.7017 25.4625 42.6642 25.525 43.6167C25.324 43.7712 25.1305 43.9327 24.945 44.1037C24.858 43.5407 24.788 42.9717 24.745 42.4047C24.7345 42.2672 24.6155 42.1627 24.4765 42.1747C24.339 42.1852 24.236 42.3052 24.2465 42.4432C24.2975 43.1097 24.3785 43.7812 24.4885 44.4402C24.493 44.4682 24.5035 44.4937 24.516 44.5172C24.3845 44.6562 24.263 44.8032 24.1415 44.9497C24.0775 44.6307 24.031 44.3082 24.025 43.9822C24.0225 43.8457 23.911 43.7372 23.775 43.7372C23.7735 43.7372 23.772 43.7372 23.77 43.7372C23.632 43.7397 23.522 43.8542 23.525 43.9922C23.535 44.4932 23.611 44.9902 23.7455 45.4732C23.5265 45.7857 23.322 46.1072 23.1515 46.4442C22.868 44.9082 22.9105 43.3877 23.2835 41.9782C23.7575 40.1857 24.795 38.6062 26.1635 37.5522C26.26 38.0637 26.364 38.5702 26.4855 39.0637C26.5105 39.1647 26.948 40.8947 27.57 42.4592C27.0215 42.6747 26.5 42.9467 26.012 43.2702ZM36.172 46.7177C35.9525 46.7087 35.727 46.7062 35.5015 46.7062C35.367 46.7062 35.232 46.7067 35.0985 46.7077C34.9705 46.7082 34.842 46.7082 34.7135 46.7082C34.846 46.6602 34.9835 46.6197 35.114 46.5697C35.243 46.5202 35.3075 46.3757 35.2585 46.2467C35.209 46.1177 35.0645 46.0527 34.9355 46.1022C34.602 46.2297 34.256 46.3432 33.9115 46.4562C33.894 46.3287 33.879 46.2007 33.862 46.0727C34.31 45.8932 34.776 45.7392 35.2475 45.6142C35.381 45.5792 35.4605 45.4422 35.425 45.3087C35.39 45.1752 35.2525 45.0957 35.1195 45.1312C34.6695 45.2502 34.2265 45.3977 33.796 45.5652C33.7725 45.3802 33.7465 45.1967 33.7245 45.0112L35.7265 44.2237C35.855 44.1732 35.918 44.0282 35.8675 43.8997C35.8165 43.7712 35.671 43.7087 35.5435 43.7587L33.665 44.4977C33.6445 44.3192 33.6265 44.1412 33.607 43.9627C34.4275 43.5617 35.267 43.1757 36.103 42.8162C36.23 42.7617 36.2885 42.6147 36.234 42.4877C36.1795 42.3607 36.0315 42.3032 35.9055 42.3567C35.1165 42.6957 34.326 43.0597 33.5495 43.4362C33.5305 43.2527 33.509 43.0697 33.4905 42.8867C33.5025 42.8822 33.5155 42.8837 33.5275 42.8772C34.3225 42.4457 35.1525 42.0502 35.996 41.7012C36.1235 41.6487 36.184 41.5022 36.1315 41.3747C36.079 41.2477 35.9325 41.1872 35.805 41.2392C34.9985 41.5732 34.2055 41.9522 33.441 42.3607C33.419 42.1362 33.398 41.9117 33.377 41.6877C33.3815 41.6852 33.387 41.6862 33.3915 41.6837C33.5615 41.5797 33.73 41.4712 33.898 41.3622C34.3875 41.0452 34.85 40.7457 35.3655 40.5652C35.496 40.5197 35.5645 40.3772 35.519 40.2467C35.4735 40.1167 35.3315 40.0487 35.2005 40.0932C34.6285 40.2932 34.119 40.6232 33.6265 40.9422C33.526 41.0072 33.425 41.0702 33.3245 41.1342C33.309 40.9632 33.2945 40.7937 33.279 40.6232C33.7945 40.2837 34.322 39.9532 34.851 39.6407C34.97 39.5702 35.009 39.4172 34.939 39.2982C34.8685 39.1797 34.715 39.1407 34.5965 39.2102C34.137 39.4817 33.68 39.7687 33.2295 40.0607C33.2115 39.8582 33.1935 39.6547 33.176 39.4532C33.425 39.2717 33.6785 39.0942 33.9395 38.9272C34.0555 38.8532 34.0895 38.6982 34.0155 38.5822C33.9405 38.4662 33.7865 38.4322 33.67 38.5062C33.4835 38.6257 33.301 38.7512 33.12 38.8782C33.1105 38.7887 33.1025 38.7027 33.0925 38.6112C33.044 38.1767 32.994 37.7312 32.992 37.3187L37.2175 37.2747C37.163 40.5012 36.804 43.7462 36.172 46.7177ZM40.7255 43.4487C40.2685 43.5642 39.039 43.8572 37.6625 44.0497C38.0125 41.6852 38.2065 39.2202 38.2225 36.7727C38.2235 36.6382 38.1705 36.5097 38.0755 36.4152C37.9805 36.3207 37.84 36.2737 37.7175 36.2692L32.509 36.3232C32.255 36.3257 32.0435 36.5182 32.017 36.7707C31.9505 37.4032 32.0255 38.0737 32.098 38.7217C32.1205 38.9262 32.143 39.1262 32.1605 39.3267C32.2965 40.8867 32.4395 42.4782 32.6135 44.0702C31.611 43.9387 30.616 43.7527 29.9105 43.6077C30.161 43.3207 30.4525 43.0637 30.7285 42.8287C30.8335 42.7392 30.8465 42.5812 30.757 42.4762C30.668 42.3712 30.51 42.3582 30.4045 42.4477C30.048 42.7507 29.665 43.0867 29.3595 43.4917C29.273 43.4727 29.1935 43.4552 29.1315 43.4412C29.084 43.3602 29.037 43.2727 28.99 43.1832L29.8455 42.3162C29.9425 42.2177 29.9415 42.0597 29.8435 41.9622C29.745 41.8652 29.587 41.8667 29.4895 41.9642L28.758 42.7057C28.7265 42.6362 28.695 42.5667 28.6645 42.4952C28.6665 42.4917 28.6705 42.4907 28.6725 42.4872C29.1485 41.6497 29.8165 40.9142 30.605 40.3617C30.718 40.2827 30.7455 40.1267 30.666 40.0137C30.587 39.9002 30.431 39.8732 30.318 39.9527C29.569 40.4777 28.93 41.1612 28.436 41.9332C28.2865 41.5447 28.148 41.1487 28.025 40.7717C28.0905 40.7702 28.1555 40.7442 28.203 40.6922C28.8765 39.9597 29.6195 39.2827 30.4105 38.6787C30.5205 38.5952 30.5415 38.4382 30.4575 38.3282C30.374 38.2187 30.217 38.1967 30.107 38.2812C29.309 38.8902 28.56 39.5727 27.8775 40.3092C27.8085 40.0857 27.7465 39.8777 27.6925 39.6907L28.69 38.8637C28.796 38.7757 28.811 38.6177 28.7225 38.5117C28.634 38.4052 28.4765 38.3902 28.3705 38.4792L27.5445 39.1642C27.4885 38.9572 27.456 38.8302 27.4545 38.8242C27.442 38.7737 27.4325 38.7207 27.42 38.6697C28.2245 37.9397 29.0995 37.2812 30.0275 36.7152C30.1455 36.6432 30.183 36.4897 30.111 36.3717C30.039 36.2537 29.8855 36.2167 29.7675 36.2882C28.8925 36.8212 28.0655 37.4367 27.296 38.1127C27.2615 37.9547 27.225 37.7982 27.1935 37.6382C27.217 37.6287 27.24 37.6172 27.2605 37.6007C27.58 37.3382 27.924 37.1017 28.2825 36.8982C28.4025 36.8302 28.4445 36.6777 28.3765 36.5572C28.309 36.4372 28.156 36.3947 28.0355 36.4632C27.7075 36.6492 27.395 36.8657 27.0965 37.0987C27.075 36.9782 27.0515 36.8592 27.0315 36.7382C27.0465 36.7267 27.0635 36.7192 27.076 36.7037C27.9455 35.6497 28.9795 34.7587 30.1495 34.0557C30.2675 33.9842 30.306 33.8307 30.235 33.7127C30.1635 33.5942 30.0095 33.5557 29.892 33.6272C28.779 34.2962 27.7915 35.1357 26.9375 36.1107C26.91 35.9177 26.8805 35.7252 26.8565 35.5302C27.1145 35.2737 27.406 35.0537 27.7255 34.8792C27.8465 34.8127 27.8915 34.6607 27.825 34.5397C27.7585 34.4187 27.607 34.3742 27.4855 34.4402C27.2365 34.5762 27.0085 34.7442 26.791 34.9252C26.773 34.7527 26.754 34.5802 26.739 34.4067C27.7555 33.3762 28.9815 32.5247 30.3075 31.9477C30.434 31.8927 30.492 31.7452 30.437 31.6187C30.382 31.4927 30.2345 31.4342 30.108 31.4892C28.8565 32.0342 27.685 32.8097 26.688 33.7482C26.6605 33.3157 26.642 32.8757 26.634 32.4287C27.444 31.7042 28.3365 31.0717 29.291 30.5512C29.4125 30.4852 29.457 30.3332 29.391 30.2122C29.3245 30.0907 29.1725 30.0462 29.052 30.1122C28.1905 30.5822 27.3805 31.1432 26.63 31.7752C26.631 31.5827 26.634 31.3892 26.6385 31.1947C26.6705 31.1852 26.7015 31.1712 26.7285 31.1482C27.068 30.8632 27.4425 30.6227 27.8415 30.4332C27.9665 30.3742 28.0195 30.2247 27.96 30.1002C27.901 29.9752 27.752 29.9232 27.627 29.9817C27.284 30.1447 26.964 30.3512 26.6595 30.5792C26.6735 30.2682 26.6915 29.9552 26.7155 29.6407C27.402 29.2902 28.1285 29.0227 28.8815 28.8537C29.0165 28.8232 29.101 28.6897 29.0705 28.5552C29.04 28.4207 28.906 28.3367 28.772 28.3662C28.079 28.5217 27.4075 28.7552 26.7665 29.0572C26.785 28.8642 26.806 28.6712 26.8285 28.4772C27.1955 28.4152 27.552 28.3077 27.887 28.1437C28.0115 28.0832 28.0625 27.9337 28.002 27.8097C27.941 27.6852 27.7915 27.6337 27.668 27.6947C27.422 27.8147 27.161 27.8942 26.8945 27.9517C26.9105 27.8337 26.9275 27.7152 26.945 27.5972C27.198 27.5452 27.449 27.4812 27.6915 27.3927C27.821 27.3457 27.8885 27.2022 27.841 27.0722C27.794 26.9427 27.6515 26.8752 27.5205 26.9227C27.3595 26.9812 27.1945 27.0312 27.028 27.0722C27.061 26.8752 27.0955 26.6787 27.133 26.4817L28.126 26.2467C28.2605 26.2152 28.3435 26.0802 28.3115 25.9457C28.28 25.8112 28.1445 25.7277 28.0105 25.7602L27.239 25.9427C27.2845 25.7267 27.3325 25.5107 27.383 25.2952C27.882 25.1547 28.3885 25.0347 28.898 24.9522C29.034 24.9302 29.127 24.8017 29.105 24.6652C29.083 24.5292 28.956 24.4362 28.818 24.4582C28.383 24.5287 27.9505 24.6277 27.522 24.7397C27.552 24.6237 27.583 24.5082 27.6145 24.3927C27.8685 24.2867 28.1315 24.2027 28.402 24.1532C28.5375 24.1282 28.6275 23.9977 28.6025 23.8622C28.5775 23.7267 28.449 23.6367 28.3115 23.6617C28.1335 23.6942 27.958 23.7387 27.7855 23.7932C27.8365 23.6227 27.8905 23.4527 27.9455 23.2832C28.326 23.1042 28.721 22.9487 29.1215 22.8227C29.2535 22.7812 29.3265 22.6412 29.2855 22.5097C29.2445 22.3782 29.105 22.3047 28.9725 22.3457C28.699 22.4312 28.43 22.5337 28.1635 22.6437C28.199 22.5442 28.2345 22.4447 28.271 22.3457C28.574 22.1172 28.9065 21.9342 29.269 21.8152C29.4 21.7722 29.4715 21.6307 29.4285 21.4997C29.3855 21.3682 29.243 21.2967 29.113 21.3402C28.928 21.4012 28.7505 21.4782 28.578 21.5647C28.696 21.2782 28.8205 20.9942 28.9505 20.7127L30.8765 20.2407C31.011 20.2077 31.093 20.0727 31.06 19.9387C31.027 19.8042 30.89 19.7212 30.758 19.7552L29.231 20.1292C29.315 19.9612 29.4005 19.7937 29.489 19.6277C29.6265 19.6507 29.765 19.6707 29.905 19.6707C30.0745 19.6707 30.2445 19.6537 30.4095 19.6197C30.545 19.5917 30.632 19.4597 30.604 19.3247C30.576 19.1892 30.443 19.1032 30.309 19.1302C30.125 19.1682 29.9355 19.1697 29.747 19.1552C29.8815 18.9182 30.0215 18.6837 30.166 18.4522C30.6155 18.3137 31.0805 18.2362 31.554 18.2227C31.692 18.2187 31.801 18.1037 31.797 17.9657C31.793 17.8277 31.6715 17.7207 31.54 17.7227C31.211 17.7322 30.8865 17.7717 30.5665 17.8367C30.7005 17.6392 30.838 17.4432 30.9805 17.2502C31.5185 17.0967 32.0955 17.0647 32.642 17.1767C32.777 17.2047 32.9095 17.1172 32.937 16.9822C32.9645 16.8472 32.8775 16.7147 32.7425 16.6872C32.3185 16.6002 31.8775 16.5927 31.4445 16.6472C31.5755 16.4837 31.7105 16.3232 31.848 16.1637C31.8845 16.1882 31.925 16.2067 31.972 16.2087L32.847 16.2502C32.851 16.2502 32.855 16.2502 32.859 16.2502C32.9915 16.2502 33.102 16.1462 33.1085 16.0122C33.115 15.8742 33.0085 15.7572 32.8705 15.7507L32.245 15.7207C32.3785 15.5762 32.5155 15.4337 32.6545 15.2932L33.8405 15.0777C33.976 15.0527 34.0665 14.9227 34.042 14.7867C34.0175 14.6507 33.888 14.5612 33.751 14.5852L33.3085 14.6657C33.75 14.2647 34.2135 13.8807 34.707 13.5212C34.769 13.4762 34.8485 13.4512 34.931 13.4512C34.931 13.4512 34.931 13.4512 34.9315 13.4512C35.0125 13.4512 35.0915 13.4762 35.154 13.5217C41.885 18.4277 43.6925 27.4337 43.14 34.2262C43.01 35.8217 42.763 37.3687 42.406 38.8217C42.398 38.8537 41.624 41.9217 40.7255 43.4487ZM46.849 46.4442C45.9325 44.6342 44.2775 43.1462 42.311 42.4122C42.923 40.8602 43.3515 39.1642 43.377 39.0627C43.505 38.5417 43.614 38.0062 43.7145 37.4647C45.143 38.5172 46.2295 40.1337 46.7175 41.9787C47.09 43.3882 47.1325 44.9087 46.849 46.4442Z" fill="#2D2926"/>
<path d="M33.859 22.9771C33.86 22.8391 33.7495 22.7261 33.6115 22.7246C33.6105 22.7246 33.61 22.7246 33.609 22.7246C33.472 22.7246 33.36 22.8351 33.359 22.9721C33.3495 23.9546 33.842 24.9176 34.6445 25.4846C34.688 25.5156 34.7385 25.5306 34.7885 25.5306C34.867 25.5306 34.944 25.4936 34.993 25.4251C35.073 25.3126 35.046 25.1566 34.933 25.0766C34.2625 24.6026 33.851 23.7976 33.859 22.9771Z" fill="#2D2926"/>
</svg>
