<svg width="70" height="70" viewBox="0 0 70 70" fill="none" xmlns="http://www.w3.org/2000/svg">
<rect width="70" height="70" rx="35" fill="#F2DDDE"/>
<rect x="50" width="20" height="20" rx="10" fill="#F2DDDE"/>
<path d="M56.61 13.12C55.7033 13.12 54.97 12.7767 54.41 12.09C53.85 11.3967 53.57 10.5333 53.57 9.5C53.57 8.48 53.8533 7.62333 54.42 6.93C54.9933 6.23 55.73 5.88 56.63 5.88C57.53 5.88 58.26 6.22667 58.82 6.92C59.3867 7.61333 59.67 8.47333 59.67 9.5C59.67 10.52 59.3833 11.38 58.81 12.08C58.2433 12.7733 57.51 13.12 56.61 13.12ZM55.33 11.29C55.6633 11.77 56.0967 12.01 56.63 12.01C57.1633 12.01 57.59 11.7733 57.91 11.3C58.2367 10.82 58.4 10.22 58.4 9.5C58.4 8.79333 58.2333 8.2 57.9 7.72C57.5667 7.23333 57.1367 6.99 56.61 6.99C56.0767 6.99 55.6467 7.23 55.32 7.71C55 8.18333 54.84 8.78 54.84 9.5C54.84 10.2067 55.0033 10.8033 55.33 11.29ZM60.6287 13V12.03L63.0387 9.98C63.532 9.56667 63.872 9.22667 64.0587 8.96C64.252 8.68667 64.3487 8.39667 64.3487 8.09C64.3487 7.75667 64.242 7.49333 64.0287 7.3C63.8153 7.1 63.5453 7 63.2187 7C62.912 7 62.6353 7.08333 62.3887 7.25C62.1487 7.41667 61.8853 7.68333 61.5987 8.05L60.7287 7.37C61.0887 6.86333 61.4587 6.49333 61.8387 6.26C62.2253 6.02 62.7153 5.9 63.3087 5.9C63.9953 5.9 64.552 6.09333 64.9787 6.48C65.4053 6.86667 65.6187 7.37667 65.6187 8.01C65.6187 8.28333 65.5853 8.53 65.5187 8.75C65.452 8.96333 65.332 9.18333 65.1587 9.41C64.992 9.63 64.8087 9.83333 64.6087 10.02C64.4153 10.2 64.1453 10.4333 63.7987 10.72L62.3587 11.92H65.6887V13H60.6287Z" fill="#2D2926"/>
<path d="M22.5599 15.1699C24.4149 15.7399 26.4799 15.5399 28.4149 15.5649C30.5699 15.5899 32.7249 15.6249 34.8849 15.6349C38.8849 15.6349 43.2049 16.1099 47.1449 15.3749C47.2211 15.3588 47.2891 15.3163 47.3369 15.2549C47.3848 15.1935 47.4094 15.1172 47.4064 15.0394C47.4034 14.9616 47.373 14.8874 47.3206 14.8298C47.2682 14.7723 47.1971 14.7351 47.1199 14.7249C42.9999 13.9649 38.4599 14.4399 34.2949 14.4699C32.3699 14.4999 30.4449 14.4999 28.4999 14.5399C26.5549 14.5799 24.4249 14.3599 22.5299 14.9349C22.5026 14.943 22.479 14.9606 22.4635 14.9844C22.4479 15.0083 22.4413 15.0369 22.4449 15.0652C22.4485 15.0935 22.4621 15.1195 22.4832 15.1387C22.5042 15.1579 22.5314 15.169 22.5599 15.1699Z" fill="#2D2926"/>
<path d="M22.145 15.8597C22.145 15.6897 21.88 15.7197 21.86 15.8597C21.21 21.0097 21.58 26.4147 21.56 31.5997C21.56 36.8647 21.525 42.0997 21.73 47.3797C21.739 47.4469 21.7721 47.5085 21.8232 47.5531C21.8742 47.5978 21.9397 47.6224 22.0075 47.6224C22.0753 47.6224 22.1408 47.5978 22.1918 47.5531C22.2428 47.5085 22.2759 47.4469 22.285 47.3797C22.485 42.1397 22.475 36.8797 22.455 31.6597C22.435 26.4397 22.795 21.0247 22.145 15.8597Z" fill="#2D2926"/>
<path d="M36.615 46.6352C34.28 46.4302 31.87 46.7602 29.535 46.8602C27.2 46.9602 24.81 46.8252 22.535 47.3602C22.425 47.3602 22.46 47.5452 22.535 47.5652C24.685 48.0252 26.96 47.8552 29.145 47.8552C31.645 47.8552 34.225 48.0752 36.67 47.6952C37.31 47.5852 37.1849 46.6852 36.615 46.6352Z" fill="#2D2926"/>
<path d="M45.655 36.13C45.6797 36.2146 45.731 36.2889 45.8012 36.342C45.8714 36.3952 45.9569 36.4243 46.045 36.425C46.1105 36.4363 46.1778 36.4321 46.2415 36.4129C46.3052 36.3937 46.3635 36.3601 46.412 36.3145C46.4604 36.269 46.4977 36.2128 46.5208 36.1504C46.5438 36.088 46.5521 36.0212 46.545 35.955C46.705 32.905 46.545 29.81 46.545 26.755C46.51 23.37 46.635 19.9 46.23 16.535C46.23 16.5032 46.2174 16.4727 46.1948 16.4502C46.1723 16.4277 46.1418 16.415 46.11 16.415C46.0782 16.415 46.0476 16.4277 46.0251 16.4502C46.0026 16.4727 45.99 16.5032 45.99 16.535C45.625 19.585 45.73 22.72 45.69 25.79C45.645 29.19 45.48 32.63 45.655 36.025C45.6521 36.0533 45.6521 36.0818 45.655 36.11V36.13Z" fill="#2D2926"/>
<path d="M43.92 27.7654C41.345 27.1254 38.35 27.6504 35.715 27.7354C32.795 27.8304 29.435 27.5854 26.64 28.5154C26.545 28.5454 26.575 28.6654 26.64 28.6904C29.43 29.5404 32.825 29.2254 35.73 29.2554C38.415 29.2804 41.47 29.7104 44.07 28.9954C44.77 28.8004 44.45 27.8954 43.92 27.7654Z" fill="#2D2926"/>
<path d="M25.63 31.6197C28.03 32.1697 30.58 32.0597 33.03 32.0297C35.83 31.9997 38.76 32.0597 41.49 31.3697C41.99 31.2397 42.12 30.4197 41.49 30.3697C38.87 30.0997 36.205 30.4447 33.585 30.5947C30.965 30.7447 28.2 30.6847 25.615 31.2747C25.425 31.2997 25.455 31.5797 25.63 31.6197Z" fill="#2D2926"/>
<path d="M32.4 34.2947C34.635 34.3697 37.03 34.6847 39.205 34.1847C39.835 34.0397 39.62 33.1847 39.11 33.0347C37.3 32.5747 35.33 32.7897 33.465 32.8097C31.235 32.8097 28.965 32.7447 26.74 33.1197C26.315 33.1897 26.415 33.7747 26.74 33.8747C28.6132 34.1588 30.5054 34.2992 32.4 34.2947Z" fill="#2D2926"/>
<path d="M43.695 36.9095C43.587 36.8384 43.4642 36.7929 43.336 36.7765C43.2078 36.76 43.0775 36.773 42.955 36.8145C42.7084 36.9677 42.5147 37.1928 42.4 37.4595C42.1417 37.8428 41.7998 38.1625 41.4 38.3945C41.3708 38.4144 41.3485 38.443 41.3363 38.4762C41.3241 38.5095 41.3226 38.5457 41.332 38.5798C41.3413 38.6139 41.3611 38.6443 41.3885 38.6666C41.416 38.689 41.4497 38.7022 41.485 38.7045C42.305 38.6695 42.43 38.0395 42.905 37.5445C43.38 37.0495 43.77 37.5445 44.25 37.6245C44.6231 37.665 44.9995 37.5862 45.325 37.3995C45.385 37.3695 45.35 37.2795 45.29 37.2745C44.9565 37.3039 44.6206 37.2921 44.29 37.2395C44 37.1695 43.92 36.9995 43.695 36.9095Z" fill="#2D2926"/>
<path d="M39.3049 40.6551C39.4991 40.5854 39.6621 40.4489 39.7649 40.2701C40.0049 39.8601 39.9249 37.9451 40.8599 38.5751C40.8752 38.5904 40.8959 38.599 40.9174 38.599C40.939 38.599 40.9597 38.5904 40.9749 38.5751C40.9902 38.5599 40.9988 38.5392 40.9988 38.5176C40.9988 38.4961 40.9902 38.4754 40.9749 38.4601C40.8752 38.3223 40.7275 38.2269 40.5609 38.1926C40.3943 38.1584 40.2209 38.1878 40.0749 38.2751C39.9045 38.3996 39.7643 38.5609 39.6648 38.747C39.5652 38.9331 39.5089 39.1393 39.4999 39.3501C39.4929 39.5635 39.4524 39.7744 39.3799 39.9751C39.2549 40.1701 38.9999 40.2101 38.8099 40.2801C38.6335 40.3173 38.4728 40.4081 38.3499 40.5401C38.2463 40.7056 38.2107 40.9048 38.2508 41.096C38.2909 41.2871 38.4035 41.4553 38.5649 41.5651C38.5891 41.5825 38.6177 41.5926 38.6474 41.5942C38.6771 41.5958 38.7067 41.5888 38.7325 41.574C38.7583 41.5592 38.7794 41.5373 38.7931 41.5109C38.8068 41.4846 38.8127 41.4548 38.8099 41.4251C38.7835 41.307 38.7819 41.1847 38.8051 41.066C38.8283 40.9472 38.8759 40.8346 38.9449 40.7351C38.9999 40.6851 39.2249 40.6851 39.3049 40.6551Z" fill="#2D2926"/>
<path d="M38.685 45.8097C38.7652 45.6865 38.8024 45.5402 38.7906 45.3936C38.7788 45.2471 38.7188 45.1086 38.62 44.9997C38.494 44.8144 38.3444 44.6463 38.175 44.4997L37.89 44.2297C37.6433 43.7797 37.69 43.5014 38.03 43.3947C38.235 43.1597 38.46 43.1147 38.575 42.7697C38.6711 42.4861 38.6623 42.1774 38.55 41.8997C38.5438 41.8871 38.5343 41.8764 38.5223 41.8689C38.5104 41.8614 38.4966 41.8574 38.4825 41.8574C38.4684 41.8574 38.4546 41.8614 38.4427 41.8689C38.4307 41.8764 38.4211 41.8871 38.415 41.8997C38.3765 42.1024 38.3265 42.3028 38.265 42.4997C38.085 42.8647 37.765 42.9997 37.47 43.2297C37.3858 43.3042 37.3186 43.3958 37.2729 43.4984C37.2271 43.6011 37.204 43.7124 37.205 43.8247C37.2119 44.1092 37.316 44.3827 37.5 44.5997C37.63 44.7697 37.805 44.9097 37.935 45.0997C38.0759 45.3349 38.1948 45.5826 38.29 45.8397C38.3119 45.8739 38.3427 45.9015 38.379 45.9197C38.4154 45.9378 38.4559 45.9457 38.4964 45.9427C38.5369 45.9396 38.5759 45.9256 38.609 45.9022C38.6422 45.8788 38.6685 45.8468 38.685 45.8097Z" fill="#2D2926"/>
<path d="M41.695 49.1701C41.375 49.2051 40.375 49.6101 40.095 49.4601C39.63 49.2151 40.015 48.1851 39.965 47.8001C39.968 47.6831 39.9394 47.5675 39.8822 47.4654C39.825 47.3633 39.7413 47.2786 39.64 47.2201C39.575 47.1901 39.475 47.2201 39.42 47.1701H39.27C39.1069 47.0662 38.9802 46.9141 38.9076 46.7349C38.835 46.5556 38.8201 46.3582 38.865 46.1701C38.865 46.0901 38.76 46.0801 38.725 46.1351C38.46 46.5601 38.26 47.1351 38.685 47.5501C38.85 47.7051 39.115 47.6551 39.24 47.7551C39.53 47.9901 39.27 48.9451 39.3 49.2951C39.41 50.5801 41.145 50.0401 41.86 49.5251C42.035 49.4051 41.885 49.1501 41.695 49.1701Z" fill="#2D2926"/>
<path d="M45 49.9153C44.9245 49.8792 44.8432 49.8572 44.7599 49.8503C44.3499 49.8503 44.2249 50.0953 43.9199 50.2953C42.7949 51.0003 43.2 49.9103 42.705 49.5003C42.6294 49.4343 42.5369 49.3909 42.4379 49.3749C42.3388 49.359 42.2373 49.3713 42.145 49.4103C42.1264 49.4103 42.1086 49.4176 42.0955 49.4308C42.0823 49.4439 42.075 49.4617 42.075 49.4803C42.075 49.4988 42.0823 49.5166 42.0955 49.5298C42.1086 49.5429 42.1264 49.5503 42.145 49.5503C42.645 49.6803 42.52 50.7503 42.89 51.0853C43.0207 51.1962 43.185 51.2599 43.3564 51.2663C43.5278 51.2726 43.6963 51.2212 43.835 51.1203C44.105 50.9603 44.4 50.4603 44.78 50.5653C44.93 50.6053 45.12 50.8203 45.28 50.8753C45.4931 50.9616 45.726 50.9872 45.9528 50.9493C46.1796 50.9113 46.3915 50.8113 46.565 50.6603C46.765 50.5003 46.705 50.0803 46.385 50.1303C45.9122 50.1921 45.4317 50.1175 45 49.9153Z" fill="#2D2926"/>
<path d="M52.33 43.9995C52.41 43.0845 51.295 42.7145 51.375 41.7945C51.3784 41.7457 51.3643 41.6973 51.3351 41.658C51.306 41.6187 51.2637 41.5912 51.216 41.5803C51.1684 41.5695 51.1184 41.576 51.0751 41.5988C51.0318 41.6215 50.9981 41.659 50.98 41.7045C50.42 42.9295 52.1 43.3895 51.12 44.7545C50.95 44.9945 50.71 45.0945 50.65 45.4145C50.5 46.1845 51.09 46.7845 50.225 47.4145C50.2066 47.4295 50.192 47.4486 50.1825 47.4703C50.1729 47.4921 50.1686 47.5158 50.17 47.5395C50.17 47.5395 50.14 47.5145 50.12 47.5095C49.9475 47.4546 49.7618 47.4577 49.5912 47.5181C49.4206 47.5786 49.2744 47.6932 49.175 47.8445C48.94 48.2345 49.175 48.5695 49.13 48.9645C49.06 49.4645 48.225 49.3295 47.835 49.4645C47.6452 49.5119 47.4699 49.6051 47.3244 49.7358C47.1789 49.8665 47.0675 50.0309 47 50.2145C46.9946 50.2272 46.9934 50.2414 46.9967 50.2549C46.9999 50.2684 47.0074 50.2805 47.018 50.2895C47.0286 50.2984 47.0418 50.3037 47.0557 50.3046C47.0695 50.3055 47.0833 50.302 47.095 50.2945C47.5006 49.9925 47.9944 49.8326 48.5 49.8395C48.7828 49.878 49.0707 49.8291 49.325 49.6995C49.4243 49.6364 49.5091 49.553 49.5738 49.4548C49.6384 49.3565 49.6815 49.2456 49.7 49.1295C49.7178 48.9415 49.7178 48.7524 49.7 48.5645C49.7 48.2295 49.84 48.1195 50.135 47.9495C50.1847 47.9157 50.2222 47.8669 50.242 47.8101C50.2619 47.7534 50.2629 47.6918 50.245 47.6345H50.27C50.4944 47.6249 50.7113 47.5511 50.8948 47.4216C51.0784 47.2922 51.2207 47.1126 51.305 46.9045C51.535 46.4045 51.22 46.1145 51.255 45.6695C51.32 45.0645 52.265 44.7095 52.33 43.9995Z" fill="#2D2926"/>
<path d="M47.385 37.255C47.495 36.14 46.075 36.455 45.67 37.095C45.62 37.17 45.67 37.3 45.79 37.25C45.91 37.2 46.385 36.845 46.57 36.91C46.755 36.975 46.87 37.365 46.875 37.545C46.8651 37.609 46.8518 37.6725 46.835 37.735C46.8101 37.8724 46.8256 38.0141 46.8798 38.1428C46.9339 38.2716 47.0243 38.3818 47.14 38.46C47.3086 38.5408 47.4931 38.5827 47.68 38.5827C47.8669 38.5827 48.0514 38.5408 48.22 38.46C48.625 38.34 48.775 38.375 48.865 38.795C48.8976 39.0131 48.9742 39.2224 49.09 39.41C49.1097 39.4354 49.1361 39.4548 49.1663 39.4658C49.1965 39.4768 49.2291 39.479 49.2605 39.4722C49.2919 39.4654 49.3207 39.4499 49.3437 39.4273C49.3666 39.4048 49.3826 39.3763 49.39 39.345C49.44 38.955 49.39 38.115 48.95 37.915C48.7061 37.847 48.4461 37.8665 48.215 37.97C47.86 38.07 47.36 38.4 47.32 37.525C47.336 37.4338 47.3577 37.3436 47.385 37.255Z" fill="#2D2926"/>
<path d="M49.835 40.5399C50.063 40.6401 50.3115 40.6847 50.56 40.6699C50.92 40.6699 50.895 40.9099 50.98 41.1999C50.98 41.2662 51.0064 41.3298 51.0532 41.3767C51.1001 41.4236 51.1637 41.4499 51.23 41.4499C51.2963 41.4499 51.3599 41.4236 51.4068 41.3767C51.4537 41.3298 51.48 41.2662 51.48 41.1999C51.5512 40.9929 51.5388 40.7663 51.4454 40.5683C51.352 40.3703 51.185 40.2166 50.98 40.1399C50.7583 40.0813 50.5271 40.0676 50.3 40.0999C50.1964 40.1193 50.0893 40.1013 49.9977 40.0491C49.9062 39.9969 49.8361 39.9139 49.8 39.8149C49.793 39.8114 49.7853 39.8096 49.7775 39.8096C49.7697 39.8096 49.762 39.8114 49.755 39.8149C49.36 39.8549 49.615 40.4149 49.835 40.5399Z" fill="#2D2926"/>
<path d="M49.19 42.3797C48.32 39.9897 45.41 39.0747 43.24 40.2347C42.985 40.3697 43.24 40.7047 43.455 40.6447C45.1 40.2497 46.955 40.4497 48.02 41.9397C49.605 44.1897 48.15 46.6047 45.895 47.4147C44.09 48.0597 42.17 47.8497 41.26 45.9847C40.35 44.1197 40.86 40.5247 43.26 39.9147C43.2735 39.9108 43.2855 39.9026 43.294 39.8913C43.3025 39.8801 43.3071 39.8663 43.3071 39.8522C43.3071 39.8381 43.3025 39.8243 43.294 39.8131C43.2855 39.8018 43.2735 39.7936 43.26 39.7897C40.65 40.0597 39.88 43.6847 40.6 45.7897C41.51 48.4347 44.2 48.7897 46.54 47.8197C48.7 46.9097 50.05 44.7497 49.19 42.3797Z" fill="#2D2926"/>
<path d="M43.745 44.2701L43.53 44.0701C43.2301 43.8198 42.9879 43.5077 42.82 43.1551C42.7966 43.0976 42.7551 43.0494 42.7019 43.0177C42.6486 42.9859 42.5864 42.9724 42.5248 42.9792C42.4632 42.986 42.4054 43.0127 42.3604 43.0553C42.3153 43.0978 42.2853 43.1539 42.275 43.2151C42.16 43.8551 42.585 44.3051 42.985 44.7701C43.275 45.1051 43.62 45.6451 44.125 45.5401C44.63 45.4351 45.055 44.7951 45.42 44.4651C46.1626 43.9007 46.8582 43.277 47.5 42.6001C47.72 42.3251 47.5 41.8151 47.115 41.9501C46.2118 42.333 45.4018 42.906 44.74 43.6301C44.55 43.8151 44.36 44.0001 44.175 44.1951L43.955 44.4251C43.955 44.3801 43.885 44.3251 43.745 44.2701Z" fill="#2D2926"/>
<path d="M48.075 56.5003C48.0822 55.936 48.0572 55.3717 48 54.8103C47.955 53.8903 47.915 52.9653 47.835 52.0503C47.8336 52.0267 47.8271 52.0037 47.8159 51.983C47.8047 51.9623 47.789 51.9442 47.77 51.9303C47.7734 51.9032 47.7713 51.8757 47.7638 51.8495C47.7562 51.8233 47.7434 51.7989 47.7261 51.7778C47.7087 51.7567 47.6873 51.7394 47.663 51.7269C47.6388 51.7145 47.6122 51.7071 47.585 51.7053C46.9399 51.7356 46.294 51.6664 45.67 51.5003C45.3789 51.3356 45.0632 51.2191 44.735 51.1553C44.539 51.1578 44.3493 51.2245 44.195 51.3453C43.81 51.5503 43.76 51.7203 43.345 51.7703C43.0039 51.7914 42.6624 51.7368 42.345 51.6103C42.285 51.6103 42.21 51.6553 42.25 51.7153C42.67 52.3803 43.35 52.3253 43.98 52.0803C43.795 52.1603 43.615 52.2553 43.45 52.3353C43.0275 52.5038 42.6433 52.7554 42.32 53.0753C42.32 52.7303 42.275 52.3903 42.255 52.0753C42.255 51.9003 42 51.9203 41.99 52.0753C41.89 53.8403 41.68 55.7353 41.915 57.4903C41.95 57.7453 42.31 57.6753 42.34 57.4553C42.34 57.3503 42.34 57.2453 42.37 57.1403C43.1434 56.8147 43.8849 56.418 44.585 55.9553C44.585 56.0303 44.585 56.1053 44.615 56.1753C44.6233 56.2061 44.6415 56.2332 44.6668 56.2526C44.6921 56.272 44.7231 56.2825 44.755 56.2825C44.7868 56.2825 44.8178 56.272 44.8431 56.2526C44.8685 56.2332 44.8867 56.2061 44.895 56.1753C44.895 56.0753 44.92 55.9803 44.935 55.8803C45.6845 56.4793 46.5297 56.9475 47.435 57.2653C47.4477 57.3111 47.4721 57.3528 47.5058 57.3863C47.5394 57.4199 47.5812 57.4441 47.627 57.4567C47.6729 57.4693 47.7212 57.4698 47.7673 57.4582C47.8133 57.4465 47.8556 57.4231 47.89 57.3903C47.9962 57.3894 48.099 57.3522 48.1812 57.2849C48.2633 57.2175 48.32 57.124 48.3416 57.0199C48.3632 56.9159 48.3485 56.8076 48.3 56.713C48.2515 56.6185 48.1721 56.5434 48.075 56.5003ZM42.375 54.2903C42.3906 54.2978 42.4076 54.3017 42.425 54.3017C42.4423 54.3017 42.4594 54.2978 42.475 54.2903C43.14 53.9553 43.83 53.6753 44.475 53.3503C44.475 53.4503 44.475 53.5503 44.475 53.6503C44.4423 53.6408 44.4076 53.6408 44.375 53.6503C43.6889 53.962 43.0211 54.3125 42.375 54.7003C42.395 54.5803 42.385 54.4453 42.38 54.3053L42.375 54.2903ZM42.405 54.9453C43.1382 54.7142 43.8414 54.397 44.5 54.0003C44.5 54.1653 44.5 54.3303 44.5 54.5003C43.7523 54.7533 43.0526 55.1302 42.43 55.6153C42.4233 55.3986 42.415 55.1803 42.405 54.9603V54.9453ZM44.25 51.9453C44.3604 51.8868 44.4759 51.8383 44.595 51.8003V51.8603C44.4236 51.8954 44.2561 51.9473 44.095 52.0153L44.25 51.9453ZM43.675 52.7003C43.94 52.5903 44.24 52.5053 44.525 52.4003C44.525 52.5653 44.525 52.7303 44.525 52.9003C43.7448 53.1531 43.0189 53.5499 42.385 54.0703C42.385 53.7953 42.35 53.5253 42.335 53.2503C42.8022 53.1261 43.2536 52.9482 43.68 52.7203L43.675 52.7003ZM44.44 55.1353C44.05 55.7353 43.09 56.2503 42.385 56.6853C42.385 56.4203 42.41 56.1503 42.415 55.8803C43.09 55.4903 43.83 55.1953 44.48 54.7853C44.48 54.8853 44.48 54.9803 44.48 55.0803L44.44 55.1353ZM44.94 55.0153C44.94 54.6703 44.94 54.3253 44.94 53.9803C44.94 53.6353 44.94 53.3703 44.94 53.0653C44.9534 53.0298 44.9534 52.9907 44.94 52.9553C44.94 52.7003 44.94 52.4553 44.94 52.1953C44.9866 52.1696 45.0317 52.1412 45.075 52.1103C45.165 52.0353 45.155 51.8503 45.015 51.8353H44.9V51.8053C44.9896 51.8275 45.078 51.8542 45.165 51.8853C45.4453 52.0184 45.7323 52.1369 46.025 52.2403C46.5081 52.3789 47.0236 52.3525 47.49 52.1653C47.415 53.0553 47.375 53.9453 47.335 54.8353C47.335 55.2803 47.27 55.7353 47.27 56.1853C46.4652 55.8797 45.6931 55.4944 44.965 55.0353L44.94 55.0153Z" fill="#2D2926"/>
</svg>
