<svg width="46" height="50" viewBox="0 0 46 50" fill="none" xmlns="http://www.w3.org/2000/svg">
<path d="M31.55 27C30.55 26.85 29.6 26.75 28.6 26.65C27.35 26.5 26.3 26.95 25.8 28.1C24.55 30.95 22.1 32.8 20.15 34.95C15.9 39.6 10.85 43.55 6.69998 48.35C5.64998 49.55 3.44998 49.2 1.99998 47.9C0.499979 46.55 0.349979 45.25 1.59998 43.65C4.19998 40.5 6.99998 37.5 9.44998 34.2C12.15 30.5 16.1 28.05 18.95 24.5C20.8 22.2 20.95 22.45 19.7 19.55C16.9 13.1 19.2 2.55002 27.7 0.850021C34.15 -0.449979 42.2 1.85002 44.65 8.45002C47.45 15.95 43.65 24.3 35.6 26.45C34.3 26.8 32.95 27.15 31.55 27ZM31.2 21.4C35.2 22.5 40.35 14.85 39.6 11.4C38.65 7.20002 34.8 5.30002 31 7.25002C27.85 8.85002 26.2 11.5 25.7 14.85C25.1 18.8 27.25 21.3 31.2 21.4Z" fill="#F2DDDE"/>
</svg>
