<svg width="44" height="52" viewBox="0 0 44 52" fill="none" xmlns="http://www.w3.org/2000/svg">
<path d="M20.26 1.76002C17.56 5.18002 14.98 8.66002 12.52 12.26C11.8 13.28 11.8 14.66 12.76 15.5C13.66 16.22 15.28 16.28 16 15.26C17.02 13.82 17.98 12.38 19.06 11C18.76 16.4 18.52 21.86 18.58 27.32C18.64 34.58 19.18 41.78 20.02 48.98C20.38 51.92 24.94 51.56 24.64 48.62C23.8 41.48 23.32 34.4 23.2 27.26C23.14 23.3 23.26 19.34 23.44 15.38C24.1 16.64 24.82 17.9 25.48 19.16C26.08 20.24 27.76 20.36 28.72 19.7C29.86 18.92 29.86 17.6 29.26 16.46C27.04 12.32 24.34 7.88002 24.28 3.02002C24.34 1.10002 21.46 0.260023 20.26 1.76002Z" fill="#F2DDDE"/>
<path d="M2.02 27.5C3.1 27.98 4.24 27.56 4.84 26.54C5.14 25.94 5.5 25.4 5.86 24.86C5.62 29.24 5.5 33.62 5.98 38C6.22 40.04 6.52 42.14 6.82 44.18C7 45.26 7.9 46.22 9.04 46.1C10.06 45.98 11.14 45.02 10.96 43.88C10.24 39.68 9.76 35.48 9.76 31.28C9.76 30.32 9.76 29.36 9.82 28.4C9.82 27.92 9.88 27.44 9.88 26.9C9.88 26.72 9.88 26.48 9.94 26.3C9.94 26.24 9.94 25.82 10 25.76C10.06 25.22 10.06 24.68 10.12 24.14C10.66 24.98 11.2 25.82 11.74 26.72C12.28 27.68 13.78 27.92 14.62 27.26C15.58 26.54 15.76 25.34 15.16 24.38C13.66 21.86 11.98 19.52 10.06 17.3C9.94 17.18 9.88 17.06 9.76 16.94C8.86 16.1 7.54 15.92 6.64 16.94C4.54 19.34 2.68 21.98 1.18 24.8C0.519997 25.64 0.999998 27.02 2.02 27.5Z" fill="#F2DDDE"/>
<path d="M41.98 27.5C40.9 27.98 39.76 27.56 39.16 26.54C38.86 25.94 38.5 25.4 38.14 24.86C38.38 29.24 38.5 33.62 38.02 38C37.78 40.04 37.48 42.14 37.18 44.18C37 45.26 36.1 46.22 34.96 46.1C33.94 45.98 32.86 45.02 33.04 43.88C33.76 39.68 34.24 35.48 34.24 31.28C34.24 30.32 34.24 29.36 34.18 28.4C34.18 27.92 34.12 27.44 34.12 26.9C34.12 26.72 34.12 26.48 34.06 26.3C34.06 26.24 34.06 25.82 34 25.76C33.94 25.22 33.94 24.68 33.88 24.14C33.34 24.98 32.8 25.82 32.26 26.72C31.72 27.68 30.22 27.92 29.38 27.26C28.42 26.54 28.24 25.34 28.84 24.38C30.34 21.86 32.02 19.52 33.94 17.3C34.06 17.18 34.12 17.06 34.24 16.94C35.14 16.1 36.46 15.92 37.36 16.94C39.46 19.34 41.32 21.98 42.82 24.8C43.48 25.64 43 27.02 41.98 27.5Z" fill="#F2DDDE"/>
</svg>
