<svg width="50" height="50" viewBox="0 0 50 50" fill="none" xmlns="http://www.w3.org/2000/svg">
<path fill-rule="evenodd" clip-rule="evenodd" d="M7.29136 28.3829L6.66735 28.8691L7.29136 28.3829ZM8.68014 32.692C8.78644 32.068 9.03447 31.8593 8.98132 31.0709C8.93211 30.3435 8.66144 30.1733 8.96951 29.4833C9.41341 28.4902 12.2904 27.0266 13.4744 26.5217C14.5561 26.0601 15.0246 25.7717 15.9912 25.3022C16.8711 24.8741 17.8681 24.6063 18.8061 24.2156C23.1546 22.4046 23.5935 22.1654 26.9341 19.1093L29.6112 16.1949C30.1388 15.5502 30.6063 14.7146 31.0571 13.9144L31.6201 12.9794C31.6408 12.9439 31.6664 12.8957 31.686 12.8603C32.6821 11.13 33.1014 12.1723 34.3603 11.6122C34.9823 11.3357 34.816 11.0227 35.5384 11.2254C35.9882 11.3514 37.3612 12.2304 37.9616 12.5365L42.5168 15.4558C42.4075 16.8652 42.1181 16.3367 42.3918 18.1684C42.0561 18.5473 41.9193 18.5926 41.5049 18.9587L39.4223 21.3455C38.2481 22.7195 37.7284 24.2894 37.1349 25.2097C36.7048 25.877 36.3111 26.4036 35.7727 27.0158C35.25 27.6103 35.1309 28.0699 34.4872 28.7156C33.8642 29.3416 33.749 29.7993 33.2166 30.4184C31.0128 32.9774 30.8986 31.88 29.7736 33.1241C27.8918 35.2067 28.692 34.2943 26.3298 35.8308C25.3672 36.4577 20.5 38.6132 20.0325 38.626C19.2766 38.6467 18.9469 38.0138 17.6831 38.2117C16.7864 38.3524 16.3947 38.9056 15.5679 39.0286C14.6427 37.065 14.0168 36.6378 12.4134 35.4804C11.0276 34.4804 10.0118 33.2874 8.68014 32.692ZM3.81203 33.0739C3.27266 33.1939 3.58073 32.9813 3.3327 33.6339C3.7392 34.2274 11.4252 36.9498 14.689 42.8839C16.1359 45.5138 17.0758 44.3426 17.8278 43.9105L22.8396 41.0975C24.7107 40.065 30.1152 37.2914 31.2008 36.4203C31.7923 35.9459 32.1103 35.7865 32.7746 35.375C33.1988 35.1122 33.6418 34.5306 34.1575 34.1536C34.7441 33.7245 34.9705 33.3898 35.5601 32.9479C38.4144 30.8101 39.3563 28.2687 39.9252 27.6182C40.813 26.6014 40.1851 28.5906 42.5138 24.252C42.8583 23.6103 42.8307 23.2432 43.3878 22.5187L46.2933 18.8987C46.6063 18.5709 46.6132 18.4558 46.8701 18.1723L48.3229 17.0502C47.3219 15.7333 47.2717 14.7008 44.8622 12.7156L42.129 10.6004C41.3386 10.189 40.7796 9.85437 40.1349 9.44099C39.1949 8.83863 38.7766 8.88489 37.8977 8.50103C36.4262 7.85831 34.9931 6.85634 33.2599 6.66638C32.6191 7.39079 32.4134 7.66048 31.6103 8.31697C31.2303 8.628 31.1605 8.83272 30.7963 9.18311C30.128 9.82878 30.4311 9.2028 29.9951 10.2215L27.4557 14.6004C23.3632 20.3219 11.8799 23.2313 7.35928 27.4882C6.28743 28.4991 5.55416 28.9459 4.71558 30.2481C3.8642 31.5689 3.9764 31.8367 3.81203 33.0739Z" fill="#F2DDDE"/>
<path fill-rule="evenodd" clip-rule="evenodd" d="M27.7057 22.4322C26.7687 22.6674 26.6299 22.4588 26.1024 22.57C25.0965 22.7826 26.0286 22.504 25.4912 22.882C23.9538 23.9607 21.0384 26.629 21.8839 28.631L22.6211 29.9243C23.9784 32.7225 30.8632 28.13 29.8297 24.2019C29.6112 23.3731 28.2835 22.2865 27.7057 22.4322Z" fill="#F2DDDE"/>
</svg>
