<svg width="120" height="120" viewBox="0 0 120 120" fill="none" xmlns="http://www.w3.org/2000/svg">
<rect width="120" height="120" rx="60" fill="#1F1C1A"/>
<path fill-rule="evenodd" clip-rule="evenodd" d="M60.3884 40.8135C60.1636 40.8135 60.012 40.8067 59.9328 40.7935C59.7212 40.7803 59.5624 40.7475 59.4568 40.6943L59.358 40.6151L59.4168 40.5359C59.496 40.4567 59.642 40.3708 59.8532 40.2783C60.3948 39.9875 61.5316 39.8491 63.2628 39.8623C63.4348 39.8623 63.5208 40.0471 63.5208 40.4172C63.5208 40.7607 63.4284 40.9323 63.2432 40.9323L60.3884 40.8135ZM42.0512 41.3088C42.1176 41.2296 42.2564 41.1435 42.4676 41.0511C43.0228 40.7476 44.1592 40.6151 45.8772 40.6547C46.0624 40.6547 46.1548 40.8328 46.1548 41.1895C46.1548 41.5463 46.0624 41.7243 45.8772 41.7243L42.5468 41.5659C42.3356 41.5527 42.1832 41.5199 42.0908 41.4667L41.992 41.3875L42.0512 41.3088ZM41.3376 28.6079C40.9676 28.8588 40.5644 29.1891 40.1288 29.5987C39.4812 30.2327 38.7936 31.0055 38.0672 31.9167C37.6968 32.3923 37.1552 33.1255 36.442 34.1163C36.1112 34.5915 35.682 35.2523 35.1532 36.0979C34.2808 37.4715 33.706 38.5351 33.428 39.2879C33.1112 40.1331 33.0584 40.8468 33.2696 41.4279C33.4016 41.8244 33.666 42.2071 34.0624 42.5775L34.5776 43.0132C34.5908 42.7756 34.6104 42.4847 34.6368 42.1415L34.756 41.4675L34.974 40.7739C35.1988 40.2191 35.4764 39.7635 35.8064 39.4071C36.1768 39.0107 36.632 38.7071 37.1744 38.4955C37.6372 38.3107 38.1328 38.1851 38.6612 38.1191C38.8332 38.0795 39.0776 38.0463 39.3948 38.0199C39.54 38.0199 39.7848 38.0063 40.1284 37.9799C40.7364 37.9535 41.1992 37.9271 41.516 37.9007C42.8244 37.8479 43.8356 37.8415 44.5488 37.8811C44.6284 37.8811 44.84 37.9075 45.1836 37.9603C45.4344 38.0003 45.6988 38.0727 45.9764 38.1783C46.6236 38.4691 46.8948 38.7927 46.7888 39.1491C46.7096 39.4663 46.3596 39.6647 45.738 39.7435L45.0248 39.8032L44.4496 39.7831C43.5644 39.7435 42.6124 39.7568 41.5952 39.8228L40.1872 39.8819C39.6188 39.9083 39.1956 39.9411 38.9184 39.9811C38.046 40.1136 37.4516 40.3575 37.1344 40.7143C36.804 41.0448 36.5792 41.6127 36.46 42.4183C36.3544 43.1583 36.3412 43.8256 36.42 44.4195C36.42 44.4988 36.4468 44.6307 36.4992 44.8159L36.6184 45.1327C36.7108 45.3047 36.8368 45.4363 36.9948 45.5291C37.1668 45.6479 37.398 45.7271 37.6884 45.7671C37.7808 45.7931 38.0652 45.8399 38.5412 45.9059L41.9704 46.1235C42.314 46.1499 42.572 46.1632 42.7436 46.1632H46.1336C46.4908 46.15 46.7616 46.084 46.9468 45.9651C47.1184 45.8727 47.244 45.6943 47.3228 45.4303C47.3892 45.2192 47.4352 44.9483 47.462 44.6179L47.482 43.8055C47.4424 42.2471 47.3036 40.9855 47.0656 40.0211L46.9072 39.4859V39.3672L46.9864 39.4463L47.3436 39.9219C47.6736 40.4503 47.9516 41.2299 48.176 42.2599C48.242 42.1147 48.3412 41.9827 48.4732 41.8635L49.0084 41.5067C49.4048 41.3483 49.702 41.2491 49.9004 41.2095L50.4948 41.1103L51.2088 41.0907C51.5128 41.1303 51.7968 41.1831 52.0612 41.2491L52.3384 40.0007C52.5632 39.4459 52.8408 38.9903 53.1708 38.6335C53.5804 38.2243 54.0368 37.9203 54.5388 37.7223C54.9752 37.5503 55.4776 37.4183 56.0456 37.3259L57.4928 37.2071C58.1008 37.1807 58.5636 37.1543 58.8808 37.1279C60.1892 37.0751 61.2 37.0683 61.9136 37.1079L62.548 37.1671C62.8784 37.2467 63.1492 37.3259 63.3608 37.4051C63.9952 37.6691 64.266 37.9931 64.1732 38.3763C64.0812 38.6931 63.724 38.8915 63.1032 38.9707C62.9444 38.9971 62.7064 39.0103 62.3892 39.0103C62.1512 39.0367 61.9596 39.0367 61.8144 39.0103C61.0216 38.9839 60.0696 38.9903 58.9596 39.0299C58.6292 39.0563 58.16 39.0827 57.552 39.1091C56.9836 39.1355 56.5672 39.1683 56.3028 39.2083C55.4704 39.3139 54.8688 39.5583 54.4988 39.9415C54.1688 40.2719 53.9436 40.8331 53.8244 41.6256C53.7188 42.3787 53.7056 43.0524 53.7848 43.6467C53.7848 43.7392 53.8112 43.8715 53.864 44.0431L53.9832 44.3603C54.0752 44.5319 54.208 44.6639 54.3796 44.7567C54.538 44.8491 54.7628 44.9283 55.0532 44.9943L59.3356 45.3511L63.5184 45.3908C63.8752 45.3644 64.1396 45.2983 64.3112 45.1924C64.4828 45.0999 64.6084 44.9216 64.6876 44.6576C64.7536 44.4328 64.8 44.1623 64.8264 43.8451C64.8528 43.4619 64.8592 43.1911 64.8464 43.0327C64.7936 41.3419 64.6548 40.0803 64.43 39.2484C64.3376 38.9576 64.2912 38.7795 64.2912 38.7135L64.2712 38.5947L64.3504 38.6739C64.4824 38.8063 64.6016 38.9647 64.7076 39.1491C65.0908 39.7699 65.4012 40.7279 65.6392 42.0223L66.1944 41.6063C66.6436 41.2895 66.888 40.9788 66.928 40.6751C67.0072 40.2523 66.822 39.5851 66.3728 38.6739L65.8972 37.6239L64.688 35.7019C64.6352 35.6095 64.4236 35.3319 64.0536 34.8695L60.6244 30.8868C60.0296 30.2128 59.6924 29.8431 59.6132 29.7771C59.2168 29.3811 58.8996 29.1431 58.662 29.0639C58.556 29.0243 58.4236 29.0243 58.2652 29.0639C58.0804 29.1035 57.8692 29.1827 57.6308 29.3015C56.8244 29.6715 56.2764 29.6055 55.9856 29.1035C55.8004 28.7863 55.8404 28.4627 56.1048 28.1323C56.2896 27.8815 56.5208 27.6963 56.7984 27.5775C57.2608 27.3795 57.6176 27.2539 57.8692 27.2012C58.3316 27.0824 58.7808 27.0955 59.2168 27.2407C59.6 27.3731 59.9436 27.5643 60.2476 27.8155C60.4988 28.0135 60.7368 28.2247 60.9612 28.4491C61.252 28.7531 61.6156 29.1628 62.0516 29.6775L64.6884 32.9071C64.86 33.1187 65.098 33.4419 65.402 33.8779C65.6664 34.2347 65.8776 34.5519 66.0364 34.8291L67.206 37.0483L67.6024 38.2371C67.6688 38.3955 67.7412 38.6335 67.8204 38.9503C67.8996 39.2675 67.946 39.4987 67.9596 39.6439C68.0256 40.1723 67.9856 40.6215 67.8404 40.9915C67.6952 41.3215 67.4568 41.5991 67.1268 41.8235C66.9684 41.9291 66.7436 42.0415 66.4524 42.1603C66.2016 42.2527 65.9504 42.3187 65.6992 42.3583C65.7388 42.5567 65.772 42.768 65.7984 42.9923C65.8908 43.8247 65.8844 44.4915 65.7788 44.9935L65.6796 45.2908L65.5208 45.6275C65.3756 45.8655 65.1972 46.0571 64.986 46.2024C64.6288 46.4531 64.166 46.6183 63.598 46.6975L63.2608 46.7171C63.1816 46.7303 63.0692 46.7372 62.9236 46.7372C62.6328 46.7635 62.4152 46.7767 62.2692 46.7767C61.9524 46.8031 61.4768 46.8295 60.8424 46.8559C60.4988 46.8823 60.2408 46.8955 60.0688 46.8955L57.5712 46.8755C57.214 46.8755 56.5996 46.8496 55.7276 46.7964C55.3708 46.77 55.0204 46.7236 54.6772 46.6576C54.2016 46.5779 53.7984 46.4396 53.468 46.2416C52.9924 45.9508 52.6484 45.6007 52.4372 45.1912C52.1992 44.7556 52.0608 44.3127 52.0208 43.864C51.968 43.5732 51.9416 43.3619 51.9416 43.2299C51.4132 42.9792 50.7852 42.8404 50.0584 42.8136C49.7148 42.8004 49.4768 42.7875 49.3448 42.774C49.1996 42.7872 49.0208 42.7808 48.8092 42.754C48.5716 42.754 48.3864 42.7343 48.2544 42.6947C48.3208 43.0251 48.3796 43.3815 48.4328 43.7647C48.5248 44.5968 48.5188 45.2639 48.4128 45.7659L48.3136 46.0827L48.1552 46.3999C47.9832 46.6639 47.8048 46.8556 47.62 46.9748C47.2632 47.226 46.8004 47.3907 46.232 47.4699L45.56 47.5107C45.2692 47.5371 45.0444 47.5503 44.886 47.5503L40.188 47.6691C39.9108 47.656 39.3028 47.6231 38.364 47.57C38.0468 47.5567 37.6964 47.5171 37.3132 47.4511C36.798 47.3455 36.3948 47.2003 36.104 47.0152C35.6152 46.7379 35.2648 46.3875 35.0536 45.9651C34.8424 45.5819 34.7032 45.1395 34.6372 44.6375C34.5976 44.2411 34.578 44.0299 34.578 44.0035L34.5584 43.3895C34.2808 43.3367 33.9964 43.2311 33.7056 43.0727C33.4944 42.9671 33.2764 42.8216 33.0512 42.6367C32.7608 42.3727 32.536 42.0951 32.3772 41.8043C32.152 41.4079 32.0336 40.9719 32.02 40.4967C31.9804 40.0079 32.0332 39.4727 32.1788 38.8915C32.4296 37.9667 32.9584 36.7583 33.7648 35.2655C34.5708 33.7595 35.5284 32.2671 36.6392 30.7875C37.3528 29.8231 38.0732 28.978 38.7996 28.2512C39.3416 27.7096 39.8436 27.2935 40.3068 27.0027C40.624 26.7915 40.974 26.6128 41.3572 26.4676C41.9124 26.296 42.4148 26.2827 42.864 26.4279C42.9964 26.4543 43.0892 26.4871 43.1412 26.5271L43.4584 26.7251C43.5376 26.7779 43.6304 26.8771 43.736 27.0223C43.8284 27.1543 43.888 27.2663 43.9144 27.3591C43.9672 27.5175 43.9936 27.6236 43.9936 27.676L43.9536 27.9732C43.9008 28.1316 43.782 28.2639 43.5968 28.3695C43.4384 28.4355 43.2596 28.4552 43.0612 28.4288C42.9824 28.4288 42.9096 28.4091 42.8432 28.3695L42.6452 28.3299C42.5 28.2771 42.394 28.2507 42.328 28.2507C42.2488 28.2243 42.1232 28.2375 41.9516 28.2903C41.7408 28.3703 41.536 28.476 41.3376 28.6079Z" fill="#F2DDDE"/>
</svg>
