<svg width="120" height="120" viewBox="0 0 120 120" fill="none" xmlns="http://www.w3.org/2000/svg">
<rect width="120" height="120" rx="60" fill="#1F1C1A"/>
<path d="M58.5508 17.5116C55.2876 16.2816 51.6616 18.1392 49.898 20.9284C48.7136 22.8016 48.224 25.0176 47.9168 27.1832C47.7808 28.1412 47.6596 29.102 47.5428 30.0632C46.4696 28.1716 45.1092 26.452 43.4684 24.992C41.7192 23.4356 37.1352 19.5116 35.0684 22.3676C32.8476 25.4364 33.9972 29.8604 35.4588 32.9668C37.0472 36.3436 39.406 39.4436 41.8028 42.2844C44.5428 45.532 47.6492 48.4124 51.0176 50.9944C51.0096 51.0232 51.0008 51.052 50.9928 51.0808C50.4532 53.0068 53.446 53.8288 53.9848 51.9056C56.3268 43.5484 60.6864 35.7716 61.9292 27.11C62.4312 23.6104 62.5244 19.0096 58.5508 17.5116ZM49.6452 35.8896C49.6316 35.8648 49.6184 35.84 49.6052 35.8152C49.6276 35.7936 49.6492 35.7716 49.6704 35.7488C49.662 35.7956 49.6536 35.8428 49.6452 35.8896ZM43.1084 31.4864C43.2376 31.8776 43.3652 32.2692 43.5008 32.658C42.9628 31.8552 42.4384 31.0436 41.93 30.222C42.3308 30.636 42.7236 31.0576 43.1084 31.4864ZM51.3496 46.5408C51.534 46.954 51.718 47.3676 51.9012 47.7812C51.4276 47.4048 50.9588 47.0224 50.4984 46.6304C50.7816 46.6992 51.0772 46.6584 51.3496 46.5408ZM57.1248 20.3092C59.1156 20.7568 59.2008 23.1164 59.0928 24.7636C59.0924 24.7672 59.092 24.7712 59.092 24.7748C58.7064 24.8384 58.3428 25.068 58.0932 25.5192C57.0008 27.4948 56.0804 29.5408 55.2808 31.6332C55.6016 28.1732 56.07 24.7268 56.6908 21.3012C56.7608 20.9144 56.6908 20.5464 56.532 20.2336C56.7308 20.2408 56.9292 20.2652 57.1248 20.3092ZM51.8156 23.978C51.3192 25.7284 51.1088 27.6036 50.8024 29.3388C50.7236 29.7848 50.6448 30.2304 50.5664 30.6764C50.6808 29.716 50.8 28.7568 50.938 27.8004C51.1192 26.546 51.3476 25.2032 51.8156 23.978ZM44.2788 40.422C41.862 37.602 39.4276 34.4324 37.9544 30.9988C37.562 30.084 37.2268 29.0964 37.0628 28.0916C37.3056 28.5012 37.5476 28.892 37.75 29.2528C38.8804 31.2692 40.1216 33.2216 41.4304 35.1268C43.9288 38.7644 46.6692 42.2292 49.414 45.6828C47.5892 44.044 45.8736 42.2824 44.2788 40.422Z" fill="#F2DDDE"/>
</svg>
