<svg width="120" height="120" viewBox="0 0 120 120" fill="none" xmlns="http://www.w3.org/2000/svg">
<rect width="120" height="120" rx="60" fill="#1F1C1A"/>
<path d="M56 31.9639C55.888 30.9079 55.976 28.6799 55.2 27.9639C54.644 27.4519 53.696 27.8079 53.08 27.4759C53.0644 25.4414 52.9013 23.4107 52.592 21.3999C52.5581 21.2692 52.4813 21.1537 52.374 21.0717C52.2667 20.9898 52.135 20.9462 52 20.9479C50.328 20.8519 48.74 20.2519 47.068 20.1839C45.592 20.1279 44.02 20.4679 42.576 20.7279C39.1676 21.3563 35.8134 22.2496 32.544 23.3999C32.4563 23.4255 32.3756 23.4706 32.3077 23.5318C32.2399 23.5929 32.1867 23.6686 32.1521 23.7532C32.1175 23.8377 32.1024 23.929 32.1079 24.0201C32.1135 24.1113 32.1395 24.2001 32.184 24.2799C32.252 24.4039 32.312 24.5279 32.376 24.6519C31.5325 25.0377 30.8325 25.6803 30.376 26.4879C30.31 26.6027 30.2832 26.7359 30.2998 26.8673C30.3164 26.9987 30.3755 27.1211 30.468 27.2159L30.672 27.3919C30.248 27.9839 29.292 28.9919 29.76 29.6799C29.8829 29.8462 30.0414 29.9829 30.224 30.0799C26.772 31.7599 27.712 36.1999 27.872 39.3719C27.976 41.3999 27.528 43.8119 27.976 45.7719C28.264 47.0399 29.136 47.6519 30.34 47.8279C30.5745 48.396 31.0164 48.8536 31.576 49.1079C34.112 50.3079 37.724 49.8839 40.376 49.5079C43.964 49.0439 47.508 48.1999 51.016 47.3999C52.284 47.1039 54.192 47.0279 55.204 46.1319C55.948 45.4759 55.936 44.4319 56.004 43.5159C56.3625 39.6735 56.3612 35.806 56 31.9639ZM51.764 35.7999C51.852 37.4839 52.164 39.3999 52.016 41.0599C51.824 43.1559 50.212 43.4599 48.416 43.8879C46.816 44.2559 45.176 44.6039 43.544 44.9079C41.7147 45.2359 39.88 45.5092 38.04 45.7279C36.98 45.8479 35.464 46.2999 34.872 44.7959C34.644 44.2199 34.776 43.2599 34.764 42.6679C34.6888 39.022 34.399 35.3837 33.896 31.7719C34.5908 31.6369 35.2936 31.5473 36 31.5039C41.032 31.1039 46.068 30.7039 51.104 30.3279C51.4716 32.131 51.6923 33.961 51.764 35.7999ZM41.008 23.8239C42.296 23.0239 45.484 23.2399 46.356 24.5839C46.3735 24.6111 46.3936 24.6365 46.416 24.6599C47.344 25.8599 47.616 27.2679 46.672 28.5559C46.3392 28.9811 45.8966 29.3075 45.392 29.4999C43.776 29.6119 42.16 29.7332 40.544 29.8639C38.664 28.5199 39.052 25.0359 41.008 23.8239ZM53.068 28.6519C53.544 28.6879 54.068 28.6519 54.332 28.8759L53.048 28.9759C53.056 28.8679 53.064 28.7599 53.068 28.6519ZM47.08 21.3999C48.572 21.4639 50.008 21.9439 51.48 22.1159C51.8208 24.4205 51.94 26.7525 51.836 29.0799L47.136 29.3999C47.4145 29.1156 47.6419 28.7854 47.808 28.4239C48.54 26.8239 48.132 25.4679 47.14 24.1479C47.14 24.1159 47.092 24.0919 47.072 24.0599C45.712 22.1519 41.776 21.9519 40.076 23.4319C38.24 25.0319 37.828 28.1639 39.356 29.9999C38.156 30.1039 36.956 30.2172 35.756 30.3399C35.2756 28.2571 34.5393 26.2418 33.564 24.3399C36.3812 23.385 39.2598 22.6219 42.18 22.0559C43.78 21.7159 45.448 21.3159 47.08 21.3999ZM32.84 25.7639H32.944C33.6305 27.2645 34.1665 28.8295 34.544 30.4359H34.504C33.996 28.8639 32.904 27.7159 31.676 26.6519C32 26.2799 32.472 25.7999 32.84 25.7639ZM33.324 30.6999C33.0843 30.7638 32.848 30.8399 32.616 30.9279C32.4775 30.5401 32.2611 30.1848 31.98 29.8839C31.78 29.6713 31.5589 29.4796 31.32 29.3119C31.248 29.2599 31.076 29.1719 30.92 29.0879C31.1123 28.7737 31.3219 28.4706 31.548 28.1799C32.3345 28.8644 32.9438 29.729 33.324 30.6999ZM28.848 42.0839C28.848 40.7932 28.8 39.5025 28.704 38.2119C28.524 35.5679 27.868 32.0399 30.896 30.7199C30.9451 30.6989 30.9898 30.6691 31.028 30.6319C31.2619 30.8709 31.4313 31.1654 31.52 31.4879C30.7937 31.9762 30.2571 32.6992 30 33.5359C29.624 34.7159 29.796 36.0079 29.912 37.2119C30.104 39.1759 30.232 41.1399 30.236 43.1159C30.236 44.2559 29.952 45.6679 30.1 46.8799C28.328 46.3079 28.856 43.3279 28.848 42.0839ZM54.8 43.5079C54.256 45.9319 52 45.9279 49.944 46.4039C48.216 46.8012 46.4827 47.1772 44.744 47.5319C41.272 48.2399 37.712 48.9479 34.16 48.4879C32.892 48.3239 31.676 48.3279 31.304 46.6639C31.168 46.0559 31.384 44.9279 31.396 44.2999C31.432 42.4599 31.372 40.6159 31.228 38.7799C31.108 37.2679 30.6 35.3279 31.124 33.8519C31.2583 33.4721 31.4698 33.1243 31.7451 32.8303C32.0205 32.5363 32.3538 32.3026 32.724 32.1439C33.096 34.8599 33.356 37.5879 33.472 40.3239C33.544 42.0239 33.144 44.3519 33.984 45.9239C34.564 47.0119 35.584 47.1879 36.728 47.0839C39.104 46.8719 41.496 46.4799 43.84 46.0439C46.184 45.6079 48.612 45.2439 50.864 44.5279C52.024 44.1599 52.544 43.4999 52.94 42.3519C53.556 40.5679 53.064 38.3519 52.98 36.4999C52.9157 34.394 52.6829 32.2966 52.284 30.2279L54.616 30.0439C54.664 30.5599 54.672 31.0879 54.704 31.3199C54.824 32.2532 54.9107 33.1865 54.964 34.1199C55.152 37.0599 55.46 40.6319 54.8 43.5079ZM37.556 44.1999C41.348 42.8959 45.04 42.5039 48.968 41.9039C50.612 41.6519 51.208 40.3039 50.028 39.0759C49.9787 38.9891 49.9051 38.9186 49.8163 38.8732C49.7274 38.8277 49.6272 38.8092 49.528 38.8199C46.0678 38.9818 42.6289 39.4517 39.252 40.2239C37.016 40.7439 35.652 41.5399 36.876 43.9239C36.9433 44.0381 37.0464 44.1271 37.1693 44.177C37.2922 44.2269 37.4281 44.2349 37.556 44.1999ZM43.288 40.6519C45.2546 40.3441 47.236 40.1399 49.224 40.0399C49.312 40.4679 48.18 40.7359 48.024 40.7759C47.4259 40.8747 46.8219 40.9348 46.216 40.9559C45.32 41.0639 44.428 41.1959 43.54 41.3559C41.5819 41.725 39.6519 42.2302 37.764 42.8679C37.636 41.1799 42.352 40.8199 43.288 40.6719V40.6519ZM45.536 28.4799C45.6557 28.2304 45.7159 27.9565 45.712 27.6799L46.512 27.5919C47.084 27.5359 47.088 26.6359 46.512 26.6919L45.6 26.8039C45.552 26.6279 45.496 26.4559 45.432 26.2919L46.212 26.1759C46.784 26.0879 46.54 25.2239 45.972 25.3079L45.048 25.4479C44.724 24.8239 44.108 23.8479 43.412 24.2759C42.988 24.5279 42.836 25.1479 42.764 25.7959L41.468 25.9919C41.468 25.7039 41.436 25.4159 41.432 25.1239C41.4214 25.0118 41.3695 24.9078 41.2862 24.832C41.203 24.7563 41.0945 24.7143 40.982 24.7143C40.8695 24.7143 40.761 24.7563 40.6778 24.832C40.5946 24.9078 40.5426 25.0118 40.532 25.1239C40.532 25.3079 40.532 25.6759 40.584 26.1279L39.744 26.2559C39.172 26.3439 39.416 27.2079 39.984 27.1239L40.676 26.9999C40.696 27.1439 40.724 27.2919 40.748 27.4359L39.776 27.5919C39.208 27.6879 39.448 28.5559 40.016 28.4599L40.964 28.3079C41.28 29.2919 41.808 29.9399 42.692 29.2159C43.0573 28.8772 43.31 28.4346 43.416 27.9479L44.828 27.7999C44.8213 27.8899 44.7983 27.978 44.76 28.0599C44.496 28.5599 45.272 28.9999 45.536 28.4999V28.4799ZM43.7 25.0839C43.78 25.0839 43.944 25.3439 44.076 25.5719L43.752 25.6199C43.78 25.3719 43.784 25.1159 43.7 25.1039V25.0839ZM41.544 26.8599L42.676 26.6879C42.676 26.8519 42.652 27.0079 42.636 27.1479L41.62 27.2919C41.6 27.1639 41.568 27.0239 41.548 26.8759L41.544 26.8599ZM41.944 28.4279C41.892 28.4039 41.848 28.2999 41.808 28.1719L42.4 28.1039C42.3 28.3479 42.152 28.5439 41.928 28.4439L41.944 28.4279ZM43.668 26.5439L44.528 26.4159C44.592 26.5639 44.652 26.7239 44.708 26.8879L43.6 27.0359C43.62 26.8719 43.64 26.7119 43.652 26.5599L43.668 26.5439Z" fill="#F2DDDE"/>
</svg>
