<svg width="120" height="120" viewBox="0 0 120 120" fill="none" xmlns="http://www.w3.org/2000/svg">
<rect width="120" height="120" rx="60" fill="#1F1C1A"/>
<path fill-rule="evenodd" clip-rule="evenodd" d="M46.36 38.9195C46.36 38.8795 46.32 38.8395 46.24 38.7995C46.2 38.7995 46.16 38.7595 46.08 38.7195C46.04 38.7195 46 38.7195 46 38.6795C46 38.6795 46 38.6395 45.96 38.6395H45.88C45.84 38.5995 45.84 38.5595 45.8 38.5595C45.68 38.4795 45.56 38.3995 45.44 38.2795C45.4 38.2395 45.36 38.1995 45.32 38.1595C45.24 38.0795 45.12 37.9595 45 37.9195C44.96 37.9195 44.92 37.9195 44.92 37.8795C44.84 37.9195 44.84 37.9195 44.8 37.9995C44.8 37.9995 44.76 38.0795 44.72 38.1195C44.68 38.1595 44.68 38.1995 44.64 38.2795V38.3195C44.64 38.3195 44.6 38.3195 44.6 38.3595C44.6 38.3595 44.6 38.4395 44.56 38.4395C44.56 38.4395 44.52 38.4395 44.52 38.4795C44.52 38.5595 44.4 38.7195 44.36 38.8395C44.36 38.8395 44.36 38.9195 44.32 38.9195C44.28 38.9595 44.28 38.9595 44.24 38.9995C44.24 38.9995 44.24 39.0795 44.2 39.0795C44.2 39.0795 44.16 39.0795 44.16 39.1195C44.16 39.1595 44.08 39.2395 44.04 39.2795C44.04 39.2795 44.04 39.3595 44 39.3595C44 39.3595 43.96 39.3595 43.96 39.3995C43.92 39.4395 43.88 39.5195 43.8 39.5995C43.76 39.6395 43.72 39.7195 43.68 39.7595C43.64 39.7995 43.6 39.8395 43.56 39.9195C43.56 39.9195 43.52 39.9195 43.52 39.9595C43.52 39.9595 43.52 40.0395 43.48 40.0395C43.48 40.0395 43.44 40.0395 43.44 40.0795C43.4 40.0795 43.4 40.1195 43.36 40.1595V40.1995C43.24 40.3195 42.96 40.4795 42.88 40.6395C42.84 40.6795 42.72 40.7995 42.64 40.8795C42.52 40.9995 42.44 41.0795 42.32 41.1595C42.2 41.2395 42.12 41.3195 42 41.3995V41.4395C41.96 41.4795 41.92 41.4795 41.88 41.5195C41.76 41.6395 41.56 41.8395 41.4 41.9595C41.36 41.9995 41.32 41.9995 41.28 42.0395C41.24 42.0795 41.16 42.1595 41.08 42.2395C40.76 42.4795 40.32 42.7195 39.96 42.9595C39.44 43.3195 38.96 43.5995 38.36 43.9195C38.28 43.9595 38.2 43.9995 38.16 44.0395C38.04 44.1195 37.92 44.1595 37.72 44.2395C37.72 44.2395 37.6 44.3595 37.56 44.3195V44.2795C37.4 44.3595 37.28 44.4395 37.12 44.4795C36.8 44.6395 36.4 44.7595 36 44.8395C35.76 44.8795 35.52 44.9595 35.24 44.9595C35.2 44.9595 35.16 44.9595 35.16 44.9595C35.12 44.9595 35.08 44.9195 35.08 44.9195C35.04 44.9195 34.96 44.9995 34.92 44.9595V44.9195C34.88 44.9195 34.8 44.9595 34.72 44.9595C34.68 44.9595 34.64 44.9195 34.64 44.9195L34.6 44.9595C34.52 44.9195 34.44 44.9995 34.32 44.9995C34.32 44.9995 34.32 44.9595 34.28 44.9995C34.2 45.0395 34.2 45.0395 34.16 45.0395L34.12 45.0795C34.08 45.0795 34.04 45.0795 34 45.0795L33.96 45.1195V45.0795C33.72 45.1195 33.52 45.1595 33.32 45.1995C33.32 45.1995 33.24 45.2395 33.24 45.1995L33.2 45.1595C33.16 45.1595 33.08 45.1995 33.04 45.1995C33 45.1995 32.96 45.1595 32.96 45.1595L32.92 45.1995V45.1595C32.84 45.1595 32.8 45.1995 32.76 45.1995C32.72 45.1995 32.68 45.1595 32.68 45.1595C32.64 45.1595 32.52 45.1595 32.44 45.1995C32.4 45.1995 32.28 45.1995 32.24 45.1995H32.16C32.12 45.1995 32.08 45.1595 32.08 45.1595C32.04 45.1595 32.04 45.1595 32 45.1595C31.96 45.1595 31.96 45.1195 31.92 45.1195L31.88 45.1595C31.84 45.1595 31.8 45.1195 31.76 45.1195L31.72 45.1595V45.1195C31.68 45.1195 31.64 45.1595 31.64 45.1195L31.6 45.0795C31.56 45.0795 31.52 45.0795 31.52 45.0795C31.52 45.0795 31.52 45.0395 31.48 45.0795C31.44 45.1195 31.36 45.0795 31.28 45.0795C31.24 45.0795 31.16 45.0795 31.12 45.0395C31 44.9995 30.92 44.9595 30.76 44.9195H30.68C30.68 44.9195 30.68 44.8795 30.64 44.8795H30.56C30.56 44.8795 30.56 44.8395 30.52 44.8395H30.44C30.4 44.7995 30.4 44.7595 30.36 44.7595C30.24 44.6395 30.08 44.4395 30.08 44.2395V44.1995C30.08 44.1595 30.04 44.1195 30.08 44.1195C30.08 44.0795 30.12 44.0395 30.12 43.9995C30.12 43.9595 30.12 43.9195 30.12 43.8795C30.16 43.6795 30.2 43.4795 30.24 43.2795C30.28 43.1595 30.32 43.0795 30.36 42.9595C30.36 42.9195 30.36 42.8795 30.4 42.8795C30.44 42.7995 30.48 42.7595 30.56 42.6795C30.6 42.6395 30.64 42.6395 30.64 42.5995C30.64 42.5995 30.64 42.5195 30.68 42.5195C30.76 42.3995 30.84 42.2395 30.92 42.0795C30.92 42.0395 30.96 41.9995 30.96 41.9595C31 41.9195 31.04 41.8395 31.08 41.7595V41.7195C31.12 41.6795 31.08 41.6395 31.12 41.5995C31.16 41.5595 31.12 41.5195 31.16 41.4795L31.2 41.4395C31.2 41.3995 31.2 41.3595 31.24 41.3595C31.24 41.3195 31.28 41.3195 31.28 41.3195C31.32 41.2795 31.32 41.2395 31.32 41.1995C31.32 41.1595 31.36 41.1195 31.36 41.0795C31.36 41.0395 31.4 40.9995 31.44 40.9595C31.48 40.8795 31.56 40.7595 31.6 40.6395C31.64 40.5995 31.64 40.5595 31.68 40.4795C31.68 40.4395 31.72 40.3995 31.72 40.3595C31.72 40.3195 31.76 40.2795 31.76 40.2395C31.76 40.1995 31.8 40.1595 31.84 40.1195V40.0795L31.88 40.0395C31.88 39.9995 31.88 39.9595 31.92 39.9595C31.92 39.9595 31.96 39.9595 31.96 39.9195C31.96 39.8395 32.04 39.7195 32.12 39.5995V39.5595C32.16 39.5195 32.2 39.5195 32.2 39.4795C32.2 39.4795 32.2 39.3995 32.24 39.3995C32.28 39.3595 32.32 39.3595 32.32 39.3195V39.2795L32.36 39.2395C32.4 39.1995 32.44 39.1995 32.44 39.1595C32.44 39.1595 32.44 39.0795 32.48 39.0795C32.52 38.9995 32.6 38.9595 32.68 38.9195V38.8795H32.72C32.76 38.8395 32.76 38.8395 32.8 38.7995C32.84 38.7595 32.84 38.7595 32.88 38.7195C32.92 38.6795 32.92 38.6795 32.96 38.6395C33 38.6395 32.96 38.5995 32.96 38.5995C33 38.5595 33.08 38.4795 33.12 38.4395V38.3995H33.16V38.3595C33.2 38.3195 33.24 38.3195 33.24 38.2795V38.2395L33.28 38.1995C33.32 38.1595 33.32 38.1195 33.36 38.0795C33.4 38.0395 33.36 37.9995 33.4 37.9595L33.44 37.9195C33.48 37.8795 33.56 37.7995 33.6 37.7595V37.7195C33.64 37.7195 33.72 37.5595 33.76 37.5195C33.8 37.4795 33.88 37.3195 33.96 37.2395C34 37.1995 34.04 37.1995 34.04 37.1595C34.04 37.1595 34.04 37.0795 34.08 37.0795C34.12 37.0395 34.16 37.0395 34.16 36.9995C34.2 36.9595 34.2 36.9595 34.24 36.9195C34.28 36.8795 34.36 36.7995 34.44 36.7595V36.7195H34.48C34.52 36.6395 34.64 36.5195 34.76 36.4395C34.8 36.3595 34.88 36.3195 34.96 36.2795C35 36.1995 35.04 36.1595 35.12 36.0795C35.24 35.9595 35.36 35.8395 35.48 35.7595C35.48 35.7595 35.6 35.7195 35.6 35.6795C35.6 35.6395 35.68 35.5595 35.76 35.4795C35.8 35.4795 35.84 35.4395 35.84 35.4395C35.88 35.3995 35.92 35.3595 36 35.3195C36.08 35.2795 36.2 35.1595 36.28 35.0795V35.0395C36.4 34.9595 36.56 34.8795 36.72 34.7595V34.7195C36.76 34.7195 36.76 34.6795 36.8 34.6795C36.88 34.5995 36.96 34.5195 37.08 34.4395C37.4 34.2395 37.8 34.0395 38.16 33.8795C38.44 33.7595 38.68 33.6395 38.96 33.5195C39.12 33.4395 39.24 33.3595 39.4 33.3195C39.48 33.2795 39.56 33.2795 39.64 33.2795C39.72 33.2395 39.8 33.1995 39.88 33.1995C39.92 33.1995 40 33.1595 40.04 33.1195C40.04 33.1195 40.04 33.1595 40.08 33.1195L40.16 33.0795C40.2 33.1195 40.36 33.0395 40.48 32.9995H40.52C40.6 32.9995 40.64 32.9595 40.72 32.9595L40.76 32.9195C40.8 32.9195 40.92 32.9195 41 32.8795L41.04 32.8395C41.08 32.8395 41.24 32.7995 41.32 32.7995C41.32 32.7995 41.32 32.8395 41.36 32.7995C41.44 32.7595 41.6 32.7595 41.68 32.6795C41.8 32.5595 41.64 32.4795 41.6 32.3195C41.56 32.2395 41.52 31.9995 41.44 31.8795C41.36 31.5995 41.32 31.3195 41.16 31.1195C41.08 31.0395 41 31.1595 40.92 31.1595C40.68 31.2795 40.44 31.3995 40.2 31.5195C39.96 31.6395 39.72 31.7195 39.48 31.8395C39.32 31.9195 39.2 31.9595 39.04 31.9995C38.88 32.0395 38.64 32.1195 38.44 32.1995C38.32 32.2395 38.24 32.2795 38.12 32.2795L38.08 32.3195C38 32.3595 37.8 32.4395 37.64 32.4395C37.52 32.4795 37.4 32.4795 37.32 32.4795C37.28 32.4795 37.28 32.4395 37.24 32.4395L37.2 32.4795V32.4395L37.16 32.4795V32.4395L37.12 32.4795V32.4395C37.04 32.4395 36.96 32.4795 36.88 32.4795C36.88 32.4795 36.8 32.5195 36.8 32.4795C36.76 32.4795 36.72 32.4795 36.68 32.4795L36.64 32.4395L36.6 32.4795V32.4395L36.56 32.4795V32.4395C36.44 32.4795 36.28 32.5995 36.12 32.5995C36.12 32.5995 36.12 32.5595 36.08 32.5995C36.04 32.5995 35.96 32.5995 35.92 32.5595C35.88 32.5595 35.84 32.5595 35.8 32.5595C35.76 32.5595 35.76 32.5595 35.72 32.5195C35.68 32.5195 35.64 32.4795 35.6 32.4795C35.56 32.4795 35.52 32.5195 35.52 32.4795C35.48 32.4795 35.44 32.4395 35.4 32.4395C35.36 32.4395 35.32 32.4795 35.32 32.4395C35.24 32.4395 35.2 32.4395 35.12 32.3995H35.04C35.04 32.3995 35.04 32.3595 35 32.3595C35 32.3595 34.92 32.3595 34.92 32.3195C34.84 32.2795 34.8 32.1995 34.76 32.1595H34.72C34.68 32.1195 34.6 31.9195 34.56 31.8395C34.56 31.8395 34.6 31.8395 34.56 31.7995C34.56 31.7595 34.6 31.7595 34.6 31.7195L34.56 31.6795C34.6 31.5995 34.64 31.5595 34.68 31.4795C34.72 31.3595 34.76 31.2395 34.8 31.0795C34.8 31.0395 34.84 30.9595 34.84 30.9595C34.84 30.9595 34.88 30.9595 34.88 30.9195V30.8795C34.88 30.8795 34.92 30.8795 34.92 30.8395V30.7995C34.92 30.7995 34.96 30.7995 34.96 30.7595C34.96 30.6795 35 30.6795 35.04 30.5995V30.5595C35.08 30.5195 35.08 30.4795 35.12 30.4395C35.16 30.4395 35.2 30.2795 35.24 30.2395V30.1995C35.28 30.1595 35.28 30.1195 35.32 30.0795L35.4 29.9995C35.4 29.9995 35.4 29.9595 35.4 29.9195C35.4 29.9195 35.44 29.9195 35.44 29.8795V29.8395C35.44 29.8395 35.48 29.8395 35.48 29.7995V29.7595C35.48 29.7595 35.52 29.7595 35.52 29.7195V29.6795C35.52 29.6795 35.56 29.6795 35.56 29.6395V29.5995C35.56 29.5995 35.6 29.5995 35.6 29.5595C35.6 29.4795 35.64 29.4395 35.72 29.3595C35.8 29.1995 35.92 29.0795 36 28.9195C36 28.8795 36.04 28.8395 36.04 28.7995C36.08 28.7595 36.08 28.7195 36.12 28.6795L36.2 28.5995C36.2 28.5995 36.2 28.5595 36.2 28.5195C36.24 28.4795 36.32 28.3995 36.36 28.3595V28.3195C36.4 28.2795 36.44 28.2395 36.48 28.1995C36.64 27.9995 36.88 27.7595 37.12 27.5595C37.16 27.5195 37.2 27.4795 37.24 27.4395V27.3995L37.32 27.3595C37.32 27.3195 37.36 27.2795 37.44 27.2395C37.6 27.0795 38.12 26.8395 38.36 26.6795C38.4 26.6395 38.4 26.6395 38.44 26.5995C38.64 26.4395 38.92 26.3195 39.16 26.1995C39.64 25.9195 40.08 25.6795 40.6 25.4395H40.64C40.72 25.3995 40.84 25.3195 40.92 25.2795C41.2 25.1595 41.52 24.9995 41.8 24.8795C41.84 24.8795 41.84 24.8395 41.88 24.8395C41.92 24.8395 41.92 24.8395 41.96 24.8395C42.2 24.7595 42.4 24.5995 42.64 24.5195C43.08 24.3595 43.52 24.3195 43.92 24.1995C44.04 24.1595 44.16 24.1195 44.28 24.0795C44.44 23.9995 44.56 23.9595 44.72 23.9195C44.76 23.9195 44.84 23.8795 44.96 23.8795C45.04 23.8395 45.12 23.8395 45.2 23.7995L45.24 23.7595C45.28 23.7595 45.28 23.7595 45.32 23.7595H45.4C45.44 23.7595 45.56 23.7595 45.68 23.7195L45.72 23.6795C45.76 23.6795 45.76 23.6795 45.8 23.6795L45.84 23.6395C45.88 23.6395 45.96 23.5995 46.04 23.5995C46.12 23.5995 46.24 23.5995 46.36 23.5595C46.44 23.5195 46.52 23.5195 46.6 23.4795L46.64 23.4395C46.68 23.4395 46.68 23.4395 46.72 23.4395H46.8C46.84 23.4395 46.96 23.4395 47.04 23.4395L47.08 23.3995C47.12 23.3995 47.24 23.3595 47.36 23.3595L47.4 23.3195C47.44 23.3195 47.52 23.3195 47.6 23.3195C47.68 23.3195 47.76 23.2795 47.84 23.2395C47.84 23.2395 47.84 23.2795 47.88 23.2395C47.92 23.2395 48 23.2395 48.04 23.1995C48.08 23.1995 48.12 23.2395 48.12 23.2395L48.16 23.1995V23.2395C48.2 23.2395 48.28 23.1995 48.32 23.1995L48.4 23.2395C48.44 23.2395 48.44 23.1995 48.48 23.1995C48.48 23.1995 48.48 23.2395 48.52 23.1995C48.56 23.1995 48.56 23.2395 48.6 23.2395C48.64 23.2395 48.72 23.1995 48.76 23.1995C48.8 23.1995 48.84 23.2395 48.88 23.1995C48.96 23.1595 49 23.1995 49.08 23.2395C49.12 23.2395 49.16 23.1995 49.16 23.2395C49.2 23.2395 49.2 23.2795 49.24 23.3195C49.36 23.3595 49.44 23.3995 49.56 23.3995C49.68 23.3995 49.8 23.3195 49.92 23.2795H49.96C50.04 23.2395 50.16 23.1995 50.28 23.1995C50.32 23.1995 50.4 23.1995 50.44 23.1595C50.6 23.1195 50.76 23.0795 50.92 23.0395C51 23.0395 51.04 22.9995 51.08 22.9595C51.2 22.9195 51.4 22.8795 51.6 22.8395C51.72 22.7995 51.84 22.7995 51.96 22.7595C52.08 22.7195 52.24 22.5995 52.36 22.5995C52.4 22.5995 52.44 22.5595 52.48 22.5595L52.56 22.5995C52.64 22.5995 52.64 22.5595 52.72 22.5195C52.72 22.5195 52.72 22.5595 52.76 22.5195C52.8 22.4795 52.92 22.4795 53 22.4795C53.08 22.4795 53.12 22.4395 53.2 22.4395L53.24 22.3995C53.28 22.3995 53.36 22.3995 53.44 22.3595L53.48 22.3195V22.3595L53.52 22.3195C53.56 22.3195 53.6 22.3195 53.64 22.3195L53.68 22.2795C53.72 22.2795 53.76 22.2795 53.8 22.2795L53.84 22.2395C53.88 22.2395 54 22.1995 54.12 22.1995L54.16 22.1595C54.2 22.1595 54.28 22.1595 54.36 22.1195L54.48 22.0795C54.52 22.0795 54.56 22.0795 54.6 22.0795L54.64 22.0395V22.0795C54.72 22.0795 54.8 22.0395 54.88 21.9995C54.88 21.9995 54.88 22.0395 54.92 21.9995C54.92 21.9995 55.08 21.9595 55.12 21.9595C55.24 21.9195 55.32 21.9195 55.44 21.8795C55.64 21.8395 55.84 21.8395 56.08 21.7995C56.16 21.7595 56.24 21.7595 56.32 21.7195L56.36 21.6795C56.4 21.6795 56.4 21.6795 56.44 21.6795H56.52V21.7195L56.56 21.6795V21.7195L56.6 21.6795C56.6 21.6795 56.72 21.6795 56.8 21.6795C56.88 21.6795 56.96 21.6395 57.04 21.5995C57.04 21.5995 57.04 21.6395 57.08 21.5995C57.08 21.5995 57.2 21.5595 57.24 21.5595V21.5995C57.52 21.5595 57.84 21.5595 58.16 21.5595C58.16 21.5595 58.16 21.5995 58.2 21.5595C58.2 21.5595 58.2 21.5595 58.24 21.5595C58.28 21.5595 58.28 21.5595 58.28 21.5595C58.32 21.5595 58.36 21.5195 58.4 21.5195C58.4 21.5195 58.4 21.5595 58.44 21.5195C58.44 21.5195 58.48 21.5195 58.52 21.5195C58.56 21.5195 58.6 21.5195 58.64 21.5195C58.68 21.5195 58.72 21.5595 58.76 21.5195C58.8 21.5195 58.84 21.5595 58.88 21.5195C58.88 21.5195 58.92 21.5195 58.96 21.5195C59 21.5195 59.04 21.5595 59.04 21.5595C59.08 21.5595 59.08 21.5595 59.12 21.5595C59.16 21.5595 59.2 21.5595 59.24 21.5595C59.28 21.5595 59.32 21.5595 59.36 21.5595C59.36 21.5595 59.52 21.5595 59.56 21.5595C59.6 21.5595 59.64 21.5595 59.68 21.5595H59.72C59.76 21.5595 59.8 21.5195 59.84 21.5195C59.88 21.5195 59.88 21.5595 59.92 21.5595C59.96 21.5595 59.96 21.5595 60 21.5595H60.04C60.08 21.5595 60.12 21.5195 60.16 21.5195C60.2 21.5195 60.24 21.5595 60.28 21.5595C60.32 21.5595 60.36 21.5195 60.36 21.5595C60.44 21.5595 60.52 21.5995 60.56 21.5995C60.64 21.5995 60.72 21.5995 60.76 21.6395C60.76 21.6395 60.76 21.6795 60.8 21.6795H60.84C60.84 21.6795 60.84 21.7195 60.88 21.7195H60.92C60.92 21.7195 60.92 21.7595 60.96 21.7595H61C61 21.7595 61 21.7995 61.04 21.7995C61.12 21.7995 61.24 21.9595 61.36 22.0395H61.4C61.44 22.0795 61.44 22.0395 61.48 22.0795C61.48 22.0795 61.48 22.1195 61.52 22.1195H61.56C61.8 22.2795 61.92 22.5195 62 22.8795C62 22.9195 62 22.9995 62.04 23.0795C62.04 23.1195 62.08 23.1595 62.08 23.1995C62.08 23.2395 62.08 23.2395 62.08 23.2395C62.08 23.2795 62.12 23.3195 62.12 23.3595C62.12 23.3595 62.08 23.3595 62.12 23.3995C62.12 23.4395 62.12 23.5595 62.08 23.5995C62.04 23.6795 62 23.7195 61.96 23.7995C61.92 23.8795 61.92 23.9595 61.88 23.9995C61.84 24.0795 61.84 24.1195 61.84 24.1995C61.84 24.2795 61.8 24.3595 61.8 24.3995L61.84 24.4395C61.8 24.5195 61.76 24.5995 61.76 24.7195V24.7995C61.76 24.7995 61.72 24.7995 61.72 24.8395C61.68 24.9195 61.68 24.9995 61.64 25.0395C61.6 25.1595 61.56 25.2395 61.52 25.3595V25.4395C61.52 25.4395 61.48 25.4395 61.48 25.4795V25.5595C61.48 25.5595 61.44 25.5595 61.44 25.5995V25.6795C61.4 25.7195 61.4 25.7195 61.4 25.7995C61.4 25.8395 61.4 25.9195 61.36 25.9595C61.32 26.1195 61.2 26.2395 61.16 26.3595C61.08 26.5195 61.04 26.6395 61 26.7595C61 26.7995 61 26.8395 61 26.8795C61 26.8795 60.96 26.8795 60.96 26.9195C60.96 26.9995 60.92 27.0795 60.88 27.1995C60.88 27.2395 60.84 27.2795 60.84 27.3195C60.84 27.3595 60.84 27.3995 60.84 27.4395C60.84 27.4395 60.8 27.4395 60.8 27.4795V27.5595C60.76 27.5995 60.72 27.5995 60.72 27.6395V27.6795C60.68 27.7195 60.68 27.7995 60.64 27.8395C60.64 27.8795 60.6 27.8795 60.6 27.8795C60.56 27.9195 60.52 28.0395 60.48 28.1195C60.48 28.1595 60.44 28.1595 60.44 28.1595C60.44 28.1995 60.4 28.2395 60.32 28.2795C60.28 28.3595 60.2 28.4395 60.12 28.5195V28.5595C60.08 28.5995 60.04 28.5995 60.04 28.6395V28.7195C60 28.7595 59.96 28.7995 59.92 28.8395V28.8795L59.88 28.9195C59.84 28.9995 59.8 29.0395 59.72 29.1195C59.68 29.1595 59.6 29.2395 59.56 29.3195C59.52 29.3595 59.48 29.3995 59.44 29.4795V29.5195C59.4 29.5595 59.36 29.5595 59.36 29.5995V29.6795C59.36 29.6795 59.32 29.6795 59.32 29.7195C59.32 29.7195 59.32 29.7595 59.32 29.7995C59.28 29.8395 59.24 29.8395 59.24 29.8795C59.2 29.9195 59.12 30.0395 59.04 30.0795C59.04 30.0795 59 30.0795 59 30.1195C59 30.1595 58.92 30.1995 58.88 30.2795C58.84 30.3595 58.76 30.4395 58.68 30.5195C58.64 30.5595 58.6 30.5995 58.56 30.6395C58.48 30.7595 58.4 30.8795 58.28 30.9995C58.28 30.9995 58.24 30.9995 58.24 31.0395V31.0795C58.24 31.0795 58.2 31.0795 58.2 31.1195C58.2 31.1595 58.16 31.2395 58.08 31.3195C58.08 31.3195 58.04 31.3195 58.04 31.3595V31.3995C58 31.4395 57.92 31.4795 57.88 31.5195V31.5595C57.84 31.5995 57.84 31.6395 57.76 31.6795L57.72 31.7195C57.72 31.7595 57.68 31.7995 57.6 31.8395C57.48 31.9995 57.32 32.1595 57.16 32.3195C56.84 32.5995 56.56 32.8795 56.24 33.1995C56.2 33.2395 56.16 33.2795 56.08 33.3195V33.3595L56 33.3995C56 33.4395 55.8 33.5595 55.76 33.6395C55.76 33.6795 55.76 33.6795 55.72 33.7195C55.68 33.7995 55.72 33.9995 55.72 34.1195C55.72 34.1195 55.76 34.1995 55.72 34.1995L55.68 34.2395L55.72 34.2795C55.72 34.3195 55.64 34.3995 55.64 34.4795L55.68 34.5195C55.68 34.5595 55.6 34.6395 55.6 34.7195L55.64 34.7595C55.64 34.7995 55.56 34.8795 55.56 34.9595L55.6 34.9995C55.6 35.0395 55.56 35.1195 55.56 35.1595C55.52 35.2395 55.48 35.3195 55.44 35.4395C55.44 35.4795 55.44 35.5595 55.4 35.5995C55.4 35.6395 55.36 35.6395 55.32 35.6795C55.32 35.6795 55.32 35.7195 55.32 35.7595C55.32 35.7595 55.28 35.7595 55.28 35.7995C55.28 35.8795 55.2 35.9595 55.16 36.0395C55.16 36.0795 55.12 36.1195 55.08 36.1595L55.04 36.1995C55.04 36.2395 55.04 36.2795 55 36.2795C54.92 36.4395 54.76 36.5595 54.72 36.7195C54.72 36.7195 54.72 36.7995 54.68 36.7995C54.64 36.8395 54.6 36.8395 54.6 36.8795C54.6 36.8795 54.6 36.9595 54.56 36.9595C54.52 37.0395 54.44 37.0795 54.4 37.1595C54.4 37.1995 54.36 37.1995 54.32 37.2395C54.32 37.2395 54.24 37.3195 54.2 37.3595C54.2 37.3995 54.2 37.4395 54.16 37.4395C54.12 37.4795 54.04 37.5595 54 37.5995V37.6395L53.96 37.6795C53.92 37.7195 53.92 37.7595 53.88 37.7995L53.84 37.8395C53.8 37.8795 53.76 37.9195 53.72 37.9595C53.72 37.9995 53.68 37.9995 53.64 38.0395C53.6 38.0795 53.64 38.0795 53.64 38.0795C53.56 38.1595 53.52 38.2395 53.4 38.3195C53.32 38.3995 53.24 38.5595 53.16 38.7195C53.16 38.7595 53.12 38.7595 53.08 38.7995C53.08 38.8395 53.08 38.8795 53.04 38.8795C53.04 38.9195 53 38.9195 52.96 38.9595C52.96 38.9595 52.96 39.0395 52.92 39.0395C52.92 39.0395 52.88 39.0395 52.88 39.0795C52.84 39.1195 52.84 39.1595 52.8 39.1995C52.76 39.2395 52.72 39.2795 52.68 39.3595C52.68 39.3595 52.68 39.4395 52.64 39.4395C52.6 39.4795 52.56 39.5195 52.52 39.5995C52.52 39.5995 52.52 39.6795 52.48 39.6795C52.4 39.7595 52.32 39.7995 52.24 39.8395C52.16 39.9195 52.12 39.9595 52.04 39.9995C51.92 40.0795 51.88 40.1595 51.76 40.2795V40.3195C51.6 40.4395 51.48 40.5995 51.36 40.7195C51.28 40.7995 51.16 40.8795 51.12 40.9595C51.12 40.9995 51.08 40.9995 51.04 41.0395C51 41.0795 50.88 41.1595 50.8 41.2395C50.64 41.3595 50.48 41.4395 50.32 41.5595C50.28 41.5995 50.28 41.5995 50.24 41.6395C50.2 41.6395 50.16 41.6795 50.16 41.6795C50.12 41.7195 50.08 41.7595 50 41.7995C49.96 41.7995 49.92 41.8395 49.92 41.8395C49.84 41.9195 49.6 42.0795 49.44 42.1995C49.4 42.2395 49.4 42.2395 49.36 42.2795C49.32 42.3195 49.28 42.3195 49.24 42.3595V42.3995C49.2 42.4395 49.12 42.4395 49.08 42.4795C49.04 42.5195 48.92 42.5995 48.8 42.6795V42.7195C48.68 42.7995 48.48 42.9195 48.36 42.9995C48.12 43.1595 47.92 43.3195 47.68 43.4795C47.64 43.5195 47.6 43.5195 47.56 43.5595C47.52 43.5595 47.52 43.5995 47.48 43.6395C47 43.9595 46.48 44.2395 45.88 44.5195C45.72 44.5995 45.56 44.7195 45.36 44.7595C45.24 44.7995 45.08 44.7995 44.92 44.8795C44.84 44.9195 44.76 44.9595 44.68 44.9595C44.56 44.9995 44.44 45.0395 44.32 45.0795C44.28 45.0795 44.28 45.0795 44.28 45.0795C44.16 45.1195 44.08 45.1595 44 45.1195C43.96 45.1195 43.88 45.1595 43.8 45.1595C43.76 45.1595 43.76 45.1595 43.72 45.1595C43.68 45.1595 43.68 45.1595 43.68 45.1595C43.64 45.1595 43.6 45.1995 43.56 45.1995C43.52 45.1995 43.52 45.1595 43.48 45.1595C43.36 45.1595 43.24 45.1195 43.12 45.0795C43.08 45.0795 43 45.0395 42.96 45.0395C42.92 45.0395 42.88 45.0795 42.84 45.0795C42.8 45.0795 42.8 45.0395 42.76 45.0395C42.72 45.0395 42.64 44.9995 42.6 44.9995H42.52C42.52 44.9995 42.52 44.9595 42.48 44.9595C42.48 44.9595 42.4 44.9595 42.4 44.9195C42.36 44.8795 42.36 44.8795 42.32 44.8395C42.24 44.7995 42.12 44.5595 42.12 44.4395C42.12 44.3995 42.08 44.3995 42.12 44.3595C42.12 44.3195 42.16 44.2795 42.16 44.2395L42.12 44.1995C42.12 44.1995 42.16 44.1995 42.16 44.1595C42.16 44.1195 42.16 44.1195 42.2 44.0795C42.2 44.0795 42.2 43.9995 42.24 43.9995C42.28 43.9595 42.36 43.9595 42.4 43.8795V43.8395C42.4 43.8395 42.44 43.8395 42.44 43.7995C42.44 43.7995 42.44 43.7195 42.48 43.7195C42.48 43.7195 42.52 43.7195 42.52 43.6795C42.56 43.6795 42.56 43.6395 42.6 43.5995C42.64 43.5595 42.68 43.4795 42.76 43.3995C42.88 43.2395 43.08 43.0395 43.28 42.8395C43.36 42.7595 43.44 42.6795 43.52 42.5595C43.52 42.5195 43.56 42.5195 43.6 42.4795C43.6 42.4795 43.6 42.3995 43.64 42.3995C43.68 42.3595 43.72 42.3195 43.76 42.2395C43.76 42.2395 43.76 42.1595 43.8 42.1595C43.8 42.1595 43.84 42.1595 43.84 42.1195C43.84 42.0395 44 41.9595 44.08 41.8795C44.16 41.7995 44.16 41.7195 44.24 41.6395C44.36 41.4795 44.44 41.3195 44.68 41.1995C44.72 41.0395 44.84 40.9595 44.96 40.8395C45 40.7995 45.04 40.7995 45.04 40.7595C45.04 40.7595 45.04 40.6795 45.08 40.6795C45.12 40.6395 45.16 40.6395 45.16 40.5995C45.16 40.5995 45.16 40.5195 45.2 40.5195C45.24 40.4395 45.32 40.3995 45.4 40.3595V40.3195C45.44 40.3195 45.48 40.2395 45.52 40.1995C45.6 40.0795 45.72 39.9195 45.8 39.7995V39.7595C45.84 39.7195 45.88 39.7195 45.88 39.6795V39.6395L45.92 39.5995C45.92 39.5595 45.92 39.5195 45.96 39.5195C45.96 39.5195 46 39.5195 46 39.4795C46 39.3995 46.08 39.3195 46.12 39.2395C46.12 39.1995 46.16 39.1995 46.2 39.1595V39.0795C46.24 39.0395 46.24 39.0395 46.28 38.9595V38.9195L46.32 38.8795C46.32 38.8395 46.32 38.7995 46.36 38.7995C46.36 38.7595 46.4 38.7595 46.4 38.7595V38.7195C46.4 38.6795 46.44 38.6795 46.48 38.6395V38.5595C46.36 38.9995 46.44 38.9995 46.36 38.9195ZM43.52 26.5195C43.48 26.5195 43.36 26.5595 43.32 26.5995C43.2 26.6395 43.08 26.6795 43 26.6795C42.88 26.7195 42.84 26.7195 42.8 26.7595C42.76 26.7595 42.72 26.7995 42.68 26.8395C42.56 26.8795 42.4 26.9595 42.28 26.9995C42 27.1195 41.6 27.3195 41.4 27.3995L41.36 27.4395C41.16 27.5195 41 27.5995 40.84 27.7195C40.76 27.7595 40.68 27.7595 40.6 27.7995C40.56 27.7995 40.56 27.8395 40.52 27.8795C39.96 28.2395 39.2 28.5595 38.8 28.8795C38.76 28.9195 38.72 28.9195 38.68 28.9595C38.6 28.9995 38.48 29.1595 38.44 29.1995C38.4 29.2395 38.4 29.2395 38.36 29.2795C38.32 29.3195 38.2 29.4795 38.2 29.4795C38.16 29.4795 38.2 29.5195 38.2 29.5195C38.16 29.5995 38.08 29.6395 38 29.6795C37.96 29.7195 37.92 29.7995 37.88 29.7995H37.84C37.8 29.7995 37.84 29.8395 37.84 29.8395C37.76 29.9195 37.72 29.9595 37.64 29.9995V30.0395C37.6 30.1195 37.56 30.1595 37.48 30.2395C37.48 30.2395 37.48 30.2795 37.48 30.3195C37.48 30.3195 37.44 30.3195 37.44 30.3595C37.44 30.3595 37.44 30.3995 37.44 30.4395C37.4 30.5195 37.32 30.5595 37.36 30.6395C37.56 30.6795 37.72 30.5595 37.88 30.5195C37.96 30.4795 38.08 30.4795 38.16 30.4395C38.44 30.3595 38.72 30.1995 39.04 30.0795C39.44 29.8795 39.8 29.7195 40.2 29.4795C40.32 29.3995 40.28 29.3995 40.32 29.3995C40.36 29.3995 40.4 29.3595 40.4 29.3595C40.44 29.3195 40.44 29.3195 40.48 29.2795C40.52 29.2395 40.6 29.2395 40.64 29.1995C40.72 29.1195 40.76 28.9995 40.84 28.9595C40.88 28.9195 40.88 28.9195 40.92 28.9195C41 28.8395 41.08 28.7995 41.16 28.7195C41.24 28.6395 41.36 28.5595 41.44 28.4395C41.52 28.3595 41.64 28.2395 41.72 28.1595C41.84 28.0395 41.88 27.9195 42 27.8795C42.12 27.7595 42.32 27.7195 42.44 27.6395C42.56 27.5595 42.68 27.4395 42.8 27.3595C42.96 27.2395 43.16 27.1195 43.24 27.0395C43.24 27.0395 43.28 27.0395 43.28 26.9995C43.36 26.9595 43.36 26.9195 43.4 26.8795C43.52 26.7595 43.64 26.7195 43.72 26.6395C43.76 26.5995 43.88 26.5595 43.84 26.4795C43.76 26.4395 43.64 26.4795 43.52 26.5195ZM60 23.7995L59.92 23.7595C59.84 23.7595 59.8 23.7995 59.72 23.7995L59.64 23.7595C59.4 23.7595 59.16 23.7595 58.88 23.7995C58.8 23.7995 58.76 23.7995 58.68 23.7995C58.64 23.7995 58.56 23.8395 58.48 23.8395L58.4 23.7995C58.32 23.7995 58.28 23.8395 58.2 23.8395L58.12 23.7995C58.08 23.7995 58.04 23.7995 58.04 23.7995C58 23.7995 57.96 23.7595 57.96 23.7595C57.92 23.7595 57.84 23.7995 57.76 23.7995C57.64 23.7995 57.48 23.8395 57.36 23.8395C57.12 23.8795 56.84 23.9195 56.6 23.9995C56.36 24.0395 56.08 24.0795 55.84 24.1595C55.64 24.1995 55.44 24.2395 55.24 24.2795C55.2 24.2795 55.12 24.2795 55.12 24.2795C55.08 24.2795 55.04 24.2795 55.04 24.2795C55 24.2795 54.96 24.2795 54.96 24.2795C54.92 24.2795 54.88 24.2795 54.88 24.2795C54.84 24.2795 54.8 24.2795 54.8 24.2795C54.76 24.2795 54.72 24.2795 54.72 24.2795C54.68 24.2795 54.64 24.2795 54.64 24.2795L54.6 24.3195L54.52 24.2795C54.48 24.2795 54.48 24.3195 54.44 24.3195C54.4 24.3195 54.4 24.3195 54.4 24.3195C54.24 24.3595 54 24.3995 53.88 24.4395C53.8 24.4795 53.76 24.4395 53.68 24.4795C53.64 24.4795 53.64 24.4795 53.64 24.4795C53.52 24.5195 53.4 24.5595 53.28 24.5595C53.24 24.5595 53.24 24.5595 53.24 24.5595C53.12 24.5995 52.96 24.6395 52.84 24.6795C52.68 24.7195 52.48 24.7595 52.36 24.7995C52.28 24.8395 52.08 24.8795 52 24.8795C51.8 24.9195 51.64 24.9995 51.44 25.0395C51.44 25.0395 51.44 25.0395 51.4 25.0395C51.36 25.0395 51.32 25.0395 51.32 25.0395C51.28 25.0395 51.24 25.0795 51.2 25.0795C51.04 25.1195 50.96 25.1195 50.84 25.1595C50.72 25.1995 50.6 25.2395 50.52 25.2395C50.32 25.2795 50.2 25.3595 50 25.3995C49.88 25.4395 49.72 25.5195 49.6 25.5595C49.32 25.6795 48.92 25.7995 48.68 25.8795C48.64 25.8795 48.6 25.9195 48.56 25.9595C48.24 26.0795 47.88 26.1995 47.56 26.3995C47.52 26.4395 47.52 26.4395 47.48 26.4795C47.16 26.6795 46.8 26.8395 46.48 27.0395C46.16 27.2395 45.84 27.4395 45.52 27.6395C45.36 27.7595 45.2 27.8395 45.04 27.9595C44.84 28.0795 44.64 28.2395 44.48 28.3195C44.36 28.3995 44.28 28.4795 44.16 28.5595C43.64 28.9195 43.08 29.1995 42.56 29.6395C42.56 29.9195 42.68 30.1995 42.72 30.4395C42.72 30.4795 42.72 30.4795 42.72 30.5195C42.72 30.5595 42.72 30.5595 42.72 30.5595C42.72 30.7195 42.84 30.8795 42.88 30.9995C42.92 31.0795 42.92 31.1995 42.96 31.2795C43 31.3595 43.04 31.4795 43.08 31.5595C43.12 31.6395 43.12 31.7595 43.16 31.8395C43.2 31.9595 43.24 32.0395 43.28 32.1195C43.32 32.2395 43.36 32.3195 43.4 32.3995C43.64 32.9195 44 33.5595 44.2 34.0395C44.24 34.0795 44.24 34.1595 44.24 34.1995C44.28 34.2395 44.28 34.2395 44.32 34.2795C44.4 34.3595 44.44 34.4795 44.48 34.5595C44.52 34.5995 44.56 34.6395 44.56 34.6395C44.72 34.8795 44.88 35.1595 45.04 35.3595C45.08 35.4395 45.16 35.4795 45.2 35.5595C45.24 35.6395 45.32 35.7195 45.36 35.7995C45.4 35.8395 45.48 35.8795 45.48 35.9195C45.52 35.9595 45.56 35.9995 45.56 35.9995C45.6 36.0395 45.6 36.0395 45.64 36.0795V36.1195C45.64 36.1595 45.68 36.1195 45.68 36.1195C45.76 36.1995 45.84 36.2795 45.88 36.3195V36.3595C45.88 36.3995 45.92 36.3595 45.92 36.3595C45.96 36.3995 46.04 36.4795 46.08 36.4795C46.12 36.5195 46.24 36.5995 46.24 36.5995C46.28 36.5995 46.28 36.6395 46.28 36.6395C46.32 36.6795 46.4 36.6795 46.44 36.7195C46.48 36.7195 46.52 36.7595 46.56 36.7595C46.64 36.7995 46.64 36.7995 46.68 36.7995C46.68 36.7995 46.68 36.8395 46.72 36.8395C46.76 36.8395 46.8 36.8395 46.84 36.8395C46.88 36.8395 46.92 36.8795 46.96 36.8795C47.08 36.8795 47.16 36.7595 47.2 36.7595C47.28 36.7195 47.36 36.6795 47.4 36.6395C47.44 36.6395 47.4 36.5995 47.44 36.5995C47.48 36.5595 47.48 36.5595 47.52 36.5595C47.8 36.3195 48.4 35.9995 48.68 35.9595C48.72 35.9595 48.72 35.9195 48.76 35.9195C48.88 35.8395 48.96 35.8395 49.04 35.7995C49.12 35.7595 49.16 35.7595 49.2 35.7595C49.48 35.6395 49.76 35.4795 50.04 35.3195C50.32 35.1595 50.6 35.0795 50.76 34.9195C51.04 34.7195 51.32 34.5195 51.6 34.3195C51.84 34.1995 52.04 34.0395 52.24 33.8795C52.64 33.5995 53.08 33.3195 53.48 33.0395V32.9995C53.6 32.9195 53.88 32.7595 53.92 32.6795L53.96 32.6395C54.04 32.5595 54.16 32.4395 54.2 32.3995C54.28 32.3195 54.32 32.3195 54.36 32.2795C54.36 32.2795 54.36 32.1995 54.4 32.1995C54.44 32.1595 54.52 32.1195 54.56 32.0795V32.0395C54.64 31.9995 54.64 31.9595 54.68 31.9195C54.96 31.6395 55.24 31.3995 55.52 31.1195C55.72 30.9595 55.88 30.7595 56.04 30.5595C56.2 30.3995 56.36 30.1995 56.52 30.0395C56.6 29.9595 56.72 29.7995 56.8 29.7595C56.84 29.7595 56.8 29.7195 56.8 29.7195C56.88 29.6395 56.88 29.6795 56.92 29.5995V29.5595C56.96 29.4795 57.04 29.4395 57.08 29.3995C57.12 29.3595 57.16 29.2795 57.2 29.2395V29.1995C57.32 29.0795 57.44 28.9195 57.52 28.8395C57.56 28.7995 57.6 28.7195 57.64 28.6795V28.6395C57.68 28.5995 57.76 28.5595 57.8 28.5195V28.4795C57.84 28.4395 57.84 28.4395 57.88 28.3995C57.88 28.3995 57.92 28.3995 57.92 28.3595C57.92 28.3595 57.92 28.2795 57.96 28.2795C58 28.2395 58.04 28.2395 58.04 28.1995C58.04 28.1995 58.04 28.1195 58.08 28.1195C58.12 28.0795 58.16 28.0795 58.16 28.0395C58.16 28.0395 58.16 27.9595 58.2 27.9595C58.24 27.9195 58.28 27.9195 58.28 27.8795V27.8395C58.32 27.7995 58.32 27.7195 58.36 27.7195C58.4 27.7195 58.36 27.6795 58.36 27.6795C58.4 27.6395 58.44 27.5595 58.48 27.5195C58.48 27.5195 58.48 27.4395 58.52 27.4395C58.56 27.3995 58.6 27.3995 58.6 27.3595C58.6 27.3595 58.6 27.2795 58.64 27.2795C58.68 27.2395 58.72 27.2395 58.72 27.1995L58.76 27.1595C58.8 27.1595 58.76 27.1195 58.76 27.1195C58.8 27.0795 58.84 27.0795 58.84 27.0395C58.84 27.0395 58.84 26.9995 58.84 26.9595C58.84 26.9595 58.88 26.9595 58.88 26.9195C58.88 26.9195 58.88 26.8795 58.88 26.8395C58.88 26.8395 58.92 26.8395 58.92 26.7995C58.92 26.7995 58.92 26.7595 58.92 26.7195C58.92 26.7195 58.96 26.7195 58.96 26.6795C58.96 26.6395 58.96 26.5995 58.96 26.5595C58.96 26.5595 59 26.5595 59 26.5195C59 26.5195 59 26.4795 59 26.4395C59 26.4395 59.04 26.4395 59.04 26.3995C59.04 26.3995 59.04 26.3595 59.04 26.3195C59.04 26.3195 59.08 26.3195 59.08 26.2795C59.08 26.2795 59.08 26.2395 59.08 26.1995C59.08 26.1995 59.12 26.1995 59.12 26.1595C59.12 26.1595 59.12 26.1195 59.12 26.0795C59.12 26.0795 59.16 26.0795 59.16 26.0395C59.16 26.0395 59.16 25.9995 59.16 25.9595C59.16 25.9195 59.2 25.8795 59.2 25.8395C59.24 25.7995 59.24 25.7195 59.28 25.6795C59.32 25.6795 59.28 25.6395 59.28 25.6395C59.36 25.5195 59.44 25.3595 59.48 25.2395C59.52 25.1595 59.52 25.0795 59.56 25.0395C59.6 24.9595 59.64 24.8795 59.68 24.7995C59.72 24.7195 59.72 24.7195 59.72 24.6795C59.72 24.6795 59.76 24.6795 59.76 24.6395C59.8 24.5595 59.8 24.4795 59.84 24.4395C59.88 24.3595 59.88 24.3195 59.88 24.2795C59.88 24.2795 59.92 24.2795 59.92 24.2395C59.92 24.2395 59.92 24.1995 59.92 24.1595C59.92 24.1595 59.96 24.1595 59.96 24.1195C59.96 24.1195 59.96 24.0795 59.96 24.0395C59.96 24.0395 60 24.0395 60 23.9995C60 23.9595 60 23.9195 60 23.8795C60.04 23.7595 60.16 23.6395 60.04 23.5195C60.24 23.7595 60.12 23.7995 60 23.7995ZM38.44 35.7195C38.32 35.7595 38.28 35.8395 38.2 35.8795C38.08 35.9595 37.96 36.0395 37.88 36.1195C37.8 36.1995 37.68 36.2795 37.6 36.3595C37.48 36.4395 37.36 36.4795 37.28 36.5595C37.24 36.5595 37.28 36.5995 37.24 36.5995C37.16 36.6395 37.16 36.6795 37.12 36.7195C37 36.8395 36.92 36.8795 36.84 36.9595C36.8 36.9995 36.76 37.0395 36.72 37.1195C36.52 37.3195 36.36 37.5195 36.2 37.7195C36.12 37.7995 36 37.9195 35.96 37.9595C35.92 37.9995 35.84 38.1595 35.8 38.1995C35.76 38.2395 35.76 38.2395 35.72 38.2795C35.68 38.3195 35.68 38.3195 35.64 38.3595C35.6 38.3995 35.6 38.3995 35.56 38.4395C35.52 38.4795 35.52 38.4795 35.48 38.5195C35.44 38.5595 35.44 38.5595 35.4 38.5995C35.36 38.6395 35.36 38.6395 35.32 38.6795C35.28 38.7195 35.28 38.7195 35.24 38.7595C35.2 38.7995 35.2 38.7995 35.16 38.8395C35.12 38.8795 35.12 38.8795 35.08 38.9195C35.04 38.9595 35.04 38.9595 35.04 38.9595C35.04 38.9595 35 38.9595 35 38.9995C35 38.9995 35 39.0795 34.96 39.0795C34.92 39.1195 34.88 39.1595 34.84 39.2395V39.2795C34.84 39.2795 34.8 39.2795 34.8 39.3195C34.8 39.3195 34.8 39.3995 34.76 39.3995C34.72 39.4395 34.68 39.4795 34.64 39.5595C34.64 39.5595 34.64 39.6395 34.6 39.6395C34.56 39.6795 34.56 39.6795 34.52 39.7195C34.52 39.7195 34.52 39.7995 34.48 39.7995C34.48 39.8395 34.44 39.8395 34.4 39.8795C34.36 39.9195 34.32 39.9595 34.28 40.0395C34.28 40.0395 34.28 40.1195 34.24 40.1195C34.2 40.1995 34.16 40.2395 34.16 40.2795C34.12 40.3595 34.04 40.3595 34.04 40.4395C34.04 40.4395 34.04 40.5195 34 40.5195C33.96 40.5595 33.88 40.5995 33.88 40.6795C33.88 40.6795 33.88 40.7195 33.84 40.7595C33.8 40.8395 33.76 40.8795 33.76 40.9195C33.76 40.9595 33.72 40.9595 33.68 40.9995C33.68 40.9995 33.68 41.0795 33.64 41.0795C33.64 41.1195 33.6 41.1195 33.56 41.1595C33.56 41.1595 33.56 41.2395 33.52 41.2395C33.52 41.2395 33.48 41.2395 33.48 41.2795C33.4 41.3595 33.36 41.4795 33.32 41.5195C33.32 41.5195 33.28 41.5195 33.28 41.5595C33.28 41.5995 33.24 41.6395 33.24 41.6795C33.2 41.7595 33.16 41.8395 33.12 41.9195C33.08 41.9595 33.08 42.0395 33.04 42.0795C33 42.0795 33.04 42.1195 33.04 42.1195C33 42.1995 33 42.1995 32.96 42.2795C32.96 42.2795 32.92 42.2795 32.92 42.3195C32.92 42.3595 32.92 42.3995 32.88 42.4395C32.88 42.4395 32.84 42.4395 32.84 42.4795C32.84 42.4795 32.84 42.5195 32.84 42.5595C32.84 42.5995 32.76 42.6395 32.76 42.6795C32.76 42.7195 32.76 42.7595 32.72 42.7995C32.72 42.8395 32.72 42.8395 32.68 42.8795C32.68 42.8795 32.64 42.8795 32.64 42.9195C32.64 42.9595 32.64 42.9995 32.6 43.0395C32.6 43.0795 32.6 43.0795 32.56 43.1195C32.56 43.1195 32.52 43.1195 32.52 43.1595C32.48 43.1995 32.52 43.2395 32.48 43.2795C32.48 43.3195 32.36 43.3595 32.44 43.3995C32.48 43.4795 32.6 43.4395 32.64 43.4395C32.68 43.4395 32.72 43.4795 32.76 43.4395C32.8 43.4395 32.88 43.4395 32.92 43.4795L32.96 43.4395C33 43.4395 33.04 43.4395 33.08 43.4395L33.12 43.3995C33.16 43.3995 33.2 43.3995 33.24 43.3995L33.28 43.3595C33.32 43.3595 33.36 43.3995 33.36 43.3995C33.48 43.3995 33.6 43.3995 33.72 43.3995C33.92 43.3995 34.16 43.3995 34.4 43.3995C34.48 43.3995 34.6 43.3595 34.68 43.3595C34.76 43.3195 34.96 43.3195 35.04 43.3595C35.08 43.3595 35.12 43.3595 35.16 43.3195C35.2 43.3195 35.2 43.3195 35.2 43.3195C35.36 43.2795 35.52 43.2395 35.64 43.1995C35.84 43.1595 36.04 43.0795 36.24 42.9595C36.4 42.8795 36.64 42.7595 36.8 42.6795H36.84C37.2 42.5195 37.48 42.3595 37.72 42.1595C37.96 42.0395 38.12 41.9195 38.32 41.7995C38.64 41.5995 39.08 41.3595 39.32 41.1595C39.48 41.0395 39.6 40.9595 39.72 40.9195C39.76 40.9195 39.72 40.8795 39.72 40.8795C39.88 40.7595 40.16 40.5595 40.2 40.4795C40.2 40.4395 40.28 40.4395 40.28 40.3995L40.32 40.3595C40.36 40.3195 40.36 40.3195 40.4 40.2795L40.44 40.2395C40.48 40.1995 40.48 40.1995 40.52 40.1595L40.56 40.1195C40.6 40.0795 40.64 40.0795 40.64 40.0395C40.68 39.9995 40.68 39.9995 40.72 39.9995C40.92 39.8395 41.16 39.6795 41.28 39.4795C41.32 39.4395 41.44 39.3595 41.4 39.2395C41.28 39.2795 41.08 39.3195 41 39.3595C40.84 39.3995 40.68 39.5195 40.6 39.5595L40.56 39.5995H40.52C40.44 39.6395 40.36 39.6795 40.28 39.6795H40.24L40.2 39.7195C40 39.7995 39.8 39.8395 39.64 39.9195C39.56 39.9595 39.48 39.9995 39.4 39.9995C39.24 40.0795 39.08 40.1595 38.92 40.1995C38.84 40.1995 38.72 40.1995 38.68 40.2395C38.64 40.2795 38.6 40.2395 38.56 40.2395C38.52 40.2795 38.48 40.2395 38.44 40.2395C38.4 40.2395 38.4 40.2395 38.4 40.2395C38.28 40.2395 38.2 40.3195 38.12 40.3595C38.04 40.3595 37.96 40.3595 37.88 40.3995C37.8 40.3995 37.76 40.3995 37.72 40.4395C37.72 40.4395 37.72 40.4395 37.68 40.4395C37.64 40.4395 37.64 40.4395 37.64 40.4395C37.56 40.4395 37.48 40.4395 37.4 40.3995C37.24 40.3195 36.92 39.9595 37 39.8395L36.96 39.7995C36.96 39.7195 36.96 39.6795 36.96 39.5995C36.96 39.5595 36.96 39.5195 36.96 39.4795C36.96 39.4395 36.96 39.4395 36.96 39.4395C36.96 39.3595 36.96 39.3195 36.96 39.2395C36.96 39.1995 37 39.1995 37 39.1595C37 39.1195 37 39.1195 37 39.0795C37 39.0395 37.04 38.9995 37.04 38.9995C37.04 38.9195 37 38.8795 37 38.7995H37.04L37 38.7595C37 38.7195 37.04 38.7195 37.04 38.6795C37.04 38.5195 37.08 38.1995 37.2 38.1195C37.24 38.1195 37.2 38.0795 37.2 38.0795C37.24 38.0395 37.28 37.9995 37.32 37.9595C37.32 37.9195 37.32 37.8795 37.36 37.8395C37.36 37.7995 37.4 37.7995 37.4 37.7995C37.44 37.7195 37.44 37.7195 37.48 37.6395C37.48 37.5995 37.52 37.5995 37.56 37.5595C37.6 37.5195 37.6 37.4395 37.6 37.3995C37.64 37.3595 37.64 37.2795 37.64 37.2395C37.68 37.1595 37.76 37.0795 37.76 36.9995C37.76 36.9995 37.8 36.9995 37.8 36.9595V36.9195L37.84 36.8795C37.88 36.8395 37.88 36.7995 37.88 36.7595C37.88 36.7595 37.92 36.7595 37.92 36.7195C37.92 36.7195 37.92 36.6395 37.96 36.6395C38.04 36.4795 38.24 36.3195 38.32 36.1995C38.32 36.1595 38.36 36.1595 38.4 36.1195C38.4 36.1195 38.4 36.0795 38.4 36.0395C38.4 35.9995 38.48 35.9995 38.44 35.9595C38.56 35.6795 38.48 35.7595 38.44 35.7195ZM42 35.4795C41.92 35.5195 41.68 35.6395 41.64 35.6395C41.64 35.6795 41.64 35.6795 41.56 35.7195C41.44 35.7995 41.32 35.9595 41.24 35.9995C41.2 35.9995 41.24 36.0395 41.24 36.0395C41.16 36.1195 41.08 36.1595 41.04 36.2395C40.96 36.3195 40.88 36.3995 40.8 36.4395C40.68 36.5195 40.52 36.5595 40.4 36.6395C40.32 36.7195 40.24 36.8795 40.16 36.9195C40.12 36.9195 40.16 36.9595 40.16 36.9595C40.12 36.9995 40.04 37.0395 40 37.0795C40 37.0795 40 37.1595 39.96 37.1595C39.92 37.1995 39.88 37.1995 39.88 37.2395C39.84 37.2795 39.8 37.3595 39.76 37.3995C39.72 37.4395 39.68 37.5195 39.64 37.5195C39.6 37.5195 39.64 37.5595 39.64 37.5595C39.56 37.6395 39.36 37.7595 39.48 37.9195C39.6 37.9595 39.72 37.8795 39.84 37.8795C40.32 37.7195 40.76 37.3995 41.32 37.1195C41.44 37.0795 41.52 37.0395 41.64 36.9595C41.76 36.8795 41.88 36.8395 42 36.7595C42.12 36.6795 42.2 36.5995 42.28 36.5195C42.36 36.4795 42.4 36.4395 42.48 36.3995C42.56 36.3595 42.64 36.3595 42.68 36.3195C42.72 36.2795 42.76 36.2395 42.84 36.1995C43.04 36.0795 43.24 36.0395 43.32 35.8395C43.24 35.6395 43.04 35.3595 42.88 35.1595C42.6 35.1195 42.28 35.3595 42 35.4795ZM52.8 36.1195C52.6 36.2795 52.36 36.3995 52.08 36.5995C51.64 36.9195 51.04 37.2395 50.6 37.5195C50.56 37.5595 50.52 37.5595 50.48 37.5995C50.44 37.6395 50.44 37.6795 50.4 37.6795C50.36 37.7195 50.32 37.6795 50.32 37.6795C50.28 37.6795 50.24 37.7195 50.2 37.7595C50.04 37.8395 49.88 37.9195 49.8 37.9595C49.64 38.0395 49.52 38.1195 49.4 38.1995C49.2 38.2795 48.96 38.3195 48.84 38.4395V38.4795C48.72 38.5595 48.64 38.5595 48.64 38.6395L48.6 38.6795V38.7195L48.56 38.7595V38.7995L48.52 38.8395V38.8795C48.52 38.8795 48.48 38.8795 48.48 38.9195C48.48 38.9595 48.44 39.0395 48.44 39.0395L48.4 39.1195C48.44 39.1595 48.36 39.1995 48.36 39.2395L48.4 39.2795C48.4 39.3195 48.36 39.3595 48.36 39.3595C48.36 39.3995 48.4 39.4795 48.4 39.5195L48.36 39.5595C48.36 39.5995 48.4 39.6395 48.36 39.6395C48.36 39.7195 48.28 39.9195 48.24 39.9595C48.2 39.9595 48.24 39.9995 48.24 39.9995C48.24 40.0395 48.2 40.0395 48.16 40.0795C48.16 40.0795 48.16 40.1195 48.16 40.1595C48.16 40.1995 48.12 40.1995 48.08 40.2395C48.04 40.3195 48.08 40.3995 48.04 40.3995C48 40.3995 48.04 40.4395 48.04 40.4395C48.04 40.4795 48 40.4795 47.96 40.5195C47.96 40.5195 47.96 40.5595 47.96 40.5995C47.96 40.6395 47.92 40.6395 47.88 40.6795V40.7195C47.88 40.7595 47.8 40.8395 47.76 40.8395C47.72 40.8795 47.72 40.9595 47.68 40.9995C47.68 40.9995 47.64 40.9995 47.64 41.0395C47.64 41.0795 47.64 41.0795 47.6 41.1195C47.56 41.1595 47.52 41.1995 47.48 41.2395C47.48 41.2395 47.48 41.2795 47.48 41.3195C47.48 41.3195 47.44 41.3195 47.44 41.3595C47.4 41.3995 47.44 41.3995 47.44 41.3995C47.4 41.4395 47.36 41.5195 47.36 41.5595C47.36 41.5595 47.32 41.5595 47.32 41.5995C47.32 41.5995 47.32 41.6795 47.28 41.6795C47.24 41.7195 47.2 41.7595 47.16 41.7995C47.12 41.8395 47.12 41.9195 47.16 41.9995C47.36 41.9595 47.52 41.7995 47.68 41.7195C47.84 41.6395 48 41.5195 48.16 41.3995V41.3595C48.24 41.3195 48.32 41.2795 48.36 41.2395V41.1995C48.44 41.1195 48.52 41.0795 48.6 41.0395C48.76 40.9195 48.92 40.7995 49.08 40.6795C49.16 40.6395 49.2 40.5595 49.28 40.5195C49.32 40.5195 49.32 40.4795 49.36 40.4795C49.4 40.4795 49.36 40.4395 49.36 40.4395C49.4 40.3995 49.44 40.3995 49.48 40.3595C49.52 40.3595 49.48 40.3195 49.48 40.3195C49.56 40.2395 49.6 40.2395 49.64 40.1995C49.68 40.1995 49.64 40.1595 49.64 40.1595C49.72 40.0795 49.76 40.1195 49.76 40.0395L49.8 39.9995C49.84 39.9595 49.84 39.9195 49.92 39.8795C49.96 39.8795 49.92 39.8395 49.92 39.8395C50 39.7595 50.04 39.7595 50.08 39.7195C50.12 39.7195 50.08 39.6795 50.08 39.6795C50.12 39.6395 50.16 39.5995 50.2 39.5595C50.32 39.4395 50.52 39.2395 50.6 39.1595C50.64 39.1195 50.68 39.0795 50.68 39.0795C50.72 39.0395 50.76 39.0395 50.76 38.9995H50.8C50.84 38.9995 50.8 38.9595 50.8 38.9595C50.84 38.8795 50.92 38.8395 50.92 38.7995C50.96 38.7595 51 38.7195 51.04 38.6395L51.08 38.5995C51.12 38.5595 51.12 38.5195 51.16 38.4795C51.2 38.4795 51.16 38.4395 51.16 38.4395C51.2 38.3995 51.28 38.3195 51.28 38.2795C51.32 38.2795 51.28 38.2395 51.28 38.2395C51.32 38.1595 51.4 38.1195 51.44 38.0395V37.9995C51.48 37.9595 51.48 37.8795 51.52 37.8795C51.56 37.8395 51.6 37.7195 51.6 37.7195L51.64 37.6795V37.6395L51.72 37.5595L51.76 37.5195C51.8 37.4395 51.84 37.3995 51.88 37.3995H51.92C51.96 37.3995 51.92 37.3595 51.92 37.3595C51.96 37.3195 52.04 37.2395 52.04 37.1995L52.08 37.1595C52.12 37.0795 52.16 37.0395 52.2 37.0395C52.24 36.9995 52.32 36.9195 52.36 36.8795C52.4 36.8395 52.44 36.7595 52.48 36.7595C52.52 36.7195 52.52 36.6795 52.6 36.6395C52.64 36.6395 52.6 36.5995 52.6 36.5995C52.68 36.5195 52.72 36.4795 52.72 36.4395C52.76 36.3595 52.8 36.3195 52.8 36.2795C52.84 36.1995 52.92 36.1595 52.88 36.0395C52.96 35.9195 52.88 36.0395 52.8 36.1195Z" fill="#F2DDDE"/>
<path fill-rule="evenodd" clip-rule="evenodd" d="M54.36 29.8C54.32 29.76 54.24 29.8 54.2 29.84C54.2 29.84 54.2 29.8 54.16 29.84C54.12 29.88 54 29.8 53.92 29.84C53.92 29.84 53.68 29.8 53.68 29.76C53.64 29.72 53.64 29.76 53.6 29.72C53.6 29.72 53.6 29.68 53.56 29.68H53.52C53.52 29.68 53.52 29.64 53.48 29.64C53.4 29.64 53.4 29.6 53.32 29.56C53.28 29.52 53.2 29.48 53.12 29.44H53.08C53.04 29.4 53 29.4 52.96 29.36C52.92 29.32 52.88 29.32 52.84 29.28C52.76 29.24 52.76 29.12 52.68 29.04C52.68 29 52.64 29.04 52.64 29C52.48 28.76 52.28 28.32 52.16 28C52.08 27.84 52.04 27.72 52.04 27.64C52.04 27.6 52.04 27.56 52.04 27.52C52.04 27.4 52.08 27.32 52.12 27.2C52.12 27.16 52.12 27.08 52.16 27.04C52.16 27.04 52.2 27.04 52.2 27V26.96C52.2 26.96 52.24 26.96 52.24 26.92V26.88C52.28 26.84 52.32 26.8 52.36 26.76V26.72C52.4 26.68 52.4 26.68 52.44 26.64C52.52 26.56 52.56 26.48 52.64 26.44C52.64 26.44 52.68 26.44 52.68 26.4V26.36C52.68 26.36 52.72 26.36 52.72 26.32C52.72 26.24 52.84 26.16 52.92 26.12C53 26.04 53.16 25.92 53.36 25.84C53.36 25.84 53.4 25.88 53.4 25.84C53.48 25.8 53.56 25.72 53.68 25.68C53.68 25.68 53.72 25.72 53.72 25.68C53.76 25.68 53.8 25.64 53.84 25.6C53.84 25.6 53.84 25.64 53.88 25.6C53.88 25.6 54 25.56 54.04 25.56V25.6L54.08 25.56V25.6C54.12 25.6 54.16 25.56 54.2 25.56C54.2 25.56 54.2 25.6 54.24 25.56C54.32 25.52 54.44 25.6 54.52 25.6C54.56 25.6 54.6 25.56 54.6 25.6C54.64 25.6 54.68 25.64 54.72 25.64C54.76 25.64 54.8 25.6 54.8 25.64C54.88 25.64 55 25.72 55.08 25.72C55.16 25.72 55.24 25.76 55.36 25.8H55.44C55.48 25.84 55.48 25.84 55.56 25.88H55.6L55.64 25.92C55.68 25.96 55.68 25.92 55.76 26L55.84 26.08C55.88 26.08 55.96 26.2 56.04 26.28C56.2 26.44 56.56 26.84 56.56 27.08C56.56 27.16 56.52 27.2 56.56 27.32C56.56 27.36 56.56 27.44 56.6 27.52C56.64 27.6 56.64 27.68 56.64 27.76V27.8C56.64 27.84 56.68 27.88 56.68 27.92L56.64 27.96C56.64 28 56.68 28.04 56.64 28.08C56.64 28.12 56.56 28.16 56.56 28.24C56.52 28.36 56.52 28.48 56.48 28.6C56.44 28.68 56.36 28.76 56.28 28.84V28.88C56.24 28.92 56.2 28.96 56.16 29C56.12 29.04 56.12 29.08 56.08 29.12C56.08 29.12 56.04 29.12 56.04 29.16C56.04 29.16 56.04 29.24 56 29.24C55.96 29.28 55.84 29.36 55.76 29.4C55.68 29.48 55.64 29.56 55.56 29.56C55.44 29.64 55.24 29.68 55.08 29.72C55 29.76 54.96 29.76 54.88 29.76C54.88 29.76 54.8 29.8 54.8 29.76C54.76 29.76 54.72 29.68 54.68 29.72C54.6 29.92 54.48 29.8 54.36 29.8ZM54.72 27.28L54.68 27.32V27.28L54.64 27.32V27.28L54.6 27.32C54.48 27.32 54.16 27.32 54.12 27.48L54.08 27.52C54.04 27.56 54.04 27.6 54.04 27.64L53.96 27.72C53.92 27.76 53.92 27.76 53.92 27.76L53.88 27.8C53.84 27.88 53.8 27.96 53.84 28.04C53.88 28.12 54.04 28.16 54.08 28.16C54.16 28.16 54.32 28.2 54.36 28.2C54.4 28.16 54.48 28.2 54.48 28.2C54.64 28.16 54.72 28.04 54.76 27.96C54.8 27.92 54.88 27.88 54.88 27.8C54.96 27.68 55 27.52 54.92 27.36C54.8 27.32 54.72 27.28 54.72 27.28Z" fill="#F2DDDE"/>
<path fill-rule="evenodd" clip-rule="evenodd" d="M46.92 29.7208C46.92 29.6808 46.96 29.6808 46.96 29.6808C47 29.6408 47.08 29.5608 47.16 29.5208C47.28 29.4408 47.56 29.2408 47.8 29.1208C47.88 29.0808 47.96 29.0808 48.04 29.0408C48.12 29.0008 48.24 28.9608 48.32 28.9208C48.32 28.9208 48.32 28.9608 48.36 28.9208C48.44 28.8808 48.44 28.8808 48.52 28.8808C48.56 28.8808 48.6 28.8808 48.68 28.8408C48.72 28.8408 48.76 28.8008 48.8 28.8008C48.84 28.8008 48.88 28.8408 48.88 28.8408C48.92 28.8408 48.96 28.8008 48.96 28.8408C49 28.8408 49.04 28.8808 49.12 28.9208C49.32 28.9608 49.52 28.9608 49.72 29.0008C49.84 29.0008 49.92 29.0008 50.04 29.0408C50.08 29.0408 50.16 29.1208 50.2 29.1208C50.24 29.1208 50.24 29.1208 50.28 29.1608C50.32 29.1608 50.32 29.2008 50.36 29.2408C50.36 29.2408 50.44 29.2408 50.44 29.2808C50.48 29.3208 50.48 29.3208 50.52 29.3608C50.52 29.3608 50.6 29.3608 50.6 29.4008C50.64 29.4408 50.68 29.4808 50.76 29.5208H50.8C50.8 29.5208 50.8 29.5608 50.84 29.5608C50.84 29.5608 50.92 29.5608 50.92 29.6008C50.92 29.6008 50.92 29.6408 50.96 29.6408C50.96 29.6808 51 29.6808 51.04 29.7208C51.04 29.7608 51.08 29.7608 51.12 29.8008C51.12 29.8008 51.24 29.9208 51.28 29.9608C51.32 30.0408 51.4 30.2408 51.44 30.3608V30.4008C51.48 30.4808 51.56 30.5608 51.6 30.7208C51.6 30.7608 51.6 30.7608 51.6 30.7608C51.6 30.8408 51.64 30.8808 51.64 31.0008C51.64 31.0008 51.6 31.0008 51.64 31.0408C51.64 31.0408 51.64 31.0808 51.64 31.1208L51.6 31.2008C51.6 31.2808 51.64 31.3608 51.64 31.4408C51.64 31.4808 51.68 31.5608 51.68 31.6008C51.68 31.6408 51.68 31.7608 51.68 31.8408C51.64 31.9208 51.6 32.0408 51.56 32.1608C51.56 32.2008 51.56 32.2808 51.52 32.3208C51.52 32.3208 51.48 32.3208 51.48 32.3608C51.48 32.4008 51.44 32.4408 51.4 32.5208C51.4 32.5608 51.36 32.5608 51.32 32.6008C51.32 32.6008 51.32 32.6808 51.28 32.6808C51.24 32.7208 51.2 32.8008 51.16 32.8408C51.16 32.8808 51.12 32.8808 51.08 32.9208C51.08 32.9208 51.08 33.0008 51.04 33.0008C50.96 33.0808 50.88 33.1208 50.8 33.2008V33.2408C50.76 33.2808 50.76 33.2808 50.72 33.3208C50.68 33.3608 50.68 33.3608 50.64 33.3608C50.6 33.3608 50.64 33.4008 50.6 33.4008C50.4 33.5608 50.12 33.6808 49.88 33.7608C49.76 33.8008 49.68 33.8408 49.6 33.8408L49.56 33.8808C49.52 33.8808 49.48 33.8408 49.48 33.8408C49.44 33.8408 49.36 33.8808 49.32 33.8808C49.28 33.8808 49.24 33.8408 49.24 33.8408C49.16 33.8408 49.12 33.8808 49.04 33.8808C49.04 33.8808 49.04 33.8408 49 33.8808C48.96 33.8808 48.92 33.8808 48.88 33.8808C48.76 33.8808 48.56 33.8008 48.4 33.7608C48.36 33.7608 48.32 33.7208 48.32 33.7208L48.28 33.7608C48.24 33.7608 48.2 33.6808 48.16 33.7208C48.12 33.7208 47.92 33.6808 47.88 33.6808C47.88 33.6808 47.88 33.6408 47.84 33.6408C47.76 33.6408 47.72 33.6008 47.64 33.5208H47.6C47.56 33.4808 47.52 33.4808 47.48 33.4408C47.44 33.4008 47.4 33.4408 47.4 33.4008C47.32 33.3608 47.24 33.2808 47.2 33.2008C47.12 33.1208 47.04 33.0808 47 33.0408C46.96 32.9608 46.92 32.8808 46.88 32.7608L46.84 32.7208C46.88 32.6408 46.64 32.2808 46.6 32.1208C46.6 32.0808 46.6 32.0808 46.6 32.0408C46.56 31.9208 46.48 31.8408 46.44 31.7208L46.4 31.6808H46.44L46.4 31.6408C46.4 31.6008 46.4 31.5608 46.36 31.4808C46.36 31.4408 46.4 31.4408 46.4 31.4408L46.36 31.4008H46.4L46.36 31.3608H46.4L46.36 31.3208H46.4L46.36 31.2808C46.36 31.2408 46.36 31.2408 46.4 31.2008C46.4 31.1608 46.44 31.1208 46.44 31.0808C46.44 31.0008 46.44 30.9208 46.48 30.8408C46.52 30.7608 46.6 30.7208 46.64 30.6408V30.6008C46.68 30.6008 46.68 30.5208 46.72 30.4808C46.72 30.4808 46.8 30.3208 46.84 30.3208C46.88 29.9608 46.84 29.8008 46.92 29.7208ZM49 32.0408C49.16 31.9608 49.4 31.7208 49.44 31.6408H49.48C49.52 31.6408 49.48 31.6008 49.48 31.6008C49.52 31.5208 49.6 31.4808 49.6 31.4408C49.6 31.4008 49.64 31.4008 49.64 31.4008C49.72 31.2808 49.72 31.2408 49.72 31.1608C49.72 31.1208 49.76 31.0808 49.76 31.0408C49.76 31.0008 49.72 30.9608 49.72 30.9208C49.72 30.8808 49.72 30.8808 49.72 30.8408C49.72 30.8008 49.72 30.8008 49.72 30.8008C49.68 30.5608 49.6 30.4808 49.44 30.4408C49.2 30.3608 48.48 30.6008 48.24 30.8808C48.2 30.9608 48.12 31.0408 48.08 31.1208C48.04 31.1608 48.04 31.2008 48.04 31.2408C48.04 31.2808 48 31.2808 48 31.3208C48 31.3608 48 31.3608 48 31.3608C48.04 31.5608 48.2 31.6808 48.32 31.9608C48.56 32.0808 48.8 32.1208 49 32.0408Z" fill="#F2DDDE"/>
</svg>
