<svg width="1632" height="107" viewBox="0 0 1632 107" fill="none" xmlns="http://www.w3.org/2000/svg">
<path d="M919.78 103.939L908.89 78.4538H854.288L843.397 103.939H834.137L877.255 3.18217H885.923L929.115 103.939H919.78ZM857.548 70.8229H905.63L881.922 15.3323L881.626 14.221H881.552L881.255 15.3323L857.548 70.8229Z" fill="#EA4329"/>
<path d="M1340.09 2.54211H1348.28V44.793H1408.41V2.54211H1416.67V103.299H1408.41V52.7943H1348.28V103.299H1340.09V2.54211Z" fill="#EA4329"/>
<path d="M976.202 34.7794L1016.42 103.939H1006.64L969.951 40.4866L950.395 60.8698V103.939H941.653V3.18217H950.395V49.727L994.682 3.18217H1005.28L976.202 34.7794Z" fill="#EA4329"/>
<path d="M1473.89 34.1393L1514.11 103.299H1504.33L1467.64 39.8466L1448.08 60.2297V103.299H1439.34V2.54211H1448.08V49.0869L1492.37 2.54211H1502.97L1473.89 34.1393Z" fill="#EA4329"/>
<path d="M1112.64 2.54211H1105.81L1039.82 88.4081L1039.75 88.4822V2.54211H1031.26V103.299H1038.31L1104.09 17.7298H1104.16V103.299H1112.64V2.54211Z" fill="#EA4329"/>
<path d="M1578.49 105.547C1568.81 105.547 1559.87 103.225 1551.67 98.5826C1543.52 93.8904 1537.05 87.5437 1532.26 79.5424C1527.47 71.5411 1525.07 62.7742 1525.07 53.2418C1525.07 43.66 1527.47 34.8684 1532.26 26.8671C1537.05 18.8164 1543.52 12.4696 1551.67 7.82689C1559.87 3.13476 1568.81 0.788696 1578.49 0.788696C1588.22 0.788696 1597.16 3.13476 1605.31 7.82689C1613.5 12.4696 1620 18.8164 1624.79 26.8671C1629.58 34.8684 1631.98 43.66 1631.98 53.2418C1631.98 62.7742 1629.58 71.5411 1624.79 79.5424C1620 87.5437 1613.5 93.8904 1605.31 98.5826C1597.11 103.225 1588.17 105.547 1578.49 105.547ZM1578.49 97.3231C1586.64 97.3231 1594.12 95.3969 1600.93 91.5444C1607.8 87.6425 1613.23 82.333 1617.23 75.6158C1621.23 68.8493 1623.23 61.3913 1623.23 53.2418C1623.23 45.0923 1621.23 37.6343 1617.23 30.8677C1613.23 24.0518 1607.8 18.6929 1600.93 14.791C1594.12 10.8891 1586.64 8.93819 1578.49 8.93819C1570.39 8.93819 1562.9 10.8891 1556.04 14.791C1549.22 18.6929 1543.81 24.0518 1539.81 30.8677C1535.81 37.6343 1533.81 45.0923 1533.81 53.2418C1533.81 61.3913 1535.81 68.8493 1539.81 75.6158C1543.81 82.333 1549.22 87.6425 1556.04 91.5444C1562.9 95.3969 1570.39 97.3231 1578.49 97.3231Z" fill="#EA4329"/>
<path d="M1260.21 2.54211H1325.48V10.6916H1268.95V48.1793H1318.29V55.8101H1268.95V95.224H1326.14V103.299H1260.21V2.54211Z" fill="#EA4329"/>
<path d="M1137.8 2.54211H1145.28L1186.47 56.551L1186.55 56.4769L1227.52 2.54211H1235.22V103.299H1226.48V16.9149L1187.88 67.5899H1184.92L1146.54 16.9149V103.299H1137.8V2.54211Z" fill="#EA4329"/>
<path d="M35.7007 34.3606L76.1369 103.888H66.3011L29.4167 40.0982L9.75734 60.5896V103.888H0.96875V2.5957H9.75734V49.3876L54.2795 2.5957H64.935L35.7007 34.3606Z" fill="#EA4329"/>
<path d="M132.485 2.5957C138.505 2.5957 143.898 3.77002 148.666 6.11867C153.482 8.46731 157.214 11.7177 159.863 15.8697C162.559 19.9799 163.908 24.6352 163.908 29.8358C163.908 35.0783 162.559 39.7966 159.863 43.9906C157.214 48.1427 153.506 51.393 148.738 53.7417C144.019 56.0484 138.673 57.2017 132.702 57.2017H101.568V104.151H93.0443V2.5957H132.485ZM132.485 50.4704C136.819 50.4704 140.72 49.5686 144.187 47.7652C147.703 45.9618 150.448 43.4873 152.422 40.3418C154.397 37.1963 155.384 33.6943 155.384 29.8358C155.384 26.1031 154.373 22.685 152.35 19.5814C150.327 16.4359 147.534 13.9615 143.971 12.158C140.455 10.3127 136.53 9.39 132.196 9.39H101.568V50.4704H132.485Z" fill="#EA4329"/>
<path d="M258.301 2.5957H251.435L185.092 88.9175L185.02 88.992V2.5957H176.492V103.888H183.574L249.701 17.864H249.773V103.888H258.301V2.5957Z" fill="#EA4329"/>
<path d="M330.096 106.103C320.414 106.103 311.576 103.769 303.581 99.1018C295.587 94.4344 289.281 88.0788 284.664 80.035C280.095 71.9912 277.811 63.153 277.811 53.5203C277.811 43.8379 280.095 34.9749 284.664 26.9311C289.281 18.8873 295.587 12.5317 303.581 7.86429C311.576 3.14725 320.414 0.788727 330.096 0.788727C337.345 0.788727 344.148 2.12936 350.504 4.81063C356.909 7.44224 362.371 11.34 366.889 16.5039C371.457 21.6678 374.61 27.8496 376.348 35.0493H367.41C365.772 29.4882 363.14 24.7712 359.516 20.8982C355.941 16.9756 351.596 14.0213 346.482 12.0351C341.417 9.99937 335.881 8.98148 329.873 8.98148C321.829 8.98148 314.505 10.918 307.901 14.7909C301.297 18.6638 296.084 24.0015 292.26 30.804C288.487 37.6065 286.6 45.1786 286.6 53.5203C286.6 61.9117 288.487 69.4837 292.26 76.2366C296.084 82.9894 301.297 88.2774 307.901 92.1007C314.505 95.924 321.829 97.8356 329.873 97.8356C335.881 97.8356 341.417 96.8426 346.482 94.8565C351.546 92.8703 355.891 89.9408 359.516 86.0679C363.14 82.1453 365.772 77.4034 367.41 71.8423H376.422C374.635 79.0916 371.482 85.2982 366.964 90.4622C362.445 95.6261 356.983 99.5238 350.578 102.155C344.222 104.787 337.395 106.103 330.096 106.103Z" fill="#EA4329"/>
<path d="M424.135 10.9025H384.696V2.85872H472.175V10.9025H432.924V104.151H424.135V10.9025Z" fill="#EA4329"/>
<path d="M568.692 2.5957H561.826L495.482 88.9175L495.41 88.992V2.5957H486.882V103.888H493.965L560.092 17.864H560.164V103.888H568.692V2.5957Z" fill="#EA4329"/>
<path d="M594.531 2.5957H602.759V45.0709H663.213V2.5957H671.511V103.888H663.213V53.1147H602.759V103.888H594.531V2.5957Z" fill="#EA4329"/>
<path d="M769.65 104.241L758.701 78.6199H703.81L692.861 104.241H683.551L726.899 2.94864H735.613L779.034 104.241H769.65ZM707.087 70.9485H755.424L731.591 15.1633L731.293 14.0461H731.218L730.92 15.1633L707.087 70.9485Z" fill="#EA4329"/>
</svg>
