<svg width="534" height="1276" viewBox="0 0 534 1276" fill="none" xmlns="http://www.w3.org/2000/svg">
<g id="woman">
<g id="left_foot">
<g id="left_foot_bottom">
<g id="Group 1">
<path id="Rectangle 36" d="M368.254 1210.85L385.033 1203.53L394.204 1233.16L360.097 1260.33L358.158 1254.06C358.158 1254.06 373.49 1234.5 374.511 1231.06C375.531 1227.62 368.254 1210.85 368.254 1210.85Z" fill="#FBF1E5"/>
<path id="shoe" d="M378.981 1239.42C383.779 1233.59 389.687 1219.7 391.007 1219.29C392.326 1218.88 400.207 1239.38 400.207 1239.38L391.306 1244.48L388.869 1239.92C388.869 1239.92 369.999 1257.66 363.951 1262.64C357.904 1267.62 345.396 1275.29 344.478 1273.98C343.559 1272.68 346.468 1266.65 349.358 1262.96C352.247 1259.27 357.431 1252.96 358.385 1252.77C359.34 1252.57 362.529 1256.76 362.529 1256.76C362.529 1256.76 374.182 1245.24 378.981 1239.42Z" fill="#DB4542"/>
</g>
<path id="Rectangle 35" d="M295.266 883.341C295.266 883.341 288.908 851.225 315.144 848.497C341.38 845.769 357.938 921.224 361.68 944.609C365.287 967.156 386.862 1192.58 388.405 1208.72C388.457 1209.27 388.048 1209.68 387.499 1209.73L367.28 1211.7C366.775 1211.75 366.313 1211.42 366.205 1210.92L295.266 883.341Z" fill="#000008"/>
</g>
<path id="left_foot_top" d="M279.578 458.313C323.179 448.734 338.289 515.455 329.167 563.572C312.436 651.828 325.406 733.72 325.406 733.72C325.406 733.72 338.379 800.184 341.721 852.304C344.134 889.935 341.604 904.621 328.578 907.295C314.653 910.155 302.783 907.1 290.963 869.68C276.411 823.616 262.411 753.661 262.411 753.661C262.411 753.661 232.579 641.892 229.277 573.886C226.701 520.829 235.977 467.892 279.578 458.313Z" fill="#000008"/>
</g>
<g id="right_foot">
<g id="right_foot_bottom">
<g id="Group 2">
<path id="Rectangle 36_2" d="M86.6377 1063.19L103.775 1056.75L111.392 1086.81L75.9184 1112.17L74.3074 1105.81C74.3074 1105.81 90.6366 1087.08 91.8344 1083.7C93.0323 1080.31 86.6377 1063.19 86.6377 1063.19Z" fill="#FBF1E5"/>
<path id="shoe_2" d="M95.5081 1093.8C101.062 1088.69 108.826 1075.74 110.189 1075.52C111.552 1075.3 116.539 1096.68 116.539 1096.68L107.02 1100.51L105.234 1095.66C105.234 1095.66 84.1013 1110.64 77.4266 1114.74C70.7519 1118.84 57.3078 1124.71 56.5779 1123.29C55.8479 1121.87 59.5585 1116.3 62.9282 1113.04C66.2979 1109.78 72.3007 1104.25 73.2725 1104.19C74.2443 1104.13 76.8269 1108.72 76.8269 1108.72C76.8269 1108.72 89.9536 1098.91 95.5081 1093.8Z" fill="#DB4542"/>
</g>
<path id="Rectangle 35_2" d="M10.8757 727.385C10.8757 727.385 1.65076 695.901 27.7666 692.195C53.8825 688.49 59.1992 724.141 59.1992 724.141L107.753 1057.66C107.833 1058.21 107.449 1058.72 106.898 1058.79L86.8052 1061.51C86.2909 1061.58 85.8088 1061.25 85.6952 1060.74L10.8757 727.385Z" fill="#000008"/>
</g>
<path id="right_foot_top" d="M266.731 481.654C299.067 518.118 264.737 557.881 220.261 593.472C165.395 637.378 99.106 689.245 99.106 689.245C99.106 689.245 40.5987 744.977 16.6963 724.134C-7.20618 703.29 40.3594 651.675 40.3594 651.675C40.3594 651.675 111.89 564.914 163.981 521.07C204.621 486.864 234.395 445.191 266.731 481.654Z" fill="#000008"/>
</g>
<g id="left_arm">
<path id="Rectangle 33" d="M313.964 416.028L354.721 369.201L377.267 382.064L315.554 443.633L313.964 416.028Z" fill="#E8DBD7"/>
<path id="left arm" d="M436.803 302.61C436.803 281.874 316.759 169.181 316.759 169.181L310.903 230.249C310.903 230.249 328.313 246.01 347.785 260.952C368.93 277.178 392.274 290.616 392.274 296.613C392.274 302.61 367.164 349.799 352.623 370.919L373.498 384.071C403.595 351.027 436.803 312.104 436.803 302.61Z" fill="#DB4542"/>
<path id="Rectangle 32" d="M354.524 363.32C354.776 362.956 355.237 362.801 355.657 362.938L392.601 375.023C393.292 375.249 393.518 376.114 393.027 376.649L380.505 390.316C380.187 390.663 379.672 390.741 379.266 390.506L349.127 373.023C348.623 372.731 348.475 372.07 348.807 371.59L354.524 363.32Z" fill="#9A231B"/>
</g>
<g id="right_arm">
<path id="Rectangle 33_2" d="M133.589 455.869L202.498 415.554L219.766 434.935L141.643 473.614C141.643 473.614 118.957 496.8 116 496.836C113.043 496.872 111.639 494.313 111.639 494.313C111.639 494.313 106.704 497.517 105.332 496.836C103.96 496.155 102.33 493.507 102.33 493.507C102.33 493.507 98.0454 495.161 95.6771 493.507C93.3088 491.853 94.5835 487.857 93.6196 487.106C92.6556 486.355 88.4776 489.315 86.3816 486.308C84.2855 483.3 107.16 466.987 106.704 465.712C106.249 464.436 89.3889 467.716 88.9346 465.122C88.4802 462.528 101.202 457.491 109.165 455.869C117.128 454.247 133.589 455.869 133.589 455.869Z" fill="#E8DBD7"/>
<path id="left arm_2" d="M305.647 372.183C312.259 352.53 234.411 207.443 234.411 207.443L209.39 263.456C209.39 263.456 220.866 283.946 234.557 304.317C249.425 326.438 267.266 346.617 265.354 352.301C263.442 357.985 224.597 394.706 204.081 410.086L219.673 429.208C258.735 407.485 302.62 381.181 305.647 372.183Z" fill="#DB4542"/>
<path id="Rectangle 32_2" d="M202.487 406.713C202.841 406.448 203.328 406.448 203.683 406.712L234.845 429.946C235.428 430.38 235.367 431.271 234.731 431.623L218.504 440.584C218.093 440.811 217.579 440.721 217.269 440.368L194.278 414.189C193.893 413.75 193.964 413.077 194.431 412.728L202.487 406.713Z" fill="#9A231B"/>
</g>
<path id="body" d="M230.464 33.9779L323.085 119.123C323.085 119.123 317.592 295.782 317.592 349.7C317.592 403.618 319.873 479.176 319.873 479.176L218.868 488.351C216.971 488.523 215.391 486.941 215.612 485.048C217.631 467.721 226.25 393.316 228.442 367.37C230.929 337.922 225.616 291.164 218.557 277.058C211.498 262.952 200.36 266.274 200.36 249.2C200.36 242.422 198.338 218.422 246.415 151.474C249.618 144.052 249.406 132.208 247.763 119.123C246.662 110.365 223.004 117.768 218.108 111.036C217.01 109.526 220.915 90.7006 220.713 80.9178C220.652 77.9419 214.292 82.0115 215.507 77.1057C216.27 74.0215 222.36 69.8605 225.269 61.3923C229.197 49.9607 230.464 33.9779 230.464 33.9779Z" fill="#EB493A"/>
<g id="Frame 1" clip-path="url(#clip0)">
<path id="body_2" d="M229.496 34.3996L322.118 119.545C322.118 119.545 316.625 296.204 316.625 350.122C316.625 404.04 318.905 479.597 318.905 479.597L217.901 488.773C216.003 488.945 214.424 487.362 214.644 485.47C216.663 468.142 225.283 393.738 227.474 367.792C229.962 338.344 224.649 291.585 217.589 277.479C210.53 263.373 199.392 266.696 199.392 249.622C199.392 242.844 197.37 218.844 245.447 151.896C248.651 144.473 248.438 132.629 246.795 119.545C245.695 110.787 222.036 118.19 217.14 111.457C216.042 109.947 219.947 91.1223 219.746 81.3395C219.685 78.3635 213.325 82.4331 214.539 77.5274C215.303 74.4432 221.393 70.2822 224.302 61.814C228.229 50.3824 229.496 34.3996 229.496 34.3996Z" fill="#E8DBD7"/>
</g>
<path id="hair" d="M228.398 30.9846C228.398 19.2758 258.084 7.33043 275.706 7.6853C293.328 8.04017 307.994 9.22295 322.896 34.4145C329.022 44.7704 316.036 85.5961 334.368 102.538C352.7 119.48 357.549 145.138 357.549 152.093C357.549 172.909 329.992 186.155 301.962 186.747C268.499 186.346 228.764 158.592 228.634 151.147C228.38 136.594 260.771 134.917 260.771 119.48C260.771 106.17 248.267 107.387 245.339 90.2382C242.412 73.0889 245.339 46.8953 245.339 46.8953C245.339 46.8953 228.398 42.6933 228.398 30.9846Z" fill="#020109"/>
<path id="belt" d="M215.538 483.217C215.538 482.665 215.968 482.217 216.52 482.216C221.799 482.21 247.187 482.14 264.216 481.362C280.989 480.596 313.072 476.223 320.604 475.175C321.345 475.072 321.925 475.789 321.681 476.496L320.614 479.587C320.503 479.907 320.256 480.145 319.927 480.225C315.601 481.275 284.689 488.642 264.216 489.831C244.602 490.97 221.373 490.083 216.473 489.873C215.94 489.85 215.538 489.412 215.538 488.878V483.217Z" fill="#AB314A"/>
</g>
<defs>
<clipPath id="clip0">
<rect width="162" height="160" fill="white" transform="translate(206)"/>
</clipPath>
</defs>
</svg>
