<svg width="2181" height="1733" viewBox="0 0 2181 1733" fill="none" xmlns="http://www.w3.org/2000/svg">
<path d="M2040.03 683.765H2179.54V1732.08H1927.07L2040.03 683.765Z" fill="url(#paint0_linear)"/>
<path d="M2040.02 632.284L2040.11 683.764L1927.07 1732.08H1894.09L2040.02 632.284Z" fill="url(#paint1_linear)"/>
<path d="M1920.38 632.293L2040.03 632.293L1894.18 1731.99H1510.56L1920.38 632.293Z" fill="url(#paint2_linear)"/>
<path d="M1432.73 1732.04L1920.49 583.948L1920.39 632.293L1510.76 1732.04H1432.73Z" fill="url(#paint3_linear)"/>
<path d="M1808.4 583.948H1920.52L1432.73 1732.08H1028.25L1808.4 583.948Z" fill="url(#paint4_linear)"/>
<path d="M882.167 1732.08L1808.4 540.474V583.948L1028.3 1732.08H882.167Z" fill="url(#paint5_linear)"/>
<path d="M1692.1 540.474H1808.41L882.42 1732.08H401.927L1692.1 540.474Z" fill="url(#paint6_linear)"/>
<path d="M190.724 1732.1L1692.21 491.958V540.474L402.033 1732.1H190.724Z" fill="url(#paint7_linear)"/>
<path d="M1567.38 491.958H1692.21L190.881 1732.07H0.175537V1513.31L1567.38 491.958Z" fill="url(#paint8_linear)"/>
<path d="M0.18042 1342.27L1567.38 447.822V491.958L0.18042 1513.3V1342.27Z" fill="url(#paint9_linear)"/>
<path d="M1432.68 447.822H1567.38L0.174194 1342.47V1145.57L1432.68 447.822Z" fill="url(#paint10_linear)"/>
<path d="M0.196167 990.875L1432.73 411.791V447.822L0.196167 1145.56V990.875Z" fill="url(#paint11_linear)"/>
<path d="M1296.11 411.791H1432.74L0.196167 990.887V860.807L1296.11 411.791Z" fill="url(#paint12_linear)"/>
<path d="M0.199951 739.463L1296.1 379.794V411.791L0.199951 861.101V739.463Z" fill="url(#paint13_linear)"/>
<path d="M1164.29 379.794H1296.1L0.192139 739.405L0.192261 661.103L1164.29 379.794Z" fill="url(#paint14_linear)"/>
<path d="M0.189087 572.361L1164.29 340.146V379.794L0.189087 661.173V572.361Z" fill="url(#paint15_linear)"/>
<path d="M1011.57 340.146H1164.29L0.19458 572.803V509.162L1011.57 340.146Z" fill="url(#paint16_linear)"/>
<path d="M1011.96 292.151V340.182L0.199951 509.18V429.25L1011.96 292.151Z" fill="url(#paint17_linear)"/>
<path d="M847.132 292.151H1011.96L0.199951 429.522V388.222L847.132 292.151Z" fill="url(#paint18_linear)"/>
<path d="M0.199951 326.167L848.148 251.807V292.151L0.199951 388.905V326.167Z" fill="url(#paint19_linear)"/>
<path d="M715.986 251.807H848.147L0.176636 326.545L0.176758 299.527L715.986 251.807Z" fill="#8DDEFB"/>
<path d="M0.174194 228.368L715.987 195.812V251.807L0.174194 299.697V228.368Z" fill="url(#paint20_linear)"/>
<path d="M0.199951 214.67L572.349 195.809H715.989L0.199951 229.401V214.67Z" fill="#8DDEFB"/>
<path d="M0.194848 0.00524902H111.852V44.2912H260.065V83.8965H407.871V136.567H572.349V195.812L0.194824 215.37L0.194848 0.00524902Z" fill="url(#paint21_linear)"/>
<path d="M2001.02 1046.27L2180.28 1059.51V1353.42L1969.84 1331.65L2001.02 1046.27Z" fill="#F3694F"/>
<path d="M1991.11 1001.83L2001.09 1046.28L1969.86 1331.63L1955.24 1271.44L1991.11 1001.83Z" fill="#EC5A1E"/>
<path d="M1789.42 983.598L1991.1 1001.86L1955.25 1271.43L1696.63 1232.76L1789.42 983.598Z" fill="#F3694F"/>
<path d="M1784.09 905.168L1789.45 983.628L1696.63 1232.78L1684.41 1140.04L1784.09 905.168Z" fill="#EC5A1E"/>
<path d="M1595.64 896.933L1784.09 905.183L1684.41 1140.04L1456.82 1100.43L1595.64 896.933Z" fill="#F36851"/>
<path d="M1456.39 992.853L1589.35 822.509L1595.73 896.964L1456.86 1100.54L1456.39 992.853Z" fill="#F45920"/>
<path d="M1402.79 807.678L1589.35 822.503L1456.39 992.866L1231.52 965.851L1402.79 807.678Z" fill="#F46753"/>
<path d="M1226.27 876.102L1397.38 735.544L1402.79 807.678L1231.53 965.859L1226.27 876.102Z" fill="#F35A21"/>
<path d="M1214.72 721.795L1397.39 735.543L1226.27 876.093L1011.92 853.913L1214.72 721.795Z" fill="#F4684D"/>
<path d="M1009.93 765.556L1212.41 650.623L1214.71 721.795L1011.93 853.914L1009.93 765.556Z" fill="#F35C24"/>
<path d="M820.091 746.188L1038.97 639.602L1213.34 651.931L1009.95 765.567L820.091 746.188Z" fill="#F3694B"/>
<path d="M820.102 659.385L1038.97 570.957V639.602L820.102 746.191L820.102 659.385Z" fill="#ED5D25"/>
<path d="M650.963 635.288L872.841 558.536L1038.97 570.957L820.11 659.391L650.963 635.288Z" fill="#EC6D4A"/>
<path d="M646.228 560.117L870.867 497.801L872.839 558.536L650.976 635.287L646.228 560.117Z" fill="#EF5B1E"/>
<path d="M512.332 537.374L729.939 484.773L870.857 497.801L646.23 560.129L512.332 537.374Z" fill="#F06850"/>
<path d="M508.479 470.679L728.607 427.036L729.928 484.773L512.344 537.379L508.479 470.679Z" fill="#F05B21"/>
<path d="M395.077 442.855L613.667 406.357L728.607 427.036L506.578 470.931L395.077 442.855Z" fill="#F16754"/>
<path d="M393.661 376.195L613.71 346.223V406.354L395.105 442.867L393.661 376.195Z" fill="#F65823"/>
<path d="M271.236 357.96L503.843 331.42L613.702 346.228L393.868 376.366L271.236 357.96Z" fill="#EB6D54"/>
<path d="M267.969 302.941L503.949 280.818L503.859 331.43L271.292 357.962L267.969 302.941Z" fill="#F35925"/>
<path d="M188.995 287.053L423.181 271.384L503.953 280.824L267.984 302.953L188.995 287.053Z" fill="#F16A4D"/>
<path d="M188.634 220.807L423.188 208.979V271.395L189.046 287.064L188.634 220.807Z" fill="#EF581F"/>
<path d="M188.675 220.835L423.191 208.984L338.132 203.798L126.554 212.208L188.675 220.835Z" fill="#F55E33"/>
<path d="M68.4143 88.5686H216.595V135.128L338.176 144.313V203.81L126.507 212.233V151.269L68.4143 140.515V88.5686Z" fill="#F15A23"/>
<defs>
<linearGradient id="paint0_linear" x1="2053.3" y1="683.765" x2="2053.3" y2="1732.08" gradientUnits="userSpaceOnUse">
<stop stop-color="#9ADCF9"/>
<stop offset="1" stop-color="#62CAE7"/>
</linearGradient>
<linearGradient id="paint1_linear" x1="2040.11" y1="632.284" x2="1894.09" y2="1732.08" gradientUnits="userSpaceOnUse">
<stop stop-color="#1B9AB0"/>
<stop offset="1" stop-color="#01A4AB"/>
</linearGradient>
<linearGradient id="paint2_linear" x1="1976.88" y1="632.293" x2="1712.65" y2="1731.99" gradientUnits="userSpaceOnUse">
<stop stop-color="#99DDF4"/>
<stop offset="1" stop-color="#61C6E2"/>
</linearGradient>
<linearGradient id="paint3_linear" x1="1920.49" y1="614.229" x2="1484.29" y2="1732.04" gradientUnits="userSpaceOnUse">
<stop stop-color="#1A9AB0"/>
<stop offset="1" stop-color="#01A4AB"/>
</linearGradient>
<linearGradient id="paint4_linear" x1="1842.79" y1="583.948" x2="1267.01" y2="1732.08" gradientUnits="userSpaceOnUse">
<stop stop-color="#99DDF4"/>
<stop offset="1" stop-color="#56BFDD"/>
</linearGradient>
<linearGradient id="paint5_linear" x1="1953.41" y1="540.474" x2="1217.26" y2="1732.08" gradientUnits="userSpaceOnUse">
<stop stop-color="#1C99B0"/>
<stop offset="1" stop-color="#01A4AB"/>
</linearGradient>
<linearGradient id="paint6_linear" x1="1744.2" y1="540.474" x2="632.065" y2="1732.08" gradientUnits="userSpaceOnUse">
<stop stop-color="#99DDF4"/>
<stop offset="1" stop-color="#4BBAD6"/>
</linearGradient>
<linearGradient id="paint7_linear" x1="1791.37" y1="583.905" x2="941.469" y2="1732.1" gradientUnits="userSpaceOnUse">
<stop stop-color="#1C99B0"/>
<stop offset="1" stop-color="#01A4AB"/>
</linearGradient>
<linearGradient id="paint8_linear" x1="1625.89" y1="491.958" x2="0.175465" y2="1732.07" gradientUnits="userSpaceOnUse">
<stop stop-color="#99DDF4"/>
<stop offset="1" stop-color="#4BBAD6"/>
</linearGradient>
<linearGradient id="paint9_linear" x1="1567.38" y1="474.624" x2="0.180404" y2="1413.23" gradientUnits="userSpaceOnUse">
<stop stop-color="#1C99B0"/>
<stop offset="1" stop-color="#01A4AB"/>
</linearGradient>
<linearGradient id="paint10_linear" x1="1495.74" y1="447.822" x2="0.174315" y2="1223.93" gradientUnits="userSpaceOnUse">
<stop stop-color="#99DDF4"/>
<stop offset="1" stop-color="#4EBBD7"/>
</linearGradient>
<linearGradient id="paint11_linear" x1="1432.73" y1="431.242" x2="0.196194" y2="1050.41" gradientUnits="userSpaceOnUse">
<stop stop-color="#1C99B0"/>
<stop offset="1" stop-color="#01A4AB"/>
</linearGradient>
<linearGradient id="paint12_linear" x1="1345.88" y1="411.791" x2="-152.74" y2="990.887" gradientUnits="userSpaceOnUse">
<stop stop-color="#98DDF4"/>
<stop offset="1" stop-color="#50BCD8"/>
</linearGradient>
<linearGradient id="paint13_linear" x1="1296.1" y1="399.692" x2="0.19993" y2="786.179" gradientUnits="userSpaceOnUse">
<stop stop-color="#249DB1"/>
<stop offset="1" stop-color="#02AAB5"/>
</linearGradient>
<linearGradient id="paint14_linear" x1="1203.91" y1="379.794" x2="0.192165" y2="699.417" gradientUnits="userSpaceOnUse">
<stop stop-color="#99DDF4"/>
<stop offset="1" stop-color="#4EBBD7"/>
</linearGradient>
<linearGradient id="paint15_linear" x1="1164.29" y1="368.142" x2="0.189086" y2="616.598" gradientUnits="userSpaceOnUse">
<stop stop-color="#059DAB"/>
<stop offset="1" stop-color="#02A8B6"/>
</linearGradient>
<linearGradient id="paint16_linear" x1="1065.88" y1="340.146" x2="0.19457" y2="541.667" gradientUnits="userSpaceOnUse">
<stop stop-color="#98DDF4"/>
<stop offset="1" stop-color="#4FBBD7"/>
</linearGradient>
<linearGradient id="paint17_linear" x1="1011.96" y1="320.818" x2="0.199948" y2="474.623" gradientUnits="userSpaceOnUse">
<stop stop-color="#00A0AC"/>
<stop offset="1" stop-color="#04A7B3"/>
</linearGradient>
<linearGradient id="paint18_linear" x1="923.902" y1="292.151" x2="0.199978" y2="407.58" gradientUnits="userSpaceOnUse">
<stop stop-color="#99DDF4"/>
<stop offset="1" stop-color="#58C0DB"/>
</linearGradient>
<linearGradient id="paint19_linear" x1="848.148" y1="273.493" x2="0.199977" y2="352.368" gradientUnits="userSpaceOnUse">
<stop stop-color="#0F9DB1"/>
<stop offset="1" stop-color="#03AAB5"/>
</linearGradient>
<linearGradient id="paint20_linear" x1="715.987" y1="222.224" x2="0.174213" y2="269.549" gradientUnits="userSpaceOnUse">
<stop stop-color="#089FA7"/>
<stop offset="1" stop-color="#03A7B0"/>
</linearGradient>
<linearGradient id="paint21_linear" x1="430.934" y1="40.8117" x2="0.194814" y2="190.674" gradientUnits="userSpaceOnUse">
<stop stop-color="#06A5A7"/>
<stop offset="1" stop-color="#00A7AF"/>
</linearGradient>
</defs>
</svg>
