<svg width="1166" height="633" viewBox="0 0 1166 633" fill="none" xmlns="http://www.w3.org/2000/svg">
<path d="M79.5768 410.362C85.0329 406.35 87.3196 402.056 86.5172 397.763C85.7149 393.47 82.0241 388.655 75.5249 383.238L0.86499 320.926L79.1355 268.484L182.44 346.806L170.886 355.633L77.932 284.253L23.5718 321.167L89.0848 374.973C98.7667 382.998 103.768 390.782 104.089 398.325C104.41 405.868 100.198 413.104 91.4518 420.032L87.0388 423.443L75.4847 413.612L79.5768 410.362Z" fill="white"/>
<path d="M203.903 316.673C206.774 314.816 208.848 311.954 209.72 308.648C210.05 305.053 209.098 301.457 207.032 298.497L200.613 288.265L94.3801 258.052L106.656 249.827L193.913 275.425L157.005 216.082L168.358 208.499L220.03 292.759C223.605 297.923 225.432 304.096 225.246 310.373C224.854 312.948 223.94 315.414 222.56 317.622C221.18 319.83 219.364 321.733 217.222 323.213L211.646 327.466L200.212 319.08L203.903 316.673Z" fill="white"/>
<path d="M293.567 208.419C294.172 211.879 293.681 215.443 292.163 218.61C290.176 222.685 287.144 226.16 283.377 228.681C274.451 235.495 263.373 238.87 252.165 238.191C240.127 237.285 228.562 233.125 218.706 226.153L180.554 200.595L190.583 193.854L228.736 219.132C235.792 224.231 244.125 227.273 252.807 227.919C260.645 228.092 268.31 225.603 274.551 220.857C278.466 218.337 281.321 214.468 282.574 209.984C283.039 207.937 283.09 205.818 282.725 203.751C282.36 201.684 281.586 199.71 280.448 197.946C277.696 193.616 273.956 189.999 269.536 187.394L233.71 164.884L243.058 158.625L345.359 222.181L336.333 229.042L289.515 199.993C291.557 202.413 292.951 205.312 293.567 208.419Z" fill="white"/>
<path d="M265.284 143.819L274.271 137.801L365.098 191.968L399.078 166.369L308.933 114.689L317.317 109.072L407.343 160.19L439.437 136.116L349.934 87.2848L357.957 81.9482L458.253 136.156L367.666 205.45L265.284 143.819Z" fill="white"/>
<path d="M521.076 87.8465L490.827 80.3033L458.01 104.578L476.024 122.313L468 128.492L396.028 56.269L403.249 51.4542L528.538 82.2292L521.076 87.8465ZM450.709 97.3559L478.27 77.294L415.285 61.6056L413.64 61.0438L414.763 61.9667L450.709 97.3559Z" fill="white"/>
<path d="M570.021 50.4109L531.748 32.4755L516.584 43.5096C515.821 44.0713 515.179 44.4725 514.738 44.7534L540.013 73.3618L531.989 79.4205L506.073 48.9263C502.02 50.345 497.769 51.1168 493.476 51.2134C488.606 51.3523 483.739 50.8668 478.993 49.7689C473.955 48.6306 469.068 46.907 464.43 44.633C459.482 42.4374 455.043 39.2406 451.392 35.244C450.146 33.9541 449.204 32.402 448.635 30.7012C448.065 29.0004 447.883 27.1938 448.102 25.4136C448.542 23.6198 449.346 21.9356 450.464 20.4655C451.582 18.9953 452.99 17.7705 454.601 16.8672L479.193 0.416504L576.319 45.5157L570.021 50.4109ZM482.443 9.40422L464.711 21.4414C463.668 22.0417 462.768 22.8625 462.075 23.8467C461.382 24.8308 460.913 25.9545 460.699 27.139C460.61 28.3344 460.776 29.535 461.184 30.6621C461.591 31.7892 462.233 32.8173 463.066 33.6791C465.433 36.3059 468.333 38.3986 471.571 39.8181C475.365 41.7378 479.42 43.0897 483.607 43.8305C487.476 44.5078 491.427 44.5891 495.321 44.0713C498.581 43.6605 501.7 42.4925 504.428 40.6608L521.999 28.0618L482.443 9.40422Z" fill="white"/>
<path d="M439.917 468.823C444.707 463.62 450.564 459.514 457.088 456.786C463.433 454.144 470.28 452.925 477.147 453.214C483.955 453.471 490.607 455.327 496.564 458.631C501.771 461.352 505.983 465.649 508.6 470.909C511.054 475.648 511.6 481.148 510.124 486.276C514.784 483.293 519.93 481.148 525.329 479.937C530.909 478.688 536.657 478.376 542.339 479.014C547.965 479.593 553.42 481.284 558.386 483.99C564.877 487.24 570.264 492.335 573.872 498.635C576.978 504.239 578.095 510.731 577.041 517.052C575.888 523.796 572.936 530.103 568.496 535.308L525.289 587.79L399.318 511.755L439.917 468.823ZM497.286 489.246C497.812 485.655 497.105 481.991 495.281 478.854C493.331 475.444 490.451 472.66 486.976 470.829C483.206 468.738 479.006 467.544 474.7 467.338C470.334 467.09 465.963 467.745 461.862 469.264C457.884 470.682 454.296 473.019 451.391 476.085L422.627 506.94L463.868 531.416L492.312 499.557C495.057 496.719 496.864 493.105 497.487 489.206L497.286 489.246ZM559.389 516.971C559.855 512.782 558.939 508.555 556.782 504.934C554.374 501.008 550.95 497.806 546.872 495.666C542.676 493.308 537.998 491.936 533.192 491.653C528.306 491.36 523.412 492.098 518.83 493.82C514.395 495.515 510.442 498.27 507.316 501.845L475.221 538.237L522.601 566.324L554.054 528.728C556.975 525.435 558.834 521.338 559.389 516.971V516.971Z" fill="white"/>
<path d="M488.541 417.264L543.503 359.084L555.539 365.103L510.687 413.251L550.805 434.316L589.759 390.822L601.795 396.8L563.081 440.736L607.652 464.169L651.782 411.526L665.141 418.106L611.744 482.947L488.541 417.264Z" fill="white"/>
<path d="M590.562 309.25C595.34 304.266 601.222 300.473 607.732 298.176C614.63 295.692 621.955 294.614 629.276 295.006C636.909 295.326 644.41 297.096 651.381 300.222C657.858 302.847 663.619 306.973 668.19 312.26C671.925 316.561 673.94 322.091 673.847 327.787C673.464 333.796 670.978 339.478 666.826 343.837L645.082 368.955L688.37 389.498L679.785 399.93L559.43 341.991L590.562 309.25ZM658.402 328.028C658.345 324.161 656.924 320.438 654.39 317.516C651.333 313.99 647.483 311.239 643.157 309.491C633.787 305.378 623.226 304.878 613.51 308.087C609.138 309.448 605.187 311.907 602.036 315.229L580.252 338.541L632.405 363.297L653.908 338.822C656.71 335.917 658.314 332.063 658.402 328.028Z" fill="white"/>
<path d="M749.751 304.997C738.378 308.948 726.352 310.678 714.327 310.093C701.974 309.694 689.806 306.972 678.461 302.068C668.518 298.04 659.705 291.65 652.786 283.45C647.271 276.979 644.304 268.72 644.441 260.219C644.957 251.811 648.591 243.899 654.631 238.03C659.766 232.745 665.867 228.495 672.604 225.511C680.227 222.137 688.365 220.075 696.675 219.412C705.876 218.605 715.148 219.323 724.116 221.539L716.694 229.564C707.216 227.507 697.386 227.727 688.009 230.206C679.747 232.367 672.256 236.802 666.386 243.005C661.736 247.588 658.961 253.739 658.603 260.259C658.589 266.881 661.033 273.272 665.463 278.194C671.217 284.676 678.419 289.708 686.485 292.879C695.561 296.883 705.3 299.168 715.209 299.62C724.477 300.199 733.766 298.917 742.53 295.849C750.12 293.342 756.886 288.821 762.107 282.768C764.599 280.152 766.47 277.008 767.581 273.57C768.692 270.131 769.015 266.487 768.526 262.907C767.403 256.246 762.87 250.268 754.966 244.891L762.308 236.425C769.116 240.21 774.889 245.612 779.118 252.154C782.455 257.547 783.869 263.91 783.129 270.209C782.236 276.764 779.447 282.914 775.106 287.904C768.397 295.837 759.621 301.754 749.751 304.997V304.997Z" fill="white"/>
<path d="M861.559 179.369L855.301 186.953L764.955 154.332L819.555 230.327L813.818 237.268L700.124 193.132L707.265 185.589L797.892 220.336L745.176 145.585L750.713 139.727L861.559 179.369Z" fill="white"/>
<path d="M905.088 126.486L862.562 112.483L849.043 128.051C848.53 128.672 847.981 129.261 847.398 129.816L878.53 158.625L871.509 167.091L839.414 136.276C835.562 138.639 831.326 140.309 826.897 141.211C821.901 142.256 816.779 142.567 811.693 142.134C806.219 141.722 800.823 140.589 795.645 138.764C790.03 137.039 784.865 134.093 780.521 130.137C778.947 128.784 777.671 127.119 776.773 125.247C775.875 123.376 775.375 121.338 775.305 119.264C775.471 115.012 777.318 110.999 780.441 108.109L802.786 84.4362L910.704 119.745L905.088 126.486ZM807.801 94.3868L791.754 111.6C790.756 112.543 789.963 113.682 789.424 114.945C788.886 116.208 788.614 117.569 788.625 118.942C788.845 121.748 790.155 124.355 792.275 126.205C795.186 128.796 798.641 130.702 802.385 131.782C806.614 133.282 811.058 134.081 815.544 134.149C819.635 134.276 823.714 133.65 827.579 132.304C830.929 131.214 833.941 129.279 836.325 126.686L852.052 108.871L807.801 94.3868Z" fill="white"/>
<path d="M890.645 587.589L867.377 630.281L853.295 624.865L907.134 528.005L920.533 532.82L898.709 572.944L1019.22 617.281L1012.08 632.889L890.645 587.589Z" fill="white"/>
<path d="M918.728 506.94L959.528 433.554L972.406 437.887L939.509 498.274L982.195 513.24L1009.8 459.474L1022.19 463.486L994.953 517.734L1041.21 533.783L1071.06 469.986L1084.5 474.48L1048.71 553.083L918.728 506.94Z" fill="white"/>
<path d="M1005.26 351.34L1017.3 355.152L990.339 404.625L1025.48 416.14L1039.64 388.776C1042.66 382.831 1047.17 377.771 1052.72 374.09C1058.27 370.446 1064.59 368.126 1071.18 367.31C1077.91 366.419 1084.76 367.022 1091.24 369.075C1097.59 370.904 1103.36 374.362 1107.97 379.106C1112.09 383.416 1114.81 388.87 1115.79 394.754C1116.7 400.871 1115.75 407.12 1113.06 412.69L1094.53 453.215L971.243 412.649L1005.26 351.34ZM1102.07 397.362C1101.32 393.455 1099.43 389.854 1096.65 387.01C1093.58 383.861 1089.76 381.553 1085.54 380.31C1081.13 378.888 1076.45 378.49 1071.86 379.146C1067.45 379.75 1063.23 381.326 1059.5 383.76C1056.01 386.029 1053.16 389.168 1051.24 392.868L1037.4 420.153L1087.51 436.603L1100.5 408.838C1102.24 405.278 1102.79 401.256 1102.07 397.362V397.362Z" fill="white"/>
<path d="M1160.48 308.889L1116.75 295.889L1105.16 319.321C1104.56 320.485 1104.07 321.408 1103.71 322.009L1138.5 356.877L1132.64 369.717L1096.53 332.121C1093.16 335.841 1089.07 338.831 1084.5 340.908C1079.66 343.101 1074.44 344.341 1069.13 344.559C1063.46 344.807 1057.78 344.06 1052.36 342.352C1046.05 340.612 1040.3 337.267 1035.67 332.642C1031.82 328.753 1029.44 323.648 1028.93 318.198C1028.57 312.447 1029.97 306.722 1032.94 301.787L1053 265.676L1165.33 298.738L1160.48 308.889ZM1059.14 278.756L1044.82 305.037C1042.93 308.269 1042.12 312.026 1042.53 315.75C1042.98 319.373 1044.62 322.745 1047.19 325.34C1050.2 328.354 1053.95 330.538 1058.06 331.679C1062.5 333.1 1067.19 333.552 1071.82 333.003C1076.12 332.473 1080.23 330.963 1083.85 328.59C1087.27 326.301 1090.04 323.162 1091.88 319.482L1105.48 292.559L1059.14 278.756Z" fill="white"/>
</svg>
