<svg width="1140" height="1388" viewBox="0 0 1140 1388" fill="none" xmlns="http://www.w3.org/2000/svg">
<path d="M17.6208 0.277222H338.95V371.378H261.828V71.9176H95.0359V371.378H17.6208V0.277222Z" fill="#1D1F34"/>
<path d="M780.706 0.277222H858.179V235.726L1079.5 0.277222H1119.44V371.378H1041.78V137.052L820.08 371.378H780.706V0.277222Z" fill="#1D1F34"/>
<path d="M591.345 1015.83H668.818V1251.28L890.136 1015.83H930.078V1386.93H852.418V1152.6L630.719 1386.93H591.345V1015.83Z" fill="#1D1F34"/>
<path d="M207.015 1015.83H284.438V1136.71L399.235 1015.83H491.335L381.661 1134.03L528.063 1387.29H445.425L328.125 1188.15L284.438 1236.45V1387.29H207.015V1015.83Z" fill="#1D1F34"/>
<path d="M652.257 4.44844C637.588 0.679447 608.182 0.277222 562.381 0.277222H433.626V371.378H511.113V221.475C534.735 221.056 607.636 224.621 644.094 217.675C761.26 193.151 764.213 32.6586 652.257 4.44844ZM615.674 152.046C615.674 152.046 530.13 152.114 511.113 152.046V70.8636C527.541 70.781 615.674 70.8636 615.674 70.8636C615.674 70.8636 658.621 74.3722 658.621 109.999C658.621 149.855 615.674 152.046 615.674 152.046Z" fill="#1D1F34"/>
<path d="M711.883 507.793H789.702V879.429H711.883V507.793Z" fill="#1D1F34"/>
<path d="M586.171 875.365C571.501 879.134 542.095 879.536 496.294 879.536H367.539V508.436H445.026V658.338C468.648 658.757 541.549 655.193 578.007 662.138C695.173 686.662 698.126 847.155 586.171 875.365ZM549.587 727.767C549.587 727.767 464.043 727.699 445.026 727.767V808.95C461.454 809.033 549.587 808.95 549.587 808.95C549.587 808.95 592.534 805.441 592.534 769.815C592.534 729.958 549.587 727.767 549.587 727.767Z" fill="#1D1F34"/>
<path d="M1061.87 507.793H1139.38V879.536H1061.87V738.044C1061.87 738.044 838.034 811.218 838.034 621.119C838.034 578.982 838.034 507.793 838.034 507.793H915.547C915.547 507.793 915.547 582.199 915.547 621.119C915.547 716.973 1061.87 665.043 1061.87 665.043V507.793Z" fill="#1D1F34"/>
<path fill-rule="evenodd" clip-rule="evenodd" d="M0.508545 507.793H130.437C178.25 507.792 265.819 519.559 265.819 612.042C265.819 660.164 241.758 680.124 241.758 680.124C241.758 680.124 301.235 700.903 301.235 773.383C301.235 879.536 208.516 879.536 190.208 879.536H0.508545V507.793ZM77.2075 580.126H161.694C161.694 580.126 197.047 582.585 197.047 620.451C197.047 658.317 161.694 660.088 161.694 660.088H77.2075V580.126ZM190.58 728.105H77.2075V808.067H190.58C190.58 808.067 225.934 806.296 225.934 768.43C225.934 730.564 190.58 728.105 190.58 728.105Z" fill="#1D1F34"/>
</svg>
