<?xml version="1.0" encoding="UTF-8" standalone="no"?>
<svg
   xmlns:dc="http://purl.org/dc/elements/1.1/"
   xmlns:cc="http://creativecommons.org/ns#"
   xmlns:rdf="http://www.w3.org/1999/02/22-rdf-syntax-ns#"
   xmlns:svg="http://www.w3.org/2000/svg"
   xmlns="http://www.w3.org/2000/svg"
   xmlns:sodipodi="http://sodipodi.sourceforge.net/DTD/sodipodi-0.dtd"
   xmlns:inkscape="http://www.inkscape.org/namespaces/inkscape"
   version="1.1"
   id="svg2"
   xml:space="preserve"
   width="392"
   height="38.666668"
   viewBox="0 0 392 38.666668"
   sodipodi:docname="logo3h.eps"><metadata
     id="metadata8"><rdf:RDF><cc:Work
         rdf:about=""><dc:format>image/svg+xml</dc:format><dc:type
           rdf:resource="http://purl.org/dc/dcmitype/StillImage" /></cc:Work></rdf:RDF></metadata><defs
     id="defs6"><clipPath
       clipPathUnits="userSpaceOnUse"
       id="clipPath50"><path
         d="m 2929.16,162.648 c 0.83,3.922 1.28,7.985 1.28,12.149 v 0 c 0,32.047 -26.22,58.266 -58.26,58.266 h -118.96 l 1.83,-7.676 c 8.25,-34.504 43.23,-62.739 77.74,-62.739 z"
         clip-rule="evenodd"
         id="path48" /></clipPath><linearGradient
       x1="617.83801"
       y1="466.237"
       x2="601.32202"
       y2="471.306"
       gradientUnits="userSpaceOnUse"
       gradientTransform="matrix(10,0,0,10,-3260,-4480)"
       spreadMethod="pad"
       id="linearGradient56"><stop
         style="stop-opacity:1;stop-color:#0090cf"
         offset="0"
         id="stop52" /><stop
         style="stop-opacity:1;stop-color:#29b4e6"
         offset="1"
         id="stop54" /></linearGradient></defs><sodipodi:namedview
     pagecolor="#ffffff"
     bordercolor="#666666"
     borderopacity="1"
     objecttolerance="10"
     gridtolerance="10"
     guidetolerance="10"
     inkscape:pageopacity="0"
     inkscape:pageshadow="2"
     inkscape:window-width="640"
     inkscape:window-height="480"
     id="namedview4" /><g
     id="g10"
     inkscape:groupmode="layer"
     inkscape:label="ink_ext_XXXXXX"
     transform="matrix(1.3333333,0,0,-1.3333333,0,38.666667)"><g
       id="g12"
       transform="scale(0.1)"><path
         d="M 4.43359,289.211 H 894.047 V 6.17188 H 4.43359 V 289.211"
         style="fill:#cc1626;fill-opacity:1;fill-rule:evenodd;stroke:none"
         id="path14" /><path
         d="m 121.805,146.781 40.433,40.438 -40.433,40.437 c 10.07,0 20.14,0 30.207,0 l 40.437,-40.437 -40.441,-40.438 c -10.067,0 -20.137,0 -30.203,0 z m -53.2581,0 40.4411,40.438 -40.4372,40.437 c 10.0742,0 20.1367,0 30.2109,0 L 139.195,187.219 98.7578,146.781 c -10.0703,0 -20.1367,0 -30.2109,0"
         style="fill:#ffffff;fill-opacity:1;fill-rule:evenodd;stroke:none"
         id="path16" /><path
         d="m 443.996,67.3398 c 7.777,0 13.859,3.8868 13.859,11.7383 0,6.8633 -6.152,9.336 -11.597,11.0352 -0.215,0.0703 -0.492,0.1406 -0.711,0.2109 -4.102,1.3438 -7.707,2.4766 -7.707,5.0196 0,2.3359 1.91,3.8945 5.234,3.8945 3.114,0 6.934,-1.3477 10.539,-3.5391 l 3.395,6.0818 c -3.961,2.617 -9.055,4.246 -13.723,4.246 -7.422,0 -13.293,-4.316 -13.293,-11.3864 0,-7.2851 6.153,-9.5468 11.668,-11.1758 0.211,-0.0703 0.426,-0.1406 0.637,-0.2109 4.101,-1.2031 7.711,-2.1914 7.711,-4.9492 0,-2.6211 -2.125,-4.1758 -5.801,-4.1758 -3.82,0 -8.207,1.5547 -12.238,4.5977 l -3.817,-5.8008 c 4.668,-3.6758 10.536,-5.586 15.844,-5.586 z m 39.672,-0.1445 c 6.863,0 11.742,2.7617 15.281,7.0039 l -5.023,4.4571 c -2.973,-2.9024 -5.942,-4.4571 -10.117,-4.4571 -5.516,0 -9.825,3.3946 -10.746,9.4766 h 27.441 c 0.066,0.4258 0.141,1.8398 0.141,2.4062 0,10.75 -6.012,20.086 -17.895,20.086 -10.68,0 -18.246,-8.7696 -18.246,-19.4492 0,-11.668 8.344,-19.5235 19.164,-19.5235 z m -10.676,22.1406 c 0.778,5.7969 4.453,9.8282 9.688,9.8282 5.656,0 8.91,-4.3125 9.48,-9.8282 z m 53.535,-22.1406 c 7.286,0 11.602,2.9024 15.278,7.0039 l -5.164,5.0938 c -2.684,-2.7578 -5.657,-4.668 -9.688,-4.668 -6.574,0 -11.176,5.375 -11.176,12.0195 0,6.6524 4.528,12.0274 10.75,12.0274 4.317,0 7.075,-1.9141 9.692,-4.6719 l 5.304,5.7305 c -3.464,3.8165 -7.851,6.4375 -14.925,6.4375 -11.172,0 -19.375,-8.9141 -19.375,-19.5235 0,-10.7461 8.203,-19.4492 19.304,-19.4492 z m 36,0.0742 c 5.797,0 9.266,3.0391 11.668,6.5782 v -5.8008 h 8.559 v 37.3401 h -8.559 V 84.3125 c 0,-5.8008 -3.465,-9.2617 -8.414,-9.2617 -5.093,0 -7.992,3.3203 -7.992,9.1211 V 105.387 H 549.23 V 81.625 c 0,-8.6992 4.883,-14.3555 13.297,-14.3555 z m 30.977,0.7774 h 8.559 v 14.2148 c 0,9.8985 5.234,14.7813 12.726,14.7813 h 0.496 v 9.055 c -6.574,0.281 -10.89,-3.539 -13.222,-9.1253 v 8.4143 h -8.559 z m 45.051,-0.8516 c 6.863,0 11.738,2.7617 15.277,7.0039 l -5.023,4.4571 c -2.969,-2.9024 -5.942,-4.4571 -10.114,-4.4571 -5.515,0 -9.832,3.3946 -10.75,9.4766 h 27.442 c 0.07,0.4258 0.14,1.8398 0.14,2.4062 0,10.75 -6.007,20.086 -17.89,20.086 -10.68,0 -18.25,-8.7696 -18.25,-19.4492 0,-11.668 8.347,-19.5235 19.168,-19.5235 z m -10.68,22.1406 c 0.781,5.7969 4.457,9.8282 9.688,9.8282 5.66,0 8.914,-4.3125 9.48,-9.8282 z m 51.699,-22.0664 c 6.082,0 9.973,3.1094 12.731,7 v -6.2226 h 8.558 v 51.6291 h -8.558 V 99.5898 c -2.688,3.4652 -6.578,6.5782 -12.731,6.5782 -8.91,0 -17.324,-7.0039 -17.324,-19.3789 0,-12.5196 8.555,-19.5196 17.324,-19.5196 z m 2.051,7.4258 c -5.797,0 -10.75,4.7383 -10.75,11.9492 0,7.5703 4.879,12.0977 10.75,12.0977 5.73,0 10.82,-4.7422 10.82,-11.9531 0,-7.2852 -5.09,-12.0938 -10.82,-12.0938 z m 72.352,-7.4258 c 8.91,0 17.398,7 17.398,19.375 0,12.5196 -8.559,19.5235 -17.398,19.5235 -6.012,0 -9.903,-3.113 -12.661,-7.0039 v 20.5119 h -8.554 V 68.0469 h 8.554 v 5.8008 c 2.618,-3.4688 6.508,-6.5782 12.661,-6.5782 z m -1.981,7.4258 c -5.801,0 -10.891,4.7383 -10.891,11.9492 0,7.2852 5.09,12.0977 10.891,12.0977 5.801,0 10.68,-4.7422 10.68,-11.9531 0,-7.4961 -4.809,-12.0938 -10.68,-12.0938 z m 34.02,-18.1758 c 6.007,0 9.332,2.8282 12.304,10.4649 l 14.852,38.4026 h -8.91 L 794.57,77.6641 783.961,105.387 h -9.121 l 15.558,-37.3401 c -1.414,-3.2539 -2.898,-4.3125 -5.304,-4.3125 -1.77,0 -3.465,0.5664 -5.02,1.414 l -2.902,-6.3671 c 2.617,-1.4141 5.234,-2.2618 8.844,-2.2618"
         style="fill:#ffffff;fill-opacity:1;fill-rule:evenodd;stroke:none"
         id="path18" /><path
         d="m 313.012,158.922 c 3.261,0 6.461,0.891 9.246,2.59 5.469,3.328 8.457,9.117 8.457,15.472 0,6.582 -3.215,12.579 -8.977,15.864 -2.66,1.515 -5.664,2.312 -8.726,2.312 -3.106,0 -6.149,-0.82 -8.828,-2.387 -5.664,-3.316 -8.758,-9.289 -8.758,-15.789 0,-6.304 2.898,-12.082 8.304,-15.433 2.79,-1.731 6.004,-2.629 9.282,-2.629 z m -79.672,25.004 v 29.078 h 15.621 c 4.019,0 7.434,-1.465 10.273,-4.305 l 0.016,-0.015 c 2.91,-2.766 4.305,-6.161 4.305,-10.161 0,-4.031 -1.469,-7.441 -4.313,-10.285 -2.84,-2.843 -6.25,-4.308 -10.281,-4.308 l -2.77,-0.004 z m 0,-14.528 h 15.621 c 3.922,0 7.73,0.75 11.328,2.317 3.457,1.5 6.578,3.57 9.242,6.238 2.668,2.664 4.735,5.785 6.239,9.238 1.566,3.602 2.312,7.411 2.312,11.332 0,3.903 -0.742,7.696 -2.316,11.274 -1.508,3.433 -3.582,6.527 -6.235,9.18 -2.668,2.668 -5.789,4.738 -9.242,6.242 -3.598,1.562 -7.41,2.312 -11.328,2.312 l -30.148,-0.004 0.003,-80.558 14.528,0.004 z m 98.297,-15.527 c -5.067,-5.383 -12.254,-8.254 -19.696,-8.254 -17.539,0 -30.293,14.125 -30.296,31.363 0,17.223 12.742,31.485 30.296,31.485 7.461,0 14.633,-2.953 19.696,-8.356 v 7.68 h 13.652 l 0.004,-61.457 h -13.656 z m 71.929,0.969 c -4.355,-5.301 -11.16,-7.793 -18.058,-7.793 -17.93,0 -26.852,12.355 -26.852,29.461 v 31.25 h 13.778 l 0.004,-30.535 c 0,-10.211 4.132,-16.875 14.851,-16.875 11.566,0 16.399,8.34 16.399,19.132 l -0.004,28.278 h 13.66 l 0.004,-52.867 c 0,-18.422 -11.407,-31.129 -30.176,-31.129 -9.723,0 -19.012,3.121 -26.508,9.367 l -0.769,0.644 7.98,8.543 0.66,-0.398 c 5.887,-3.559 11.684,-5.449 18.637,-5.449 10.262,0 16.394,5.496 16.394,15.922 v 2.449"
         style="fill:#ffffff;fill-opacity:1;fill-rule:evenodd;stroke:none"
         id="path20" /><path
         d="m 637.789,191.168 -0.016,0.008 0.442,0.836 c 0.051,0.09 0.098,0.183 0.144,0.273 0.008,0.012 0.012,0.024 0.02,0.035 l 0.434,0.797 0.011,-0.004 0.141,0.239 0.098,0.16 0.167,0.285 0.028,0.039 c 0.125,0.207 0.254,0.406 0.383,0.605 l 0.062,0.098 c 0.063,0.098 0.129,0.199 0.195,0.301 l 0.067,0.098 0.203,0.296 0.051,0.071 c 0.23,0.332 0.469,0.66 0.715,0.984 l 0.015,0.024 c 0.086,0.109 0.168,0.218 0.25,0.328 l 0.012,0.011 c 5.809,7.528 14.703,11.942 24.238,11.942 h 1.246 v -0.004 c 17.203,-0.348 29.641,-14.332 29.641,-31.36 0,-17.218 -12.738,-31.484 -30.293,-31.484 -6.77,0 -13.414,2.883 -17.824,7.981 v -29.008 h -13.653 l -0.003,53.855 h 0.031 c 0.164,3.824 1.004,7.586 2.515,11.11 l 0.047,0.113 0.117,0.277 0.094,0.207 0.141,0.305 0.129,0.266 z m -206.684,36.484 h 14.528 l 0.004,-80.558 h -14.528 z m 34.379,-40.394 33.551,-40.395 h -19.148 l -32.352,40.391 32.348,40.398 19.148,0.004 z m 45.903,-14.074 c 0.476,-9.633 8.226,-14.614 17.562,-14.614 6.52,0 13.035,1.754 18.641,5.094 l 0.66,0.395 7.625,-8.219 -0.824,-0.637 c -7.578,-5.801 -16.477,-9.34 -26.102,-9.34 -18.426,0 -31.719,12.864 -31.722,31.36 0,18.074 12.718,31.484 31.007,31.484 12.36,0 22.293,-5.926 27.227,-17.32 2.117,-4.895 2.707,-12.453 1.102,-17.535 l -0.208,-0.664 z m 67.742,0.004 c 0.476,-9.637 8.226,-14.614 17.562,-14.614 6.52,0 13.036,1.754 18.641,5.094 l 0.66,0.395 7.629,-8.219 -0.832,-0.637 c -7.574,-5.801 -16.473,-9.344 -26.098,-9.344 -18.425,0 -31.718,12.864 -31.722,31.364 0,18.074 12.722,31.484 31.008,31.484 12.363,0 22.293,-5.926 27.226,-17.324 2.117,-4.891 2.707,-12.449 1.106,-17.535 l -0.211,-0.661 z m 139.476,0.007 c 0.473,-9.636 8.227,-14.613 17.563,-14.613 6.52,0 13.035,1.75 18.641,5.094 l 0.656,0.39 7.629,-8.218 -0.828,-0.633 c -7.578,-5.805 -16.473,-9.344 -26.098,-9.344 -18.43,0 -31.723,12.863 -31.723,31.359 0,18.075 12.719,31.485 31.004,31.485 12.364,0 22.297,-5.926 27.231,-17.32 2.113,-4.891 2.707,-12.454 1.101,-17.536 l -0.207,-0.664 z m -70.48,4.035 c 0,-25.011 34.434,-22.906 34.43,0 0,22.907 -34.43,25.008 -34.43,0 z m -135.937,6.872 h 31.582 c -0.235,1.054 -0.618,2.109 -1.067,3.058 -2.703,5.735 -8.066,8.836 -14.348,8.836 -6.921,0 -13.414,-3.726 -15.75,-10.445 -0.164,-0.477 -0.304,-0.961 -0.417,-1.449 z m 67.742,0.003 h 31.586 c -0.239,1.051 -0.621,2.106 -1.071,3.059 -2.703,5.734 -8.066,8.836 -14.347,8.836 -6.922,0 -13.414,-3.727 -15.746,-10.449 -0.168,-0.477 -0.305,-0.961 -0.422,-1.446 z m 139.476,0.004 h 31.582 c -0.238,1.055 -0.621,2.11 -1.07,3.059 -2.703,5.734 -8.063,8.84 -14.348,8.84 -6.922,0 -13.41,-3.727 -15.746,-10.445 -0.164,-0.477 -0.304,-0.965 -0.418,-1.454 z m 69.094,15.664 c 5.5,6.094 13.156,8.766 21.477,8.766 h 3.195 v -13.676 h -5.899 c -13.168,0 -18.648,-8.976 -18.648,-21.234 v -27.043 h -14.148 v 61.285 H 788.5 v -8.098"
         style="fill:#ffcc00;fill-opacity:1;fill-rule:evenodd;stroke:none"
         id="path22" /><path
         d="m 1222.92,63.7422 28.68,167.6638 h 45.79 L 1268.71,63.7422 h -45.79"
         style="fill:#1b54a2;fill-opacity:1;fill-rule:evenodd;stroke:none"
         id="path24" /><path
         d="m 1434.53,227.246 c -9.02,3.238 -23.36,6.942 -40.94,6.942 -45.32,0 -77.01,-22.668 -77.23,-55.274 -0.24,-24.051 22.66,-37.465 40,-45.562 17.81,-8.325 23.82,-13.414 23.59,-20.813 0,-11.332 -14.11,-16.4218 -27.29,-16.4218 -18.27,0 -27.98,2.5469 -43.01,8.7888 l -6.02,2.774 -6.24,-37.4612 c 10.64,-4.8594 30.29,-8.7891 50.88,-9.0196 48.1,0 79.09,22.4336 79.55,57.3518 0.23,18.965 -12.02,33.535 -38.39,45.558 -15.95,7.633 -25.66,12.719 -25.66,20.582 0,7.172 8.32,14.571 26.13,14.571 15.03,0.234 25.9,-3.004 34.22,-6.473 l 4.17,-1.851 6.24,36.308"
         style="fill:#1b54a2;fill-opacity:1;fill-rule:evenodd;stroke:none"
         id="path26" /><path
         d="m 1551.78,231.18 h -35.38 c -10.87,0 -19.2,-3.008 -24.05,-13.875 L 1424.59,63.5117 h 47.87 c 0,0 7.86,20.8125 9.71,25.2071 5.32,0 51.81,0 58.51,0 1.39,-5.7813 5.55,-25.2071 5.55,-25.2071 h 42.32 z m -56.42,-108 c 3.69,9.48 18.26,46.715 18.26,46.715 -0.46,-0.465 3.7,9.71 6.02,15.953 l 3,-14.336 c 0,0 8.79,-40.008 10.64,-48.332 h -37.92"
         style="fill:#1b54a2;fill-opacity:1;fill-rule:evenodd;stroke:none"
         id="path28" /><path
         d="m 1184.76,231.18 -44.86,-114.246 -4.63,23.125 c -8.32,26.828 -34.46,55.734 -63.36,70.304 l 40.93,-146.6208 h 48.34 L 1233.1,231.18 h -48.34"
         style="fill:#1b54a2;fill-opacity:1;fill-rule:evenodd;stroke:none"
         id="path30" /><path
         d="m 1098.5,231.406 h -73.77 l -0.46,-3.695 c 57.12,-13.879 95.28,-47.41 111,-87.652 l -16.19,77.011 c -2.77,10.641 -10.63,13.875 -20.58,14.336"
         style="fill:#f89c0e;fill-opacity:1;fill-rule:evenodd;stroke:none"
         id="path32" /><path
         d="M 2016.16,36.7656 H 1892.32 V 259.281 h 123.84 V 36.7656"
         style="fill:#f1511b;fill-opacity:1;fill-rule:nonzero;stroke:none"
         id="path34" /><path
         d="m 1900.19,148.027 c 0,45.149 21.13,85.348 54.05,111.266 -24.08,18.949 -54.44,30.258 -87.46,30.258 -78.15,0 -141.51,-63.36 -141.51,-141.524 0,-78.1598 63.36,-141.51528 141.51,-141.51528 33.02,0 63.38,11.30468 87.46,30.25388 -32.92,25.9141 -54.05,66.1254 -54.05,111.2614"
         style="fill:#e71b25;fill-opacity:1;fill-rule:nonzero;stroke:none"
         id="path36" /><path
         d="m 2183.21,148.027 c 0,-78.1598 -63.36,-141.51528 -141.51,-141.51528 -33.02,0 -63.39,11.30468 -87.46,30.25388 32.92,25.9141 54.05,66.1254 54.05,111.2614 0,45.149 -21.13,85.348 -54.05,111.266 24.07,18.949 54.44,30.258 87.46,30.258 78.15,0 141.51,-63.36 141.51,-141.524"
         style="fill:#f79410;fill-opacity:1;fill-rule:nonzero;stroke:none"
         id="path38" /><path
         d="m 2129.85,140.941 c 0,7.09 4.48,12.758 11.73,12.758 6.93,0 11.49,-5.437 11.49,-12.758 0,-7.32 -4.56,-12.757 -11.49,-12.757 -7.25,0 -11.73,5.671 -11.73,12.757 z m 30.47,0 v 33.934 h -7.57 v -19.684 c -2.59,3.379 -6.84,5.508 -12.2,5.508 -10.54,0 -18.57,-8.258 -18.57,-19.758 0,-11.5 8.03,-19.753 18.57,-19.753 5.36,0 9.61,2.125 12.2,5.507 v -4.57 h 7.57 z m -106.44,0 c 0,7.09 4.5,12.758 11.73,12.758 6.93,0 11.5,-5.437 11.5,-12.758 0,-7.32 -4.57,-12.757 -11.5,-12.757 -7.23,0 -11.73,5.671 -11.73,12.757 z m 30.47,0 v 18.809 h -7.55 v -4.559 c -2.6,3.379 -6.86,5.508 -12.21,5.508 -10.54,0 -18.58,-8.258 -18.58,-19.758 0,-11.5 8.04,-19.753 18.58,-19.753 5.35,0 9.61,2.125 12.21,5.507 v -4.57 h 7.55 z m 28.97,19.758 c -4.73,0 -8.11,-2.211 -10.23,-5.508 v 4.559 h -7.48 v -37.625 h 7.56 v 21.184 c 0,6.211 2.99,10.23 8.33,10.23 1.66,0 3.39,-0.234 5.13,-0.949 l 2.52,7.086 c -1.81,0.707 -4.18,1.023 -5.83,1.023 z m -290.46,-19.758 c 0,7.09 4.48,12.758 11.73,12.758 6.92,0 11.48,-5.437 11.48,-12.758 0,-7.32 -4.56,-12.757 -11.48,-12.757 -7.25,0 -11.73,5.671 -11.73,12.757 z m 30.46,0 v 18.809 h -7.55 v -4.559 c -2.61,3.379 -6.86,5.508 -12.21,5.508 -10.54,0 -18.58,-8.258 -18.58,-19.758 0,-11.5 8.04,-19.753 18.58,-19.753 5.35,0 9.6,2.125 12.21,5.507 v -4.57 h 7.55 z m 101.85,12.758 c 5.59,0 9.38,-3.625 9.93,-9.527 h -20.32 c 0.72,5.508 4.33,9.527 10.39,9.527 z m 0.17,7 c -11.03,0 -18.58,-7.945 -18.58,-19.676 0,-11.964 7.87,-19.835 19.13,-19.835 5.66,0 10.86,1.41 15.42,5.269 l -4.01,5.582 c -3.14,-2.504 -7.16,-3.922 -10.94,-3.922 -5.27,0 -10.63,2.988 -11.58,9.754 h 28.11 c 0.07,1.027 0.16,2.043 0.16,3.152 -0.09,11.731 -7.16,19.676 -17.71,19.676 z m 52.89,-19.758 c 0,-11.406 7.64,-19.753 19.76,-19.753 5.67,0 9.44,1.257 13.54,4.48 l -3.93,5.91 c -3.08,-2.203 -6.3,-3.394 -9.84,-3.394 -6.54,0.082 -11.65,5.195 -11.65,12.757 0,7.555 5.11,12.676 11.65,12.758 3.54,0 6.76,-1.191 9.84,-3.394 l 3.93,5.91 c -4.1,3.223 -7.87,4.484 -13.54,4.484 -12.12,0 -19.76,-8.347 -19.76,-19.758 z m -114.14,15.817 c -3.93,2.609 -9.36,3.941 -15.34,3.941 -9.53,0 -15.36,-4.484 -15.36,-11.965 0,-6.14 4.25,-9.836 12.68,-11.023 l 3.86,-0.547 c 4.48,-0.633 6.92,-2.203 6.92,-4.328 0,-2.918 -3.3,-4.801 -8.89,-4.801 -5.91,0 -9.76,1.809 -12.51,3.938 l -3.87,-5.91 c 5.6,-4.09 12.28,-4.875 16.3,-4.875 10.86,0 16.84,5.031 16.84,12.191 0,6.613 -4.56,10 -12.83,11.187 l -3.86,0.551 c -3.53,0.477 -6.68,1.571 -6.68,4.09 0,2.75 2.99,4.641 7.48,4.641 4.8,0 9.44,-1.809 11.73,-3.219 z m 105.57,3.941 c -4.73,0 -8.12,-2.211 -10.25,-5.508 v 4.559 h -7.46 v -37.625 h 7.55 v 21.184 c 0,6.211 2.99,10.23 8.34,10.23 1.65,0 3.39,-0.234 5.12,-0.949 l 2.52,7.086 c -1.82,0.707 -4.17,1.023 -5.82,1.023 z m -69.82,-0.949 h -13.7 v 11.418 h -7.64 V 159.75 h -7.96 v -6.848 h 7.96 v -17.777 c 0,-8.75 3.07,-13.937 12.75,-13.937 3.54,0 7.63,1.097 10.23,2.91 l -2.36,6.683 c -2.44,-1.406 -5.12,-2.125 -7.24,-2.125 -4.09,0 -5.74,2.532 -5.74,6.305 v 17.941 h 13.7 z m -122.65,-37.625 v 23.699 c 0,8.891 -5.36,14.805 -14.49,14.875 -4.79,0.078 -9.75,-1.426 -13.22,-6.687 -2.59,4.168 -6.69,6.687 -12.43,6.687 -4.02,0 -8.27,-1.101 -11.34,-5.508 v 4.559 h -7.55 v -37.625 h 7.63 v 21.578 c 0,6.524 3.94,9.996 9.53,9.996 5.42,0 8.49,-3.543 8.49,-9.918 v -21.656 h 7.65 v 21.578 c 0,6.524 4.08,9.996 9.52,9.996 5.59,0 8.58,-3.543 8.58,-9.918 v -21.656 h 7.63"
         style="fill:#ffffff;fill-opacity:1;fill-rule:nonzero;stroke:none"
         id="path40" /><path
         d="m 2327.17,233.063 h 53.97 c 17.13,0 24.95,-12.391 29.25,-26.571 l 22.79,-75.23 h 4.51 l 22.79,75.23 c 4.27,14.074 12,26.383 28.88,26.567 v 0.004 h 0.37 18.64 34.48 V 62.3242 h -53.49 V 163.645 h -3.73 L 2454.07,62.3242 h -37.27 l -31.55,101.3208 h -4.59 V 62.3242 h -53.49 z M 2814.3,116.535 h 57.88 c 25.08,0 46.59,16.067 54.76,38.41 h -112.64 -53.5 v -38.41 -54.2108 h 53.5 z m -248.97,116.528 h 53.49 V 131.746 h 6.97 c 10.89,24.887 21.6,49.754 32.33,74.746 7.3,17.012 14.51,24.434 32.6,26.571 h 18.64 27.26 V 62.3242 h -53.49 V 163.645 h -5.28 c -10.89,-24.891 -21.6,-49.758 -32.33,-74.7505 -7,-16.3047 -14.73,-24.9648 -32.61,-26.5703 h -18.63 -28.95 V 233.063"
         style="fill:#4db45e;fill-opacity:1;fill-rule:evenodd;stroke:none"
         id="path42" /><g
         id="g44"><g
           id="g46"
           clip-path="url(#clipPath50)"><path
             d="m 2929.16,162.648 c 0.83,3.922 1.28,7.985 1.28,12.149 v 0 c 0,32.047 -26.22,58.266 -58.26,58.266 h -118.96 l 1.83,-7.676 c 8.25,-34.504 43.23,-62.739 77.74,-62.739 h 96.37"
             style="fill:url(#linearGradient56);fill-opacity:1;fill-rule:nonzero;stroke:none"
             id="path58" /></g></g></g></g></svg>
