<svg width="165" height="111" viewBox="0 0 165 111" fill="none" xmlns="http://www.w3.org/2000/svg">
<path d="M123.5 83C146.42 83 165 64.4198 165 41.5C165 18.5802 146.42 0 123.5 0C100.58 0 82 18.5802 82 41.5C82 64.4198 100.58 83 123.5 83Z" fill="#52A0FD"/>
<path d="M100.99 40.6008L141.003 25.1732C142.86 24.5023 144.482 25.6262 143.88 28.4344L143.883 28.4309L137.071 60.5277C136.566 62.8033 135.213 63.3566 133.322 62.2846L122.947 54.6382L117.943 59.4591C117.389 60.0124 116.922 60.4793 115.85 60.4793L116.587 49.921L135.815 32.5498C136.652 31.8132 135.628 31.3982 134.525 32.1314L110.763 47.0921L100.519 43.8966C98.2957 43.1911 98.2473 41.6729 100.99 40.6008V40.6008Z" fill="white"/>
<path d="M5.75973 67.446C5.75973 67.446 14.1268 89.7495 27.6643 93.0899C41.2018 96.4302 52.4865 89.257 55.7713 86.5194C59.0561 83.7819 71.8298 71.7353 61.4281 64.1616C51.0264 56.5879 35.6023 71.2798 33.321 80.7705C31.0396 90.2612 34.6882 103.949 59.6926 102.033C84.697 100.116 101.027 82.4439 101.027 82.4439" stroke="black" stroke-width="2" stroke-dasharray="8 8"/>
</svg>
