<svg width="513" height="513" viewBox="0 0 513 513" fill="none" xmlns="http://www.w3.org/2000/svg">
<circle cx="256.057" cy="256.858" r="256" fill="#55CD6C"/>
<path d="M86.8489 426.066L110.188 341.462C95.0178 315.206 86.8489 286.032 86.8489 255.691C86.8489 163.502 162.701 87.65 255.473 87.65C348.246 87.65 425.265 163.502 425.265 255.691C425.265 347.88 348.246 426.066 255.473 426.066C226.3 426.066 198.293 416.731 173.203 402.728L86.8489 426.066Z" fill="white"/>
<path d="M177.871 372.386L183.122 375.304C204.711 388.724 229.801 396.892 256.057 396.892C332.492 396.892 396.091 333.293 396.091 255.691C396.091 178.088 332.492 116.824 255.473 116.824C178.455 116.824 116.023 178.672 116.023 255.691C116.023 282.531 123.608 308.787 137.611 330.959L141.112 336.211L127.693 385.223L177.871 372.386Z" fill="#55CD6C"/>
<path d="M210.546 177.506L199.46 176.922C195.959 176.922 192.459 178.089 190.125 180.423C184.873 185.091 176.121 193.843 173.788 205.513C169.703 223.017 176.121 244.022 191.292 265.027C206.463 286.032 235.636 319.874 286.982 334.461C303.319 339.128 316.156 336.211 326.659 329.793C334.827 324.541 340.078 316.373 341.829 307.621L343.579 299.452C344.163 297.118 342.996 294.2 340.662 293.034L303.903 276.113C301.569 274.946 298.651 275.529 296.901 277.863L282.314 296.534C281.147 297.701 279.397 298.284 277.646 297.701C267.727 294.2 234.469 280.197 216.381 245.189C215.797 243.439 215.797 241.688 216.965 240.521L230.968 224.767C232.135 223.017 232.718 220.683 232.135 218.932L215.214 181.007C214.63 179.256 212.88 177.506 210.546 177.506Z" fill="#FEFEFE"/>
</svg>
