<svg width="100" height="49" viewBox="0 0 100 49" fill="none" xmlns="http://www.w3.org/2000/svg">
<g clip-path="url(#clip0_16_100)">
<path d="M43.0192 18.9198V24.7824L43.1031 24.8092L43.397 24.4084C45.0535 22.1183 47.0764 20.2595 49.8665 19.4466C52.8779 18.584 55.7367 18.9466 58.3283 20.7634C59.6113 21.689 60.5445 23.0203 60.9772 24.542C61.023 24.6908 61.0764 24.8397 61.1298 24.9886C61.1298 24.9886 61.1528 24.9885 61.1947 25.0191C61.4619 24.6374 61.7253 24.2557 62.0077 23.874C63.7444 21.584 65.8932 19.8969 68.752 19.2672C71.0494 18.7236 73.4658 19.0272 75.5573 20.1221C77.7291 21.2481 78.9657 23.0916 79.4161 25.4656C79.5851 26.3912 79.6707 27.3301 79.6718 28.271C79.7023 32.9084 79.6718 37.542 79.7024 42.1794C79.7157 42.8306 79.7769 43.4799 79.8856 44.1221C79.9669 44.6396 80.1569 45.1341 80.443 45.5729C80.7292 46.0117 81.1051 46.3849 81.5459 46.6679C81.8588 46.8817 82.1832 47.0725 82.481 47.3053C82.5693 47.4121 82.6131 47.5488 82.6031 47.687C82.6031 47.7252 82.4276 47.7786 82.3283 47.8092C82.2702 47.8188 82.2108 47.8188 82.1527 47.8092C76.8906 47.8092 71.626 47.8092 66.3588 47.8092C66.1936 47.7812 66.0338 47.7271 65.8855 47.6489L66.1718 47.2137C66.1815 47.2028 66.1932 47.1937 66.2062 47.187C68.1528 46.1756 68.8779 44.4809 68.9085 42.3893C68.9581 37.9427 69.0268 33.4924 69.0535 29.0305C69.0557 28.3643 68.9632 27.7012 68.7787 27.0611C67.939 24.187 64.8474 23.3817 62.6718 25.4427C62.5688 25.5382 62.4657 25.6412 62.3627 25.7481C62.0448 26.0455 61.7941 26.4075 61.6276 26.8097C61.461 27.2119 61.3824 27.6451 61.397 28.0801C61.4657 32.3092 61.397 36.542 61.4352 40.771C61.4352 41.7672 61.5077 42.771 61.5993 43.7595C61.6445 44.3261 61.8156 44.8754 62.1002 45.3673C62.3849 45.8593 62.7757 46.2815 63.2444 46.603C63.5382 46.813 63.855 46.9847 64.1337 47.2252C64.259 47.3638 64.3643 47.5192 64.4466 47.687L64.3436 47.8015H63.8741C58.6527 47.8015 53.4364 47.8015 48.2252 47.8015C48.0526 47.7813 47.8833 47.739 47.7214 47.6756C47.8119 47.4987 47.9234 47.3334 48.0535 47.1832C48.2804 47.003 48.5202 46.8398 48.7711 46.6947C49.3328 46.3285 49.7967 45.8309 50.1226 45.245C50.4485 44.659 50.6265 44.0024 50.6413 43.3321C50.738 41.6985 50.7939 40.0623 50.8092 38.4237C50.8436 35.3702 50.8092 32.2824 50.8398 29.2099C50.8651 28.2978 50.7094 27.3897 50.3817 26.5382C49.4504 24.2939 46.897 23.5878 44.9962 25.1069C44.3901 25.6614 43.838 26.2723 43.3474 26.9313C43.2496 27.0903 43.203 27.2755 43.2138 27.4618C43.2138 32.4466 43.224 37.43 43.2443 42.4122C43.2609 42.904 43.3042 43.3946 43.3741 43.8817C43.5573 45.4084 44.5192 46.3969 45.7787 47.1489C46.0039 47.2824 46.252 47.4084 46.0955 47.7824H29.5306C29.502 47.7341 29.4843 47.6801 29.479 47.6242C29.4737 47.5683 29.4807 47.5119 29.4997 47.4591C29.5187 47.4062 29.549 47.3582 29.5887 47.3184C29.6283 47.2786 29.6763 47.2481 29.7291 47.229C29.9314 47.1183 30.1108 46.9733 30.313 46.8473C31.8398 45.9504 32.3245 44.5191 32.3665 42.8702C32.4085 41.2939 32.4237 39.7137 32.4237 38.1336C32.4237 34.5712 32.4047 31.0089 32.3665 27.4466C32.3453 26.7953 32.2803 26.1463 32.1718 25.5038C31.9804 24.273 31.3282 23.161 30.3474 22.3931C30.1373 22.2368 29.9395 22.0645 29.7558 21.8779C29.6616 21.7306 29.5908 21.5697 29.5459 21.4008C29.6786 21.3378 29.8182 21.2904 29.9619 21.2595C31.9466 21.0229 33.9504 20.8779 35.9161 20.542C38.1069 20.1603 40.2673 19.5763 42.439 19.084C42.6069 19.0458 42.771 18.9962 43.0382 18.9275" fill="black"/>
<path d="M18.5 29.187C18.5173 28.8577 18.5173 28.5278 18.5 28.1985C18.3931 27.2061 18.3091 26.2099 18.1183 25.2328C17.9411 24.0241 17.4649 22.8788 16.7328 21.9008C15.6565 20.5496 13.8435 20.2405 12.5611 21.1985C11.947 21.6895 11.4785 22.3388 11.2061 23.0763C10.416 24.9847 10.2175 26.9924 10.103 29.0191C10.1132 29.0772 10.1311 29.1337 10.1565 29.187H18.5ZM28.0725 30.7557H10.6374C10.0191 30.7557 10.0267 30.7557 10.0305 31.374C9.9973 33.1785 10.3759 34.9668 11.1374 36.6031C12.4427 39.2366 14.6565 40.6527 17.4656 41.1832C19.4043 41.61 21.4229 41.4965 23.3015 40.855C25.0826 40.2312 26.5983 39.0197 27.5992 37.4198C27.6603 37.3206 27.729 37.229 27.8855 37.0076C27.9809 37.2481 28.1221 37.416 28.0954 37.5496C27.3969 40.6679 26.1374 43.4886 23.6336 45.6069C21.7393 47.1732 19.4024 48.1074 16.9504 48.2786C13.6298 48.5802 10.4351 48.126 7.46565 46.5382C3.8168 44.584 1.60687 41.5191 0.687022 37.5229C-0.0177284 34.5918 0.0559298 31.5274 0.900739 28.6336C2.07249 24.6641 4.58398 21.8283 8.42367 20.2748C12.3961 18.592 16.8571 18.4693 20.916 19.9313C23.0759 20.6859 24.9381 22.1108 26.231 23.9983C27.5239 25.8858 28.1798 28.1371 28.103 30.4237C28.103 30.5115 28.1031 30.5954 28.0725 30.7481" fill="black"/>
<path d="M96.958 18.9275V19.5534C96.958 26.5331 96.958 33.5153 96.958 40.5C96.958 41.5382 97.0152 42.584 97.0992 43.6221C97.1304 44.2402 97.3083 44.8419 97.6183 45.3776C97.9283 45.9132 98.3613 46.3673 98.8817 46.7023C99.1474 46.8581 99.4024 47.0315 99.645 47.2214C99.7943 47.3896 99.9225 47.5755 100.027 47.7748H83.1145C83.2748 47.5305 83.3664 47.3664 83.4962 47.2214C83.5701 47.1517 83.6553 47.0949 83.7481 47.0534C85.416 46.1565 86.1298 44.6947 86.1374 42.855C86.1527 37.687 86.1527 32.5165 86.1374 27.3435C86.1141 26.6346 86.026 25.9294 85.874 25.2366C85.6998 24.3163 85.2229 23.4806 84.5191 22.8626C84.1756 22.5534 83.8129 22.2634 83.4847 21.9351C83.4301 21.8741 83.3882 21.8029 83.3613 21.7256C83.3345 21.6483 83.3232 21.5664 83.3282 21.4847C83.3282 21.4084 83.5611 21.3092 83.7099 21.3015C87.0054 21.0593 90.2772 20.5629 93.4962 19.8168C94.4847 19.584 95.458 19.3092 96.4427 19.0534L96.9923 18.916" fill="black"/>
<path d="M98.294 7.5916C98.2933 9.09291 97.8474 10.5603 97.0127 11.8082C96.1781 13.0562 94.9922 14.0286 93.6049 14.6026C92.2177 15.1766 90.6914 15.3264 89.219 15.0331C87.7466 14.7397 86.3943 14.0164 85.333 12.9545C84.2717 11.8927 83.549 10.5399 83.2564 9.06742C82.9638 7.5949 83.1144 6.06868 83.6891 4.68172C84.2638 3.29476 85.2368 2.10934 86.4852 1.27533C87.7335 0.441325 89.2011 -0.00382023 90.7024 -0.00382042C92.7158 -0.00382042 94.6468 0.796009 96.0705 2.21971C97.4942 3.64341 98.294 5.57436 98.294 7.58778" fill="black"/>
</g>
<defs>
<clipPath id="clip0_16_100">
<rect width="100" height="48.4733" fill="white"/>
</clipPath>
</defs>
</svg>
