<?xml version="1.0" encoding="UTF-8"?> <!-- Generator: Adobe Illustrator 23.0.2, SVG Export Plug-In . SVG Version: 6.00 Build 0) --> <svg xmlns="http://www.w3.org/2000/svg" xmlns:xlink="http://www.w3.org/1999/xlink" id="Слой_1" x="0px" y="0px" viewBox="0 0 200 200" style="enable-background:new 0 0 200 200;" xml:space="preserve"> <style type="text/css"> .st0{clip-path:url(#SVGID_2_);} .st1{fill:#BC4F54;} </style> <g> <defs> <rect id="SVGID_1_" x="0" width="200" height="200"></rect> </defs> <clipPath id="SVGID_2_"> <use xlink:href="#SVGID_1_" style="overflow:visible;"></use> </clipPath> <g class="st0"> <path class="st1" d="M12.6,66.3c3.5,0,6.8,0.6,9.9,1.1c6.3,1.2,12.8,1.2,19.1,0l2.3-0.6c1.5-0.6,3.2-0.6,4.8,0 c4.5,5.1,0.7,8.1,0,14.1c-0.7,6-3.7,5-6.6,9.1c-4.8,6.7-2.6,16.2,6.1,11.6c0.5,4.5,0.2,9.1-1.1,13.5c-0.3,1.3-0.8,2.5-1.6,3.6 c-0.8,1.1-1.7,2-2.9,2.7c-4.8,4.1-8.3,9.4-10.3,15.4c6.1,0,10.9-5.1,16.2-2.4c0,0,4.4,6.4,5.5,8.6c1.1,2.3,1.1,8.1,1.9,9.3 c2.2,3.6,7.2,3.6,4,9.4c0,1.5-1,3.2-1.5,4.8c-1.3,4-2.4,8-3.2,12.1c-0.1,0.8,0.1,1.6,0.6,2.2c0.5,0.6,1.2,1.1,2,1.2l1.8-0.1 c0.4,0.1,0.8,0.1,1.2,0c0.4-0.1,0.7-0.2,1.1-0.5c0.3-0.2,0.6-0.5,0.8-0.8c0.2-0.3,0.3-0.7,0.4-1.1c0.7-3.8,1.7-7.6,3-11.3 c0.6-1.7,1.1-3.4,1.6-5.2c4-6.5,10.7,4.1,10.5,7.4c-0.2,3.2-4.7,4.8-5.2,5.6c-1.9,4-2.5,8.4-1.7,12.8c6.4-2.1,9.3-8.1,13.1-12.5 c3.6,11.5,12.5-4.4,17,4.7c-0.2,2.5,0.3,4.9,1.3,7.2c0.6,1.4,1,2.9,1.2,4.4c0,0.2,0.1,0.5,0.2,0.7c0.1,0.2,0.2,0.4,0.4,0.6 c0.2,0.2,0.4,0.3,0.6,0.4c0.2,0.1,0.5,0.1,0.7,0.1c0.5,0,0.9-0.3,1.3-0.6c0.3-0.4,0.5-0.8,0.5-1.3c-0.2-1.9-0.7-3.8-1.5-5.6 c-0.8-1.6-1.2-3.3-1.1-5.1c0.6-3.8,3.6-7,6.5-6.2c6.1,1.5,12.1,4,9.6,13c-0.6,2.3-8.1,4.6-3.8,8.1c2.3,1.6,6.3-2.2,6.8-2.4 c1.9-3.2-0.5-7,3.6-10.2c1.4-1.1,5.1-0.6,7.1-2.6c2-1.9,3.7-10.3,5.3-11.3c1.6-1,7,0.7,9.2-0.5c4.7-2.5,2.9-10,7.4-11.2 c4.5-1.1,3.6,4.5,4.9,5.1c5.2,2.2,7.4,0.6,11.7-2.9c1.3,2.3,2.1,4.8,2.6,7.4c0.4,2.1,1,4.2,1.8,6.2c0.1,0.2,0.2,0.5,0.4,0.7 c0.2,0.2,0.4,0.3,0.7,0.5c0.2,0.1,0.5,0.2,0.8,0.2c0.3,0,0.5,0,0.8-0.1c0.2-0.1,0.5-0.2,0.7-0.4c0.2-0.2,0.3-0.4,0.5-0.7 c0.1-0.2,0.2-0.5,0.2-0.8c0-0.3,0-0.5-0.1-0.8c-0.7-1.8-1.2-3.7-1.6-5.6c-0.5-3.7-2-7.3-4.4-10.2h0.5c-1.5-9.4-1.3-19.1,0.6-28.5 c0-1,3.2-2.5,3.7-4.2c1.8-6.2-2.3-12.1-1.1-17.8c0-0.9,2.4-1.8,3-3.5c0.6-1.7-0.4-3.6,0-4.3c0.4-0.7,3.5-1,4.3-2.7 c5.9-12.3-6.6-6.3-8.9-11.6c-1.5-3.3,7.4-7.3,5.3-12c-1.5-3.2-3.7,0-8.1-2.3c-2.8-1.1-5.1-3.2-6.5-5.8c-1.4-2.7-1.8-5.7-1.1-8.6 c-3.6-1.9-6,0-8.1-3.7c-2.1-3.7,1.9-5.6-0.6-8.1s-3,1.8-5,1.3c-2-0.5-1.5-3.8-3.5-5.1s-8.1-0.9-10.5-3.1 c-2.4-2.2-8.1-6.9-7.6-11.6c-4.7,0-3.2,6.6-6.5,8.1c0.6,0-8.1-1.7-9.2-2.4c-3.3-1.9-1.4-5.7-4.8-5.1c-3.5,0.6,0.6,2.2-1.5,5.7 c-0.9,1-2,1.7-3.2,2.3c-1.2,0.5-2.5,0.8-3.9,0.9c-1.3,0-2.7-0.2-3.9-0.7c-1.2-0.5-2.4-1.2-3.3-2.1c-1.1-1.3,0-3.7-0.6-5 c-0.6-1.3-2.7-2.7-6.3-4.4c-1.9,3.8,4,13.9,1,18.5s-21.3-3.3-25.6,0.8c-4.4,4.1,4.1,8.1,4,8.1c2.4,14.1-19.1,3.8-18.8,15 c-2-0.7-4.2-0.7-6.2,0L41,65.3c-6,0.9-12.1,0.7-18.1-0.5c-3.2-0.4-6.6-0.9-10.2-1.1L11.4,65c0,0.3,0.1,0.7,0.3,0.9 C12,66.1,12.3,66.3,12.6,66.3z"></path> <path class="st1" d="M19.5,147.1c1.4,0.4,2.9,0.3,4.3-0.3c1.3-0.6,2.4-1.7,2.9-3.1c0.4,1.6,3.6,2.1,4.9,0.8 C29.2,137.8,21.1,142.8,19.5,147.1z"></path> <path class="st1" d="M16.8,153.4v-0.2l0.4-2.2l-2.2-0.4c-3.3,2.5-6.4,5.2-9.2,8.1v2.3H8C10.7,158.2,13.7,155.7,16.8,153.4z"></path> <path class="st1" d="M323.4-411.6c0.6,0,0.8-1.1,1.1-2.3c-0.2-0.3-0.4-0.6-0.6-0.9c-0.9,0.5-1.9,1-3,1.3c0.5,0.6,1,1.3,1.4,1.9 C322.7-411.7,323-411.6,323.4-411.6z"></path> <path class="st1" d="M125.3,193.6v0.4V193.6z"></path> </g> </g> </svg> 