<?xml version="1.0" encoding="UTF-8"?> <!-- Generator: Adobe Illustrator 23.0.2, SVG Export Plug-In . SVG Version: 6.00 Build 0) --> <svg xmlns="http://www.w3.org/2000/svg" xmlns:xlink="http://www.w3.org/1999/xlink" id="Слой_1" x="0px" y="0px" viewBox="0 0 297 436" style="enable-background:new 0 0 297 436;" xml:space="preserve"> <style type="text/css"> .st0{clip-path:url(#SVGID_2_);} .st1{fill:#F6DCD8;} </style> <g> <defs> <path id="SVGID_1_" d="M0,0c1,0,2.1,0,3.1,0C6,0,8.9,0,11.9,0c4.6,0,9.1,0,13.7,0c5.9,0,11.9,0,17.8,0c7,0,14.1,0,21.1,0 c7.9,0,15.8,0,23.7,0c8.5,0,17.1,0,25.6,0c8.8,0,17.7,0,26.5,0c8.9,0,17.8,0,26.7,0c8.7,0,17.5,0,26.2,0c8.3,0,16.6,0,24.9,0 c7.6,0,15.2,0,22.8,0c6.6,0,13.3,0,19.9,0c5.4,0,10.9,0,16.3,0c4,0,7.9,0,11.9,0c2.2,0,4.5,0,6.7,0c0.2,0,1-0.1,1.1,0 c0.1,0.1,0,0.2,0,0.3c0.2,1.1,0,2.6,0,3.7c0,2.5,0,5.1,0,7.6c0,3.7,0,7.5,0,11.2c0,4.8,0,9.6,0,14.4c0,5.7,0,11.5,0,17.2 c0,6.5,0,13.1,0,19.6c0,7.2,0,14.5,0,21.7c0,7.8,0,15.6,0,23.5c0,8.3,0,16.6,0,24.8c0,8.6,0,17.2,0,25.8c0,8.8,0,17.7,0,26.5 c0,8.9,0,17.8,0,26.8c0,8.9,0,17.8,0,26.7c0,8.8,0,17.5,0,26.3c0,8.5,0,17,0,25.5c0,8.1,0,16.2,0,24.3c0,7.6,0,15.2,0,22.8 c0,7,0,13.9,0,20.9c0,6.2,0,12.4,0,18.6c0,5.3,0,10.7,0,16c0,4.4,0,8.7,0,13.1c0,3.2,0,6.5,0,9.7c0,2,0,4,0,6c0,0.3,0.2,1.8,0,2 c-0.1,0.1-0.8,0-0.9,0c-0.8,0-1.6,0-2.4,0c-3,0-6,0-9,0c-4.6,0-9.2,0-13.8,0c-6,0-11.9,0-17.9,0c-7.1,0-14.2,0-21.2,0 c-8,0-15.9,0-23.9,0c-8.5,0-17,0-25.5,0c-8.8,0-17.7,0-26.5,0c-8.9,0-17.8,0-26.7,0c-8.7,0-17.4,0-26.2,0c-8.3,0-16.6,0-24.8,0 c-7.6,0-15.1,0-22.7,0c-6.6,0-13.2,0-19.8,0c-5.4,0-10.8,0-16.1,0c-3.9,0-7.8,0-11.7,0c-2.2,0-4.3,0-6.5,0c-0.2,0-0.9,0.1-1,0 c-0.1-0.1,0-0.3,0-0.4c-0.1-1.3,0-2.6,0-3.9c0-2.6,0-5.2,0-7.8c0-3.8,0-7.5,0-11.3c0-4.8,0-9.7,0-14.5c0-5.8,0-11.5,0-17.3 c0-6.6,0-13.1,0-19.7c0-7.3,0-14.5,0-21.8c0-7.8,0-15.7,0-23.5c0-8.3,0-16.6,0-24.9c0-8.6,0-17.2,0-25.9c0-8.8,0-17.7,0-26.5 c0-8.9,0-17.8,0-26.8c0-8.9,0-17.8,0-26.7c0-8.7,0-17.5,0-26.2c0-8.5,0-16.9,0-25.4c0-8.1,0-16.2,0-24.2c0-7.6,0-15.1,0-22.7 c0-6.9,0-13.9,0-20.8c0-6.2,0-12.4,0-18.5c0-5.3,0-10.6,0-15.9c0-4.3,0-8.6,0-12.9c0-3.2,0-6.4,0-9.6c0-2,0-3.9,0-5.9 C0,1.2,0,0.6,0,0z"></path> </defs> <clipPath id="SVGID_2_"> <use xlink:href="#SVGID_1_" style="overflow:visible;"></use> </clipPath> <g class="st0"> <path class="st1" d="M243.2,238.2c0.5,0.5,0.9,1.1,1.4,1.7c0.1,0.1,0.9,1.1,0.8,0.6c-0.1-0.4-1.1-1.4-1.4-1.7 C243.8,238.5,243.4,237.7,243.2,238.2z M158.2,385.8c-0.2,0.7,1.7,0.5,1.7,0.2c0-0.2-0.4-0.1-0.5-0.1 C159,385.9,158.6,385.8,158.2,385.8z M216.4,358.6c0.2,0.5,0.6,1,0.8,1.5c0.1,0.2,0.1,0.7,0.3,0.8c0.3,0.2,0.8-0.1,0.8-0.5 c0-0.2-0.3-0.5-0.4-0.6c-0.3-0.4-0.5-1.3-0.8-1.6C216.7,357.9,216.3,358.1,216.4,358.6z M81.2,347.7c0.2-0.6-0.5,0-0.5,0 c-0.2,0-0.2-0.1-0.5-0.2c-0.1-0.1-0.1-0.2-0.3-0.2C79.5,347.3,80.8,349.1,81.2,347.7z M187.8,319.2c0.4,0.9,0.7,1.9,1.2,2.8 c0.2,0.3,0.4,1.1,0.7,1.4c0.4,0.3,0.6,0.2,0.6-0.3c0-0.4-0.5-1-0.7-1.3c-0.2-0.5-0.4-0.9-0.6-1.4c-0.1-0.3-0.3-1.1-0.5-1.4 C188.2,318.8,187.6,318.7,187.8,319.2z M126.2,314.7c0.1-0.3,0.8-1.5,0.3-1.6c-0.4-0.1-0.8,1.8-0.9,2.1c-0.1,0.2-0.8,1.5-0.4,1.6 C125.7,316.9,126.1,315.1,126.2,314.7z M129.5,312.4c0.5-0.1,0.2-3.2-0.3-3.1C128.6,309.4,128.9,312.5,129.5,312.4z M265.5,308.6 c-0.1,0.3,0.5,1,0.6,1.2c0.2,0.2,1.2,0.6,1-0.1c-0.1-0.3-0.4-0.2-0.5-0.4C266.4,309,265.9,307.9,265.5,308.6z M94.2,301 c0.5,0,0.4-0.5,0.1-0.7c-0.3-0.1-1.3,0.3-1.6,0.4c-0.2,0.1-0.4,0-0.5,0.3c-0.1,0.4,0.3,0.4,0.5,0.4C93.3,301.4,93.7,301,94.2,301z M198.8,298.3c0.4,1,0.6,2,0.9,2.9c0.2,0.4,0.7,0.8,0.7,0.1c0-0.4-0.3-1-0.4-1.4c-0.1-0.5-0.3-1-0.5-1.5c-0.1-0.2-0.2-0.7-0.5-0.7 C198.9,297.9,198.7,298.1,198.8,298.3z M212.4,297.8c-1-0.2-0.9,0.5-0.5,1.2c0.4,0.7,0.9,1.1,1.4,1.7c0.4,0.4,0.9,1.8,1.6,1.9 c1.1,0.1-0.3-1.5-0.5-1.8C213.8,299.9,213.3,298.1,212.4,297.8z M79,282c0.1-0.6-2.4-0.7-2.1,0C77.1,282.3,78.9,282.6,79,282z M213.2,259.8c0.1,0.7,1.7,0.8,1.3-0.1c-0.2-0.4-0.6-0.5-0.9-0.7c-0.5-0.3-0.8-0.8-1.3-1.2c-0.3-0.3-0.8-0.9-1.2-0.9 c-0.4-0.1-0.7,0.2-0.5,0.6c0.2,0.4,0.9,0.7,1.2,1C212.2,258.9,212.7,259.4,213.2,259.8z M240.6,254.2c0.2,0.2,0.4,0.4,0.6,0.5 c0.1,0.1,0.7,0.4,0.8,0.6c0.1,0.1,0,0.4,0,0.6c0.1,0.7,1,1.4,1.7,1.2c1.7-0.5-0.3-3.2-1.4-2.2 C241.9,254.7,240.5,253.2,240.6,254.2z M124.4,227.7c-0.1,0.3-0.8,1.6-0.2,1.8c0.6,0.2,0.8-1.6,0.9-2c0.1-0.3,0.8-1.9,0-1.7 C124.7,225.9,124.5,227.4,124.4,227.7z M220.3,212.4c-0.6-0.3-1.2-0.8-1.8-1c-0.6-0.3-0.7-0.1-0.4,0.3c0.3,0.3,1.3,1,1.7,1 C220.2,212.8,220.6,212.7,220.3,212.4z M59.9,155.4c0-0.5-0.2-0.1-0.4,0.1c-0.2,0.3-1,1.1-1.1,1.4c-0.1,0.5,0.5-0.1,0.6-0.2 C59.3,156.3,59.6,155.9,59.9,155.4z M64.1,157.8c-0.1,0.2-0.9,1.9-0.1,1.5c0.2-0.1,0.3-0.7,0.4-0.9c0.2-0.5,0.5-1,0.6-1.5 c0.1-0.2,0.4-2.6-0.3-1.9c-0.2,0.2-0.1,1-0.1,1.2C64.5,156.8,64.3,157.3,64.1,157.8z M59.3,152.5c0.3,0.1,2-2.6,1.9-2.7 C61,149.7,59.1,152.1,59.3,152.5z M62.1,148.5c0.2-0.3,0.7-1.1,0-0.6c-0.2,0.2-0.9,1.1-0.7,1.4C61.8,149.2,62,148.6,62.1,148.5z M81.1,109.5c0.2-0.2,1.7-1.7,1.1-1.7c-0.4,0-1.5,1.3-1.4,1.7C80.9,109.5,81,109.6,81.1,109.5z M72.3,108.7c0-0.7-0.2-1.4-0.1-2 c0,0,0.2-0.5,0.2-0.5c0.1-0.1,0.1,1.6,0.3,1.6c0.3,0,0.1-2.2,0.2-2.4c0.1-0.2,0.3,0,0.5-0.1c0.2-0.1,0.3-0.4,0.4-0.5 c0.4-0.3,0.8,0.1,1.2,0c0.8-0.2-0.7-1.7,0.3-2.2c-0.4,0-0.7-0.8-0.6-1.1c0.2-0.7,0.8-0.1,1.2,0.2c1,0.6,0.6,0.1-0.1-0.4 c-0.6-0.4-1.1-0.6-1.6-1.2c-0.2-0.2-0.4-0.4-0.6-0.5c-0.2-0.1-0.4-0.1-0.5-0.2c-0.1,0-0.2,0-0.3,0c0-0.1,0-0.2,0-0.2 c-0.2-0.1-0.1-0.2-0.3-0.3c-0.1,0-0.4,0.1-0.5,0.1c-0.4,0-0.7,0-0.9-0.4c-0.3-0.6,0.3-1.2-0.3-1.6c-0.3-0.3-1.3-0.4-0.9-1 c-0.6,0-1.1-0.4-1.2-1c-0.8,0.4-1-0.1-1.7-0.2c-0.7-0.1,0,0.1-0.5,0.3c-0.3,0.1-0.5,0.2-0.9,0.1c0,0.7-0.4,0.1-0.8,0.2 c-0.6,0.1,0.1,0.4,0,0.6c-1.3-0.1-1.4,1.4-2.3,1.8c-0.2,0.1-1.5,0.3-1.4,0.6c0.1,0.4,1.2-0.2,1.5-0.3c0.3,0.4,0.1,0.5-0.2,0.9 c0.4,0.3,0.2,0.6,0.2,1c0,0.5,0.3,1,0.3,1.5c0.1,0.8-0.4,1.1-0.8,1.7c-0.1,0.3-0.2,0.8,0.3,0.6c0.4-0.2,0.3-1.2,0.8-1.1 c-0.3,0.7,0.7,0.7,0.8,1.3c0.6-1,1.5,0.9,1.9,1.1c0.4,0.3,0.6,0,1-0.3c0.2-0.1,0.4-0.3,0.6-0.2c0.2,0.1,0,0.4,0.2,0.5 c0.4,0.2,0.5-0.6,0.8-0.6c0.6,0,0.3,0.8,0.2,1.2c-0.1,0.2-0.3,0.6-0.3,0.8c0,0.3,0.1,0.2,0.2,0.4c0.1,0.3,0.1,0.1,0,0.6 c0,0.2-0.3,0.6,0.1,0.7c0.2-0.6,0.8-2,1.5-2.2c0.4-0.1,0.3,0.4,0.7,0.4c0.5,0,0.4-0.4,0.8-0.1c-0.1-0.1,0.1,0.5,0.1,0.4 c0,0.3,0.1,0.7,0.1,1.1C71.8,108.2,71.8,109.1,72.3,108.7z M75.2,93.3c-0.1-0.1-1.7-2-1.5-0.8c0,0.2,0.5,0.6,0.7,0.8 c0.1,0.2,0.3,0.6,0.6,0.6C75.3,93.8,75.4,93.5,75.2,93.3z M60.4,76.2c0.3-0.7-1.3,0.3-1.4,0.7C58.9,77.7,60.2,76.4,60.4,76.2z M65.7,79.7c0.9,0.2,0.5-3.7,1.9-2.3c0.4,0.4,0.5,0.8,0.2,1.2c-0.2,0.2-0.3,0.2-0.5,0.4c-0.2,0.4-0.2,1-0.1,1.4 c0.8-0.2,1.1-1,1.6-1.6c0.4,1.1,1.1,0,1.8,0.2c0.4,0.1,0.6,2.4,1,1.9c0.4-0.4-0.6-1.4,0-2c0.4-0.4,1-0.3,1.4,0 c0.4,0.3,0.7,0.8,0.4,1.3c-0.1,0.3-0.7,0.4-0.6,0.8c0.1,0.5,0.7,0.2,0.9,0c0.3-0.4,0-1,0.5-1.3c0.5-0.4,0.8-0.1,1.1-0.8 c0.1-0.3,0.2-0.8,0.5-1c0.4-0.2,0.9,0.2,1.2-0.2c0.3-0.3,0.2-0.9,0.6-1.2c0.6-0.4,0.5,0.3,0.7,0.5c0.5,0.5,1.1,0,1.5-0.3 c0.2,0.3,0.4,1.8,0.7,1.8c0.6,0.1,0.2-0.8,0.1-1c-0.2-0.8-0.5-1.2-0.6-2c-0.1-0.8-0.1-1.7,0.1-2.5c0.1-0.5,0.2-0.3,0.4-0.7 c0.2-0.4,0.2-0.7,0.1-1.1c-0.1-0.9-0.1-1.3,0.3-2c-0.1-0.1,0-0.2,0.1-0.3c0.1,0,0.2-0.1,0.3-0.1c0.1-0.2,0.4-0.5,0.3-0.7 c-0.1-0.4-0.3-0.4-0.6-0.5c-1.5-0.5,0.1-0.8,0-1.7c-0.1-0.5-1.1-0.4-1.5-0.7c-0.3-0.2-0.5-0.6-0.5-1c-0.1-0.5,0.1-0.4-0.3-0.7 c-0.3-0.1-0.5,0-0.6-0.3c-0.2-0.3,0.1-0.4,0-0.7c-0.1-0.7-0.5,0-0.9-0.2c-0.2-0.1-0.2-0.5-0.5-0.6c-0.3-0.2-0.7-0.1-1-0.2 c-0.5-0.2-1.2-1-1.1-1.5c-0.6,0-0.4,0.9-1,1c-0.2,0-0.7-0.1-0.8-0.2c-0.3-0.2-0.3-0.6-0.6-0.7c-0.5-0.3-0.2,0.3-0.3,0.5 c-0.2,0.4-0.5,0.6-1,0.6c-0.6,0-0.8-0.2-1-0.7c-0.2-0.5-0.2-0.6-0.8-0.9c-0.4,0.8,1,2.4-0.5,2.5c-0.5,0-2.5-0.7-2.7,0.2 c-0.1,0.5,0.5,0.5,0.6,0.7c0.2,0.4-0.1,0.8-0.5,0.9c-0.6,0.3-1.9-0.1-1.9,0.9c-0.5-0.2-1.2,0.1-1.8,0.1c-0.5,0-1-0.1-1.5-0.1 c-0.2,0-1-0.3-1.3-0.1c-0.6,0.4,0.8,0.4,0.9,0.4c0.9,0.1,1.8,0.2,2.7,0c0.6-0.1,1.2-0.2,1.1,0.6c0,0.5-0.2,1.3-0.5,1.6 c-0.4,0.5-0.9,0.7-0.9,1.4c0,0.7,0.5,0.9,1.1,0.6c0.1,0.8,0,1.8-0.6,2.4c-0.6,0.6-1.1,1.1-1.4,2c0.7,0,1.5-0.7,2.1-0.2 c0.6,0.5,0.5,1.2,0.8,1.9c0.3,0.7,0.8,0.6,0.5,1.5C65.6,77.8,64.6,79.9,65.7,79.7z M8.5,46.6c0.6-1,1.3-1.9,1.9-2.9 c0.4-0.6,0.8-1.2,1.2-1.8c0.2-0.2,0.7-1.3-0.1-0.8c-0.2,0.1-0.5,0.7-0.6,0.9c-0.4,0.6-0.9,1.3-1.3,1.9c-0.4,0.6-0.8,1.2-1.2,1.8 C8.2,45.9,8,46.1,8,46.2C7.9,46.5,8.2,47,8.5,46.6z M23.5,39c-0.3,0-0.3,3.4,0,3.4C23.9,42.3,23.8,39.1,23.5,39z M170.6,393.1 c-0.2-0.1-0.8,0-0.9-0.4c0.1,0,1.3,0,0.7-0.3c-0.3-0.1-0.7,0.1-1,0.1c0,0.1,0.1,0.2,0.2,0.3c-0.6,0.4-1.5,0.1-2.2,0.1 c0.1,0.3,0.5,0.6,0.6,0.9c0.1,0.3-0.1,0.6,0.5,0.6c0.3,0,0.6-0.3,0.9-0.4c0.4-0.1,1,0,1.3-0.3 C170.2,393.7,170.3,393.3,170.6,393.1z M218.6,294.6c0.6,0,1.1,0.3,1.3,0.9c0-0.5,0.5-0.3,0.6-0.1c0.2,0.3,0,0.7,0.1,1 c0.1,0,0.2,0,0.3,0.1c0,0.1,0,0.1,0,0.2c0.1,0.2-0.1,0.4,0,0.6c0.3,0.6,1.2,0.3,1.8,0.4c0.3,0.1,0.7,0.3,1,0.3 c0.4,0,0.5-0.2,0.8-0.4c0.1,0.4,0.4,0,0.5-0.2c0.3-0.3,0.5-0.5,0.9-0.2c0-0.5-0.2-0.8-0.2-1.4c0.1-0.6,0.3-1.3-0.1-1.8 c1.3,0-0.1-0.2,0-0.5c0.7,0,0.3-0.1,0-0.5c0,0,0.4-0.1,0.4-0.2c-0.1-0.3-0.1-0.3-0.5-0.4c-0.2,0-0.5,0.1-0.7,0.1 c-0.3-0.1-0.2-0.2-0.4-0.4c-0.7-0.7-2.4-0.9-3.3-0.3c-0.4,0.3-0.3,0.7-0.4,1.2c-0.1,0.4-0.2,0.5-0.4,0.9c-0.1,0.2,0.1,0.2-0.1,0.4 c0,0.1-0.3-0.1-0.4,0.1c-0.1,0.3,0.4,0.3,0.3,0.6C219.6,295,219.2,293.8,218.6,294.6z M32.4,143.5c0.2-0.5,0.1-1.3,0.6-1.7 c0.2-0.2,0.5,0,0.7-0.2c0.2-0.2,0-0.4,0.2-0.5c0.4-0.4,0.5-0.1,0.6-0.8c0.1-0.4,0-0.8,0.1-1.2c0.1-0.3,0.2-0.6,0.5-0.6 c0.6,0,0.4,0.7,0.5,1.1c0.3,1.3,2,0.4,2.6-0.2c0.7-0.6,1.5-1.5,1.9-2.3c0.3-0.7,0.3-1.2,0.9-1.7c0.5-0.5,1.1-0.9,1.5-1.6 c0.3-0.8,0.4-1.6,0.7-2.4c0.1-0.3,0.3-0.7,0.4-1.1c0.1-0.4-0.1-0.8,0-1.2c0.1-0.5,0.4-0.7,0.4-1.2c0.1-0.3,0-1,0.5-0.6 c0.2-1,1.7-0.9,2.4-1.2c0.1,0.8,0,1.6-0.3,2.4c-0.2,0.4-0.4,0.7-0.6,1.1c-0.1,0.2-0.1,0.4-0.2,0.6c-0.1,0.2-0.4,0.3-0.6,0.5 c-0.2,0.3-0.4,0.7-0.5,1c-0.3,0.7-0.5,1.5-0.5,2.3c0.5,0.1,0.4-0.3,0.6-0.6c0.2-0.5,0.4-0.4,0.8-0.7c0.3-0.2,0.3-0.5,0.4-0.8 c0.2-0.3,0.5-0.6,0.7-1c0.4-0.7,0.9-0.9,1.6-1.1c1.1-0.3,0.7,0.4,1,1.2c0.2,0.5,0.4,1.1,0.8,1.6c0.3,0.4,0.5,0.6,0.5,1.1 c0,0.5-0.3,1.3,0.2,1.6c1.4,1,1.5-2.1,2.3-2.3c0.1,0.5-0.4,1.4,0.3,1.6c0.5,0.1,0.7-0.5,0.9-0.9c0.1-0.3,0.2-1,0.4-1.2 c0.4-0.3,1.1,0.1,1.5,0.3c0.4,0.2,0.7,0.4,0.9,0.9c0.1,0.3,0,0.6,0.1,0.8c0.1,0.2,0.2,0.2,0.2,0.4c0.2,0,0.3,0.1,0.2,0.3 c0,0.2,0,0.3,0,0.5c0,0.3,0.1,2,0.8,1.3c0.2-0.3-0.1-1-0.1-1.3c-0.1-0.5,0.1-0.8,0.1-1.3c0-0.5-0.2-0.8-0.1-1.3 c0.1-0.3,0.4-0.5,0.6-0.8c0.4-0.8-0.5-1.3-0.2-1.9c0.3-0.5,1.1-0.2,1.5-0.1c0.4,0.1,0.5,0.2,0.9,0.1c0.3-0.1,0.7-0.4,1-0.4 c0.3,0.1,0.4,0.4,0.5,0.6c0,0.2,0,0.3,0,0.5c0.1,0.5-0.1,0,0.1,0.3c0.3,0.5,1.3,1.4,1.3,0.3c0-0.7-0.6-1.3-0.9-1.9 c-0.3-0.6-0.5-1.4-0.6-2.1c-0.1-1,0.4-0.5,1.1-0.1c0.3,0.2,0.6,0.3,0.8,0.6c0.1,0.2-0.1,0.4,0.3,0.7c0.6,0.4,0.9-0.1,0.8-0.7 c-0.1-0.7-0.9-1.4-1.2-2.1c-0.2-0.4-0.4-1.2-0.2-1.6c0.2-0.3,0.3-0.2,0.7-0.4c0.9-0.5,1-1.9,0.7-2.7c-0.2-0.7-1-1.2-1.1-1.9 c-0.1-0.5,0-0.9-0.2-1.4c-0.1-0.4-0.3-0.6-0.2-1c0.1-0.3,0.5-0.5,0.4-0.9c-0.1-0.4-0.4-0.4-0.7-0.6c-0.7-0.5-1-1.3-1.6-2 c-0.2-0.2-0.5-0.4-0.7-0.7c-0.2-0.3-0.1-0.6-0.3-0.9c-0.2-0.3-0.4-0.2-0.8-0.3c-0.4-0.1-0.6-0.2-1-0.4c-0.6-0.3-0.6-0.7-1.3-0.7 c-0.9,0-2.1-0.4-3-0.1c-0.3,0.1-0.5,0.3-0.9,0.4c-0.4,0.1-0.8,0-1.3,0.1c-0.3,0.1-0.5,0.3-0.8,0.3c-0.5,0.1-0.7-0.1-1.1,0.3 c-0.6,0.6-0.8,1.4-1.5,1.9c-0.8,0.5-1.4,0.7-1.9,1.5c-0.3,0.4-0.5,0.8-0.5,1.3c0,0.4,0,0.6-0.2,1c-0.4,0.5-1,0.8-1.4,1.2 c-0.4,0.4-0.8,1-0.5,1.6c0.2,0.4,0.4,0.4,0.7,0.6c0.4,0.3,0.2,0.2,0.1,0.6c-0.1,0.8-0.4,1.6-0.6,2.4c-0.1,0.6-0.3,0.4-0.6,0.7 c-0.4,0.3-0.5,0.8-0.9,1c-0.2-0.1,0.2-0.4-0.1-0.4c0,0.1-0.1,0.2-0.2,0.2c-0.2,0.1-0.3,0-0.3-0.3c-0.2-0.2-0.2-0.4-0.5-0.5 c-0.5-0.3-0.9-0.6-1.3-0.9c-1.3-1-3.2-0.2-4.4,0.6c-1.3,0.8-2.3,2.1-3.3,3.3c-0.6,0.8-0.4,1.4-0.7,2.3c-0.2,0.8-0.7,1.6-1,2.4 c-0.5,1.7-0.4,3.8-0.1,5.6c0.2,1.3,1.2,2.7,0.2,3.9c-0.3,0.4-0.8,0.7-1.1,1.2c-0.3,0.5-0.8,1.6-0.7,2.2 C30.6,146.7,32.2,143.8,32.4,143.5z M158.2,383.5c0.4,0.5,1.4-0.1,1.9,0c-0.7-0.2-1.3-0.5-1.9-0.9c0.2,0.2,0.2,0.6,0.4,0.8 C158.6,383.5,158.3,383.4,158.2,383.5z M211.5,279.8c-0.1,0.1-0.2,0-0.4,0.2c-0.2,0.2-0.2,0.6-0.3,0.8c-0.2,0.5-1,0.9-0.8,1.5 c0.2,0.5,0.7,0.4,0.4,1.1c-0.2,0.4-0.4,0.3-0.7,0.7c-0.1,0.1,0.4,0.4,0.4,0.4c0,0.1,0,0.2,0,0.3c0,0-0.3,0-0.3,0 c0,0.3,0.4,0.2,0.6,0.4c-0.2,0.1-0.3,0.5-0.5,0.5c-0.2,0-0.6-0.2-0.8-0.2c-0.2-0.1-0.5-0.1-0.6-0.2c-0.3-0.4-0.1-0.5-0.6-0.6 c-0.4-0.1-0.8,0.1-1.2,0c-0.2-0.1-0.3-0.3-0.5-0.3c-0.3,0-0.5,0.5-0.8,0.6c-0.3,0.1-0.5,0.1-0.7,0.3c-0.2,0.1-0.5,0.2-0.6,0.4 c-0.1,0.2,0.1,0.4,0,0.5c-0.1,0.2-0.2,0.3-0.3,0.5c-0.3,0.4-0.6,0.5-0.5,1c0,0.4,0.2,0.8,0.2,1.2c0.1,0.8,0,1.8,0.3,2.6 c0.1,0.3,1.4,1.2,1,1.4c0.9,0.2,1.3,1.2,2.2,1.5c0.2,0.1,0.4-0.1,0.6,0.1c0.3,0.2,0.4,0.5,0.7,0.7c0.4,0.2,0.6,0,1-0.3 c0.1-0.1,0.5-0.4,0.5-0.6c0-0.2-0.1-0.3,0-0.5c0.1-0.3,0.5-0.4,0.7-0.6c0.3-0.4,0-0.7,0-1.2c0.6,0,0.1-0.4,0-0.8 c-0.1-0.3,0-0.7,0.2-1c-0.2-0.1-0.2,0.1-0.3,0.1c0.4,0-0.4-1-0.4-1.1c0.5-0.1,0.8,0.7,1.1,0.9c0.4,0.3,0.8,0.3,1.2,0.5 c0.5,0.3,0.9,0.8,1.4,1.1c0.5,0.3,1.2,0.4,1.9,0.4c0.9,0,1.5-0.2,1.6-1.1c0-0.2,0.1-0.5,0.1-0.7c0-0.1,0.2-0.1,0.2-0.3 c0-0.1-0.2-0.3-0.2-0.5c0-0.3,0.4-0.6,0.3-0.9c-0.7,0.2-0.5-1.8,0.5-1.7c0-0.3-0.3-0.3-0.3-0.5c0-0.3,0.1-0.1,0.2-0.4 c0.2-0.4,0.4-0.7,0.4-1.2c0-0.4-0.1-0.9-0.4-1.1c-0.1-0.1-0.3-0.2-0.5-0.2c-0.3,0-0.1,0.3-0.4,0.4c-0.4,0.2-1-0.3-0.7-0.6 c0.2-0.2,0.7,0.2,0.8-0.2c0.1-0.4-0.4-0.2-0.6-0.3c-0.6-0.3-0.2-0.3-0.3-0.8c-0.1-0.4-0.7-0.9-0.2-1.2c-0.8,0.1-1.3-0.8-2-1.1 c-0.5-0.2-1.2-0.3-1.8-0.3C211.5,279.2,211.5,279.3,211.5,279.8z M93.4,230.5c-0.5-0.5-0.3-1.5-0.6-2.1c-0.2-0.4-0.5-0.7-0.6-1.2 c-0.1-0.5-0.1-0.9-0.4-1.4c-0.6-1.2-1.2-2.3-0.3-3.6c0.8-1,2.5-0.9,2.8-2.4c0.1-0.8,0-1.5,0.7-2c0.4-0.3,0.5-0.1,0.9-0.2 c0.4-0.1,0.7-0.4,1.1-0.6c0.8-0.5,1.7-0.4,2.6-0.7c0.6-0.2,1.9-0.7,2.6-0.3c0.5,0.3,0.5,0.8,0.4,1.3c-0.1,0.9-0.2,1.7-0.2,2.6 c0,0.8-0.2,1.1-0.4,1.8c-0.2,0.7-0.2,1.5-0.2,2.2c0,0.5,0,1.2-0.2,1.6c-0.4,0.6-1,0-1.6,0.2c-1.5,0.3-3.6,2-4.3,3.3 C95.3,229.5,94.1,232.2,93.4,230.5z M187.1,200.6c0-0.2-0.4-0.1-0.4-0.2c0,0,0.1-0.4,0.1-0.5c0-0.4-0.3-1-0.1-1.4 c0.5-1.3,1.3,0.9,1.5,1.2c-0.4,0-0.4-0.3-0.7-0.4c-0.3,0.1,0,0.5-0.2,0.6c0.4-0.1,1.5,0,1.5,0.6c0,0.3-0.3,0.2-0.5,0.4 c-0.2,0.3,0.1,0.3,0.5,0.3c-0.1,0.5-0.8,0.2-0.9,0.9c-0.1,0.5,0.3,0.9,0.8,1c-0.4,0.4-0.4,0.8-0.4,1.3c-0.2,0-0.2-0.1-0.4-0.1 c-0.2,0.5,0.6,0.6,0.9,0.9c0.4,0.4,0.3,1.2,0.5,1.7c-1.3-0.1-2.5,0.7-2.2,2.1c0.2,0.7,0.8,1.4,1.5,1.8c0.3,0.2,0.6,0.3,0.9,0.2 c0.3,0,1-0.4,1.3-0.1c0.1,0.1,0.3,0.7,0.4,0.8c0.2,0.4,0.4,0.7,0.7,1.1c0.2,0.3,1.3,1.3,1.1,1.7c-0.1,0.2-0.4,0.1-0.6,0.2 c-0.2,0.2,0,0.6-0.1,0.9c-0.2,0.5-0.6,0.5-0.5,1.1c0,0.2,0.3,0.6,0.2,0.8c-0.1,0.1-0.3,0.1-0.4,0.2c-0.1,0-0.1,0.2-0.1,0.2 c0,0-0.2,0-0.3,0c-0.3,0.2-0.2-0.3-0.4,0.2c-0.1,0.3,0,0.7,0.1,0.9c0.3,0.4,1,0.5,1,1.1c0,0.2-0.2,0.4-0.2,0.6 c0,0.3,0.2,0.5,0.2,0.9c0,0.6-0.4,1.1,0.2,1.5c0.3,0.2,0.9,0.2,1.1,0.7c0.2,0.6-0.4,0.8-0.8,1.1c-0.5,0.4-1.1,0.9-1.1,1.5 c0,0.6,0.2,1.1-0.3,1.6c-0.7,0.8-1.2-0.2-1.3-0.9c-0.3-1,0.4-0.8,0.7-1.5c0.5-0.9-0.5-0.7-0.6-1.3c0.6-0.1,1-0.7,0.8-1.3 c-0.2-0.6-0.8-0.9-1.2-1.4c-0.5-0.5-0.2-0.6,0.3-1.1c0.4-0.4,0.8-1.1,0.8-1.6c-0.1-1.1-1.4,0.3-1.8,0.5c-0.3,0.2-0.8,0.4-0.9,0 c-0.1-0.2,0.2-0.5,0.2-0.7c0.1-0.4,0.2-0.9,0.2-1.3c0-0.9-0.1-1.9-0.5-2.7c-0.3-0.6-1-1.3-0.8-2c0-0.2,0.2-0.2,0.3-0.4 c0-0.3-0.2-0.7-0.4-0.9c-0.4-0.5-0.9-0.9-1.1-1.5c-0.1-0.7,0.4-1.5-0.4-1.9c-0.7-0.4-1.1,0.4-1.7,0.2c-0.9-0.3,0.1-2.1,0.2-2.7 c0.1-0.5-0.1-1.5,0.2-1.9c0.2-0.3,0.2-0.2,0.6-0.2c0.5,0,0.4,0,0.8-0.2c0.1,0,0.2-0.2,0.3-0.3c0.2-0.1,0.6,0.1,0.8-0.1 c0.3-0.1,0.3-0.3,0.4-0.6C186.7,201.7,186.6,200.9,187.1,200.6z M150.7,207.8c-0.8-0.1-0.8-1.7-0.6-2.2c-0.1,0.6,0.8,1,1.1,1.3 C151.6,207.3,151.5,207.9,150.7,207.8z M172.9,195.5c0-0.4,0.1-0.7-0.1-1.1c-0.1-0.3-0.5-0.6,0-0.8c0.5-0.2,0.8,0.7,1,1 c0.1,0.3,0.6,1.4,0.3,1.7C173.7,196.8,172.8,195.8,172.9,195.5z M187.2,195.7c0,0.3-0.3,1.2-0.5,0.6 C186.6,196,186.9,195.6,187.2,195.7z M188.5,185.5c0.5,0.3-0.1,0.9,0.1,1.5C187.7,186.7,188.2,185.7,188.5,185.5z M93.1,164.3 c-0.3-0.1-0.4-0.6-0.4-0.9c1.8,1.1,3.1-1.3,2.9-2.8c-0.1-0.5-0.2-0.8-0.6-1.2c-0.2-0.2-0.7-0.4-0.7-0.7c-0.1-0.8,1.6-1.9,2.3-2.1 c0.8-0.3,1.9-0.4,1.8,0.8c-0.1,1.1-1.1,1.8-1.4,2.8c-0.2,0.5,0.1,1.1-0.1,1.6c-0.2,0.7-0.6,1.1-1.2,1.4 C95.3,163.6,93.7,165,93.1,164.3z M82.6,161.7c-0.4-0.1-0.4-0.8-0.1-0.9C83.2,160.5,83.3,161.8,82.6,161.7z M73.6,157.8 c0.1-1.2,0.3-2.9,1.1-3.8c0.2-0.2,0.4-0.2,0.5-0.4c0.1-0.1,0.2-0.5,0.3-0.6c0.3-0.3,1-0.1,1.3,0.1c0.5,0.4,0.2,0.7,0.4,1.2 c0.2,0.5,0.7,0.6,0.8,1.1c0.2,1.1-0.8,1.9-0.1,3c-0.7-0.4-1.4-0.6-2.2-0.6C75.1,157.7,74.3,157.9,73.6,157.8z M100.9,161.4 c-0.1,0.4-0.8,0.7-1.2,0.9c-0.7,0.3-1,0.1-1.7,0c0.4-0.6,0.7-1.3,1.4-1.7C99.7,161.1,100.3,161.5,100.9,161.4z M174.8,146.8 c-0.8-0.2-1.6-0.3-2.5-0.3c-0.5,0-1.1,0-1.6-0.2c-1.1-0.5-1.3-2.1-1.1-3.1c0.5,0,0.7,0.5,1.2,0.5c0.6,0,1.2-0.3,1.8-0.4 c1.1-0.2,2.8,0.2,3.5,1.2c0.2,0.3,0.2,0.6,0.4,1c0.2,0.3,0.7,0.7,0.6,1.1C176.8,147.1,175.3,146.8,174.8,146.8z M166.9,132.1 c-0.3-0.1-0.8,0-0.9-0.5c-0.1-0.3,0.2-0.6,0.3-0.8c0.3-0.4,0.9-1.1,1.4-0.6c0.4,0.4,0.4,1.5,0.6,2c0.3,0.8,0.8,0.9,1.6,1.2 c-0.3,0.3-0.3,0.7-0.6,1C168.7,134,167.7,132.1,166.9,132.1z M86.9,130.5c-0.4-0.5-0.2-1.2-0.5-1.7c-0.1-0.1-0.4-0.3-0.3-0.5 c0-0.1,0.6,0,0.7-0.1c0.2-0.1,0.3-0.5,0.4-0.7c0.2-0.3,0.4-0.4,0.7-0.7c0.3-0.2,0.4-0.3,0.5-0.6c0.1-0.3,0.1-0.7,0.6-0.5 c0.9,0.4-0.9,1.5-0.5,2.2c0.3,0.5,0.9,0.1,1.1-0.2c0.2-0.2,0.3-0.4,0.5-0.6c0.2-0.1,0.3,0,0.4-0.1c0.3,0.2,0.7,0.3,1,0.5 c-0.2,0.4-0.4,0.7-0.9,1c-0.1,0-1.2,0.6-1.1,0.6c0.1,0.1,0.7,0,0.8,0c-0.3,0.7-1.1,0.4-1.5,0.8c-0.6,0.5,0.7,0,0.4,0.7 C88.8,131.3,87.3,131,86.9,130.5z M92.4,127.2c-0.2,0-0.5,0-0.6,0.1c-0.3-0.2-0.6-0.3-0.9-0.5C91.3,126.4,92.6,126.3,92.4,127.2z M172.7,126.6c-0.2-0.1-0.5,0-0.6-0.2c-0.2-0.3,0.1-0.8,0.4-0.9c0.6-0.1,1,0.9,1.6,0.8c-0.3,0.1-0.5,0.6-0.9,0.7 C172.7,127.1,173,126.8,172.7,126.6z M171.6,245.5c-0.4,0.1-0.8-0.3-0.8-0.7c-0.1-0.5,0.4-0.5,0.8-0.5 C171.5,244.7,171.5,245.2,171.6,245.5z M150.8,242.2c0,0.7,0.9,1.2,1.2,1.8c0.2,0.3,0.1,0.8,0.3,1.1c0.2,0.3,0.7,0.4,1,0.6 c0.9,0.6,1.7,1.4,2,2.5c0.2,0.9,0.7,2,1.3,2.7c0.2,0.2,0.4,0.2,0.4,0.6c0,0.1-0.2,0.3-0.2,0.5c0,0.2,0.1,0.4,0.1,0.6 c0,0.1,0.2,0.3,0.2,0.4c-0.1,0.4,0,0.1-0.3,0.3c-0.3,0.2-0.5,0.4-0.8,0.6c-0.2,0.2-0.4,0.4-0.7,0.5c-0.4,0.1-0.6-0.1-0.7,0.2 c0,0,0.2,0,0.2,0.1c0,0.1-0.1,0.2-0.1,0.3c0,0.3-0.4,0.5,0.1,0.7c-0.1,0.3-0.6,0-0.8,0.1c0.2,0.3,0.5,0.6,0.4,1 c-0.4-0.4-0.9-0.1-1.1-0.7c-0.1-0.3,0.1-0.5,0-0.8c-0.1-0.2-0.3-0.3-0.3-0.5c-0.2-0.5-0.3-0.9-0.7-1.4c-0.1-0.2-0.4-0.3-0.5-0.5 c-0.1-0.1,0.1-0.4,0.2-0.2c-0.2-0.4-0.8-0.4-1.1-0.7c-0.4-0.3-0.7-0.8-1.1-1.2c-0.4-0.4-0.8-0.3-1.1-0.5c-0.2-0.1-0.2-0.3-0.4-0.5 c-0.1-0.1-0.3-0.1-0.5-0.2c-0.4-0.3-0.3-1.7-0.4-2.2c-0.1-0.9-0.2-1.6,0.4-2.2c0.1,0.3,0.1,1,0.4,1.1c0.3,0.2,0.4,0,0.5-0.3 c0.1-0.4-0.3-0.8-0.3-1.1c-0.1-0.3-0.1-0.8-0.1-1.1c0-0.5,0.1-0.3,0.4-0.5c0.3-0.3,0.5-0.5,0.7-0.8c0.1-0.3,0.6-1,0.9-1 C151.1,241.2,150.7,241.9,150.8,242.2z M154.2,259.3c-0.5-0.1-0.3-0.6-0.5-1C154.1,258.5,154.4,258.9,154.2,259.3z M121.2,421.6 c1.5,0,2.8-0.5,4.1-1.2c0.6-0.3,1.3-0.6,1.7-1.2c0.1-0.2,0.1-0.4,0.3-0.7c0.2-0.3,0.6-0.5,0.9-0.7c0.5-0.5,0.6-0.9,0.7-1.6 c0.1-0.6,0.6-1.1,0.7-1.7c0.1-0.6,0.1-1.4,0.4-2c0.1-0.2,0.3-0.3,0.4-0.5c0.2-0.4,0.1-0.9,0.3-1.3c0.5-1.6,0.9-3.1,0.9-4.8 c-0.1-1.5-0.3-3.2-0.9-4.6c-0.2-0.5-0.2-1.2-0.4-1.8c-0.3-0.8-0.4-1.7-0.6-2.5c-0.2-0.7-0.4-1.6-0.9-2.2c-0.1-0.2-0.4-0.3-0.5-0.6 c-0.1-0.3,0.1-0.4,0.1-0.6c0.1-0.6-0.1-1.3-0.4-1.7c-0.2-0.2-0.3-0.3-0.4-0.5c-0.1-0.3-0.2-0.5-0.4-0.8c-0.4-0.6-0.6-0.9-0.7-1.5 c-0.1-0.8-0.3-1.6-0.7-2.3c-0.3-0.4-0.6-0.8-0.8-1.2c-0.2-0.5-0.7-0.6-0.9-1.1c-0.2-0.5-0.2-1.2-0.3-1.8c-0.1-0.7-0.4-1.3-0.7-1.9 c-0.6-1.2-0.7-2.5-1.2-3.7c-0.2-0.5-0.6-0.8-0.6-1.4c0-0.3,0.2-0.6,0.2-0.9c0-0.3-0.2-0.6-0.1-0.8c0-0.4,0.3-0.6,0.3-1 c0-0.5-0.2-1-0.3-1.4c-0.1-0.5,0-0.5,0.3-0.9c0.3-0.4,0.8-1,0.5-1.6c-0.3-0.7-0.7,0.1-1.2,0c-0.2-0.1-0.2-0.6-0.2-0.8 c0-0.5,0.1-0.7,0.4-0.9c0.2-0.1,0.3,0,0.5-0.1c0.2-0.1,0.4-0.4,0.5-0.6c0.3-0.4,0.4-0.8,0-1.2c-0.3-0.3-0.9-0.3-1.3-0.5 c-0.5-0.3-0.4-0.8-0.3-1.3c0.1-0.7,0-1.5-0.1-2.2c-0.1-0.3-0.3-0.9-0.2-1.2c0.1-0.1,0.4-0.5,0.6,0.1c0.2,0.4,0.2,1.2,0.9,1 c0.5-0.1,0.7-0.8,0.7-1.2c0.1-0.7-0.2-0.7-0.4-1.2c-0.2-0.6,0.6-1.1,0.6-1.7c0.1-0.7-0.4-0.9-0.8-1.4c-0.7-1.2,1.8-2.1,0.4-2.9 c-0.6-0.4-0.9-1-1.5-1.3c-0.4-0.2-1.3-0.1-1.6-0.6c-0.3-0.5,0.5-1.2,0.6-1.7c0.2-0.8,0.4-2-0.2-2.5c-0.6-0.6-0.8-0.6-0.4-1.5 c0.3-0.7-0.1-1.2-0.5-1.7c-1.3-1.6-0.6-3.5-1-5.3c-0.1-0.5-0.1-0.8-0.1-1.2c0-0.4-0.1-0.7,0-1.1c0.1-0.7,0.7-1.2,1-1.9 c0.3-0.6,0.1-1,0.1-1.6c0-0.3,0.1-0.6,0.1-0.9c0-0.3-0.2-0.5-0.3-0.7c0-0.4,0.3-0.6,0.3-1c0-0.3-0.1-0.4,0-0.7 c0.1-0.6,0.4-0.9-0.2-1.4c-0.4-0.3-1-0.3-1-0.8c0-0.3,0.3-0.5,0.3-0.8c0.1-0.4-0.2-0.7-0.2-1c0.1-0.6,0.8-0.4,1-1 c0.2-0.6-0.5-0.9-0.1-1.5c0.4-0.6,0.6-1.1,0.8-1.8c0.2-0.5,0.5-1.2,1.1-0.9c0.3,0.1,0.4,0.4,0.6,0.5c0.3,0.2,0.5,0.1,0.8,0.3 c0.4,0.1,0.2,0.1,0.5,0.4c0.2,0.2,0.3,0.4,0.6,0.3c0.8-0.3,0.5-2,0.2-2.5c-0.1-0.2-0.3-0.4-0.5-0.5c-0.3-0.3-0.2-0.4-0.3-0.8 c-0.1-0.4,0.4,0.1-0.1-0.4c-0.1-0.1-0.3-0.1-0.5-0.2c-0.3-0.4,0.1-0.8-0.1-1.2c-0.2-0.4-0.5-0.2-0.8-0.4c-0.4-0.2-0.3-0.6-0.3-1 c0-0.4-0.1-0.6-0.3-0.9c-0.2-0.6,0-0.7,0.4-1.1c0.5-0.5,1.4-1.1,1.1-1.9c-0.3-0.7-1.2-0.3-1-1.2c0.1-0.5,0.7-0.9,0.8-1.4 c0.1-0.2,0.2-0.4,0-0.6c-0.2-0.4-0.7,0-0.9-0.3c0.9-1.4-0.6-6-2.7-5c-0.3,0.2-0.8,0.9-1.2,0.8c-0.2,0-0.2-0.2-0.3-0.3 c-0.2-0.2-0.4-0.1-0.6-0.2c-0.3-0.1-0.2,0.1-0.3-0.2c0-0.1,0.1-0.4,0-0.6c-0.2-0.7-0.5-0.7-0.3-1.5c0.1-0.6-0.2-1.2-0.2-1.8 c0-0.6,0.4-0.4,0.8-0.6c1.2-0.6,0-2.7-0.2-3.6c-0.1-0.2,0-0.4,0-0.5c0-0.1-0.1-0.3-0.1-0.5c0-0.7,0.3-1.4,0.3-2.1 c-0.1-0.7-0.2-1.4-0.2-2.1c0-0.7,0.4-1.3,0.4-2c0-0.5-0.4-1-0.3-1.5c0-0.3,0.2-0.5,0.3-0.8c0.1-0.3,0-0.7,0-1.1 c0-0.6,0.1-1.2,0.2-1.9c0.2-0.8,0.1-1.4,0-2.2c-0.1-0.8,0.1-1.4,0.1-2.2c0-0.7-0.2-1.4-0.3-2.1c-0.1-0.7,0.1-1.2,0.3-1.9 c0.2-0.8,0.3-1.7,0.3-2.5c0-0.6,0.1-1.2,0.1-1.9c0-0.6-0.3-1.1-0.3-1.7c0-0.6,0.1-1-0.1-1.6c-0.2-0.8-0.1-1.3,0.1-2.1 c0.1-0.8,0-1.5,0-2.2c0-0.3-0.1-0.7,0-1c0.1-0.3,0.2-0.4,0.3-0.7c0-0.7-0.4-1.4-0.4-2.1c0-0.8,0.1-1.5,0.1-2.3 c0-0.6,0.1-1.4-0.1-2c-0.4-0.8-0.5-1.5-0.6-2.5c0-0.4-0.1-0.9-0.1-1.3c0-0.4,0.2-0.5,0.3-0.9c0.2-0.7-0.3-1.5-0.2-2.3 c0-0.3,0.1-0.6,0.3-0.9c0.1-0.2,0.3-0.1,0.4-0.4c0.1-0.3-0.2-0.6-0.3-0.8c-0.2-0.6,0.3-1.2,0.3-1.7c0-0.3-0.8-0.7-0.5-1 c0.1,0.3,0.5,0.4,0.7,0.2c0.3-0.2,0-0.3-0.2-0.4c-0.2-0.2-0.3-0.1-0.5-0.3c-0.2-0.3-0.2-0.7-0.1-1c0.3-1.5,1.4-2.7,0.9-4.3 c-0.3-0.8-0.4-1.7-0.3-2.6c0-0.5,0.3-0.8,0.4-1.2c0.1-0.5,0.1-1.2,0.1-1.7c0-0.5,0.1-1,0.1-1.5c0-0.2,0-0.5,0.1-0.8 c0.2-0.8-0.1-0.2,0.3-0.4c0.3-0.1,0.5-0.1,0.8-0.3c0.2-0.3,0.2-0.6,0.3-0.9c0-0.6,0.2-2,0-2.5c-0.2-0.3-0.4-0.2-0.6-0.3 c-0.4-0.3-0.2-0.3-0.1-0.7c0.5-1.7-0.1-3.7-0.1-5.4c0-0.8,0.2-1.4,0.9-1.8c0.3-0.2,0.6-0.3,0.9-0.6c0.2-0.3,0.2-0.8,0.5-1.1 c0.2-0.4,0.6-0.6,0.8-0.9c0.2-0.4,0.3-0.9,0.5-1.4c0.3-1,0.2-2,0.9-2.8c0.6-0.6,1.3-1.1,1.4-2c0.1-0.4-0.1-0.9,0.1-1.4 c0.1-0.4,0.4-0.7,0.6-1.2c0.3-1,1.9-4.1,3.2-2.7c1.2,1.3,0.9,3.4,1.1,5.1c0.1,0.9,0.4,1.6,0.5,2.5c0,0.4,0.2,0.6,0.2,1 c0.1,0.3,0,0.5,0,0.9c0,0.8,0.5,1.5,0.5,2.3c0,0.4,0.1,0.6,0.3,0.9c0.2,0.6,0.1,1.2,0.3,1.8c0.3,1.1,0.7,2.2,0.9,3.3 c0.1,0.4,0.3,0.5,0.4,0.9c0.2,0.4,0,0.9,0.1,1.3c0.1,0.5,0.3,0.9,0.3,1.4c0,0.5-0.1,1.1-0.1,1.6c0,1.1,0.5,2,1.1,2.8 c0.4,0.6,0.8,1.5,1.6,1.7c0.9,0.3,1.4,0.2,1.7,1.3c0.2,0.7,0.1,1.4,0.3,2.1c0.3,1,0.4,2.1,0.6,3.2c0.1,0.5,0.1,1,0.3,1.5 c0.1,0.5,0.3,0.4,0.5,0.8c0.3,0.4,0.1,0.8,0.1,1.2c0,0.6,0.1,1.1,0.3,1.7c0.3,0.9,0.8,1.8,1,2.8c0.1,0.5,0.1,1,0.1,1.6 c0,0.6-0.3,0.7-0.4,1.3c-0.1,0.4,0,0.6-0.2,1c-0.1,0.3-0.3,0.6-0.5,0.9c-0.4,0.6-0.7,1.3-1.1,1.9c-0.3,0.5-0.1,0.2-0.5,0.4 c-0.4,0.2-0.5,0.5-0.8,0.8c-0.2,0.2-0.5,0.3-0.7,0.5c-0.3,0.3-0.5,0.7-0.7,1.1c-0.1,0.2-0.2,0.5-0.4,0.6c-0.2,0.1-0.5,0-0.7,0.1 c-0.1,0.1-0.4,0.4-0.3,0.6c0.2,0.3,1,0,1.2-0.1c0.8,0,1.2,1,1.3,1.7c0.1,0.4-0.1,0.8,0.1,1.3c0.1,0.4,0.4,0.7,0.5,1.1 c0.1,0.4,0,0.7,0.1,1c0.2,0.5,0.5,0.9,0.6,1.4c0.3,0.9,0.7,1.6,0.9,2.6c0.2,0.9,0.2,1.9-0.1,2.8c-0.1,0.5-0.4,0.6-0.6,1 c-0.2,0.3-0.1,0.8-0.1,1.1c0,0.6,0,1.3-0.5,1.8c-0.6,0.5-1.4,0.6-1.8,1.3c-0.3,0.4-0.2,0.4-0.6,0.7c-0.3,0.2-0.5,0.3-0.7,0.6 c-0.5,0.8-0.3,1.7-0.7,2.5c-0.3,0.6-1,0.8-1.4,1.3c-0.5,0.8-0.8,1.7-1.3,2.5c-0.4,0.7-0.6,0.2-0.5-0.4c0.2-0.8,0.4-1.4,0.1-2.1 c-0.2-0.6-0.7-1.3-1.4-1.2c-0.8,0.1-1.3,1.1-1.4,1.8c-0.1,0.7,0.1,1.5,0.3,2.2c0.1,0.3,0.1,0.6,0.3,0.8c0.2,0.3,0.6,0.4,0.6,0.7 c0,0.4-0.6,0.7-0.5,1.2c0.2,0.9,1.2-0.1,1.8,0.2c0.7,0.3,0.7,1.1,0.4,1.7c-0.3,0.6-0.8,0.8-0.7,1.6c0,0.2,0.1,0.3,0.1,0.5 c0,0.2-0.2,0.3-0.2,0.5c0,0.2,0.2,0.4,0.2,0.7c0,0.2,0,0.4,0,0.6c0,0.1,0.2,0.2,0.3,0.4c0.1,0.3,0,0.5,0,0.7 c0.1,0.4,0.3,0.7,0.3,1.2c0,0.5,0,1,0,1.6c0,1.1-0.1,2.2,0,3.3c0.1,1,0.6,1.9,0.5,2.9c0,0.7-0.5,1.5-0.4,2.2 c0.1,0.3,0.3,0.6,0.3,0.9c0,0.4-0.1,0.8-0.1,1.1c0,0.4,0.1,0.7,0.2,1.1c0,0.4-0.3,0.5-0.3,0.9c-0.1,0.7,0.8,1.2,0.8,1.9 c0,0.4-0.3,0.6-0.5,0.9c-0.2,0.4-0.2,0.9,0,1.3c0.1,0.3,0.3,0.6,0.4,1c0.1,0.4,0,0.6,0.1,1c0.1,0.4,0.4,0.7,0.5,1.1 c0.1,0.6-0.1,0.7-0.3,1.2c-0.2,0.4,0,0.6,0.1,1c0.1,0.4,0,0.5-0.1,0.8c-0.2,0.6-0.3,1.4-0.6,2c-0.3,0.7-1,0.6-1.4,1.3 c-0.1,0.2,0,0.5-0.4,0.4c-0.3-0.1-0.2-0.5-0.3-0.7c-0.4,0.3-0.1,1.1-0.2,1.5c-0.1,0.3-0.3,0.3-0.3,0.7c0,0.4,0.1,0.5-0.1,0.9 c-0.1,0.2-0.3,0.3-0.4,0.5c-0.1,0.2,0.1,0.3,0,0.5c-0.1,0.2-0.4,0.2-0.5,0.4c-0.2,0.2-0.2,0.6-0.4,0.8c-0.4,0.6-1.1,1-1.5,1.6 c-0.5,0.7-0.8,1.5-1,2.3c-0.2,0.7-0.3,1.4-0.3,2.2c0,0.4,0.1,0.9,0,1.3c-0.1,0.3-0.5,0.4-0.5,0.8c0,0.4,0.5,1,0.5,1.5 c0.1,0.8-0.2,1.7,0.1,2.5c0.3,0.6,0.6,1.2,0.8,1.9c0.1,0.4,0.2,0.8,0.3,1.1c0,0.3-0.2,0.7,0,1.1c0.1,0.3,0.4,0.3,0.5,0.6 c0.1,0.3,0,0.2,0,0.5c0,0.6,0,1.4,0.6,1.7c0.6,0.2,0.8,0,1.1,0.6c0.3,0.5,0.3,1.1,0.5,1.7c0.1,0.3,0.5,0.9,0.4,1.2 c0,0.2-0.1,0.2-0.2,0.3c-0.1,0.1-0.4,0.1-0.5,0.2c0,0,0.1,0.3,0,0.4c-0.1,0.4-0.5,0.8-0.2,1.2c0.1,0.2,0.4,0.2,0.5,0.3 c0.2,0.3,0.2,0.6,0.2,1c-0.1,1.4-0.9,2.7-1.2,4.1c-0.2,0.7-0.4,1.2-0.7,1.8c-0.3,0.5-0.8,1.1-0.9,1.7c-0.1,0.6,0.2,1.3-0.1,2 c-0.3,0.6-0.8,0.8-0.6,1.6c0.1,0.4,0.5,0.9,0.4,1.3c0,0.3-0.3,0.4-0.2,0.7c0.1,0.3,0.5,0.5,0.6,0.7c0.3,0.4,0.3,0.8,0.5,1.3 c0.2,0.4,0.3,1,0.6,1.4c0.3,0.4,0.8,0.7,1.1,1.1c0.5,0.6,0.9,1.3,1.4,1.9c0.5,0.6,1.3,0.6,1.9,1.2c0.2,0.3,0.4,0.5,0.7,0.7 c0.3,0.2,0.4,0.2,0.6,0.4c0.2,0.3,0.2,0.6,0.5,0.9c0.2,0.2,0.4,0.2,0.5,0.3c0.2,0.3,0.1,0.3,0.4,0.6c0.2,0.2,0.4,0.2,0.6,0.5 c0.5,0.5,0.5,0.9,0.8,1.5c0.3,0.6,0.9,0.9,1,1.6c0.2,0.8,1.6,2.5,0.8,3.3c1.3-0.3,0.8,2.3,0.6,2.9c-0.5,1.5-1.4,2.7-1.7,4.3 c-0.1,0.8-0.2,1.6-0.2,2.4c0,1,0.2,1.9,0.1,2.9c0,1.8,0.3,3.6,0.8,5.3c0.5,1.5,1.5,2.3,2.5,3.5c0.5,0.7,0.8,1.4,1.7,1.6 c0.8,0.2,1.1,0.7,1.8,1.1c1.1,0.8,3.1,0.4,4.4,0.1c1.7-0.4,3.1-1.2,4.4-2.3c0.8-0.7,1.3-1.4,1.9-2.2c0.3-0.4,0.6-0.6,1-0.9 c0.3-0.2,0.4-0.5,0.6-0.7c0.1-0.1,0.4-0.1,0.4-0.2c0.1-0.2,0-0.3,0.2-0.6c0.2-0.2,0.5-0.2,0.7-0.5c0.2-0.3,0.1-0.7,0.5-0.9 c-0.6-0.2,0.2-1,0.6-1c-0.8-0.5-0.3-2.2,0.4-2.5c-0.3-0.1-0.1-0.4-0.1-0.6c0.3,0.1,1.4,0.7,1.6,0.3c0.1-0.3-1.3-0.6-1.5-0.7 c0.1,0,0.3-0.3,0.2-0.3c-1.3-0.2,0.7-1-0.6-1.4c-0.1,0.1,0.2,0.7,0.1,0.7c-0.3-0.2-0.7-0.4-0.7-0.9c0.2,0,0.9,0.3,0.9-0.1 c-0.7,0.3-0.8-1.2-0.3-1.4c-0.5-0.1-0.4-0.7-0.5-1.1c0.1,0,0.2,0.1,0.3,0.1c-0.3-0.5-0.7-1-0.2-1.5c0.3-0.3,0.8-0.2,0.7-0.8 c-0.1-0.4-1.9-1.1-0.9-1.2c-0.2-0.3-1-0.9-0.9-1.3c0.1-0.7,0.9,0,1.2,0c-0.3,0.3,0.1,1.2,0.5,0.9c0.2-0.2-0.3-0.4-0.2-0.6 c0.7,0.2,1.6,0.6,1.6-0.5c-0.6,0.1-1.6,0.3-2.1-0.2c-0.3-0.2-0.3-0.6-0.5-0.8c-0.4-0.2-0.9,0-1.2-0.5c-0.1-0.2,0-0.4,0-0.6 c-0.1-0.3-0.5-0.6-0.5-0.9c0-0.1,0.1-0.3,0-0.5c0-0.2-0.2-0.4-0.3-0.5c0-0.1-0.1-0.2-0.1-0.3c0,0,0.2-0.3,0.3-0.2 c-0.1-0.4-0.6-0.5-0.8-0.8c-0.2-0.4,0.1-0.7,0-1.1c0-0.2-0.3-0.4-0.3-0.5c0.1-0.3,0.5-0.1,0.2-0.5c-0.2-0.2-0.5-0.1-0.6-0.5 c-0.1-0.3,0-0.6,0-0.9c0-0.6-0.7-0.9-0.2-1.3c0,0-0.3-0.2-0.3-0.2c0-0.1,0.1-0.3,0.1-0.3c-0.1-0.4-0.5-0.5-0.7-0.8 c-0.4-0.5-0.1-1,0-1.5c0-0.4-0.1-0.5-0.1-0.8c-0.1-0.3,0.1-0.4,0.1-0.7c0-0.4-0.2-0.7-0.1-1.1c0.1-0.5,0.4-0.9,0.5-1.5 c0.1-0.4-0.2-0.9,0-1.3c0.1-0.2,0.4-0.3,0.5-0.5c0.2-0.3,0.1-0.5,0.2-0.8c0.2-0.5,0.5-0.7,0.6-1.2c0.1-0.7,0.2-1.1,0.6-1.6 c0.2-0.3,0.5-0.6,0.6-1c0.1-0.2,0-0.3,0.1-0.5c0.1-0.3,0.3-0.3,0.4-0.7c0.2-0.7-0.1-1.8,0.3-2.5c0.2-0.3,0.5-0.3,0.8-0.5 c0.6-0.4,0.5-1.3,0.4-2c-0.1-0.8,0.1-1.9-0.5-2.6c-0.2-0.3-0.5-0.4-0.5-0.8c-0.1-0.6,0.2-1.3,0.1-2c-0.1-0.5-0.3-1.1-0.3-1.6 c-0.1-0.6,0.4-1.1,0.3-1.7c0-0.5-0.3-0.8-0.5-1.2c-0.4-0.6-0.3-1-0.2-1.7c0.3-1.1-0.2-2-0.3-3.2c0-0.7-0.1-0.7-0.4-1.2 c-0.4-0.6-0.1-1.1-0.3-1.7c-0.1-0.2-0.3-0.4-0.3-0.6c0-0.2,0-0.3,0-0.5c-0.1-0.6-0.4-0.8-0.3-1.4c0-0.3,0.2-0.6,0-0.9 c-0.2-0.2-0.4-0.2-0.7-0.3c-0.3-0.2-0.6-0.5-0.8-0.8c-0.2-0.4-0.2-0.7-0.2-1.2c0-0.5-0.2-0.8-0.4-1.2c-0.1-0.4,0-0.8,0.1-1.2 c0.1-0.3,0.2-0.7,0.3-1c0.2-0.4,0.4-0.5,0.7-0.8c0.8-0.9,0.6-2.3,0.3-3.3c-0.2-0.5-0.4-1-0.4-1.6c0-0.7,0.3-1.1,0.3-1.8 c-0.1-0.6-0.4-1.2-0.5-1.8c-0.1-0.6,0.1-1.2-0.1-1.8c-0.1-0.4-0.5-0.7-0.5-1.1c0-0.2,0.1-0.3,0.2-0.5c0.1-0.5,0.1-0.9,0.1-1.4 c0.1-0.6,0.3-0.9,0.7-1.3c0.3-0.3,0.7-0.6,0.6-1c0-0.2-0.3-0.4-0.3-0.6c-0.1-0.3,0-0.4,0.2-0.7c0.2-0.6-0.1-0.7-0.1-1.3 c0.1-0.8,1.2-1.4,1.6-2.1c0.3-0.6,0.2-1.3,0.5-1.8c0-0.1,0.2-0.2,0.3-0.3c0.1-0.3,0-0.5,0.1-0.8c0.2-0.6,1.5-1.5,0.7-2.2 c-0.3-0.3-1-0.2-1.3-0.6c-0.3-0.4-0.1-0.9-0.2-1.4c-0.1-0.6-0.4-0.9-0.3-1.6c0.1-0.5,0.2-1,0.2-1.5c-0.1-0.6-0.4-1.2-0.3-1.8 c0-0.2,0.2-0.5,0.2-0.7c0.1-0.3,0-0.5-0.1-0.9c0-0.6,0.3-1,0.2-1.6c0-0.4-0.2-0.5,0.1-0.9c0.2-0.4,0.7-0.6,0.8-1 c0.1-0.5-0.1-1.1-0.1-1.6c0-0.3,0.2-0.6,0.2-0.8c0-0.3-0.3-0.5-0.4-0.8c-0.2-0.5,0-0.9-0.2-1.3c-0.1-0.2-0.3-0.2-0.4-0.4 c-0.1-0.3,0-0.7-0.1-1.1c-0.2-0.6-0.4-1-0.5-1.7c-0.1-0.6-0.6-1-0.7-1.7c-0.2-0.7-0.2-1.3-0.6-1.9c-0.6-1.2-1-3-0.1-4.1 c0.3-0.4,0.7-0.5,1-0.9c0-0.1,0.2-0.6,0.3-0.6c0.3-0.2,0.3,0,0.6,0c0.6,0,0.6-0.4,0.8-0.9c0-0.1,0-0.1,0-0.2 c-0.1-0.2,0-0.3,0.2-0.2c0.1-0.2,0.3,0,0.2-0.3c0-0.3-0.5-0.4-0.6-0.6c-0.1-0.5,0.4-0.3,0.7-0.6c0.7-0.8-0.6-0.9-0.9-1.3 c0.2,0.2,0.5-0.7,0.6-0.8c0.8-0.6,0.3,0.7,0.4,1c0.1,0.3,0.5,0.5,0.7,0.7c0.7,0.5,0.8,1.3,1.2,2.1c0.4,0.8,1,1.5,1.4,2.3 c0.3,0.5,0.6,0.6,0.9,1c0.3,0.3,0.3,0.7,0.5,1c0.3,0.3,0.6,0.3,0.7,0.7c0.1,0.3-0.1,0.7-0.2,1c0,0.4,0.5,1.8-0.3,1.8 c0.4,0.3-0.1,0.3,0,0.6c0.1,0.4,0.3,0.3,0.5,0.5c0.6,0.5,0.4,0.9,0.5,1.6c0.1,0.6,0.5,0.9,0.6,1.4c0,0.5-0.1,1,0.1,1.6 c0.2,0.9,0.5,2.6,1.5,2.9c1.1,0.4,1.2-1.2,1.2-1.9c0-0.5-0.1-0.8-0.3-1.2c-0.1-0.3-0.8-1.5-0.1-1.7c0.5-0.2,0.5,1.4,1.1,1.4 c0.7,0.1,0.4-0.6,0.3-0.9c-0.1-0.3-0.2-0.8-0.3-1.1c-0.2-0.5-0.6-0.5-0.1-1.1c0.5-0.6,0.8-0.6,0.5-1.4c-0.1-0.5-0.5-1.3,0.1-1.7 c0.3-0.2,0.6,0.1,0.7,0c0.2-0.1,0.1-0.4,0.3-0.4c0.1,0.2,0.4,2.5,0.9,1.9c0.2-0.3-0.3-1.9-0.5-2.2c0.4-0.4,0.2-1.7,0-2.2 c1.3,0.1-0.3-2.4,0.9-2.5c0-0.3-0.4-0.6,0.2-0.4c0.4,0.1,0.4,0.5,0.9,0.5c0-0.8,0.1-0.9-0.5-1.4c-0.6-0.5-0.2-0.4,0.1-0.9 c0.4-0.6-0.6-2.2,0.6-2.4c-0.4-0.3,0.3-0.9,0.1-1.3c-0.2-0.4-0.6-0.2-0.8-0.7c-0.1-0.3,0-0.7-0.1-1.1c-0.1-0.3-0.3-0.5-0.4-0.7 c-0.2-0.5-0.2-1.1-0.5-1.6c-0.2-0.4-0.8-0.7-0.5-1.2c0.2-0.3,0.7-0.2,0.6-0.7c-0.1-0.6-1.5-0.7-1.9-0.9c-1-0.3-1.3-1-1.7-2 c-0.2-0.6-0.8-2.1-1.6-2.3c-0.9-0.2-0.4,1.1-0.2,1.5c0.4,0.9,1.5,1.7,1.2,2.7c-0.4-0.3-1.7,0.1-1.2-0.9c-0.8,0.5-0.6-0.6-1-0.9 c-0.5-0.5-1.8,0-2.1-0.8c-0.1-0.3,0.2-1.4,0.3-1.7c0.2-0.3,0.6-0.4,0.8-0.7c0.6-0.8,0-2.1,0.3-3.1c0.6-1.7-0.4-4-1.9-5 c-0.8-0.5-1.5-0.6-2.3-0.2c-0.8,0.4-0.8,0.1-1.4-0.6c-0.3-0.3-0.5-0.7-0.9-0.8c-0.3-0.1-0.8-0.1-1-0.2c-0.3-0.3-0.2-0.7-0.3-1.2 c-0.2-0.9-0.9-1.4-0.8-2.5c0.2-1.2,0.7-2.2,1.5-3.1c0.6-0.7,1.4-1.2,1.9-2c0.5-0.8,0.8-1.8,0.8-2.7c0-0.8-0.1-1.6-0.8-2.2 c-0.3-0.3-0.6-0.4-0.9-0.7c-0.3-0.4-0.4-1-0.6-1.5c-0.5-1.1-1.4-1.9-2.2-2.7c-0.3-0.3-0.4-0.7-0.6-1c-0.3-0.4-0.7-0.7-0.9-1.1 c-0.3-0.6-0.8-1.4-0.8-2.1c0-0.5,0.4-1,0.2-1.4c-0.2-0.4-0.7-0.3-0.7-0.9c0-0.6,0.3-1,0.3-1.6c0.1,0,0.9,0.1,1,0 c0.3-0.4-0.3-0.4-0.5-0.5c-0.5-0.4-0.2-0.8-0.1-1.3c0.2-0.7,0.1-1.3,0.2-2c0.1-0.7,0.2-1,0.9-1.1c0.5-0.1,1.6,0.1,1.8-0.6 c0.1-0.3-0.1-1,0.4-0.4c0.2,0.2,0,0.9,0.3,1c-0.8,0.1-1.4,0.8-1.4,1.5c-0.1,0.8,0.6,0.9,0.7,1.4c0,0.2-0.1,0.5-0.2,0.7 c-0.1,0.5-0.1,1,0,1.5c0,0.5,0.2,0.7,0.3,1.1c0.2,0.5,0.1,1.1,0.2,1.6c0.1,1,0.2,1.6,0.7,2.3c0.2,0.3,0.2,0.6,0.3,0.9 c0.1,0.3,0.5,0.6,0.7,0.8c0.5,0.6,0.7,1.4,1.4,1.8c0.8,0.4,1.5,0.8,1.7,1.9c0,0.3,0,0.4,0.1,0.7c0.1,0.3,0.4,0.5,0.6,0.8 c0.2,0.3,0.5,0.6,0.6,0.9c0.1,0.3-0.1,0.6,0,0.9c0.1,0.3,0.5,0.4,0.6,0.7c0.1,0.3,0.1,0.6,0.1,0.8c0,0.7-0.1,1.4-0.2,2 c-0.1,0.5-0.3,1.1-0.8,1.5c-0.6,0.5-0.9-0.2-1.5,0c-1.1,0.4-1.9,2-1.8,3.1c0.1,0.9,0.3,2.9,1.3,3.2c1.3,0.5,2.7-1.2,3.2-2.1 c0.5-0.8,1.4-1,1.9-1.7c0.6-0.8,0.4-2,0.1-2.8c-0.3-0.8,0.3-1.4,0.1-2.2c-0.1-0.3-0.3-0.5-0.3-0.8c-0.1-0.5,0.1-0.5,0.4-0.9 c0.2-0.2,0.2-0.5,0.3-0.8c0.2-0.3,0.6-0.4,0.7-0.7c0.1-0.3,0.1-0.6,0.2-0.9c0.2-0.4,0.5-0.7,0.6-1.2c0.4-1,0.7-4,2.1-4.3 c1.4-0.4,0.6,3.6,0.7,4.2c0.1,0.4,0.3,0.7,0.4,1.1c0.1,0.4,0.1,0.8,0.2,1.2c0.1,0.8,0.9,1.6,1.7,0.8c0.8-0.7,0-1.6-0.3-2.4 c-0.3-0.9,0.2-1.9-0.1-2.8c-0.3-1.2-0.5-4.3,1.5-4.2c0.4,0,0.7,0.1,0.9,0.4c0.1,0.1,0.1,0.3,0.2,0.4c-0.1,0.2,0,0.3,0.1,0.3 c0.1,0,0.2,0,0.3,0.1c0.5,0.5,0.4,1.1,0.4,1.8c0,0.8,0.1,1.5,0.4,2.3c0.3,0.8,0.9,1.5,0.9,2.3c-1.4-0.1-0.7,1.3,0.2,1.3 c-0.6,0.4-0.1,0.7,0,1.2c0,0.2-0.3,0-0.2,0.4c0.1,0.2,0.3,0.3,0.5,0.4c0.3,0.3,0.2,0.3,0.3,0.7c0.1,0.3,0.1,0.3,0.3,0.5 c0.2,0.4,0.5,0.9,0.5,1.4c0.1,0.6-0.4,0.7-0.6,1.2c-0.2,0.4-0.1,0.7-0.5,0.9c-0.4,0.2-1-0.1-1.4,0.1c-0.5,0.2-0.4,0.8-1,1 c-0.6,0.3-0.8,0-1.4-0.1c-0.3-0.1-0.8-0.1-0.7,0.4c0.2,0.7,1.7,0.6,2,1.3c0.1,0.2,0,0.4,0.1,0.6c0.2,0.3,0.5,0.2,0.6,0.7 c0.1,0.5-0.1,0.6-0.5,0.7c-1.3,0.3-2.4,0.4-3.2,1.6c0.4,0.2,1.3-0.1,1.1,0.6c0.4,0.2,2.5-1.1,2.4-0.1c0,0.2-0.4,0.5-0.5,0.7 c-0.2,0.4-0.1,0.7-0.2,1.1c-0.2,0.9-1,0.8-1.7,0.5c0.2,0.3,0.1,0.7,0.3,1c0.1,0.3,0.4,0.6,0.5,0.8c0.4,0.6,0.7,1.1,1.1,1.7 c0.2,0.3,0.4,0.5,0.4,0.9c0,0.3-0.2,0.6-0.1,0.9c0.2,0.5,0.9,0.6,1.2,1c0.4,0.6,0.1,1.4,0.4,1.9c0.4,0.6,1.2,0,1.3,0.9 c0.1,0.8-0.3,1.4,0.1,2.1c0.2,0.2,0.5,0.6,0.8,0.6c0.2,0,0.6-0.3,0.8-0.2c0.1,0,0.2,0.4,0.2,0.5c0.2,0.2,0.4,0.3,0.6,0.4 c0.6,0.5,0.8,1.3,1.4,1.7c0.7,0.4,1.6,0.3,2.3,0.7c0.4,0.2,0.8,0.5,1.1,0.8c0.1,0.1,0.3,0.2,0.4,0.3c0.5,0.6,0.2,0,0.1,0.4 c0,0.1-0.2,0.4-0.3,0.5c-0.1,0.2-0.1,0.5-0.1,0.7c0,0.7,0.1,1.3,0.3,2c0.4,0.9,2.1,2.2,2.6,0.6c0.2-0.6-0.3-1.3-0.1-1.8 c0.2-0.7,0.8-0.3,1.2,0c0.6,0.4,0.9,0.5,1.6,0.6c0.3,0,1.2,0,0.6,0.5c0,0,0.3,0,0.3,0c0,0,0.2,0.2,0.2,0.2 c0.1,0.1,0.1,0.4,0.5,0.5c0.6,0.2,1.3-0.1,1.8,0.3c0.3,0.2,0.3,0.5,0.7,0.7c0.3,0.1,0.7,0.2,1,0.2c0.6,0,1.1-0.1,1.2,0.4 c0.1,0.2,0,0.3,0.1,0.6c0,0.1,0.2,0.1,0.2,0.2c0.1,0.2,0,0.3,0,0.5c0,0.2-0.1,0.4,0.2,0.4c0.3,0,0.2-0.2,0.3-0.4 c0.6-1.5,0.7,0.6,1.2,0.7c-0.2-0.4,0.1-0.3,0.2-0.6c0.1-0.1,0-0.3,0.1-0.4c0.2-0.7,0.7-0.6,1.3-0.7c0-0.1-0.3-0.4-0.1-0.4 c0.2,0,0.1,0,0.3,0.1c0.2,0.1,0.1,0.3,0.5,0.3c0.2,0,0.2-0.3,0.4-0.4c0.4-0.1,0.7,0.3,1.2,0.3c0.6-0.1,1.1-0.4,1.6-0.4 c-0.5-0.7,0.3-0.7,0.5-1.3c0.1-0.2-0.1-0.6,0-0.8c0-0.1,0.2-0.3,0.2-0.4c0.1-0.3,0-0.7-0.1-1c-0.4-1.1-0.9-1.5-2-1.8 c-1-0.3-2.4-0.4-2.2-1.6c0-0.2,0-0.5,0.1-0.8c0.1-0.2,0.3-0.3,0.4-0.6c0.4-0.7-0.2-1.4,0.2-2c0.5-0.6,1.3-1.2,1.5-2 c0.2-1-0.5-0.5-1-0.7c-0.6-0.2-0.7-1.7-0.7-2.3c-0.1-1.1,0.4-1.3,1.4-1c0.4,0.2,0.7,0.2,0.8,0.5c0.1,0.2-0.1,0.5,0.1,0.8 c0.2,0.3,0.7,0.4,1,0.1c0.6-0.6,0.2-2.4,1.4-1c0.4,0.6,1,1.4,1.8,1.3c0.8-0.1,1-1,1-1.6c0-0.4,0.1-0.8,0-1.2 c-0.1-0.4-0.3-0.6-0.3-0.9c0,0,0.3-0.2,0.3-0.3c0-0.2-0.2-0.3-0.1-0.4c0.1-0.4,0.3-0.5,0.8-0.3c0,0.2-0.4,0.2-0.3,0.4 c0.2,0.3,0.5-0.1,0.7-0.1c0.6-0.1,0.9,0.2,0.8,0.9c0,0.4-0.4,1.1-0.1,1.4c0.3,0.2,0.9-0.1,1.2-0.2c0.2-0.1,0.3-0.2,0.5-0.2 c0.3,0,0.6,0.2,0.9,0.1c0.3-0.2,0.5-0.9,0.3-1.2c-0.1-0.1-0.4-0.2-0.6-0.2c-0.6-0.2-0.8-0.1-1.2-0.5c-0.6-0.6-0.6-0.2-1.3-0.2 c-0.1-0.3,0.2-0.3,0.4-0.3c-0.2-0.7,0.7-0.9,1-1.4c0.2-0.2,0.3-0.6,0.1-0.9c-0.2-0.2-0.8-0.1-0.7-0.6c0.2-0.6,1.5-0.5,1.9-0.4 c0.6,0.2,1.2,0.9,1.5-0.2c0.2-0.6-0.1-1.3-0.1-1.9c0-0.2,0-0.5,0.1-0.7c0.2-0.3,0.7-0.2,0.8-0.4c0.4-0.6-0.9-1.1-1.1-1.4 c-0.2-0.4,0.2-0.9-0.2-1.3c-0.3-0.4-1-0.5-1.5-0.8c-0.8-0.5-1.9-1.6-1.8-2.6c0-0.5,0.3-0.6,0.2-1.1c-0.1-0.4-0.7-0.9-0.4-1.4 c0.2-0.3,0.5-0.2,0.6-0.6c0.1-0.5-0.1-1,0.1-1.5c0.1-0.2,0.6-0.3,0.2-0.6c-0.1-0.1-0.3,0-0.5-0.1c-0.2-0.1-0.6-0.4-0.8-0.4 c-0.7,0-1.4,1.1-2.3,0.6c-0.4-0.2-0.4-0.5-0.2-0.8c0.2-0.5,0.4-0.6,0.3-1.2c0-0.4-0.2-0.8-0.2-1.1c0-0.2,0-0.4,0.2-0.5 c0.3-0.2,0.2,0.1,0.4,0c0.3-0.1,0.3-0.1,0.1-0.5c-0.2-0.5-0.7-0.9-1-1.3c-0.2-0.3-0.5-0.7-0.2-1c0.3-0.4,0.8-0.1,0.6-0.8 c-0.1-0.3-0.4-0.8-0.7-0.9c-0.4-0.2-0.8,0-1.2-0.1c-0.4-0.1-0.6-0.7-0.9-0.8c-0.3-0.2-0.8,0.2-1.1,0c-0.9-0.5,0.7-1.6,1.3-1.3 c0.1-1-0.5-1.2-1-2c-0.2-0.3-0.3-0.8-0.6-1c-0.4-0.2-0.9,0.3-1.3,0.1c-0.4-0.2-0.2-0.5-0.1-0.9c0.1-0.5,0.1-0.8-0.1-1.2 c-0.1-0.1-0.2-0.1-0.3-0.3c0-0.2,0.1-0.2,0.1-0.3c0.1-0.3,0-0.7,0-0.9c0.1-0.4,0.5-0.8,0.9-0.9c0.2-0.1,0.5,0,0.7-0.2 c0.2-0.1,0.2-0.3,0.3-0.4c0.4-0.3,0.5-0.3,1-0.2c0.4,0.1,0.8,0.3,1.1,0.4c0.3,0.1,0.9,0.8,1.2,0.8c0.9,0-0.6-1.1-0.8-1.3 c0.2-0.2-0.1-0.2-0.1-0.4c0-0.4,0.2-0.7,0.5-1.1c0.1-0.1,0.4-0.8,0.6-0.9c0.2-0.1,0.7,0.2,0.9,0.2c0.2,0.1,0.4,0.1,0.6,0.1 c0.1-0.1,0.2-0.2,0.3-0.2c0.1,0,0.4,0,0.4,0c0.2-0.1,0.2-0.3,0.5-0.4c0.2,0,0.4,0.3,0.5,0.2c-0.7-1.1,0.4-0.9,1.1-0.5 c-0.1-0.3,0.2-0.5,0.1-0.8c-0.8,0.5-0.9-0.3-1.3-0.8c0.1-0.1,0.2-0.1,0.3-0.1c-1-1-1.3-2.1-2.9-2c-0.7,0-0.9,0.1-1.2,0.6 c-0.2,0.3-0.4,0.7-0.9,0.4c-0.1,0.8-1.4,0.5-1.4-0.1c-0.4,0.3-1,0.7-1.4,0.2c0,0.5-0.9,0.9-1.1,0.3c0-0.1,0.2-0.3,0.2-0.5 c0-0.2-0.3-0.4-0.3-0.6c0-0.4,0.5-0.7,0.4-1.2c-0.1-0.3-0.8-0.8-0.1-1c-0.4-0.4-1.1-0.3-1.6-0.6c-0.3-0.3-0.3-0.7-0.6-1 c-0.2-0.3-0.6-0.2-0.7-0.6c-0.1-0.4,0.1-0.6,0.4-0.5c0.4,0,0.6,0.4,0.9,0.7c0.1,0.1,0.3,0.1,0.4,0.2c0,0,0.2,0.5,0.2,0.5 c0.4,0.2,1-0.5,1.5-0.3c0.3,0.1,0.2,0.6,0.6,0.6c0-0.9-1.1-1.2-1.8-1.5c-0.3-0.1-0.8-0.4-1-0.5c-0.2-0.1-0.3-0.2-0.5-0.2 c-0.4-0.1-0.8,0.2-1.1,0.1c-0.4-0.1-0.1-0.3-0.3-0.4c-0.3-0.2-0.7-0.3-1.1-0.5c-0.8-0.4-1.9-1.3-2.8-0.9c-0.3,0.1-0.3,0.2-0.7,0.2 c-0.2,0-0.3-0.1-0.5-0.1c-0.3,0-0.4,0.2-0.6,0.3c-0.3,0.1-0.1,0.2-0.4,0.1c-0.2-0.1-0.4-0.4-0.5-0.5c-0.2-0.1-0.5-0.2-0.6-0.4 c-0.3-0.3-0.2-0.3-0.6-0.4c-0.3-0.1-0.8,0.1-0.8-0.4c0-0.4,0.4-0.4,0.7-0.5c0.4,0,0.7,0,1.1-0.2c0.3-0.1,0.6-0.2,0.9-0.2 c0.1,0,0.5,0.1,0.7,0.1c0.5-0.2,0.3-1,0.1-1.5c-0.2-0.6-0.5-0.5-0.9-0.9c-0.3-0.3-0.3-0.2-0.2-0.6c0.1-0.6,0.4-0.8,0.9-0.5 c0.4,0.3,0.7,0.7,1.2,0.9c0.5,0.2,1,0.3,1.5,0.2c0.5-0.1,0.9-0.3,1.3-0.5c0.4-0.2,1.3-0.3,1.6-0.7c0.2-0.3-0.1-0.7,0-1 c0-0.1,0-0.3,0-0.4c0-0.1,0.3-0.4,0.3-0.4c0-0.1-0.2-0.6-0.2-0.7c0-0.3-0.1-0.6,0-0.9c0-0.4-0.1-0.4,0.4-0.4 c0.3,0,0.5,0.1,0.7,0.2c0.3,0.1,1.5,1.1,1.6,0.4c0.1-0.5-1.3-1.3-0.7-1.8c0.3-0.3,0.9,0.4,1.2,0.5c0.6,0.2,1.3,0.3,1.7-0.3 c0.3-0.4,0.3-0.7,0.6-1c0.4-0.4,0.9-0.6,0.9-1.3c0.1-1.4-1.5-1.8-2.5-1.2c-0.5,0.3-0.8,0.5-1.4,0.7c-0.8,0.2-0.6,0.7-1,1.3 c-0.6-0.6-1.9-0.8-2.6-0.1c-0.5,0.5-0.1,1.4-1,1c-1.7-0.6-3.3-1.7-4.9-0.2c-0.3-1.2,0.4-0.8,1.1-1.2c1.1-0.5,0.9-2,0.3-2.8 c-0.4-0.5-1.4-1.6-1.2-2.3c0.1-0.4,0.6-0.5,0.9-0.5c0.6,0,0.5,0.3,0.7,0.7c0.3,0.6,0.6,0.4,1.1,0.6c0.4,0.2,0.5,0.7,1,0.6 c0.4-0.1,0.4-0.6,0.9-0.7c0.8-0.2,1.1,0.2,1.3-0.8c0.3-1.6-0.9-3.9-2.7-3.8c-0.5,0-0.8,0.1-1.1,0.5c-0.3,0.3-0.5,0.8-1,0.5 c-0.4-0.3-0.1-0.9-0.2-1.3c-0.1-0.7-0.5-0.4-1-0.7c-0.3-0.2-0.7-0.9-0.5-1.3c0.3-0.5,0.7-0.1,1.1-0.3c0.4-0.3,0.3-1.1,0.4-1.5 c0.1-0.5,0.5-0.8,0.9-1.2c0.9-0.8,1.5-2.3,2-3.4c0.3-0.7,0.6-1.4,0.7-2.1c0.1-0.6-0.2-1.2-0.2-1.9c0-1.4,0-2.7-0.4-4 c-0.3-1.2-1-2.3-1.5-3.4c-0.2-0.4-0.5-0.7-0.8-1.1c-0.4-0.4-0.6-1-1-1.4c-0.3-0.3-0.8-0.7-1.3-0.8c-0.5-0.1-1.2-0.4-1.7-0.5 c-0.5,0-0.9,0.4-1.3,0.3c-0.6-0.1-0.7-1.2-0.8-1.7c-0.1-1.4,0.6-2.9,0.7-4.3c0-0.7-0.2-1.4-0.2-2.1c0-0.6,0.5-1,0.5-1.7 c0-0.6-0.3-1.2-0.7-1.7c-0.2-0.2-0.4-0.5-0.7-0.6c-0.3-0.1-0.6,0-0.9-0.2c-0.3-0.2-0.6-0.7-0.4-1c0.2-0.3,0.6-0.3,0.9-0.4 c0.8-0.5,0.7-1.6,0.3-2.4c-0.4-0.8-1.2-1.1-2-0.6c-0.7,0.5-0.7,0.5-1.2-0.4c-0.4-0.7-1.3-1.4-1.2-2.3c0.1-0.5,0.4-0.9,0.1-1.4 c-0.3-0.5-0.8-0.6-1-1.2c-0.2-0.6,0.1-1-0.3-1.6c-0.3-0.6-0.7-0.9-1.3-1c-0.6-0.1-1.2,0-1.7,0.1c-0.3,0.1-1,0.7-1.2,0.7 c-0.4,0,0.6-1.6,0.6-1.9c0.1-0.4-0.4-1.4-0.7-1.7c-0.4-0.4-0.8-0.3-1.3-0.2c-0.3,0-0.7,0.3-1,0.2c-0.4-0.2-0.3-0.8-0.4-1.1 c-0.3-1.1-1.3-1.7-1.8-2.6c-0.6-1.1,0.1-1.8,0.2-2.9c0.1-0.9-0.6-1.9-1-2.6c-0.1-0.2-0.4-0.7-0.4-0.9c0.1-0.4,0.5-0.4,0.7-0.6 c0.4-0.4,0.1-0.3-0.3-0.5c-0.5-0.2-0.4-0.5-0.5-1c0-0.3,0-0.8-0.3-1c-0.1-0.1-0.3,0.2-0.5,0.1c-0.1-0.1-0.1-0.3-0.2-0.5 c-0.4-0.6-0.5-0.1-1-0.3c-0.3-0.1-0.5-0.4-0.7-0.7c-0.3-0.6-0.6-1.3-1.4-0.8c0-0.5-1-0.7-1.3-0.7c-0.9,0-0.6,0.8-1.3,1 c-0.3,0.1-0.8-0.1-1.1,0c-0.4,0.1-0.5,0.3-0.7,0.5c-0.3,0.2-0.3,0.2-0.6,0.2c-0.3,0-0.5-0.3-0.7,0c-0.3,0.4,0.3,1-0.5,1.3 c-0.5,0.2-1.2-0.2-1.1,0.7c0.1,0.6,0.4,0.9-0.1,1.5c-0.5,0.7-1.2,0.8-1.4,1.8c-0.2,0.8,0.1,1.6,0,2.3c-0.1,0.3-0.1,0.9-0.3,1.1 c-0.4,0.4-1.4,0.2-1.9,0.3c-1,0.1-1.7,0.3-2.6,1c-0.5,0.4-1.2,0.9-1.9,0.5c-0.2-0.1-0.3-0.5-0.5-0.5c-0.3-0.1-0.7,0-1-0.1 c-0.7-0.2-1.3-0.8-2.1-0.6c-0.4,0.1-0.6,0.3-1,0.3c-0.4,0-0.5,0-0.8,0.2c-0.3,0.2-0.7,0.9-1.1,0.5c-0.4-0.3,0-0.9,0.1-1.3 c0.1-0.4,0.1-0.2-0.1-0.6c-0.2-0.3-0.4-0.6-0.6-0.9c-0.3-0.5-0.7-1.3-1.3-1.4c-0.6-0.1-1.4-0.1-2-0.2c-0.6-0.1-1.4-0.2-1.9,0.3 c-0.4,0.4-0.2,0.9-0.1,1.4c0.2,1-0.2,1-1.2,1.1c-0.7,0-1.9,0.3-2.1-0.5c-0.2-0.7-0.1-1.1-0.5-1.7c-0.4-0.6-0.8-1.4-1.2-2 c-0.5-0.8-1.1-0.7-1.9-1.2c-0.7-0.4-1-0.7-1.9-0.5c-0.7,0.2-1.3,0.6-2,0.4c-0.6-0.1-1-0.7-1.4-1.2c-0.5-0.6-1.2-1.1-1.9-1.5 c-0.9-0.4-2-0.7-2.6-1.6c-0.5-0.7-0.5-1.6-1-2.3c-0.5-0.7-1.4-1.1-2-1.9c-0.6-0.8-1-1.3-2-1.6c-0.8-0.2-1.1-0.9-1.5-1.6 c-0.2-0.3-0.3-0.7-0.6-1c-0.2-0.3-0.5-0.4-0.7-0.6c-0.3-0.3-0.3-0.7-0.8-1c-0.3-0.3-0.5-0.3-0.9-0.3c-0.4,0-0.7,0-0.9-0.4 c-0.3-0.4-0.3-1,0-1.5c-0.4,0.1-0.6,0.5-1,0.7c-0.2,0.1-0.3,0.2-0.5,0.1c-0.4-0.1-0.1-0.2-0.3-0.4c-0.2-0.3-0.6-0.3-0.8-0.6 c-0.3-0.4-0.2-0.7-0.7-0.3c-0.3,0.2-0.4,0.6-0.9,0.4c-0.3-0.1-0.3-0.6-0.5-0.7c-0.7-0.3-0.3,1.3-1.2,0.8c-0.3-0.2-0.4-1.7-1-1 c-0.2,0.2-0.2,0.7-0.4,1c-0.2,0.2-0.4,0.7-0.6,0.9c-0.5,0.3-1.2-0.1-1.7,0.1c-1,0.2-0.1,1.1-0.6,1.7c-0.2,0.3-0.7,0.3-1,0.3 c-0.5,0.1-0.9,0.2-1.3,0.6c-0.2,0.2-0.4,0.4-0.6,0.5c-0.3,0.2-0.6,0.2-0.8,0.4c-0.2,0.1-0.3,0.3-0.4,0.4c-0.2,0.1-0.5,0.1-0.7,0.2 c-1,0.6,0.6,1.2,0.6,1.7c0,0.4-0.6,0.2-0.8,0.4c-0.1,0.1,0,0.5-0.1,0.6c-0.1,0.2-0.3,0.3-0.5,0.4c-0.3,0.4-0.4,0.9-0.7,1.3 c-0.1,0.2-0.3,0.2-0.4,0.3c0,0-0.2,0-0.2,0.1c-0.1,0.1,0,0.3,0,0.3c-0.2,0.3-0.6,0.5-0.8,0.8c-0.2,0.2-0.2,0.5-0.3,0.7 c-0.1,0.2-0.3,0.3-0.4,0.4c-0.1,0.2-0.1,0.1-0.2,0.3c-0.1,0.3,0,0.5-0.1,0.8c-0.2,0.5-0.3,0.8-0.4,1.3c-0.2,0.8-0.2,1.6,0.6,2 c0.2,0.1,0.8,0.2,0.8,0.5c0.1,0.3-0.3,0.3-0.5,0.3c-0.9-0.2-1.6-1.4-2.2-2c-0.5-0.5-0.6-0.2-1.1-0.3c-0.6-0.1-0.9-0.4-1.6-0.3 c-0.8,0.2-1.4,0.5-2.3,0.4c-0.8-0.1-1.6-0.2-2.4-0.1c0-0.2,0.1-0.4,0-0.6c-0.4,0.1-0.2,0.3-0.4,0.5c-0.2,0.3-0.4,0.3-0.7,0.3 c-0.5,0.1-1.3-0.1-1.4,0.6c-0.8-0.3-0.8,0.5-1,1c-0.3,0.7-1.1,0.5-1.4,1.1c0.5,0.2,0.3,0.5,0.2,0.9c-0.1,0.4-0.2,0.7-0.2,1.2 c0,0.5,0.1,0.9-0.1,1.4c-0.1,0.4-0.5,0.8-0.6,1.3c0.5,0.1,1.2-0.3,1.7,0.1c0.4,0.4,0,1.1,0.4,1.6c0.6-0.6,1.1,0.1,1.8,0.2 c0.3,0,0.7-0.2,1.1,0c0.3,0.2,0.4,0.9,0.5,1.1c0.1,0.3,0.2,1,0.1,1.2c-0.2,0.2-1.1,0.3-1.3,0.3c-0.8,0.1-1.9,0.1-2.6-0.4 c-0.2-0.2-0.2-0.4-0.5-0.4c-0.1,0-0.6,0.2-0.6,0.2c0.2-0.1-0.5,0-0.3,0c0,0.1,0,0.2-0.1,0.2c-0.1,0-0.3-0.1-0.4-0.2 c-0.4-0.1-0.3-0.1-0.7,0c-0.1,0.1-0.2,0.2-0.3,0.2c-0.2,0-0.3-0.1-0.5-0.2c-0.7-0.1-0.9,0.7-1.5,0.9c-0.3,0.1-0.6,0-1,0.3 c-0.2,0.2-0.3,0.6-0.5,0.7c-0.5,0.3-0.9-0.3-1.6-0.2c-0.7,0.2-1.3,0.9-1.1,1.6c0.1,0.4,0.4,0.6,0.4,1.1c0,0.4-0.2,0.9-0.2,1.3 c-0.1,0.6,0.3,1,0.1,1.5c-0.2,0.5-0.8,0.9-1,1.4c-0.3,0.7-0.8,0.7-1.3,1.2c-0.5,0.4-0.6,0.8-1.3,0.8c0.8,1-1.2,1.1-1.2,1.9 c0,0.3,0.4,0.1,0.2,0.5c-0.1,0.1-0.3,0.2-0.4,0.3c-0.3,0.3-0.2,0.3-0.3,0.6c-0.1,0.4-0.3,0.5-0.5,0.8c-0.8,1.2-0.5,2.8-1,4.1 c-0.2,0.6-0.6,1-1.2,1.4c-0.5,0.4-0.9,0.6-0.9,1.3c0.9-0.4,0.8,0.8,1,1.4c0.3,0.8,1.6,1,1.6,2c0.5-0.4,1,0.4,1.2,0.7 c0.2,0.3,0.5,1.1,0,1c-0.2,0-0.4-0.4-0.7-0.5c-0.4-0.1-1,0.2-1,0.7c0,0.4,0.4,0.6,0.4,1c0.1,0.4-0.2,0.8,0.1,1.2 c0.3-0.8,1.3-1.1,1.5-1.9c0.4,0.3,0.4,0.6,0.9,0.7c0.4,0.1,0.5-0.1,0.6,0.4c0.1,0.7-0.5,1.4-0.6,2.1c-0.1,0.7,0.2,1,0.7,0.4 c0.4-0.5,0.6-1.3,1.2-1.5c0,0,0.2,0.1,0.3,0.1c0.2-0.1,0.1-0.3,0.4-0.4c0.5-0.2,0.8,0.4,0.8,0.8c0,1.1-1.1,1.5-1.4,2.4 c-0.3,1,0.5,1.4,1,0.6c0.3-0.4,0.4-1.7,0.9-1.9c0.1,0.7-0.3,1.4-0.3,2.1c0,1.2-0.6,2.3-1.1,3.4c-0.4,0.9-0.5,1.8-1,2.6 c-0.3,0.4-1.1,1.5-0.1,1.7c0.7,0.2,1.2-0.9,1.2-1.5c0-1.3,0.6-2.3,1.1-3.5c0.3-0.8,0.6-1.7,0.9-2.5c0.3-0.6,0.2-1.3,0.4-1.9 c0.2-0.7,0.6-0.8,1.1-0.2c1,1,0.3,1.7,0.3,2.8c0,1,0.2,1.6-0.4,2.4c-0.6,0.8-1.7,1.3-2.2,2.2c-0.2,0.4-0.3,0.8-0.6,1.1 c-0.3,0.3-0.6,0.4-0.9,0.7c-0.8,0.8-1.3,2.1-1.9,3.1c-0.5,0.9-1.3,1.8-1.6,2.8c-0.1,0.5-0.2,0.6-0.5,1.1c-0.3,0.5-0.7,0.9-0.7,1.5 c0,1.1,0.9,1.8,0.6,3c-0.3,1.1-1.1,2.1-1.5,3.2c-0.2,0.6-0.7,2.1,0.2,2.3c0.6,0.1,1.1-0.5,1.6-0.7c-0.2,0.5-1.1,3.4,0.4,2.9 c0.7-0.3,0.5-1.2,1.1-1.6c0.5-0.3,1.1,0.1,1.3,0.6c0.1,0.5,0,1.2,0.1,1.7c0.2,1.1,0.6,1.8,0.1,3c-0.5,1-1.5,2.4-0.9,3.5 c0.2,0.4,0.6,0.6,1,0.5c0.6-0.1,0.8-0.9,1-1.4c0.5-1.2,0.3-2.5,0.6-3.7c0.8-2.6,3.4,0.9,4.1,1.7c0.6,0.8,1.3,3.8-0.3,3.8 c-0.7,0-1.6-0.3-2.2,0.1c-0.4,0.3-0.6,0.8-1,1.1c-0.1,0.1-0.4,0.2-0.5,0.3c-0.3,0.3-0.3,0.6-0.5,0.9c-0.2,0.4-0.8,0.6-1,1 c-0.3,0.4-0.4,1.1-0.5,1.6c-0.3,1.4,0.1,2.5,0.2,3.8c0.1,1.3,1.2,2.1,1.9,3.1c0.6,1,1.7,1,2.8,0.6c0.7-0.2,0.8-0.7,1.1-1.4 c0.2-0.5,0.5-1,0.6-1.6c0.3-0.8,0.6-2.3,1.5-2.8c-0.4-0.1-0.6-1.3,0-0.9c0.4,0.2,0.4,1.6,0.4,2c0.1,0.7,0,1.3,0.4,2 c0.5,0.8,1.2,1.4,1.5,2.3c0.4,1,0.9,1.7,1.6,2.5c0.7,0.9,0.8,2.2,1,3.3c0.2,0.6,0.3,1.3,0.4,2c0.1,0.5-0.1,1.1,0.1,1.6 c0.1,0.4,0.5,0.5,0.6,1c0,0.2,0,0.4,0,0.6c0.1,0.4,0.3,0.5,0.4,0.9c0.1,0.5,0,1.1,0.1,1.6c0.1,0.6,0.3,1.1,0.6,1.7 c0.2,0.5,0.4,1.1,0.8,1.5c0.3,0.4,0.8,0.6,1.1,1c0.3,0.4,0.2,0.7,0.3,1.1c0.1,0.4,0.6,0.8,0.5,1.2c-0.1,0.6-1.5,0.7-1.9,1 c-1.1,0.6-1.9,1.4-2.7,2.4c-0.3,0.4-0.6,0.7-1,1c-0.5,0.3-0.4,0.5-0.7,1.1c-0.4,0.8-1.4,1-1.9,1.7c-0.3,0.4-0.3,0.7-0.3,1.2 c-0.1,0.6-0.2,0.9-0.6,1.4c-0.3,0.4-0.2,0.3-0.2,0.8c0,0.5-0.3,0.8-0.5,1.2c-0.5,1.3-0.1,2.8-0.1,4.1c0,1.1-0.1,2,0.3,3.1 c0.4,1.1,0,2.2,0.4,3.3c0.1,0.3,0.4,0.8,0.3,1.1c-0.1,0.3-0.5,0.2-0.5,0.6c0,0.6,1.2,0.9,1.3,1.6c0.4,1.8-0.7,4.1,0.4,5.7 c0.5,0.7,1.3,0,1.5,0.9c0.2,0.6,0.1,0.7,0.5,1.2c0.3,0.4,0.3,0.4,0.2,1c-0.1,0.9,0.4,1.7,0.1,2.7c-0.3,0.8-1,1.4-1.5,2 c-0.3,0.3-0.4,0.6-0.6,1c-0.1,0.1,0,0.3-0.1,0.4c-0.1,0.2-0.3,0.2-0.4,0.4c-0.5,1,0.7,1.9,1.6,1.8c1.7-0.2,1.3-3,1.9-4.1 c0.2-0.3,0.5-0.5,0.7-0.9c0.2-0.4,0.1-0.7,0.5-1.1c0.3-0.3,0.5-0.5,0.7-0.9c0.2-0.5,0.7-0.7,1-1.2c0.3-0.4,0.1-1,0.3-1.5 c0.1-0.4,0.4-0.7,0.7-1c0.7-0.6,1.7-0.9,2.5-1.2c0.9-0.3,2.1-0.7,2.6-1.5c0.4-0.7,0.5-1.5,0.7-2.3c0.2-0.7,0.4-1.3,0.7-1.9 c0.3-0.8,0.5-0.2,1-0.7c0.2-0.2,0.2-0.6,0.3-0.9c0-0.1,0.1-0.3,0.2-0.4c0.1-0.1,0.1-0.1,0.2-0.2c0.3-0.1,0.3-0.3,0.1-0.5 c0-0.5-0.4-1-0.1-1.5c0.3-0.4,1.3-0.5,1.8-0.5c1,0,1.2,0.9,1.7,1.6c0.3,0.4,0.6,0.6,1,0.9c0.2,0.2,0.2,0.4,0.4,0.6 c0,0.2,0,0.3,0.2,0.3c0.1,0,0.2,0,0.2,0.1c0.3,0.3,0.5,0.7,0.9,0.9c0.5,0.3,1.1,0.4,1.7,0.5c0.8,0.2,0.7,0.6,0.6,1.3 c-0.1,0.9-0.1,1.7-0.1,2.6c0,0.6,0.1,1.1,0.2,1.6c0.1,0.7-0.2,0.9-0.3,1.5c-0.2,1.1,0.1,2.1,0.2,3.2c0,0.6-0.1,1.2-0.3,1.8 c-0.2,0.7-0.1,1,0.1,1.7c0.2,0.9-0.1,2-0.2,3c0,0.5,0,1.2-0.3,1.6c-0.3,0.5-0.7,0.5-0.7,1.1c-0.1,1.1,0.7,1.9,0.2,3 c-0.1,0.3-0.3,0.5-0.4,0.8c0,0.2,0.1,0.4,0,0.6c-0.2,0.5-0.4,0.6-0.4,1.2c0,0.5,0.2,1,0.3,1.6c0.1,0.6-0.1,1.2-0.2,1.8 c-0.1,0.6-0.3,1.2-0.2,1.8c0.1,0.6,0.2,1.1,0.1,1.7c-0.2,1-0.8,2-0.8,3.1c0,0.5-0.1,0.6-0.2,1c-0.1,0.5,0.1,0.7,0.2,1.1 c0.2,1-0.2,2-0.6,2.8c-0.4,1-0.4,1.5-0.2,2.6c0.2,1.2-0.2,2.4-0.3,3.6c0,0.5-0.2,0.9-0.2,1.4c0,0.5,0.1,0.8,0.1,1.3 c0,0.1-0.2,0.2-0.2,0.4c0,0.2,0.1,0.4,0.2,0.6c0,0.5-0.2,0.9-0.3,1.4c-0.1,0.6-0.2,1.1-0.2,1.7c0,0.5,0.2,1.3-0.2,1.7 c-0.2,0.2-0.4,0.1-0.5,0.3c-0.1,0.1-0.1,0.6-0.1,0.7c-0.1,0.6-0.2,1.3-0.1,1.9c0,0.6,0.2,0.6,0.6,1c0.4,0.3,0.5,0.7,0.7,1.2 c0.2,0.8,0.1,1.8-0.4,2.4c-0.3,0.3-0.6,0.4-1,0.5c-0.6,0.2-0.7,0.3-0.9,0.8c-0.3,0.7-1,0.7-0.6,1.5c0.4,0.8,0.9,1.4,1.4,2.1 c0.8,1.4,0.8,3.3,0.4,4.9c-0.1,0.4-0.2,0.8-0.5,1.1c-0.1,0.3-0.5,0.5-0.6,0.8c-0.1,0.4,0,0,0,0.3c0,0.2,0.3,0.5,0.3,0.6 c0.2,0.5,0.2,1.1,0.2,1.6c0,1.1,0,2.2,0.2,3.3c0.1,0.5,0.1,0.9,0,1.4c-0.2,0.6-0.3,0.7-0.1,1.2c0.4,1,0.3,1.7,0.2,2.8 c-0.1,0.6-0.2,1.2-0.2,1.7c0,0.6,0.3,1.1,0.3,1.7c0,0.5-0.3,1-0.3,1.5c0,0.5,0.2,0.9,0.3,1.4c0.2,0.6,0.2,1.1,0.2,1.6 c0,0.7,0.2,1.3,0.2,2c0,0.5-0.1,1-0.3,1.4c-0.1,0.2-0.2,0.2-0.3,0.5c0,0.1,0,0.3,0,0.5c0,0.7,0.3,1.7-0.7,1.9 c0.5,0.7,0,1.7-0.5,2.3c0,0-0.5,0.4-0.5,0.4c0,0,0.2,0.3,0.2,0.4c0.1,0.3,0.2,0.5,0.7,0.6c0.6,0.1,0.5-0.2,0.8-0.4 c0.1-0.1,0.3-0.6,0.5-0.1c0.1,0.3-0.4,0.6-0.4,0.7c-0.1,0.4,0,1,0.2,1.3c-0.2,0-0.3,0-0.4,0.1c-0.1,0.1-0.1,0.2,0.1,0.3 c0,0.2,0.2,0.4,0.2,0.6c0,0.6-0.3,1.2,0.1,1.8c-0.2,0-0.7-0.2-0.8,0.1c0.5,0.2,0.8,0.8,1.4,0.5c0,0.3,0.1,0.7,0.4,0.9 c-0.2,0-0.6,0.2-0.2,0.3c0.1,0.1,0.5-0.2,0.6-0.1c-0.1,0.4-0.1,0.8-0.1,1.2c0,0.4,0.2,0.7-0.4,0.6c0.1,0.2,0.3,1.2-0.3,1 c0.8,0.5,0.6,1.6,0.5,2.4c0,0.4,0.5,1.7-0.2,1.7c0.6,0.4,0.3,1,0.3,1.5c0,0.1,0.1,0.5,0.1,0.6c0,0.2-0.1,0.3-0.2,0.5 c-0.2,0.5-0.1,0.8,0,1.4c0.1,0.5,0.2,1-0.4,1.2c0.7,0.2,0.2,0.6,0.2,1.1c0,0.4,0.1,0.9,0,1.3c0,0.5-0.2,0.9-0.5,1.4 c-0.4,0.8-0.1,1.2-0.1,2c-0.1,0.6-0.5,1,0,1.6c0.2,0.2,0.4,0.3,0.5,0.5c0.1,0.2,0,0.7,0,0.9c0.1,0.6,0.3,1.4,0.1,2 c-0.2,0.6-0.4,1.1-0.3,1.8c0.1,1.5,0.4,2.8,0.2,4.3c-0.1,0.7-0.1,1.3,0.1,2c0.1,0.4,0.6,1.2,0.1,1.6c-0.3,0.2-0.7-0.1-0.9,0.2 c-0.1,0.3,0.3,0.3,0.4,0.5c0.1,0.3-0.1,0.5-0.2,0.8c-0.1,0.3-0.1,0.7,0,0.9c0.2,0.3,0.3,0.2,0.6,0.4c0.5,0.4,1,1.2,1.1,1.8 c0.1,0.5-0.3,1-0.3,1.4c-0.1,0.8,0.4,0.8,0.7,1.3c0.3,0.6-0.1,0.6-0.4,1c-0.4,0.4-0.3,0.6-0.1,1c0.2,0.4,0.5,0.7,0.6,1.1 c0.1,0.2,0.1,0.3,0.1,0.4c0,0.2,0,0.3,0,0.5c0,0.1,0.2,0.1,0.2,0.1c0.5,1.3,0.5,2.7,1.1,4c0.6,1.2,1.5,2.3,1.6,3.7 c0,0.7,0.4,0.8,0.6,1.3c0.2,0.6-0.1,1.4-0.1,2c0,0.7,0.5,1.2,0.9,1.8c0.4,0.6,0.5,1.3,0.9,1.9c0.8,1.1,2,2,2.5,3.3 c0.3,0.8,0.6,0.8,1.3,1.2c0.6,0.3,0.8,1,1.3,1.4c0.3,0.3,0.5,0.2,0.9,0.3c0.3,0.1,0.3,0.2,0.6,0.5c0.6,0.5,1.5,0.8,2.2,1 c1.7,0.4,3.9,0.6,5.6,0.1C118.6,422.7,120.1,421.9,121.2,421.6z M187.3,434c-0.2,0.2-0.3,0.9,0,1 C188.3,435.6,188.1,433.4,187.3,434z M159.1,427.3c-0.7,0.2-0.1,1,0.3,0.7C159.8,427.8,159.3,427.2,159.1,427.3z M185.2,427.5 c-0.1-0.2-0.7-0.1-0.9-0.1c0.1-0.3,0.1-0.9-0.4-0.8c0,0-0.3,0.5-0.4,0.5c0.8,0.2,1,0.8,0.9,1.5 C184.4,428.1,184.7,427.7,185.2,427.5z M203.6,418.8c-0.1-0.3-0.5-0.3-0.9-0.3C200.5,418.8,203.8,419.9,203.6,418.8z M175.7,412.6 c0-0.2-0.5-0.3-0.6-0.2C174.6,412.8,175.7,413.3,175.7,412.6z M174.9,404.8c0.4,0.2,1.2,0.1,1.2-0.3 C175.8,404.2,174.8,404.2,174.9,404.8z M156.1,396.8c-0.4,0-0.9,0.7-1.4,0.8c-0.2,0.1-1.1,0-0.8,0.6c0.2,0.4,2.5,0.5,2.3-0.3 c0.2,0.2,0.5,0,0.7,0C156.7,397.5,156.6,396.7,156.1,396.8z M170.6,397.1c0-0.4-0.6-0.5-1-0.3 C168.6,397.5,170.7,398.1,170.6,397.1z M173.4,395.1c0.3,0.3,1.2,0.3,1.3,0C175,394.5,173.4,394.3,173.4,395.1z M270.6,396.1 c0.5-0.4-0.4-1.6-0.8-1.2C269.5,395.2,270.2,396.4,270.6,396.1z M266.6,395.4c0.3-0.4-0.5-1.1-0.8-1 C265.3,394.7,266.3,395.8,266.6,395.4z M165.3,391.2c-0.3,0.8,0.3,2.6,1.4,1.7c0.4-0.3,0.7-1.2,0.4-1.6c-0.1-0.2-0.3-0.1-0.5-0.3 c-0.3-0.1-0.3-0.5-0.7-0.4C165.8,390.7,165.3,391.2,165.3,391.2z M160.4,387.5c0-0.1,1.1-0.1,0.4-0.5c-0.3-0.2-0.6,0.1-0.6,0.5 c0,0.3,0.2,0.7,0.6,0.5c0.1-0.1,0.3-0.2,0.2-0.4C160.8,387.5,160.4,387.5,160.4,387.5z M278,390.4c0.3-0.6,0.9-0.8,1.2-1.4 C278.7,389.3,277.7,389.8,278,390.4z M165,386.4c0.4-0.6-0.3-0.6-0.3-0.6C163.1,385.6,164.6,387.1,165,386.4z M161,385.4 c-0.2,0.1-0.6-0.1-0.8,0.1c0.7,0.3,2-0.4,0.7-0.7C160.9,385.1,161.1,385.2,161,385.4z M159,385.2c-0.2,0.1-0.2,0.3,0,0.4 c0.2,0.1,0.7-0.1,0.9-0.2c-0.1,0-0.4-0.1-0.4-0.2c-0.2-0.3,0-0.1,0-0.4c0-0.3,0.2-0.2,0-0.4c-0.2-0.2-1.1,0-1.4-0.1 C158.1,384.9,158.7,384.9,159,385.2z M162.1,384c0.7,0.5,0.7-1.2,0.1-0.7C162.1,383.4,161.8,383.8,162.1,384z M170.5,377.9 c-0.2,0.2,0,0.5,0,0.7c0,0.2-0.2,0.4-0.2,0.5c-0.1,0.5,0.5,0.8,1,0.6c0.9-0.3,0.5-0.8,0.2-1.4C171.3,377.9,171,377.4,170.5,377.9z M177.8,377.8c0,0.2,0,0.7,0.1,0.9c0.1,0.3,0.8,0.5,1,0.1c0.1-0.1-0.1-0.3-0.1-0.5c0-0.1,0.2-0.2,0.2-0.3c0-0.5-0.3-0.8-0.8-0.9 C178.1,377.4,177.9,377.6,177.8,377.8z M130.1,373.8c-0.1-1-1.7-1.4-2.5-1.4c-1.3,0.1-2.3,1.8-1.6,2.9c0.6,0.9,1.8,1.9,2.9,1.1 C129.8,375.7,129.8,374.7,130.1,373.8z M189.4,372.7c-0.6,0.3-0.2,1.2,0.1,1.5C190.1,374.7,190.3,372.2,189.4,372.7z M253.1,374.7 c0.3-0.3-0.3-1-0.5-0.8C252.4,374.1,252.6,374.7,253.1,374.7z M261.7,371.8c1.3,0.7,1-1.8-0.1-1.1 C261.4,370.9,261.4,371.6,261.7,371.8z M124.7,362.6c-0.2-0.3-0.9-0.3-1.2-0.1C122.1,363.4,125.4,363.9,124.7,362.6z M192.2,363.8 c0-0.4-0.4-0.4-0.7-0.3C190.5,363.8,192.2,364.5,192.2,363.8z M256.1,363.6c0.3-0.1,0.4-0.9-0.1-0.7 C255.5,363.1,255.7,363.7,256.1,363.6z M153,359.6c-0.2,0.3-0.4,0.6-0.4,0.9c0.1,0.1,0.2,0.2,0.2,0.3c0,0.1-0.1,0.2-0.1,0.3 c0,0.4,0.2,0.9,0.1,1.4c0,0.6,0,1,0.9,0.9c0.8-0.1,0.6-0.5,0.4-1.1C153.9,361.6,154.6,358.8,153,359.6z M263.4,362.1 c-0.2,0.3,0.3,0.8,0.5,0.8C264.7,362.8,263.7,361.6,263.4,362.1z M278.4,361.5c0.6-0.1,0.2-1.5-0.4-1.1 C277.4,360.6,277.9,361.6,278.4,361.5z M88.7,355.7c0.5,1,2.1-1.3,0.7-1.1C89.1,354.6,88.4,355.2,88.7,355.7z M87,357 c0.5-0.5,1.1-1.1,1-1.9c0-0.6-0.3-1.3-0.7-1.8c-0.6-0.5-1.2-0.4-1.9-0.3c-0.3,0.1-0.5,0.1-0.8,0c-0.3-0.1-0.6-0.3-1-0.2 c-0.1,0.3,0.5,0.4,0.5,0.7c0,0.4-0.3,0.2-0.3,0.5c-0.1,0.3,0.3,0.9,0.2,1.3c0,0.3-0.1,0.7-0.4,0.9c0.7-0.3,1,0.4,1.6,0.6 C85.8,357.1,86.3,356.6,87,357z M173.1,355.6c0.3,0.6,1.8,0.1,1.6-0.6C174.4,354.4,172.4,355.1,173.1,355.6z M86.7,352.6 c0-0.8-1.2-0.5-1.8-0.7C85.4,352.4,86,352.6,86.7,352.6z M83.4,352.6c-0.2-0.2-0.4-0.5-0.3-0.8c-0.4-0.1-0.5,0.7-1.2,0.4 C81.7,353,83.1,352.7,83.4,352.6z M81.4,350.9c-0.1,0.5,1.1,1,1.5,0.6C82.7,350.7,82,351.3,81.4,350.9z M225.4,354 c0.1-0.6-0.3-1.2-0.9-1.4C224.7,353.2,224.8,353.9,225.4,354z M80.4,342.6c0-2-2.1-1.1-2,0.5c0,0.7,0.5,1,1.2,1 C80.5,344.1,80.5,343.4,80.4,342.6z M165.8,341c-0.9,0.5,0.1,2.2,1.1,1.5C167.6,342,166.5,340.4,165.8,341z M231.4,342 c-1-0.4-0.6,1.1-0.4,1.5c0.4,0.6,0.9,1.1,1.3,1.7c0.2,0.3,0.4,1.2,0.8,1.3c1.2,0.3-0.3-2-0.4-2.3 C232.3,343.4,232.2,342.4,231.4,342z M269.1,340.5c0.3,0.4,1.5,2.4,2,1.9c0.5-0.5-0.8-1.6-1.1-1.9c-0.2-0.3-0.7-1.5-1.2-1.3 C268.3,339.3,268.8,340.4,269.1,340.5z M239.2,337c0.1,0.2,0,0.5,0.2,0.7c0.1,0.1,0.3,0.2,0.4,0.3c0.3,0.3,0.4,0.8,0.7,1.2 c0.6,0.7,1.5,1.3,1.9,2.2c0.3,0.6,0.5,2,1.6,1.5c1-0.5-0.1-1.4-0.5-1.7c-0.4-0.4-0.7-0.8-1-1.3c-0.3-0.5-0.3-0.8-0.4-1.3 c-0.1-0.4-0.5-0.7-0.8-1.1c-0.4-0.4-0.7-0.8-1-1.2c-0.2-0.3-1.2-1.8-1.6-0.8C238.3,335.8,239,336.8,239.2,337z M289.4,334.5 c-0.3-0.1-1-0.3-1.2-0.1C288.4,334.6,289.1,335,289.4,334.5z M291.1,333.7c0-0.4-0.8-0.4-0.9-0.4C289,333.6,291,334.5,291.1,333.7 z M220.4,330.7c0.4-0.3-0.2-1.5-0.7-1.1C219.5,329.9,219.9,331,220.4,330.7z M195.6,327.8c0.2-0.4-0.4-0.6-0.6-0.5 C194.4,327.7,195.4,328.2,195.6,327.8z M208.4,324.7c0,1.1,1.4,2.3,1.9,3.4c0.2,0.5,0.4,1.4,0.8,1.7c1.1,0.8,0.2-1.1,0.1-1.4 c-0.3-0.7-0.8-1.3-1-2c-0.1-0.3-0.1-0.8-0.2-1.1c-0.2-0.5-1.5-1.7-1.5-0.4C208.3,324.8,208.4,324.7,208.4,324.7z M79.6,317.5 c0.1-0.2,0.6-0.5,0.6-0.8c0-0.5-1-0.5-1.3-0.3c-0.5,0.4,0.2,1.4-0.4,1.6C79.2,318.4,79.3,318,79.6,317.5z M277.8,315.5 c-0.3,0.3,0.3,0.6,0.4,0.9c0.1,0.2,0,0.4,0.1,0.6c0.1,0.2,0.4,0.3,0.5,0.4c0.4,0.1,0.9,0.1,0.8-0.4 C279.5,316.4,278.4,315.4,277.8,315.5z M281.1,315.7c0.2-0.4-0.9-1.2-1.4-0.7C279.2,315.4,280.7,316.3,281.1,315.7z M175.8,314.2 c0,0,0.3,0.5,0.4,0.6c0.1,0.2,0.2,0.9,0.4,1c0.6,0.6,0.4-0.4,0.3-0.8c-0.2-0.5-0.5-0.9-0.6-1.4c-0.1-0.5-0.2-1-0.3-1.4 c-0.1-0.5-0.2-0.8-0.7-0.9c-0.7-0.1-0.8,0.3-0.7,0.8C174.6,312.8,175.3,313.9,175.8,314.2z M168.4,312.6c1.4,0.8,1-2-0.2-2.2 C168.4,311,167.9,312.2,168.4,312.6z M128.4,309.6c0.1-0.4,0.3-1.5-0.2-1.5c-0.7,0-1,1.9-1.1,2.4c0,0.1-0.6,2.2,0.2,1.6 c0.2-0.2,0.3-1.1,0.6-1.5C128,310.4,128.4,309.6,128.4,309.6z M261.4,311.1c0.3-0.4-0.7-1.2-1.1-0.8S261.1,311.5,261.4,311.1z M191,309.2c0.3-0.2,0.2-1.1-0.1-1.2C190.5,308.2,190.6,309.1,191,309.2z M81.4,304.7c-0.5,0.3-0.2,0-0.8,0 C79.9,305.6,81.9,305.6,81.4,304.7z M190.7,307.6c0.6-0.1,0.5-1.4,0.2-1.4C190.5,306.2,190.9,307.4,190.7,307.6z M262.4,307.4 c1,0.7,1.2-1.1,0.1-0.4C262.5,306.9,262.1,307.1,262.4,307.4z M168.1,306.2c-0.2-0.5-0.4-1.5-0.9-1.7c-0.8-0.4-0.7,0.8-0.7,1.2 c0,0.5,0.1,0.8,0.3,1.2c0.2,0.3,0.4,1.2,0.7,1.4c0.1,0.1,0.6,0.1,0.7,0c0.2-0.2,0.2-0.4,0.1-0.8 C168.4,307.1,168.2,306.5,168.1,306.2z M81.7,302.2c-0.4-0.3-1.1,0.3-1.2,0.7c-0.1,0.4,0,1.1,0.4,1.3 C82.1,304.8,82,302.6,81.7,302.2z M204.1,302.8c-1.1,0.5,0,2.3,0.6,2.7c0.6,0.5,0.9,0.2,0.9-0.6 C205.6,304,205.3,302.6,204.1,302.8z M240.8,302c-0.6,0.4,0.7,1.1,0.9,0.4C241.7,302,241,301.8,240.8,302z M208.9,301.1 c-0.6,0.6,0.3,1.5,0.6,1.9c0.2,0.4,0.7,1.5,1.2,1c0.5-0.4-0.5-1.4-0.7-1.8C209.9,302,209.5,300.6,208.9,301.1z M252.2,301.3 c-0.2,0.3,0.5,1.3,0.8,1.4c0.3,0.3,1.7,0.7,1.8,0C254.7,301.8,252.8,301.4,252.2,301.3z M195.4,305.2c0-0.4-0.5-0.8-0.7-1.1 c-0.2-0.5-0.3-1.1-0.6-1.5c-0.2-0.3-0.5-0.4-0.7-0.7c-0.2-0.3-0.3-0.6-0.5-0.9c-0.2-0.4-0.5-1.4-1-1.4c-0.8-0.1-0.7,0.9-0.5,1.3 c0.5,1.3,1.4,2.4,2.1,3.7c0.3,0.5,0.5,1.5,1,1.9C195.3,306.9,195.4,305.7,195.4,305.2z M175.9,299c-0.4,0.3,0.2,1,0.5,0.8 C176.7,299.6,176.2,298.7,175.9,299z M175.1,297.1c-0.3,0.2,0,1.6,0.9,1.4C176,298,175.7,296.8,175.1,297.1z M171.3,308.7 c1.6,0.7,0.6-1.6,0.4-2.1c-0.3-0.7-0.8-1.4-1.1-2.1c-0.2-0.6-0.2-1.2-0.3-1.7c-0.2-1.4-0.9-2.8-1.4-4.1c-0.2-0.6-0.7-2.2-1.6-1.6 c-0.8,0.5-0.1,1.9,0.1,2.6c0.5,1.4,1.1,2.6,1.8,3.9c0.4,0.9,0.7,1.9,1,2.9C170.4,306.9,170.7,308.4,171.3,308.7z M123.2,296.6 c0.5,0,0.3-1.4-0.2-1C122.6,295.8,122.7,296.6,123.2,296.6z M170.9,298c1-0.2,1.1-3.5-0.6-2.9C169.1,295.5,169.8,298.2,170.9,298z M202.2,295.2c-0.3,0.2-0.2,0.8,0.2,0.8C202.7,296,202.7,294.9,202.2,295.2z M229.4,293.7c0-0.3-0.6-0.3-0.7-0.3 C227.9,293.7,229.4,294.4,229.4,293.7z M226.8,293.2c-0.6,0.4,0.4,1.3,0.9,0.8C227.1,294,227.1,293.4,226.8,293.2z M121.6,295.6 c0,0.7,0,1.4,0,2.1c0,0.8,0,1.5-0.2,2.3c-0.1,0.4-0.4,1.2,0,1.6c0.3,0.4,0.7,0.1,0.9-0.2c0.2-0.5,0-0.9-0.1-1.3 c-0.1-0.9,0.1-2,0.1-3c0-0.3,0-0.7,0-1c0.1-0.8,1.6-8-0.3-7.6c-0.9,0.2-1,1.8-0.9,2.5c0.1,0.7-0.1,1.4,0.1,2.2 C121.4,293.8,121.6,294.7,121.6,295.6z M255.2,298c0.6,0.3,1.6,0.3,1.2-0.6c-0.3-0.8-1.4-1.4-2-1.9c-1.1-0.8-2-1.9-2.9-2.9 c-0.5-0.5-1-1.2-1.6-1.5c-0.6-0.3-1.8-0.3-1.6,0.7c0.2,0.9,1.5,1.8,2.2,2.3c1,0.6,1.9,1,2.6,1.9 C253.8,296.8,254.3,297.5,255.2,298z M271.1,292.9c-0.5,1.3,0.2,2.6,0.9,3.6c0.3,0.4,0.5,1,0.9,1.3c0.5,0.4,1.1,0.5,1.6,0.9 c0.9,0.8,0.7,2.1,2.2,2.3c1.3,0.2,2.1-0.7,1.6-1.9c-0.3-0.9-0.9-1.5-1.1-2.4c-0.2-1.1-0.6-2.1-1.1-3c-0.4-0.8-1.1-1.8-2-2.1 C272.9,291.2,271.8,292.1,271.1,292.9z M79.2,285.8c-0.2,0.4-0.7,0.5-0.9,0.9C78.8,286.8,79.6,286.5,79.2,285.8z M196.9,292 c-0.6-0.4-0.3-1.1-0.8-1.6c-0.5-0.6-0.3-0.4,0-1.1c0.6-1.5-2.1-2.6-2.1-0.9c0,0.3,0.3,0.7,0.2,0.9c-0.1,0.4-0.4,0.2-0.7,0.4 c-0.5,0.2-0.5,0.7-1.1,0.6c-0.3,0-0.7-0.2-1-0.2c-0.4,0-0.8,0.1-1.2,0.3c-0.8,0.4-1.1,1.4-1.1,2.2c0,0.8,0.3,1.7,0.6,2.4 c0.3,0.7,1,0.9,1.5,1.4c0.8,0.8,2,2.1,2.8,0.4c0.3-0.6-0.2-1.2-0.1-1.8c0.2-0.8,0.8-0.4,1.4-0.2c0.7,0.2,1.4,0.2,1.6-0.5 C197.1,293.7,197,292.8,196.9,292z M221.6,287.7c0.1-0.4-0.5-0.7-0.8-0.4C220.5,287.6,221.5,288,221.6,287.7z M120.4,290.1 c-0.5-2.3,0.8-4.8,0-7.1c-0.3-0.8-1-0.8-1.3,0c-0.3,0.9-0.3,2.1-0.1,3c0.2,1.1,0.5,2,0.3,3.1c-0.1,0.8-0.4,1.8-0.2,2.7 c0.1,0.7,0.8,1.1,1.3,0.3C120.7,291.5,120.5,290.7,120.4,290.1z M166.9,281.8l0.9-0.2C168.1,280.7,166.6,281.1,166.9,281.8z M195.3,280c-0.4,0.8-0.5,2.1,0.4,2.6c0.5,0.3,0.7-0.1,0.8-0.6C196.6,281.5,196.3,279.4,195.3,280z M219.9,282.1 c-0.4,0.7-0.9,0.9-0.7,1.8c0.1,0.7,0.6,1.4,1.3,1.7c0.7,0.3,1.6,0.2,2.3,0.1c0.8-0.2,1.2-0.7,1.5-1.4c0.6-1.4,0.1-3.1-1.4-3.7 c-0.7-0.3-1.3-0.1-2,0.2c-0.4,0.2-0.5,0.3-0.7,0.7C220,281.9,220,282.2,219.9,282.1z M207.5,280c0.2-0.1,0-0.8-0.2-0.8 C206.8,278.9,206.7,280.1,207.5,280z M201.3,277c-0.3,0.2,0,0.8-0.1,1.2c0,0.4-0.1,1.6-0.6,1.5c0,0.2,0.2,0.3,0.2,0.4 c0,0.2-0.2,0.5-0.1,0.6c0,0.3,0.6,0.7,0.2,1c0.5,0,0.5,0.9,0.9,1.2c0.1,0.1,0.2,0,0.3,0.1c0.1,0.1,0.1,0.2,0.2,0.3 c0.3,0.3,0.6,0.5,1,0.6c0.6,0.2,0.4,0,0.8-0.2c0.3-0.1,0.6,0,0.8-0.1c0.2-0.1,0.2-0.4,0.4-0.5c0.2-0.1,0.5,0.1,0.7-0.1 c0.4-0.4-0.2-0.6-0.5-0.4c-0.1,0.1-0.2,0.3-0.4,0.3c-0.5-0.1,0.2-0.5,0.2-0.5c0.4-0.3,1.1-0.5,1.1-1c0-0.5-1.1-1-0.3-1.5 c-0.4-0.3-0.6-0.8-0.6-1.2c0.3,0.2,0.7-0.1,1.1,0c-0.2-0.7-0.7-0.4-1.2-0.5c-0.4-0.1-0.6-0.2-0.9-0.6c-0.3-0.4-0.3-0.7-0.9-0.7 c-0.7,0-1.5,0.4-2.2-0.1C201.5,277,201.4,276.7,201.3,277z M228.8,277.4c0,0.8,0.6,2,1.5,2c0.8,0,1.4-0.7,1.5-1.5 C232,276.1,229.1,275.7,228.8,277.4z M154.7,273.6c-0.3,0.4-0.4,1.9,0.5,1.8C155.2,274.6,155.2,274,154.7,273.6z M216.2,274.1 c-0.1-0.1-0.6,0-0.7,0C213.9,274.6,217,275.2,216.2,274.1z M124.1,271.5c0.1-0.8,0.5-2.1,0-2.8c-0.3-0.4-0.7-0.4-1.1-0.2 c-0.5,0.3-0.6,0.9-0.6,1.5c0,0.6,0.2,1.3,0.2,1.9c0,0.6-0.4,1.2,0.1,1.6C124.1,274.8,123.9,272.1,124.1,271.5z M237.8,271.2 c0.3-0.5-0.4-0.8-0.8-0.5C236.3,271.1,237.6,271.5,237.8,271.2z M203,269.2c-0.6,0.6,0.5,1.7,0.8,0.8 C202.7,270.3,203.3,269.4,203,269.2z M83.6,271.6c0.3-1.3,1.5-4.9-0.7-5.3c-0.9-0.2-1.1,0.7-1.4,1.4c-0.2,0.7-0.8,1.3-0.5,1.9 c0.1,0.3,0.3,0.4,0.4,0.8c0.1,0.3,0,0.6,0,0.9c0,0.5-0.2,1.5,0.1,1.9c0.3,0.4,1.2,0.5,1.7,0.2C83.6,273.2,83.5,272.2,83.6,271.6z M223.8,271.4c-0.3-0.8-0.9-1.6-1.6-2.1c-0.6-0.4-1.8-0.5-2.4,0.1c-1,1.2,0.2,3.2,0.9,4.3c0.7,1,1.4,3.4,3.1,2.9 c1.2-0.4,0.9-1.4,0.6-2.3C224.1,273.4,224.1,272.4,223.8,271.4z M185.5,268.8c0.1-0.5-0.2-1-0.7-1.2 C184.7,268,184.8,268.8,185.5,268.8z M228.5,268.6c-2.4,1.3-1.5,5.4,0.5,6.6c1.1,0.6,2.4,0.5,3.2-0.5c1.1-1.3,0.7-2.7,0.7-4.2 c0.2,0.3,1.3,0.7,1.4,0.1c0.1-0.3-0.3-0.5-0.5-0.6c-0.3-0.3-0.5-0.6-0.7-0.9c-0.5-0.8-0.8-0.8-1.7-0.7 C230.4,268.4,229.2,268.1,228.5,268.6z M155.2,266.1c-0.5,0.3,0.1,1,0.4,0.5C155.8,266.4,155.5,265.9,155.2,266.1z M193.7,267.5 c0.7-0.4,0-2.2-1-1.3C192.2,266.7,193,268,193.7,267.5z M189,265.1c-0.7,0.2-1.1,2.1-0.1,2c0.4,0,0.8-0.6,0.9-0.9 C190,265.7,189.5,265.3,189,265.1z M270.9,267.2c0.4-0.5-0.7-0.5-0.6-0.5C269.6,266.9,270.6,267.6,270.9,267.2z M92.1,262.9 c0-0.5,0-1.4-0.6-1.6c-0.7-0.3-1,0.4-1.2,0.9c-0.2,0.6-0.2,1.3-0.2,1.9c0,0.5,0.4,1.2,0.1,1.7c-0.3,0.3-1.1,0.5-1.4,0.7 c-0.6,0.3-1.1,0.9-1.8,1.2c-0.5,0.2-1.4-0.1-1.4,0.8c0,0.7,1.1,1,1.7,0.9c0.6-0.2,1-0.8,1.7-0.9c0.7-0.2,1.5,0.1,2.3-0.1 c0.8-0.2,0.5-0.6,0.7-1.2c0.2-0.6,0.8-0.7,1.4-0.8c1.1-0.3,2.1-0.5,3.1-1c0.3-0.1,1-0.4,1-0.8c0-0.6-0.9-0.4-1.3-0.3 c-1.2,0.2-2.2,0.8-3.4,1.1C91.2,265.6,92,263.8,92.1,262.9z M176.1,291.2c0.4,0.4,0.7,1,0.6,1.5c-0.1,0.6-0.3,0.9-0.1,1.5 c0.3,0.8,0.5,2.1,1.7,1.8c2.4-0.6-0.7-4-0.9-5.2c-0.2-1.2,0.5-2.2,1.2-3.2c0.4-0.5,1-1.7,1.3-0.4c0.2,0.8-0.4,1.7-0.2,2.5 c0.2,0.8,1.2,1.1,1.5,1.9c0.5,1.1,1.2,3.1,0.7,4.3c-0.5,1-0.8,2.1-1.4,3.2c-0.5,1.1-0.3,2.6,0.6,3.4c0.4,0.4,1.1,0.4,1.7,0.3 c0.9-0.3,0.6-0.8,1-1.5c0.3-0.5,0.5-0.7,0.6-1.4c0-0.6-0.1-1.1-0.1-1.7c0-0.5,0.1-0.7,0.2-1.1c0.1-0.6-0.6-0.8-0.8-1.3 c-0.1-0.3,0-0.3,0.1-0.5c0-0.3-0.1-0.4-0.1-0.7c-0.1-0.6,0.1-1.2,0.2-1.8c0.3-1.3,0.2-2.6,0.5-3.9c0.1-0.4,0.1-0.3-0.1-0.7 c-0.2-0.4-0.2-0.3-0.1-0.6c0-0.1,0.1-0.2,0.1-0.3c0-0.1-0.2-0.1-0.2-0.2c-0.1-0.3-0.2-0.2,0-0.6c0.3-0.7,1.1-1.1,1.7-1.3 c0.3-0.1,0.7-0.1,1,0.1c0.2,0.1,0.3,0.4,0.5,0.4c0.4,0.1,1.2-0.2,1.7-0.2c0.7,0,1-0.3,1.5-0.7c0.2-0.2,0.7-0.2,0.9-0.4 c0.3-0.2,0,0,0-0.2c0-0.1-0.2,0-0.3-0.2c-0.1-0.4,0.4-0.2,0.5-0.2c0.1-0.4-0.2-0.2-0.4-0.4c-0.3-0.3-0.3-0.2-0.4-0.7 c-0.2-0.7-0.6-1.4-0.8-2.2c-0.4-1.4-0.4-2.7-1.1-4c-0.2-0.4-0.3-1-0.6-1.3c-0.1-0.1-0.3-0.2-0.4-0.3c0-0.1,0-0.2,0-0.3 c-0.1-0.1-0.3-0.3-0.5-0.4c-0.6-0.3-1.4-0.3-1.8-0.9c-0.4-0.6-0.2-0.9-0.9-1.2c-0.4-0.1-1.1-0.1-1.4-0.4c-0.3-0.3-0.1-0.6-0.2-0.9 c-0.1-0.3-0.2-0.3-0.3-0.6c-0.1-0.4,0.1-0.8,0-1.2c0-0.3-0.1-0.7-0.1-1c-0.2-0.9-0.4-1.8-0.8-2.6c-0.3-0.7-0.5-1.1-1.2-1.3 c-0.7-0.2-0.9-0.3-1.5-0.8c-0.6-0.5-1-0.4-1.7-0.5c-0.7-0.1-1.6-0.7-2.3-0.2c0.4-1-1.2-1.2-1.5-0.5c-0.2,0.5,0.4,0.8-0.2,1.1 c-0.2,0.1-0.6-0.1-0.9,0.1c-0.1,0.1-0.1,0.3-0.2,0.4c-0.2,0.2-0.4,0.3-0.6,0.6c-0.2,0.2-0.3,0.6-0.5,0.8c-0.1,0.1-0.4,0.2-0.5,0.2 c-0.2,0.1-0.1,0.4-0.3,0.5c0.1-0.1-0.5,0.1-0.4,0c-0.1,0.1-0.4,0.4-0.4,0.5c0,0.1,0.3,0,0.2,0.3c-0.1,0.3-0.5,0.1-0.5,0.3 c0.1,0.2,0.4,0.1,0.5,0.4c0.1,0.2,0.1,0.7,0.2,1c0.1,0.7,0.1,1.1-0.2,1.8c-0.3,1-0.4,1.8-0.2,2.9c0,0.3,0.3,1,0.1,1.3 c-0.2,0.3-0.3,0.1-0.6,0.2c-1.5,0.3-1.9,2.6-1.8,3.8c0.1,1.9,2.2,3.3,1.2,5.3c0.5,0.2,1.2,0.4,1.5,0.8c0.3,0.3,0.3,0.9,0.4,1.3 c0.3,0.9,1.2,1.6,1.2,2.5c0,0.6,0,0.9,0.1,1.4c0.1,0.4,0.1,0.6-0.1,1.1c-0.5,0.9-1.2,1.8,0.1,2.6c0.6,0.4,1.7,0.5,2-0.3 c0.2-0.5-0.1-1.2-0.2-1.8c-0.1-0.4-0.2-1,0.3-1.1c0.2,0,1,0.2,1.2,0.2C175.3,290.7,176,290.9,176.1,291.2z M219.9,262.4 c-0.5,1.2,0.3,1.7,1.4,2c1,0.3,2.4,1.3,3.3,0.4c1.3-1.2,0-3.1-1.6-3.1C222.4,261.7,220.2,261.6,219.9,262.4z M214.1,266.3 c0.4-0.2,0.7,0.1,1.1,0c0.3-0.1,0.8-0.6,1-0.8c0.4-0.5,0.5-0.8,0.3-1.4c-0.3-1-1.3-2.1-2.4-1.9c0-0.1,0.3-0.2,0.2-0.4 c-0.1-0.2-0.5,0-0.6,0c-0.7,0.2-0.5,0.2-1.1-0.3c-0.4-0.4-1-0.7-1.5-1c-0.5-0.3-0.9-0.1-1.4,0.2c-0.6,0.4-0.8,0.4-1.4,0.5 c-0.7,0.1-1,0.7-1.6,0.9c-0.5,0.2-1.1-0.1-1.6,0.1c-0.7,0.2-1.3,0.7-1.5,1.4c-0.1,0.6-0.1,1.5,0.5,1.9c0.2,0.2,0.6,0.1,0.9,0.3 c0.3,0.1,0.4,0.4,0.6,0.5c0.4,0.2,0.8-0.1,1.2,0c0.5,0.2,0.1,0.8,0.1,1.2c0,0.7,0.6,0.5,1.1,0.8c0.3,0.2,0.7,0.8,1.2,0.6 c0.6-0.2-0.1-1.2,0.5-1.3c0.4-0.1,0.7,0.7,1.1,0.8c0.6,0.2,0.8-0.2,1.2-0.5c0.5-0.3,0.9-0.1,1.4-0.4 C213.6,267.1,213.7,266.4,214.1,266.3z M231.9,259.6c-0.5,0.1-0.7,0.3-1.1,0.6c-0.4,0.3-0.7,0.3-1.2,0.4c-1,0.4-1,2.2-0.3,2.9 c0.7,0.6,1.2,0.4,0.9,1.5c-0.2,0.6-0.2,0.9,0.3,1.4c0.5,0.5,0.9,0.7,1.6,0.6c0.9-0.1,1.1-1.2,0.8-2c-0.1-0.5-0.4-0.7-0.8-0.9 c-0.4-0.2-0.6-0.1-0.4-0.6c0.3-1,1.8-0.7,2.1-1.7C234.2,260.7,233.1,259.1,231.9,259.6z M204.6,260c0.6-0.8,0.7-2.4-0.5-2.5 c-0.6-0.1-1.4,0.2-1.5,0.9C202.3,259.3,203.6,260.6,204.6,260z M241.4,259.9c1,0.4,2.4,0.1,2.4-1.1c0-0.8-0.8-1.5-1.6-1.6 C240.6,256.9,240,259.3,241.4,259.9z M243.5,253.4c0.4-0.6-0.4-1.2-0.9-1C241.5,252.9,243.1,254.1,243.5,253.4z M164.3,251 c-0.3-0.3-1-1.6-1-0.7C163.3,250.7,164.2,251.8,164.3,251z M212.2,250.1c1-0.1,1-2.6-0.5-2.1C210.6,248.3,211,250.3,212.2,250.1z M167.1,250.6c2.1,0.4,2.7-2.2,2.4-3.8c-0.3-1.4-2.2-1.3-3.2-1.8c-0.6-0.3-1.1-0.9-1.9-0.4c-0.7,0.4-0.4,1.4-0.1,2 c0.4,0.8,0.8,1.6,1.4,2.3C166,249.4,166.5,250.4,167.1,250.6z M274.6,247.1c0.4,0.5,1.6,0.4,1.3-0.2 C275.8,246.5,274.8,246.7,274.6,247.1z M275,246.3c0-0.4-0.9-0.4-1.1-0.2C273.1,246.6,275,247,275,246.3z M120,248.5 c0.4,0.5,1-0.1,1.2,0.7c0,0.1-0.1,0.3,0,0.4c0,0.2,0.1,0.3,0.3,0.4c0.1,0.2,0.1,0.3,0.2,0.5c0.3,0.8,0.8,1.5,1.3,2.3 c0.3,0.4,0.6,0.8,0.8,1.2c0.2,0.3,0.2,0.5,0.3,0.7c0.4,0.7,1,1,1.2,1.9c0.2,0.8,0,1.6,0,2.4c0,0.9,0,2.2-0.4,3.1 c-0.1,0.3-0.4,0.5-0.5,0.8c-0.2,0.3-0.2,0.6-0.2,1c-0.2,0.7-1.8,3.6,0.3,3.2c0.8-0.2,0.5-0.7,0.7-1.2c0.2-0.5,0.7-0.9,0.9-1.4 c0.2-0.5-0.3-1.1,0-1.7c0.2-0.5,0.8-0.8,0.9-1.4c0.1-0.4,0-0.7,0.1-1.1c0.1-0.5,0.4-0.9,0.5-1.4c0.1-0.5,0-1.2,0.5-1.5 c-0.7-1-1.8-1.4-1.5-2.8c0.3-1.3,1.5-1.3,2.2-2.3c0.5-0.7,0.6-1.6,1-2.3c0.6-1,1.1-0.4,2-0.3c0.5,0.1,0.6-0.1,0.8-0.5 c0.1-0.1,0.1-0.4,0.2-0.5c0.2-0.3,0.3-0.1,0.6-0.3c0.7-0.5,0.8-1.6,1.2-2.4c0.3-0.6,0.6-1.2,0.5-1.8c0-0.4-0.2-0.8-0.1-1.2 c0.1-0.5,0.4-0.5,0-1c-0.3-0.3-0.7-0.4-0.7-0.9c-0.5,0.4-0.8-0.1-1.3-0.1c-0.4,0-0.9,0.3-1.2,0.5c-0.3,0.2-0.4,0.4-0.7,0.2 c-0.3-0.1-0.4-0.8-0.5-1.1c-0.3-0.8-0.4-1.9-1.2-2.4c-0.9-0.7-2.2-0.6-3.2-0.8c0.3-0.2,0.6-0.1,0.4-0.6c-0.1-0.3-0.2-0.4-0.5-0.3 c-0.7,0.2-0.3,0.8-1.2,0.8c-0.7,0-1.5-0.3-2.3-0.2c-0.4,0.1-0.4,0.3-0.6,0.4c-0.4,0.3-0.3,0.1-0.7-0.1c0.2,0.8-0.3,0.6-0.6,1 c-0.2,0.3,0,0.5-0.3,0.8c-0.2,0.1-0.5-0.1-0.6,0.3c0.5,0,0,0.6-0.1,0.9c-0.1,0.7,0,1.4,0.1,2c0,0.8,0,1.5,0.2,2.3 c0.1,0.4,0.5,1.2,0.3,1.6c-0.1,0.2-0.3,0.2-0.3,0.4c0,0.1-0.2,0.5-0.1,0.4c0,0-0.7,0.5-0.3,0.4c0.4,0,0.9-0.7,1.2-0.1 C120.6,247.7,120,248.2,120,248.5z M166.1,237.2c-0.5,0.4,0.3,1.1,0.7,0.8C167.1,237.8,166.7,236.6,166.1,237.2z M294.7,241.1 c0.6-0.4-0.5-1.2-1.3-1C293.4,240.6,294.4,241.4,294.7,241.1z M136.7,238.1c0.6-0.1,0.2-2.4-0.4-1.9 C135.7,236.6,135.9,238.3,136.7,238.1z M134,235.5c0.2-0.1,0.1-0.9-0.3-0.6C133.2,235.1,133.8,235.6,134,235.5z M212.8,237.6 c1,0,0,0.8,0.2,1.2c0.2,0.4,0.5,0,0.7-0.1c0.3-0.1,0.4-0.1,0.7-0.1c0.1,0,0.2-0.2,0.3-0.2c0.2-0.1,0.5,0,0.7-0.1 c0.4-0.2,0.3-0.2,0.2-0.6c-0.3-1.1-0.6-1.2-1.4-0.5C213.8,236.5,212.8,237,212.8,237.6z M162.4,231.6c-0.7,0.3,0.4,1.6,0.8,1.3 C163.6,232.6,163,231.3,162.4,231.6z M170.1,227.6c-0.3,0.4,0.5,1,0.7,0.7S170.4,227.1,170.1,227.6z M120,225.9 c-0.4,0.2-0.2,1.3,0.5,1.1C121.3,226.8,120.9,225.4,120,225.9z M123.8,225.4c0.9,0.9,2.4-1.1,0.9-1.8 C123.7,223.1,123.2,224.8,123.8,225.4z M293.2,228.5c-0.6,0.4-1-0.3-1.5-0.5c-0.7-0.3-1.6,0-2.2,0.5c-1.4,1.2-0.7,3.1,0.7,3.9 c0.8,0.5,1.4,0.4,2.2,0.2c0,0,0.7,0,0.7,0c0.4-0.2,0.1-0.3,0.3-0.5c0.3-0.3,0.7-0.1,0.8-0.6c0.1-0.4-0.4-1,0-1.3 c-0.2-0.1-0.4-0.2-0.3-0.5c0.5,0.1,1.1,0.5,1.7,0.3c0.4-0.1,1-0.7,1.1-1c0.2-0.7-0.4-1.3-1-1.6c-0.5-0.2-1.3-0.5-1.8-0.2 C293.4,227.3,293.8,228.2,293.2,228.5z M119.2,221.7c-0.8-0.5-0.9,1-0.4,1.4C119.8,223.9,119.4,222.1,119.2,221.7z M152.9,219.8 c-0.2,0.2,0.1,0.8,0.4,0.6S153.3,219.4,152.9,219.8z M206.8,217.1c-1.3-0.9-2.7,0.8-2.3,2.1c0,0.1,0.5,0.7,0.7,0.9 c0.5,0.5,1.4,0.9,1.9,0.3C207.6,219.7,207.5,217.7,206.8,217.1z M218,218.4c1.2-0.1,0.3-2.6-0.7-2 C216.3,216.9,217.1,218.5,218,218.4z M73.6,214.4c0.2-0.9,0.1-2.1-0.4-2.9c-0.5-0.8-1.3-0.6-1.8,0.1c-0.3,0.4-0.4,0.9-0.7,1.2 c-0.3,0.4-0.6,0.5-0.9,0.9c-0.1,0.2-0.1,0.5-0.3,0.7c-0.1,0.2-0.4,0.3-0.5,0.5c-0.2,0.3,0,0.6-0.3,0.9c-0.1,0.2-0.9,0.5-0.6,0.9 c0.2,0.3,0.6,0,0.7-0.1c0.2-0.2,0.3-0.4,0.6-0.3c0.4,0.1,0.5,0.7,0.7,0.9c0.5,0.7,1.6,0.9,2.2,0.3 C73.1,216.6,73.5,215.3,73.6,214.4z M246.4,214.6c-0.4-0.1-1,0.5-0.3,0.6C246.5,215.3,246.8,214.9,246.4,214.6z M121.9,231 c0,0.9,0.2,1.8,0.1,2.7c-0.1,0.7-0.2,1.4-0.1,2.1c0.1,0.5,0.3,1.1,0.9,1.1c0.5,0,0.4-0.3,0.7-0.6c0.2-0.2,0.2-0.2,0.4-0.3 c0.1,0,0.3,0.2,0.3,0.1c0.1-0.3-0.2-0.3-0.3-0.4c-0.2-0.2-0.2-0.1-0.3-0.4c-0.2-0.7-0.2-1.7-0.2-2.4c0-0.7,0.2-1.4,0.2-2.1 c0-0.5-0.3-0.8-0.5-1.3c-0.2-0.7,0.2-1.4,0.2-2c0-0.6-0.3-1-0.2-1.7c0.2-1.3-0.2-2.5,0.1-3.8c0.1-0.6,0-1.1,0.1-1.7 c0.1-0.3,0.2-0.5,0.3-0.8c0.1-0.4,0-0.5-0.1-0.9c-0.2-1-0.1-2,0-3c0.1-1.5,0.5-4.3-1-5.3c-0.2,1-0.8,1.8-0.8,2.8 c0,0.3,0.1,0.6-0.1,0.8c-0.3,0.2-0.7,0-1,0.3c-0.4,0.4-0.1,1.4-0.1,1.9c0.1,0.8,0.3,1.6,0.5,2.3c0.2,0.7,0.3,1.5,0.4,2.3 c0.2,1-0.1,2,0,3c0.1,1.4,0.6,2.6,0.5,4c0,0.6-0.1,1.3-0.1,1.9C122,230,122.1,230.8,121.9,231z M79.2,208.7 c-0.1-0.3-0.2-0.4-0.8-0.2C77.2,209,79.4,209.5,79.2,208.7z M234.1,212.3c0.5-0.2-0.1-1.2-0.7-0.9S233.7,212.5,234.1,212.3z M295,212.9c0.2,0.1,1.1,0.2,1-0.2C295.8,212.5,295.1,212.5,295,212.9z M228,213.2c1.4-0.3,1.2-3.9-0.9-2.5 C226.1,211.4,226.8,213.4,228,213.2z M256.1,210.3c-1.1-0.7-3.5-0.4-4,1c-0.2,0.6,0.3,1.2-0.3,1.6c0,0-0.7,0-0.3,0.2 c0.2,0.1,0.5-0.1,0.7,0.1c0,0-0.1,0.3-0.1,0.4c0,0.2,0.1,0.3,0.2,0.5c0.2,0.3,0.5,0.6,0.7,0.9c0.2,0.3,0.3,0.5,0.5,0.7 c0.2,0.2,0.4,0.5,0.6,0.7c0.6,0.6,1.7,0.8,2.5,0.4c0.6-0.4,0.8-1.1,1.5-1.4c-0.3-0.4-0.7-0.8-0.1-1.2c-0.4,0-0.2-0.6-0.3-0.9 c-0.1-0.2-0.4-0.3-0.4-0.5c0-0.2,0.2-0.3,0.3-0.4c0.1-0.5-0.3-0.6-0.6-1C256.6,211.1,256.6,210.5,256.1,210.3z M70.5,203.9 c-0.7,0.1-2,1.5-1.2,2.1C70.6,206.9,72.6,203.7,70.5,203.9z M216.5,207c-0.6-0.3-2-1.5-2.4-0.5c-0.4,0.9,1.9,1.1,1.2,1.7 C216,208.4,217.5,207.8,216.5,207z M291.8,207.6c0.1-0.6-1.5-0.9-2.1-0.6C289.9,207.6,291.7,208.6,291.8,207.6z M283.8,204.5 c0-0.3-0.8-0.4-1-0.3C282,204.6,283.8,205.3,283.8,204.5z M263,203.7c-0.1,0.1-0.2,0.7-0.2,0.9c0,0.1-0.1,0.2-0.1,0.3 c0,0.2-0.1,0.7-0.1,0.9c0,0.2,0.2,0.4,0.2,0.6c0.2,0.5-0.2,1,0.1,1.5c0.3,0.5,0.9,0.8,1.3,1.2c0.4,0.4,0.7,0.7,0.7,1.2 c0,0.3-0.4,0,0,0.3c0.2,0.2,0.8,0.1,1.1,0.1c0.2,0,0.7,0.3,0.9,0.3c0.4,0,0.2-0.1,0.4-0.4c0.3-0.4,1-0.4,1.2-0.9 c-0.1,0.1-0.2-0.2-0.2-0.2c0-0.2,0.1-0.1,0.1-0.3c0-0.2,0.2-0.3,0.2-0.5c0-0.1-0.1-0.2-0.1-0.3c0.1-0.2,0.3-0.4,0.3-0.7 c0.1-0.3,0.1-0.7,0-1c0-0.6-0.2-1.2-0.5-1.8C267.4,202.5,264.9,201.9,263,203.7z M211.4,200.8c-0.3-0.2-0.3-0.6-0.6-0.8 c-0.2-0.2-1-0.3-1.2-0.1c-0.5,0.5,0.6,1.2,0.9,1.4c0.3,0.2,1.9,1.3,2.1,0.5C212.8,201.4,211.7,201,211.4,200.8z M212.8,201.6 c0.1,0.4,0.5,1,0.6,1.3c-0.1,0.3,0,0.4,0.2,0.3c0.1,0,0.2,0,0.3,0.1c0.3,0,0.5,0.1,0.8,0.1c1,0.1,2.2,0.2,2.3-1 c0.1-1.1-0.6-2.7-1.6-3.2C214.1,198.5,212.3,200,212.8,201.6z M198.8,197.2c0.2,0.2,0.5,0.6,1,0.4 C199.8,197.2,199.1,196.8,198.8,197.2z M226.6,194c0.1,0.3,0.4,0.4,0.5,0.6c0.1,0.3,0,0.4,0.2,0.7c0.3,0.5,0.9,0.7,1.5,0.8 c1,0.1,2.1-0.3,2.6-1.2c0.6-1.3-0.7-3-1.9-3.4C227.9,191,226,192.2,226.6,194z M266.8,194.6c0,1.2,0.8,3.2,2,3.8 c0.8,0.4,2.1,0.2,3,0c1-0.2,1.7-1.3,1.7-2.4c0-1.7-1.1-3.7-2.8-4.2C268.7,191.2,266.4,192.6,266.8,194.6z M204.9,192.6 c0-0.2-0.2-0.4-0.2-0.6c-0.1-0.3,0.1-0.6,0-1c-0.1-0.2-0.2-0.4-0.3-0.6c-0.2-0.3-0.1-0.7-0.3-1c-0.2-0.5-0.7-0.8-1-1.2 c-0.3-0.3-0.4-0.7-0.8-0.8c-1.2-0.4-2.8,0.1-3.4,1.3c-0.1,0.3-0.1,0.4-0.1,0.7c-0.1,0.2-0.3,0.3-0.3,0.5c-0.1,0.5,0.2,1,0,1.5 c-0.2,0.7-0.5,0.3-1,0.5c-0.6,0.2-0.8,1.1-0.8,1.7c0,0.6,0.3,1.1,0.5,1.6c0.2,0.5,0.7,0.8,1.3,0.8c0.4,0,0.8-0.5,1.1-0.4 c0.2,0.1,0.1,0.1,0.2,0.2c0,0-0.1,0.2-0.1,0.2c0.1,0.2,0.2,0.3,0.3,0.5c0.6,0.9,1.1,2,2.3,2c1.1,0,1.8-0.7,2-1.8 c0.1-0.6,0.1-1.2,0.2-1.8C204.6,194.4,205.1,193.3,204.9,192.6z M231.6,188.7c-0.4,0.3-1,0.2-1.3,0.6c-0.3,0.4-0.2,1,0,1.3 c0.4,0.6,1.9,1.2,2.5,0.5c0.3-0.4,0.1-1,0.6-1.4c0.4-0.3,0.8-0.5,0.5-1.2C233.4,187.4,232.2,188.2,231.6,188.7z M205.9,185.2 c0.2,1.3,2.6,1.4,2.7-0.1C208.7,183.5,205.6,183.5,205.9,185.2z M205.6,181.4c0.7-1.3,0.1-3-1.6-2.8c-0.7,0.1-1.2,0.6-1.2,1.3 C202.9,181.1,204.6,182.7,205.6,181.4z M224.2,176.7c-0.1-0.5-1.2-0.4-1.6-0.1C222.8,177.1,224.3,177.3,224.2,176.7z M227.5,174.9 c0.5,0.7,1.2,0.2,1.2-0.6C228.7,173.1,226.8,174.1,227.5,174.9z M248.5,173.8c-0.1,1.9,3.4,2.9,4.4,1.5 C254.6,173,248.9,170.4,248.5,173.8z M215.3,172.5c-0.2-0.5-0.6-1-1.1-1.2c-0.6-0.2-1.1,0.1-1.6-0.1c-0.5-0.1-0.5-0.5-0.9-0.7 c-0.5-0.3-1.2-0.3-1.7-0.1c-1.6,0.7-0.9,3.3,0.5,3.7c0.4,0.1,1,0.1,1.3,0.4c0.4,0.3,0.1,0.5,0.2,1c0.3,1.2,1,0,1.5-0.2 c0.6-0.3,1.3,0.8,1.8,0.3c0.3-0.3,0-1.1,0-1.5C215.2,173.5,215.3,173,215.3,172.5z M228.7,169.8c1,0,0.8-1.8-0.3-1.2 C227.7,168.9,228.1,169.8,228.7,169.8z M59.7,169.1c0.3-0.4,0.3-1,0.5-1.5c0.2-0.5,0.6-0.7,0.8-1.2c0.5-0.8,0.5-1.8,0.9-2.7 c-1.4-0.2-1.7,1.5-2,2.5c-0.2,0.7-0.4,1.6-0.8,2.2c-0.2,0.3-0.4,0.4-0.6,0.8c-0.2,0.4-0.6,1.8,0,2.1 C59.5,171.8,59.6,169.4,59.7,169.1z M204.1,173.4c-0.7-0.7-2.5-0.3-2.2-1.7c0.3-1.4-0.1-2.7-1.1-3.8c-0.3-0.3-0.6-0.7-0.9-0.9 c-0.3-0.1-0.6-0.1-0.9-0.3c-0.3-0.2-0.5-0.5-0.9-0.7c-0.5-0.2-1.1-0.2-1.6-0.2c-1.4,0.1-2.4,1.2-2.8,2.5c-0.3,1.1-0.2,2.5,0.4,3.5 c0.7,1.1,2.2,1.3,1.9,2.9c-0.3,1.3-0.5,3.1,1.4,2.5c0.7-0.2,1.3-0.7,1.5-1.4c0.1-0.4,0-1,0.3-1.3c0.7-0.8,1.3,1,1.5,1.4 c0.5,0.8,1.1,1.4,2,1.3c0.7-0.1,1.3-0.6,1.7-1.1C205.1,175.2,204.7,174.2,204.1,173.4z M220.1,169.1c0.2-0.4,0.8-1.6,1.4-1.8 c0.4-0.1,1,0.4,1.5,0.4c1.5,0,1.1-2.3,0.1-2.9c-0.5-0.3-1.2-0.4-1.7,0c-0.6,0.4-0.5,0.5-1.2,0.3c-1.4-0.5-2,0.1-2,1.6 c0.1,1.6-0.6,1.6-1.9,2c-0.4,0.1-0.8,0.3-0.7,0.8c0.1,0.5,0.7,0.6,1,0.9c0.3,0.3,0.4,0.8,0.8,1c0.5,0.3,1.2,0.4,1.7,0.2 c0.5-0.1,1-0.4,1.1-0.9C220.4,170.2,220,169.7,220.1,169.1z M281.7,168.8c0.3,1.4,1.6,3.6,3.3,3.1c1.4-0.4,1.7-2.2,1.4-3.5 c-0.2-1.1-1-2.2-2.2-2.4c-0.7-0.1-1.5,0.2-2,0.8C281.7,167.4,281.8,168.2,281.7,168.8z M227.1,165c0.5,0,0.7-0.4,1-0.7 c0.3-0.2,0.8-0.2,0.8-0.6c0-0.5-1.2-0.7-1.6-0.9C225.4,162.2,225.6,165,227.1,165z M57.6,162.4c-0.1-0.1,0.8-1.6,1-1.8 c0.4-0.5,0.9-1.1,0.8-1.9c-0.5,0.1-1.7,1.1-1.4,1.6c-0.4,0.6-0.7,1.3-1,1.9c-0.3-0.1-0.9,0.9-0.5,1.2 C57.1,163.8,57.7,162.9,57.6,162.4z M58.2,157.6c-0.4,0.2-1.3,1-1.1,1.3S58.3,158.2,58.2,157.6z M196.7,162.8 c0.3,0.6,1.6,1.6,2.4,1.1c0.7-0.5,0.6-2,0.1-2.6c-0.4-0.6-1.3-0.9-2-0.4C196.6,161.4,196.6,162.2,196.7,162.8z M260.1,162 c-0.6,0.1-1,0.2-1.2,0.8c-0.1,0.5,0.1,1.1,0.3,1.5c0.5,0.9,1.7,1,2.6,0.8c1-0.2,1.6-0.7,1.1-1.7 C262.4,162.3,261.4,161.8,260.1,162z M233.1,162.4c0.5-0.9-1.2-2.2-2-1.6C229.8,161.6,232.6,163.4,233.1,162.4z M249.7,162 c0.6-0.8-0.7-1.9-1.4-1.4C247.1,161.3,249.1,162.7,249.7,162z M235.6,161.6c0.5-0.3,0.1-1.7-0.8-1.3 C234.1,160.6,235.1,161.8,235.6,161.6z M262.5,159.2c-0.1,0.5-0.1,1.5,0.3,1.9c0.4,0.3,0.8,0.4,1.1,0.8c0.8,0.9,2.3,0.4,3-0.5 C268.7,159.1,263.9,157.1,262.5,159.2z M60.6,154.8c0.3-0.5,0.9-0.8,1.1-1.5C60.9,153.3,60.4,154.4,60.6,154.8z M58,153.8 c0.6,0.3,1-0.9,0.3-0.8C58,153.1,57.6,153.6,58,153.8z M49.8,151.8c-1,0.5-0.3,2.8,0.8,2.5C51.7,154,51.1,151.1,49.8,151.8z M249.1,157.3c0.3-0.4-0.5-1.5-0.8-1.7c-0.5-0.3-1.7,0-1.6,0.7C246.8,157.1,248.7,157.8,249.1,157.3z M243.2,157.1 c0.4-0.8-0.8-2-1.6-2c-0.7,0-1.4,0.4-1.1,1.2c0.2,0.6,0.9,1,1.5,1.2C242.3,157.5,243.4,157.6,243.2,157.1z M252.9,151.6 c-1.2,0.3,0.2,1.5,0.7,0.9S253.1,151.6,252.9,151.6z M54.3,145.6c-0.5-0.7-1.9,0.4-0.9,0.9C54.1,146.8,54.7,146.3,54.3,145.6z M201.4,150.1c0.2-0.9,1-1.2,0.5-2.2c-0.4-0.8-1.6-1.1-2.4-0.7c-0.9,0.4-0.5,1.1-0.5,1.9c0,0.7-0.9,1.4-0.6,2.2 c-0.7-0.3-2.3-0.5-2.8,0.4c-0.3,0.6,0.1,1.1,0.2,1.6c0.1,0.7-0.3,0.6-0.6,1c-0.6,0.8-0.2,2.2,0.2,3c0.2,0.3,0.3,0.4,0.6,0.6 c0.3,0.2,0.5,0.3,0.7,0.6c0.1,0.2,0.1,0.4,0.2,0.6c0.3,0.3,1.6,0.5,1.8,0.2c0.3-0.4,0-0.9,0.4-1.4c0.4-0.4,0.9-0.6,1.2-1.1 c0.3-0.5,0.2-1.1,0.2-1.7c0-0.5-0.1-1,0.4-1.3c0.3-0.2,0.9,0,1.1-0.3c0.4-0.4-0.2-1-0.3-1.3C201.5,151.5,201.4,150.6,201.4,150.1z M44.4,142.5c-0.6-0.4-0.9,1.6-1.5,1.6c0.5,0-0.4,1.1,0,1.4c0.3,0.2,0.7-0.2,0.8-0.4c0.3-0.5-0.2-0.6-0.1-1.1 C44.2,144.2,44.8,142.8,44.4,142.5z M273.3,149.8c0.7,1.5,2.4,2.5,4.1,2.2c0.6-0.1,1.3-0.4,1.8-0.8c0.7-0.5,0.5-1.1,0.2-1.8 c-0.7-1.7-2.4-2.7-4.2-2.3C273.8,147.3,272.8,148.4,273.3,149.8z M197.7,147.9c0.1-0.4,0.4-1,0.3-1.4c-0.1-0.3-0.4-0.4-0.4-0.8 c0-0.3,0.5-0.6,0.2-1c-0.2-0.3-0.5-0.2-0.8-0.3c-0.4-0.1-0.7-0.2-1-0.5c-0.2-0.2-0.2-0.4-0.6-0.4c-0.2-0.1-1.2,0-1.4,0.2 c-0.2,0.3,0,0.6,0.1,0.9c0.4,0.8,0.1,0.8-0.3,1.5c-0.5,0.7,0,0.9,0.3,1.5c0.3,0.9,0.6,1.3,1.6,1.3 C196.7,149,197.1,148.4,197.7,147.9z M209.8,148.9c-0.5-0.9-1.7-1.2-2.5-0.6c0.8-1.6-0.3-2.3-1.2-3.5c-0.4-0.6-0.7-1.3-1.3-1.7 c-0.7-0.5-1.8-0.4-2.4,0.2c-0.5,0.6-0.5,1.3-0.2,1.9c0.3,0.6,0.6,1,0.8,1.7c0.2,0.8,0.4,1.5,1.2,1.9c0.8,0.5,1.8,0.4,2.6-0.1 c-0.3,1.1,0.2,2.9,1.6,3C209.9,151.8,210.1,149.8,209.8,148.9z M265.8,146.2c0.6,0.1,2.4,0.2,2-0.8c-0.2-0.4-0.9-1.1-1.3-1.2 C264.6,143.6,264.1,145.8,265.8,146.2z M41.6,137.7c0.3-0.2,0-1.1-0.4-0.8C40.7,137.2,41.2,138,41.6,137.7z M195.1,138.5 c0.7-1.3,1.5-3.6-0.2-4.5c-0.6-0.3-1.3-0.3-1.8,0.2c-0.4,0.3-0.5,1-0.9,1.2c-0.6,0.4-1.3-0.2-2,0.2c-0.5,0.3-0.8,0.9-1,1.4 c-0.3,0.6-0.5,1.1-0.9,1.6c-0.5,0.6-0.9,1.1-0.8,2c0.1,0.7,0.3,1.3,0,2c-0.2,0.4-0.7,1-0.4,1.5c0.3,0.6,1.1,0.3,1.5,0 c0.5-0.4,0.6-0.6,1.3-0.6c0.8,0,1.4-0.1,2.1-0.7c0.4-0.4,1.1-1,1.3-1.5c0.3-0.7-0.1-1.7,0.4-2.3 C194.1,138.8,194.7,138.8,195.1,138.5z M284,134.8c-1.1,0.2-0.9,1.5,0,1.8c0.7,0.3,2,0.5,2.6,0.1 C288.1,135.6,284.7,134.6,284,134.8z M287.1,135.3c0.3,0.9,2.1,1.5,2.9,1.3c0.3-0.1,0.3-0.2,0.5-0.3c0.3-0.1,0.7-0.1,1-0.3 c0.5-0.2,0.6-0.7,0.3-1.2c-0.6-1-2.1-1.9-3.3-1.8C287.4,133.2,286.8,134.1,287.1,135.3z M229.8,132.2c-0.4,0.9,0,2.1,0.7,2.8 c0.7,0.8,1.7,0.6,2.4,1.2c0.5,0.4,0.7,0.7,1.2,1c0.4,0.2,0.8,0.3,1.1,0.7c0.3,0.4,0.2,0.7,0.8,0.9c0.4,0.1,0.8,0,1.1-0.4 c0.6-0.8,0.2-1.6-0.2-2.3c-0.3-0.5-0.6-1-0.8-1.5c-0.2-0.6-0.1-0.8-0.6-1.3c-0.8-0.8-1.8-1.5-2.9-1.8 C231.9,131.3,230,131.3,229.8,132.2z M179,125.4c1.6,0.6,2.2-2.2,0.6-2.1C178.6,123.3,178.1,125,179,125.4z M244.7,125.3 c0.8,0.6,1.5-0.4,1.3-1.2C245.7,122.8,243.8,124.2,244.7,125.3z M177,120.7c-0.9,0.4-0.6,2.4,0,2.6 C179.4,124.3,179,119.8,177,120.7z M146.4,115.2c-0.2-0.3-1.1,0-1.2,0.4C145.7,116.1,146.7,115.8,146.4,115.2z M283.6,121.2 c0.8,0,1.4-0.2,1.4-1.1c0-1.1-0.8-2-2-1.6C281.4,119,282.3,121.1,283.6,121.2z M230.9,115.8c-0.4,1.1,1.1,2.3,2.1,1.7 C234.4,116.6,232,114.4,230.9,115.8z M145.9,113c-1,0.8,0.5,2.1,1,1C147.3,113.4,146.6,112.6,145.9,113z M153.3,116.6 c2,0,2.2-4.1-0.3-3.5C151,113.5,151.7,116.5,153.3,116.6z M213.2,118.7c-2-0.6-2.3,0.8-3.3,2c-0.4,0.5-1,0.8-1.5,1.1 c-0.5,0.3-0.5,0.4-0.9,0c-0.6-0.5-0.6-1.4-1.4-1.7c-0.9-0.3-2,0.3-2.6-0.7c-0.4-0.7-0.6-1.8-1.6-1.8c-0.4,0-0.8,0.3-1.1,0.3 c-0.4,0-0.9-0.1-1.3-0.1c-0.5,0-0.9,0.1-1.4,0.1c-0.4,0-0.8-0.2-1.1-0.3c-0.5-0.1-0.4,0.2-0.9-0.2c-0.4-0.3-0.8-0.7-1-1.1 c-0.2-0.4-0.6-0.8-0.6-1.3c0-0.4,0.5-0.9,0.4-1.3c-0.1-0.4-1.2-0.4-1.6-0.3c-0.3,0.1-0.6,0.5-0.9,0.5c-0.4,0.1-0.6-0.3-0.9-0.4 c-0.3-0.2-0.7-0.1-1-0.3c-0.2-0.1-0.3-0.4-0.5-0.6c-0.7-0.5-2.2-0.6-2.8,0.1c-0.2,0.3-0.3,0.6-0.5,0.9c-0.1,0.2-0.2,0.4-0.4,0.5 c-0.3,0.2-0.5,0-0.8,0.1c-0.4,0.2-0.3,0.4-0.5,0.8c-0.2,0.4-0.4,0.7-0.7,1.1c-0.3,0.4-0.4,0.7-0.3,1.1c0.1,0.8,0.1,0.9-0.2,1.7 c-0.2,0.5-0.1,0.8,0.2,1.2c0.3,0.5,0.3,0.6,0.4,1c0.1,0.4,0.5,0.6,0.7,1c0.3,0.5,0.2,1.2,0.2,1.7c0,0.4-0.1,0.9,0.1,1.4 c0.1,0.3,0.5,0.5,0.6,0.8c0.1,0.4-0.3,1-0.4,1.3c-0.1,0.4-0.2,0.9,0,1.4c0.2,0.6,0.9,1.1,1.5,0.6c0.7-0.5,0.3-1.8,0.6-2.5 c0.4-0.9,1.4-1.6,2.4-1.8c0.6-0.1,0.9,0,1.3,0.3c0.2,0.1,0.3,0.3,0.4,0.4c0.4,0.2,0.7,0.1,1.1,0.3c0.8,0.4,0.5,1.5,1.2,2 c0.4,0.3,0.9,0.4,1.2,0.8c0.4,0.5,0.5,1.2,0.4,1.8c-0.1,0.9-1,1.5-0.8,2.5c0.1,0.7,0.6,0.9,1.3,1c0.5,0.1,1.2,0,1.6,0.3 c0.5,0.3,0.2,0.3,0.4,0.7c0.2,0.4,0.5,0.5,0.7,0.9c1,2.5,3.5,1.1,5.4,1c0.5,0,1.1,0,1.5,0.3c0.2,0.2,0.4,0.4,0.7,0.6 c0.9,0.6,1,1.7,2.2,2.1c0.6,0.2,1.7,0.3,2.1-0.2c0.3-0.3,0.5-1.3,0.3-1.7c-0.4-0.9-1.5-1-1.4-2.2c0-0.5,0.3-1.1,0.1-1.7 c-0.1-0.2-0.3-0.3-0.3-0.5c-0.1-0.4,0-0.6,0.1-1c0.2-1-0.4-1.5-0.5-2.4c0-0.2-0.1-0.7,0-0.8c0.2-0.5,0.7-0.1,1.2-0.1 c0.6,0,1.2-0.2,1.8-0.2c0.4,0,0.7,0,0.8-0.5c0.6,0.4,1.1,1.1,1.7,1.5c0.3,0.2,0.6,0.2,1,0.3c0.3,0,0.6,0.3,0.8,0.3 c0.4,0.1,1.6-0.4,1.9-0.7c0.5-0.3,0.5-0.8,0.6-1.3c0-1.1-0.2-2.9-1.1-3.6c-0.3-0.3-0.6-0.2-1.1-0.3c-0.4,0-0.7-0.2-1-0.2 c-0.8-0.1-1.6,0.3-2.4,0.3c0-0.8,0.1-1.7,0.5-2.4c0.3-0.6,0.9-0.8,0.8-1.6c0-0.6-0.3-1.1-0.6-1.6 C213.8,119.2,213.3,119,213.2,118.7z M26.4,111.7c0.2-1.2,0.1-2.7-1.1-3.2c-1.3-0.6-2.8,0.2-2.9,1.6c-0.1,1.2,0.5,2.5,1.5,3.2 C25.3,114.2,26.1,113,26.4,111.7z M217.4,113.2c-0.2,1.5,2.2,2.2,3,1C221.4,112.7,217.8,111.4,217.4,113.2z M91,108.1 c0.2-0.2-0.1-1.1-0.5-0.6C90.3,107.7,90.8,108.3,91,108.1z M181.7,111.8c1.6,0.2,1.8-2.3,0.3-2.4 C180.2,109.4,180.6,111.7,181.7,111.8z M172.8,112.9c1.1,1,2.8,0.2,3-1.2c0.2-1.1-0.4-2.3-1.5-2.5 C172.5,108.8,171.4,111.9,172.8,112.9z M65.6,105.9c0.1,0.6-0.3,1.8,0.3,1.9C66.1,107.3,66.3,106.1,65.6,105.9z M152.8,108.3 c0.9-0.3,0.4-2.1-0.7-1.8C150.9,106.9,152,108.5,152.8,108.3z M143,106c-1,0.3-0.6,1.5-1.5,2c-0.5,0.3-1,0.3-1.2,0.8 c-0.3,0.5-0.1,0.7-0.7,0.9c-1,0.4-1.9,1-2.1,2.2c-0.2,1.4,0.9,1.7,2,1.7c1.1,0,2.3,0.5,3.4,0.1c1.5-0.4,1.5-2.1,2-3.3 c0.4-1.1,0.8-2.1,0.3-3.3C144.7,106.4,144.1,105.9,143,106z M80.4,105.1c0.4,0.4,1-1,0.3-0.7C80.6,104.4,80.1,104.8,80.4,105.1z M291.9,108.6c0.1,1,2.1,1.2,2.5,0.4C295.1,107.7,291.7,106.9,291.9,108.6z M21.5,92.8c0,0.6-0.6,1.5,0,1.8 C21.6,94,21.6,93.4,21.5,92.8z M128.7,98.9c1.8-1,2.6-3.4,1.2-5.1c-1-1.2-3.4-1-4.1,0.5C124.8,96.2,126.3,99.5,128.7,98.9z M63.7,90.3c-0.8-1-2.7-0.6-2.8,0.8c-0.1,0.7,0.5,1.6,1.1,1.9c0.7,0.4,1.2-0.3,2-0.2C63.9,92,64.2,91.1,63.7,90.3z M97.5,89.2 c-0.2,0.2-0.1,0.5-0.3,0.6c-0.1,0.1-0.3,0.2-0.3,0.2c-0.2,0.3-0.4,0.7-0.5,1.1c-0.3,1.1-0.1,1.9,0.8,2.7c0.5,0.4,2.1,1.3,2.7,0.9 c0.2-0.1,0.2-0.4,0.3-0.6c0.2-0.3,0.5-0.4,0.7-0.7c0.2-0.3,0.2-0.7,0.3-1c0.3-0.4,0.6-0.7,0.6-1.2c0-0.7-0.6-1.3-1-1.8 C99.8,88.3,98.7,88.6,97.5,89.2z M146.6,90.5c0.8-0.2,0.5-1.9-0.6-1.4C144.9,89.5,145.8,90.7,146.6,90.5z M221.1,91.9 c0.3-0.9-0.6-1.4-1.3-1.3C217.9,91.1,220.6,93.2,221.1,91.9z M133.9,88c-1.1,0.7,0.4,2.3,1,1.1C135.3,88.4,134.7,87.6,133.9,88z M77.4,87c0.3,0.4,1.1,0.1,1.5,0.1c0-0.4-0.6-0.9-1-0.9C77.6,86.3,77.6,86.7,77.4,87z M30.6,87c0.3-0.4,0-1.6-0.3-1.9 c-0.5-0.5-1.6-0.8-2,0c-0.3,0.7,0.2,1.6,0.8,1.9C29.6,87.4,30,87.2,30.6,87z M173.3,87.5c-0.3,0.1-0.6,0-0.9,0.1 c-0.3,0.2-0.4,0.5-0.6,0.8c-0.4,0.4-0.8,0.5-1,1.1c-0.6,1.4-0.7,3-0.3,4.5c0.5,2.1,3.2,2.1,4.8,1.2c2.1-1.1,3.5-3.3,2.5-5.6 c-0.5-1.1-0.8-1.8-1.9-2.2C175,86.9,174,86.9,173.3,87.5z M79.8,91c-0.1,0.3,0.1,0.6,0.2,0.9c0,0.4-0.2,0.8-0.4,1.1 c-0.2,0.3-0.4,0.7-0.6,1c-0.3,0.5-0.4,0.5-0.9,0.7c-0.1,0.1-1.2,0.8-0.8,0.9c0.3,0.1,1.1-0.8,1.5-0.9c0.1,0.7-0.7,1.2-0.5,1.9 c0.9-0.2,0.9-2.8,1.8-0.8c0.2,0.4,0.3,0.8,0.3,1.2c0,0.2,0,0.4,0,0.6c0,0.1-0.1,0.2-0.2,0.4c0,0.3,0.1,0.4,0.2,0.7 c0,0.2-0.3,0.6-0.2,0.8c0.3,0.6,0.5-0.2,0.6-0.4c0-0.1,0-0.4,0.2-0.4c0.4-0.1,0.2,0.3,0.3,0.5c0.4,0.3,0.9,0.1,1.3,0.4 c0.5,0.4,0,1.2,0.5,1.6c0.8,0.5,2.1-1.1,2.9,0c0.5,0.7-0.4,0.9-0.3,1.5c0.1,0.6,0.6,0.3,0.9,0c0.3-0.3,0.4-0.8,0.6-1.1 c0.4-0.5,1.2-0.6,1.8-0.9c0.4-0.2,0.9-1.1,1.3-1.1c0.7,0,0.5,1.2,0.5,1.6c0.6-0.5,0.5-1.5,0.7-2.2c0.1-0.4,0.2-0.8,0.6-1.1 c0.5-0.3,0.5-0.1,0.5,0.3c0,0.4-0.1,0.8,0.6,0.6c0.4-0.1,0.7-0.7,0.6-1.1c-0.1-0.5-0.6-0.6-0.4-1.2c0.1-0.4,0.5-0.9,0.9-1.2 c0.7-0.6,1.7,0.3,2.2-0.7c0.5-1-0.5-1.4-0.8-2c-0.1-0.3-0.2-0.5-0.4-0.7c-0.1-0.2-0.5-0.3-0.5-0.5c-0.1-0.4,0.1-0.5-0.2-0.9 c-0.1-0.2-0.4-0.3-0.5-0.5c-0.1-0.2,0.1-0.3,0.1-0.5c0-0.5-0.2-1.1,0.1-1.6c-0.9,0.2-0.9-0.8-1.5-1.1c-0.3-0.2-0.6,0-0.9-0.2 c-0.3-0.2-0.4-0.7-0.9-0.5c0-0.2,0-0.5,0-0.7c-0.5-0.1-0.6,0.7-1.1,0.3c-0.3-0.3-0.1-1-0.7-0.7c-0.2,0.1-0.1,0.4-0.4,0.4 c-0.1,0-0.3-0.3-0.4-0.3c-0.6-0.4-0.7-0.2-1.1,0.3c-0.2-0.4-0.9-0.2-1-0.7c0,0.6-0.4,0.9-0.9,0.9c-0.2,0-0.7-0.2-0.8-0.1 c-0.3,0.1-0.1,0.2-0.2,0.5c-0.2,0.3-0.1,0.1-0.4,0.3c-0.2,0.1-0.4,0.3-0.5,0.5c-0.3,0.3-0.6,0.6-1.1,0.5c0,0,0,0.1,0,0.1 c-0.7-0.3-1.4-0.3-2.2-0.3c-0.2,0-0.8-0.2-0.6,0.3c0.1,0.3,0.8,0.2,1.1,0.2c0.3,0,0.8-0.1,1.1,0.1c0.4,0.2,0.3,0.3,0.1,0.8 c-0.3,0.7-0.8,1.2-1.4,1.6c0,0.2,0.3,0.1,0.4,0.3C80.2,90.4,80,91,79.8,91z M157.4,87.6c-0.2,0.2-0.5,0.6-0.6,0.9 c-0.1,0.3,0,0.4-0.1,0.7c0,0.2-0.2,0.3-0.3,0.5c-0.2,0.4-0.1,0.9-0.1,1.3c0.1,0.7-0.1,1.5,0,2.1c0.1,0.4,0.3,0.8,0.4,1.1 c0.2,0.4,0.2,0.8,0.3,1.2c0.2,0.7,0.7,1.4,1.1,2c0.2,0.3,0.5,0.6,0.8,0.9c0.3,0.2,0.7,0.3,1,0.5c0.8,0.6,0.6,2.1,1.6,2.4 c0.6,0.1,1.1-0.3,1.4-0.7c0.1-0.2,0.3-0.4,0.4-0.7c0-0.3-0.1-0.5,0-0.8c0.1-0.3,0.4-0.5,0.5-0.8c0.1-0.3,0-0.6,0.2-0.8 c0.1-0.2,0.4-0.2,0.5-0.3c0.3-0.3,0.4-0.7,0.5-1.1c0.5-1.7,0.8-3.4,0.7-5.1c-0.1-0.8-0.4-1.2-0.6-1.9c-0.1-0.3-0.1-0.7-0.3-1 c-0.2-0.2-0.5-0.3-0.7-0.5c-0.2-0.3-0.2-0.6-0.5-0.8c-0.2-0.2-0.5-0.3-0.7-0.5c-0.1-0.1,0-0.2-0.1-0.3c-0.1-0.1-0.4-0.2-0.5-0.3 c-0.4-0.2-0.8-0.3-1.2-0.3c-0.9-0.1-1.8,0.3-2.5,0.9C158.3,86.4,157.5,87.6,157.4,87.6z M53.2,85.8c0.3,0.2,0.4-0.4,0.7-0.4 c0.1,0,0.2,0.2,0.4,0.3c0.7,0.2,1.1-0.5,1.5-0.8c0.3-0.2,0.4-0.2,0.5-0.5c0.1-0.3,0.3-0.6,0.4-0.9c0.1-0.2,0.1-0.2,0.1-0.4 c0-0.2-0.1-0.3-0.1-0.5c0.1-0.4,0.3-0.4,0.2-0.8c-0.1-0.3-0.4-0.5-0.5-0.8c0-0.1,0.1-0.2,0.1-0.4c-0.1-0.2-0.2-0.3-0.3-0.4 c-0.4-0.7-0.3-0.5-1-0.7c-0.3-0.1-0.5-0.4-0.8-0.5c-0.3-0.1-1.1,0-1.4,0.2c-0.1,0.1-0.2,0.3-0.3,0.4c-0.4,0.3-1,0-1.5,0.2 c0.6,0.6-0.2,1.2-0.5,1.7c-0.2,0.4-0.2,0.6-0.1,1.1c0,0.1,0.2,0,0.2,0.1c0,0.2-0.2,0.3-0.2,0.4c0,0.5,0.3,0.4,0.6,0.8 c0.2,0.4-0.1,1,0.1,1.3C51.7,86,52.8,84.7,53.2,85.8z M145.4,81.2c0.2-2.3-3.9-1.8-3,0.2C142.9,82.5,145.3,82.6,145.4,81.2z M237.9,79.9c-0.7,0.2-1,1.1-0.4,1.6c0.4,0.3,1.1,0.3,1.6,0.1C240.9,81,239.3,79.4,237.9,79.9z M184.5,78.6 c-1,0.2-2.3,0.6-2.4,1.9c-0.2,1.3,1.3,2.2,2.4,2.5c1.1,0.3,2.9-0.1,3-1.5C187.5,80.2,185.8,78.1,184.5,78.6z M288.5,80.6 c-0.6,1,1.3,1.5,1.9,1.1C291.5,80.9,289,79.9,288.5,80.6z M61.6,75c0.1,0.2,0.5,0.2,0.6,0.1c-0.3-0.8-1.3-0.2-1.5,0.3 C61.1,75.6,61.5,75.4,61.6,75z M57.9,73.3c0.3-0.4-0.5-1.5-1.1-1.1C56,72.8,57.5,73.8,57.9,73.3z M115.4,73.4 c-1.3,0.3-1.8,1.9-1.6,3.1c0.2,1.2,1.5,3,2.8,2.5c1.1-0.4,1.9-1.9,1.9-3.1C118.5,74.2,117,73.3,115.4,73.4z M34.8,72.8 c1-2.1-2.8-2.8-2.5-0.7C32.5,73.3,34.2,73.9,34.8,72.8z M113.1,72c-0.1-2.1-3.1-2.2-2.9-0.1c0.1,0.6,0.5,1.4,1.1,1.7 C112.3,74,112.9,72.8,113.1,72z M192.9,74.1c0.5,1,1.8,2.6,3.1,2.1c1-0.4,1-1.8,0.9-2.7c-0.2-1.3-1.5-2.8-3-2.2 C192.7,71.7,192.9,73.2,192.9,74.1z M171.1,65.2c-1.6,0.5-1,3.6,0.6,3.6C174.4,68.8,173.3,64.4,171.1,65.2z M175.6,65.4 c1.4,0.2,1.5-2.3-0.1-1.9C174.3,63.7,174.7,65.3,175.6,65.4z M73.8,81.2L73.8,81.2L73.8,81.2z M184.3,58.4c0,0.7,0.3,1.5,1,1.6 c0.6,0.1,1.4-0.2,1.7-0.7c0.5-1-0.9-1.6-0.9-2.5c-0.2,0.5-0.7,0-1,0C185,57.4,184.2,57.9,184.3,58.4z M90.5,57.4 c0-0.8-0.3-1.8-0.8-2.4c-0.2-0.3-0.6-0.5-0.9-0.7c-0.3-0.2-0.4-0.4-0.6-0.6c-0.4-0.4-1.3-0.7-1.7,0c-0.1,0.1-0.1,0.4-0.1,0.5 c-0.1,0.3-0.4,0.5-0.6,0.7C83.1,57.9,89.7,61.5,90.5,57.4z M23.5,47c-0.5,0.2-0.2,1.3,0.2,1C24.2,47.7,23.8,46.9,23.5,47z M15.5,46.6c0.1-0.4,0.7-0.8,0.4-1.4C15.8,45.6,15,46.2,15.5,46.6z M187.6,41.6c0.4-0.2,0.6-0.6,0.6-1 C187.7,40.6,187.5,41.2,187.6,41.6z M183.1,38.4c0.6-0.1,0.2-1.4-0.5-0.9C182.1,37.9,182.8,38.5,183.1,38.4z M18.4,41.3 c0.2,0,0.6-1.2,0.8-1.4c0.1-0.2,0.3-0.3,0.4-0.4c0.1-0.2,0.1-0.5,0.3-0.7c1.1-1.2,1.8,1.1,2.7,1.2c0.8,0,0.5-0.4,0.7-0.9 c0.2-0.4,0.7-0.4,1.1-0.8c0.6-0.6,0.8-2.2,1.7-2.3c-0.2,0.6,0.8,1.9,1.1,1c0.2-0.5-0.7-1.7,0-2.1c0.6-0.3,0.6,0.5,0.8,0.8 c0.3,0.4,0.7,0.5,0.9,1c0.2,0.4,0.1,1,0.3,1.4c0.2,0.4,0.9,0.5,0.7,1c0.9-0.3,1.4,0.9,2-0.1c0.3-0.5,0.5-0.6,0.8-1 c0.5-0.4,0.6-0.9,0.4-1.6c-0.2-0.8-1.2-1.7-2.2-1.5c-0.3,0.1-0.8,0.4-1,0.6c-0.3,0.3-0.3,0.5-0.8,0.6c0.3-0.8-0.3-1.1-0.6-1.7 c-0.2-0.4-0.2-0.8-0.1-1.2c0.1-0.4,0.3-0.6,0.5-0.9c0.3-0.4,0.4-0.7,0.5-1.3c0-0.3,0.1-0.6,0-0.9c0-0.2-0.3-0.4-0.3-0.5 c-0.1-0.5,0.3-0.3,0.5-0.6c0.3-0.5-0.1-0.3-0.1-0.7c0-0.5,0.4,0,0.6-0.4c0.2-0.4-0.4-0.4-0.6-0.5c-0.4-0.1-0.4-0.1-0.6-0.5 c0-0.1,0-0.3-0.1-0.4c0-0.1-0.2-0.1-0.2-0.2c0-0.3,0.3-0.3,0.4-0.5c0-0.3-0.3-0.4-0.5-0.5c-0.9-0.6,0-0.7-0.1-1.5 c-1.3,0.4-1.9-0.5-2.2-1.6c-0.4,0.1-0.6,0.5-1,0.4c-0.3-0.1-0.5-0.5-0.8-0.6c-0.3-0.2-0.7,0-1-0.1c-0.1,0-0.1-0.3-0.2-0.3 c-0.2,0-0.3,0.1-0.5,0.1c-0.9,0.2-0.6-0.3-1-0.9c-0.5-0.6-0.8,0.5-1,0.1c-0.1,0.2,0.3,0.9,0.1,1c-0.3,0.2-0.5-0.7-1-0.4 c-0.3,0.2-0.1,0.6-0.4,0.8c-0.4,0.2-0.5-0.3-0.8-0.4c-0.7-0.1,0,0.6,0,0.8c0.1,0.7-0.7,0.3-1.2,0.3c-0.4,0-0.7,0.1-1,0.1 c-0.5,0-1-0.6-1.4-0.5c-0.3,0-0.4,0.2-0.3,0.5c0.2,0.4,1.1,0.4,1.4,0.6c0.9,0.6-0.6,0.7-1,1c-0.3,0.3-0.2,0.6-0.4,0.9 c-0.1,0.1-0.3,0.1-0.4,0.1c-0.1,0.3,0,0.3,0.1,0.5c0.1,0.3,0.3,0.2,0,0.5c-0.1,0.1-0.4,0-0.5,0.1c-0.3,0-0.9-0.1-0.9,0.4 c0,0.5,0.6,0.4,0.8,0.7c0.4,0.4,0.1,0.8-0.2,1.2c-0.8,1-1.8,1.9-2.5,3c0.6,0,2.1-0.2,2.4,0.2c0.2,0.3-0.1,1.5,0,1.9 c0,0.7,0.2,1,0.6,1.5c0.3,0.3,0.3,0.3,0.5,0.7c0.2,0.5,0.4,0.5,0.1,1c-0.3,0.4-0.6,0.8-0.9,1.1c-0.1,0.2-1.1,1.1-0.6,1.3 c0.2,0.1,1-1.1,1.2-1.3c0.3,0.6,0.8,0,0.9-0.2c0.4-0.6,0.8-0.6,1.5-0.7c0.8-0.1,1.2,0.4,1.4,1.1c0.1,0.4,0.1,0.8,0,1.2 c-0.1,0.3-0.5,0.7-0.4,1.1C17.6,40.7,18.2,41.2,18.4,41.3z M51.7,13.2c-0.5,0.5,0.4,1.3,0.7,0.5C52.5,13.3,52.1,13,51.7,13.2z M6.4,4.4c0-0.9-0.2-2.2-0.8-2.8c-0.7-0.6-2.1-0.9-3-0.7C2.1,1,1.6,1.1,1.2,1.4C0.8,1.6,1,1.9,0.7,2.2C0.5,2.6,0.2,2.6,0.1,3 c-0.1,0.5,0.2,0.7,0,1.2C-0.1,5,0,5.4,0.5,6C1,6.5,1.7,7,2.4,7.2C4.2,7.8,6.2,6.2,6.4,4.4z M96.4,2.6c-0.5,1-0.4,2.5,0.5,3.3 c0.3,0.2,1.1,0.7,1.5,0.4c0.1-0.1,0.1-0.5,0.2-0.5c0.1-0.1,0.3-0.3,0.4-0.4C101.3,3.5,98.2,0.4,96.4,2.6z M66.9,4.1 c0.1,1.2,1.3,3.3,2.7,3.4c0.6,0,1.4-0.6,1.9-0.9c0.8-0.4,1.2-1.4,1.4-2.2c0.4-2-0.5-4.3-2.8-4.4C68,0,66.7,2.3,66.9,4.1z"></path> </g> </g> </svg> 