<?xml version="1.0" encoding="UTF-8"?> <svg xmlns="http://www.w3.org/2000/svg" width="1200" height="105" viewBox="0 0 1200 105" fill="none"> <path d="M0 21.0001L40 17.4892C80 14.1095 160 6.89076 240 12.2392C320 17.3908 400 35.1095 480 36.7501C560 38.3908 640 24.6095 720 26.2501C800 27.8908 880 45.6095 960 47.2501C1040 48.8908 1120 35.1095 1160 27.9892L1200 21.0001V105H1160C1120 105 1040 105 960 105C880 105 800 105 720 105C640 105 560 105 480 105C400 105 320 105 240 105C160 105 80 105 40 105H0L0 21.0001Z" fill="#2D2926"></path> </svg> 