<?xml version="1.0" encoding="UTF-8"?> <svg xmlns="http://www.w3.org/2000/svg" width="262" height="127" viewBox="0 0 262 127" fill="none"> <g clip-path="url(#clip0)"> <path d="M112.71 49.57V64.93L112.93 65L113.7 63.95C118.04 57.95 123.34 53.08 130.65 50.95C138.54 48.69 146.03 49.64 152.82 54.4C156.181 56.8252 158.627 60.3132 159.76 64.3C159.88 64.69 160.02 65.08 160.16 65.47C160.16 65.47 160.22 65.47 160.33 65.55C161.03 64.55 161.72 63.55 162.46 62.55C167.01 56.55 172.64 52.13 180.13 50.48C186.149 49.0558 192.48 49.8512 197.96 52.72C203.65 55.67 206.89 60.5 208.07 66.72C208.513 69.145 208.737 71.6049 208.74 74.07C208.82 86.22 208.74 98.36 208.82 110.51C208.855 112.216 209.016 113.917 209.3 115.6C209.513 116.956 210.011 118.251 210.761 119.401C211.511 120.551 212.495 121.528 213.65 122.27C214.47 122.83 215.32 123.33 216.1 123.94C216.332 124.22 216.446 124.578 216.42 124.94C216.42 125.04 215.96 125.18 215.7 125.26C215.548 125.285 215.392 125.285 215.24 125.26C201.453 125.26 187.66 125.26 173.86 125.26C173.427 125.187 173.009 125.045 172.62 124.84L173.37 123.7C173.396 123.671 173.426 123.648 173.46 123.63C178.56 120.98 180.46 116.54 180.54 111.06C180.67 99.41 180.85 87.75 180.92 76.06C180.926 74.3146 180.683 72.5772 180.2 70.9C178 63.37 169.9 61.26 164.2 66.66C163.93 66.91 163.66 67.18 163.39 67.46C162.557 68.2392 161.901 69.1875 161.464 70.2413C161.028 71.2951 160.822 72.43 160.86 73.57C161.04 84.65 160.86 95.74 160.96 106.82C160.96 109.43 161.15 112.06 161.39 114.65C161.509 116.134 161.957 117.573 162.703 118.862C163.448 120.151 164.472 121.257 165.7 122.1C166.47 122.65 167.3 123.1 168.03 123.73C168.359 124.093 168.635 124.5 168.85 124.94L168.58 125.24H167.35C153.67 125.24 140.003 125.24 126.35 125.24C125.898 125.187 125.454 125.076 125.03 124.91C125.267 124.447 125.559 124.013 125.9 123.62C126.495 123.148 127.123 122.72 127.78 122.34C129.252 121.381 130.467 120.077 131.321 118.542C132.175 117.007 132.642 115.286 132.68 113.53C132.934 109.25 133.08 104.963 133.12 100.67C133.21 92.67 133.12 84.58 133.2 76.53C133.267 74.1403 132.859 71.7611 132 69.53C129.56 63.65 122.87 61.8 117.89 65.78C116.302 67.233 114.856 68.8335 113.57 70.56C113.314 70.9766 113.192 71.4618 113.22 71.95C113.22 85.01 113.247 98.0667 113.3 111.12C113.344 112.409 113.457 113.694 113.64 114.97C114.12 118.97 116.64 121.56 119.94 123.53C120.53 123.88 121.18 124.21 120.77 125.19H77.3701C77.2951 125.063 77.249 124.922 77.235 124.775C77.221 124.629 77.2395 124.481 77.2892 124.343C77.3389 124.204 77.4185 124.078 77.5224 123.974C77.6262 123.87 77.7518 123.79 77.8901 123.74C78.4201 123.45 78.8902 123.07 79.4202 122.74C83.4202 120.39 84.6902 116.64 84.8002 112.32C84.9102 108.19 84.9502 104.05 84.9502 99.91C84.9502 90.5767 84.9002 81.2433 84.8002 71.91C84.7447 70.2038 84.5743 68.5033 84.2902 66.82C83.7887 63.5952 82.0799 60.6817 79.5101 58.67C78.9597 58.2604 78.4415 57.809 77.9602 57.32C77.7134 56.9342 77.5278 56.5126 77.4102 56.07C77.758 55.9051 78.1238 55.7809 78.5001 55.7C83.7001 55.08 88.9501 54.7 94.1001 53.82C99.8401 52.82 105.5 51.29 111.19 50C111.63 49.9 112.06 49.77 112.76 49.59" fill="white"></path> <path d="M48.4699 76.47C48.5154 75.6073 48.5154 74.7428 48.4699 73.88C48.1899 71.28 47.9699 68.67 47.4699 66.11C47.0057 62.9431 45.7581 59.9424 43.84 57.38C41.02 53.84 36.27 53.03 32.91 55.54C31.301 56.8264 30.0736 58.5275 29.3599 60.46C27.2899 65.46 26.7699 70.72 26.4699 76.03C26.4965 76.1823 26.5436 76.3304 26.6099 76.47H48.4699ZM73.55 80.58H27.8699C26.2499 80.58 26.27 80.58 26.28 82.2C26.1929 86.9277 27.1847 91.6131 29.18 95.9C32.6 102.8 38.4 106.51 45.76 107.9C50.8393 109.018 56.1281 108.721 61.05 107.04C65.7165 105.406 69.6876 102.232 72.31 98.04C72.47 97.78 72.65 97.54 73.06 96.96C73.31 97.59 73.6799 98.03 73.6099 98.38C71.7799 106.55 68.48 113.94 61.92 119.49C56.957 123.594 50.8342 126.041 44.41 126.49C35.71 127.28 27.34 126.09 19.56 121.93C10 116.81 4.21 108.78 1.8 98.31C-0.0464506 90.6306 0.146534 82.6018 2.35993 75.02C5.42993 64.62 12.01 57.19 22.07 53.12C32.4778 48.711 44.1656 48.3896 54.8 52.22C60.4588 54.1969 65.3378 57.9304 68.7252 62.8756C72.1126 67.8209 73.831 73.7192 73.63 79.71C73.63 79.94 73.63 80.16 73.55 80.56" fill="white"></path> <path d="M254.03 49.59V51.23C254.03 69.5166 254.03 87.81 254.03 106.11C254.03 108.83 254.18 111.57 254.4 114.29C254.482 115.909 254.948 117.486 255.76 118.889C256.572 120.293 257.707 121.482 259.07 122.36C259.767 122.768 260.435 123.223 261.07 123.72C261.461 124.161 261.797 124.648 262.07 125.17H217.76C218.18 124.53 218.42 124.1 218.76 123.72C218.954 123.537 219.177 123.389 219.42 123.28C223.79 120.93 225.66 117.1 225.68 112.28C225.72 98.74 225.72 85.1933 225.68 71.64C225.619 69.7828 225.388 67.9351 224.99 66.12C224.534 63.7087 223.284 61.5193 221.44 59.9C220.54 59.09 219.59 58.33 218.73 57.47C218.587 57.3102 218.477 57.1237 218.407 56.9211C218.337 56.7186 218.307 56.504 218.32 56.29C218.32 56.09 218.93 55.83 219.32 55.81C227.954 55.1752 236.527 53.8747 244.96 51.92C247.55 51.31 250.1 50.59 252.68 49.92L254.12 49.56" fill="white"></path> <path d="M257.53 19.89C257.528 23.8234 256.36 27.668 254.173 30.9376C251.986 34.2071 248.879 36.7549 245.245 38.2588C241.61 39.7627 237.611 40.1552 233.754 39.3866C229.896 38.618 226.353 36.7229 223.572 33.9408C220.791 31.1587 218.898 27.6147 218.131 23.7567C217.365 19.8986 217.759 15.9 219.265 12.2661C220.771 8.63227 223.32 5.52647 226.591 3.34137C229.861 1.15627 233.707 -0.0100093 237.64 -0.0100098C242.915 -0.0100098 247.974 2.08554 251.704 5.81564C255.434 9.54574 257.53 14.6048 257.53 19.88" fill="#F2DDDE"></path> </g> <defs> <clipPath id="clip0"> <rect width="262" height="127" fill="white"></rect> </clipPath> </defs> </svg> 