<?xml version="1.0" encoding="UTF-8"?> <svg xmlns="http://www.w3.org/2000/svg" width="777" height="255" viewBox="0 0 777 255" fill="none"> <path d="M776.766 -259.983L727.44 -233.809C678.353 -206.496 548.485 -87.9791 456.5 -4.00002C331 125.5 135.5 111 46.5 92.5C-42.5001 74 -85.3706 77.207 -197 68C-308.63 58.793 -352.634 106.096 -451.467 157.588C-550.06 210.22 -655.082 232.36 -707.592 243.43L-760.103 254.5L-837.001 -110.265L-784.49 -121.335C-731.979 -132.405 -626.958 -154.545 -521.937 -176.685C-416.916 -198.825 -311.895 -220.965 -206.873 -243.105C-101.852 -265.245 3.16888 -287.385 108.19 -309.525C213.211 -331.665 318.232 -353.805 423.254 -375.945C528.275 -398.085 633.296 -420.226 685.807 -431.296L738.317 -442.366L776.766 -259.983Z" fill="#F2DDDE"></path> </svg> 